# STW_SIDEARM_01 - original fictional STW first-person presentation asset
# Axis: +X right, +Y aim/forward, +Z up. Runtime binds the Atom material.
o STW_SIDEARM_01
g compact_frame
v -0.070000 -0.220000 -0.060000
v 0.070000 -0.220000 -0.060000
v 0.070000 0.180000 -0.060000
v -0.070000 0.180000 -0.060000
v -0.070000 -0.220000 0.060000
v 0.070000 -0.220000 0.060000
v 0.070000 0.180000 0.060000
v -0.070000 0.180000 0.060000
f 1 2 3 4
f 5 8 7 6
f 1 5 6 2
f 2 6 7 3
f 3 7 8 4
f 4 8 5 1
g grip
v -0.080000 -0.180000 -0.180000
v 0.080000 -0.180000 -0.180000
v 0.080000 -0.020000 -0.180000
v -0.080000 -0.020000 -0.180000
v -0.080000 -0.180000 -0.040000
v 0.080000 -0.180000 -0.040000
v 0.080000 -0.020000 -0.040000
v -0.080000 -0.020000 -0.040000
f 9 10 11 12
f 13 16 15 14
f 9 13 14 10
f 10 14 15 11
f 11 15 16 12
f 12 16 13 9
