# STW_SIDEARM_01 - original fictional STW first-person weapon presentation asset
# Generated deterministically by tools/assets/create_stw_weapons.py
# Axis convention: +X right, +Y aim/forward, +Z up
# LOD node: LOD2
# parts: slide, frame, grip
# No mtllib / usemtl is emitted: the runtime binds one Atom StandardPBR material.
o STW_SIDEARM_01
v -0.022000 0.140000 -0.026000
v 0.022000 0.140000 -0.026000
v 0.022000 0.140000 0.026000
v -0.022000 0.140000 0.026000
v 0.022000 -0.020000 -0.026000
v -0.022000 -0.020000 -0.026000
v -0.022000 -0.020000 0.026000
v 0.022000 -0.020000 0.026000
v -0.024000 0.080000 -0.030000
v 0.024000 0.080000 -0.030000
v 0.024000 0.080000 0.030000
v -0.024000 0.080000 0.030000
v 0.024000 -0.060000 -0.030000
v -0.024000 -0.060000 -0.030000
v -0.024000 -0.060000 0.030000
v 0.024000 -0.060000 0.030000
v -0.022000 -0.020000 -0.104000
v 0.022000 -0.020000 -0.104000
v 0.022000 -0.020000 -0.008000
v -0.022000 -0.020000 -0.008000
v 0.022000 -0.140000 -0.118000
v -0.022000 -0.140000 -0.118000
v -0.022000 -0.140000 -0.022000
v 0.022000 -0.140000 -0.022000
vt -0.022000 -0.026000
vt 0.022000 -0.026000
vt 0.022000 0.026000
vt -0.022000 0.026000
vt 0.022000 -0.026000
vt -0.022000 -0.026000
vt -0.022000 0.026000
vt 0.022000 0.026000
vt -0.022000 -0.020000
vt 0.022000 -0.020000
vt 0.022000 0.140000
vt -0.022000 0.140000
vt -0.022000 -0.020000
vt -0.022000 0.140000
vt 0.022000 0.140000
vt 0.022000 -0.020000
vt -0.020000 -0.026000
vt -0.020000 0.026000
vt 0.140000 0.026000
vt 0.140000 -0.026000
vt -0.020000 -0.026000
vt 0.140000 -0.026000
vt 0.140000 0.026000
vt -0.020000 0.026000
vt -0.024000 -0.030000
vt 0.024000 -0.030000
vt 0.024000 0.030000
vt -0.024000 0.030000
vt 0.024000 -0.030000
vt -0.024000 -0.030000
vt -0.024000 0.030000
vt 0.024000 0.030000
vt -0.024000 -0.060000
vt 0.024000 -0.060000
vt 0.024000 0.080000
vt -0.024000 0.080000
vt -0.024000 -0.060000
vt -0.024000 0.080000
vt 0.024000 0.080000
vt 0.024000 -0.060000
vt -0.060000 -0.030000
vt -0.060000 0.030000
vt 0.080000 0.030000
vt 0.080000 -0.030000
vt -0.060000 -0.030000
vt 0.080000 -0.030000
vt 0.080000 0.030000
vt -0.060000 0.030000
vt -0.022000 -0.104000
vt 0.022000 -0.104000
vt 0.022000 -0.008000
vt -0.022000 -0.008000
vt 0.022000 -0.118000
vt -0.022000 -0.118000
vt -0.022000 -0.022000
vt 0.022000 -0.022000
vt -0.022000 -0.140000
vt 0.022000 -0.140000
vt 0.022000 -0.020000
vt -0.022000 -0.020000
vt -0.022000 -0.140000
vt -0.022000 -0.020000
vt 0.022000 -0.020000
vt 0.022000 -0.140000
vt -0.140000 -0.118000
vt -0.140000 -0.022000
vt -0.020000 -0.008000
vt -0.020000 -0.104000
vt -0.140000 -0.118000
vt -0.020000 -0.104000
vt -0.020000 -0.008000
vt -0.140000 -0.022000
vn 0.000000 -1.000000 0.000000
vn 0.000000 1.000000 0.000000
vn 0.000000 0.000000 1.000000
vn 0.000000 0.000000 -1.000000
vn -1.000000 0.000000 0.000000
vn 1.000000 0.000000 0.000000
vn 0.000000 -0.115881 0.993263
vn 0.000000 0.115881 -0.993263
g LOD2
f 1/1/1 2/2/1 3/3/1 4/4/1
f 5/5/2 6/6/2 7/7/2 8/8/2
f 6/9/3 5/10/3 2/11/3 1/12/3
f 7/13/4 4/14/4 3/15/4 8/16/4
f 5/17/5 8/18/5 3/19/5 2/20/5
f 6/21/6 1/22/6 4/23/6 7/24/6
f 9/25/1 10/26/1 11/27/1 12/28/1
f 13/29/2 14/30/2 15/31/2 16/32/2
f 14/33/3 13/34/3 10/35/3 9/36/3
f 15/37/4 12/38/4 11/39/4 16/40/4
f 13/41/5 16/42/5 11/43/5 10/44/5
f 14/45/6 9/46/6 12/47/6 15/48/6
f 17/49/1 18/50/1 19/51/1 20/52/1
f 21/53/2 22/54/2 23/55/2 24/56/2
f 22/57/7 21/58/7 18/59/7 17/60/7
f 23/61/8 20/62/8 19/63/8 24/64/8
f 21/65/5 24/66/5 19/67/5 18/68/5
f 22/69/6 17/70/6 20/71/6 23/72/6
