# STW_SIDEARM_01 - original fictional STW first-person weapon presentation asset
# Generated deterministically by tools/assets/create_stw_weapons.py
# Axis convention: +X right, +Y aim/forward, +Z up
# LOD node: LOD1
# parts: slide, frame, grip, guard, muzzle, sight, cell
# No mtllib / usemtl is emitted: the runtime binds one Atom StandardPBR material.
o STW_SIDEARM_01
v -0.022000 0.140000 -0.026000
v 0.022000 0.140000 -0.026000
v 0.022000 0.140000 0.026000
v -0.022000 0.140000 0.026000
v 0.022000 -0.020000 -0.026000
v -0.022000 -0.020000 -0.026000
v -0.022000 -0.020000 0.026000
v 0.022000 -0.020000 0.026000
v -0.024000 0.080000 -0.030000
v 0.024000 0.080000 -0.030000
v 0.024000 0.080000 0.030000
v -0.024000 0.080000 0.030000
v 0.024000 -0.060000 -0.030000
v -0.024000 -0.060000 -0.030000
v -0.024000 -0.060000 0.030000
v 0.024000 -0.060000 0.030000
v -0.022000 -0.020000 -0.104000
v 0.022000 -0.020000 -0.104000
v 0.022000 -0.020000 -0.008000
v -0.022000 -0.020000 -0.008000
v 0.022000 -0.140000 -0.118000
v -0.022000 -0.140000 -0.118000
v -0.022000 -0.140000 -0.022000
v 0.022000 -0.140000 -0.022000
v -0.018000 0.040000 -0.056000
v 0.018000 0.040000 -0.056000
v 0.018000 0.040000 -0.040000
v -0.018000 0.040000 -0.040000
v 0.018000 -0.040000 -0.056000
v -0.018000 -0.040000 -0.056000
v -0.018000 -0.040000 -0.040000
v 0.018000 -0.040000 -0.040000
v -0.016000 0.190000 -0.018000
v 0.016000 0.190000 -0.018000
v 0.016000 0.190000 0.018000
v -0.016000 0.190000 0.018000
v 0.016000 0.140000 -0.018000
v -0.016000 0.140000 -0.018000
v -0.016000 0.140000 0.018000
v 0.016000 0.140000 0.018000
v -0.008000 0.040000 0.030000
v 0.008000 0.040000 0.030000
v 0.008000 0.040000 0.050000
v -0.008000 0.040000 0.050000
v 0.008000 0.000000 0.030000
v -0.008000 0.000000 0.030000
v -0.008000 0.000000 0.050000
v 0.008000 0.000000 0.050000
v -0.016000 0.050000 -0.054000
v 0.016000 0.050000 -0.054000
v 0.016000 0.050000 -0.030000
v -0.016000 0.050000 -0.030000
v 0.016000 -0.020000 -0.058000
v -0.016000 -0.020000 -0.058000
v -0.016000 -0.020000 -0.034000
v 0.016000 -0.020000 -0.034000
vt -0.022000 -0.026000
vt 0.022000 -0.026000
vt 0.022000 0.026000
vt -0.022000 0.026000
vt 0.022000 -0.026000
vt -0.022000 -0.026000
vt -0.022000 0.026000
vt 0.022000 0.026000
vt -0.022000 -0.020000
vt 0.022000 -0.020000
vt 0.022000 0.140000
vt -0.022000 0.140000
vt -0.022000 -0.020000
vt -0.022000 0.140000
vt 0.022000 0.140000
vt 0.022000 -0.020000
vt -0.020000 -0.026000
vt -0.020000 0.026000
vt 0.140000 0.026000
vt 0.140000 -0.026000
vt -0.020000 -0.026000
vt 0.140000 -0.026000
vt 0.140000 0.026000
vt -0.020000 0.026000
vt -0.024000 -0.030000
vt 0.024000 -0.030000
vt 0.024000 0.030000
vt -0.024000 0.030000
vt 0.024000 -0.030000
vt -0.024000 -0.030000
vt -0.024000 0.030000
vt 0.024000 0.030000
vt -0.024000 -0.060000
vt 0.024000 -0.060000
vt 0.024000 0.080000
vt -0.024000 0.080000
vt -0.024000 -0.060000
vt -0.024000 0.080000
vt 0.024000 0.080000
vt 0.024000 -0.060000
vt -0.060000 -0.030000
vt -0.060000 0.030000
vt 0.080000 0.030000
vt 0.080000 -0.030000
vt -0.060000 -0.030000
vt 0.080000 -0.030000
vt 0.080000 0.030000
vt -0.060000 0.030000
vt -0.022000 -0.104000
vt 0.022000 -0.104000
vt 0.022000 -0.008000
vt -0.022000 -0.008000
vt 0.022000 -0.118000
vt -0.022000 -0.118000
vt -0.022000 -0.022000
vt 0.022000 -0.022000
vt -0.022000 -0.140000
vt 0.022000 -0.140000
vt 0.022000 -0.020000
vt -0.022000 -0.020000
vt -0.022000 -0.140000
vt -0.022000 -0.020000
vt 0.022000 -0.020000
vt 0.022000 -0.140000
vt -0.140000 -0.118000
vt -0.140000 -0.022000
vt -0.020000 -0.008000
vt -0.020000 -0.104000
vt -0.140000 -0.118000
vt -0.020000 -0.104000
vt -0.020000 -0.008000
vt -0.140000 -0.022000
vt -0.018000 -0.056000
vt 0.018000 -0.056000
vt 0.018000 -0.040000
vt -0.018000 -0.040000
vt 0.018000 -0.056000
vt -0.018000 -0.056000
vt -0.018000 -0.040000
vt 0.018000 -0.040000
vt -0.018000 -0.040000
vt 0.018000 -0.040000
vt 0.018000 0.040000
vt -0.018000 0.040000
vt -0.018000 -0.040000
vt -0.018000 0.040000
vt 0.018000 0.040000
vt 0.018000 -0.040000
vt -0.040000 -0.056000
vt -0.040000 -0.040000
vt 0.040000 -0.040000
vt 0.040000 -0.056000
vt -0.040000 -0.056000
vt 0.040000 -0.056000
vt 0.040000 -0.040000
vt -0.040000 -0.040000
vt -0.016000 -0.018000
vt 0.016000 -0.018000
vt 0.016000 0.018000
vt -0.016000 0.018000
vt 0.016000 -0.018000
vt -0.016000 -0.018000
vt -0.016000 0.018000
vt 0.016000 0.018000
vt -0.016000 0.140000
vt 0.016000 0.140000
vt 0.016000 0.190000
vt -0.016000 0.190000
vt -0.016000 0.140000
vt -0.016000 0.190000
vt 0.016000 0.190000
vt 0.016000 0.140000
vt 0.140000 -0.018000
vt 0.140000 0.018000
vt 0.190000 0.018000
vt 0.190000 -0.018000
vt 0.140000 -0.018000
vt 0.190000 -0.018000
vt 0.190000 0.018000
vt 0.140000 0.018000
vt -0.008000 0.030000
vt 0.008000 0.030000
vt 0.008000 0.050000
vt -0.008000 0.050000
vt 0.008000 0.030000
vt -0.008000 0.030000
vt -0.008000 0.050000
vt 0.008000 0.050000
vt -0.008000 0.000000
vt 0.008000 0.000000
vt 0.008000 0.040000
vt -0.008000 0.040000
vt -0.008000 0.000000
vt -0.008000 0.040000
vt 0.008000 0.040000
vt 0.008000 0.000000
vt 0.000000 0.030000
vt 0.000000 0.050000
vt 0.040000 0.050000
vt 0.040000 0.030000
vt 0.000000 0.030000
vt 0.040000 0.030000
vt 0.040000 0.050000
vt 0.000000 0.050000
vt -0.016000 -0.054000
vt 0.016000 -0.054000
vt 0.016000 -0.030000
vt -0.016000 -0.030000
vt 0.016000 -0.058000
vt -0.016000 -0.058000
vt -0.016000 -0.034000
vt 0.016000 -0.034000
vt -0.016000 -0.020000
vt 0.016000 -0.020000
vt 0.016000 0.050000
vt -0.016000 0.050000
vt -0.016000 -0.020000
vt -0.016000 0.050000
vt 0.016000 0.050000
vt 0.016000 -0.020000
vt -0.020000 -0.058000
vt -0.020000 -0.034000
vt 0.050000 -0.030000
vt 0.050000 -0.054000
vt -0.020000 -0.058000
vt 0.050000 -0.054000
vt 0.050000 -0.030000
vt -0.020000 -0.034000
vn 0.000000 -1.000000 0.000000
vn 0.000000 1.000000 0.000000
vn 0.000000 0.000000 1.000000
vn 0.000000 0.000000 -1.000000
vn -1.000000 0.000000 0.000000
vn 1.000000 0.000000 0.000000
vn 0.000000 -0.115881 0.993263
vn 0.000000 0.115881 -0.993263
vn 0.000000 -0.057050 0.998371
vn 0.000000 0.057050 -0.998371
g LOD1
f 1/1/1 2/2/1 3/3/1 4/4/1
f 5/5/2 6/6/2 7/7/2 8/8/2
f 6/9/3 5/10/3 2/11/3 1/12/3
f 7/13/4 4/14/4 3/15/4 8/16/4
f 5/17/5 8/18/5 3/19/5 2/20/5
f 6/21/6 1/22/6 4/23/6 7/24/6
f 9/25/1 10/26/1 11/27/1 12/28/1
f 13/29/2 14/30/2 15/31/2 16/32/2
f 14/33/3 13/34/3 10/35/3 9/36/3
f 15/37/4 12/38/4 11/39/4 16/40/4
f 13/41/5 16/42/5 11/43/5 10/44/5
f 14/45/6 9/46/6 12/47/6 15/48/6
f 17/49/1 18/50/1 19/51/1 20/52/1
f 21/53/2 22/54/2 23/55/2 24/56/2
f 22/57/7 21/58/7 18/59/7 17/60/7
f 23/61/8 20/62/8 19/63/8 24/64/8
f 21/65/5 24/66/5 19/67/5 18/68/5
f 22/69/6 17/70/6 20/71/6 23/72/6
f 25/73/1 26/74/1 27/75/1 28/76/1
f 29/77/2 30/78/2 31/79/2 32/80/2
f 30/81/3 29/82/3 26/83/3 25/84/3
f 31/85/4 28/86/4 27/87/4 32/88/4
f 29/89/5 32/90/5 27/91/5 26/92/5
f 30/93/6 25/94/6 28/95/6 31/96/6
f 33/97/1 34/98/1 35/99/1 36/100/1
f 37/101/2 38/102/2 39/103/2 40/104/2
f 38/105/3 37/106/3 34/107/3 33/108/3
f 39/109/4 36/110/4 35/111/4 40/112/4
f 37/113/5 40/114/5 35/115/5 34/116/5
f 38/117/6 33/118/6 36/119/6 39/120/6
f 41/121/1 42/122/1 43/123/1 44/124/1
f 45/125/2 46/126/2 47/127/2 48/128/2
f 46/129/3 45/130/3 42/131/3 41/132/3
f 47/133/4 44/134/4 43/135/4 48/136/4
f 45/137/5 48/138/5 43/139/5 42/140/5
f 46/141/6 41/142/6 44/143/6 47/144/6
f 49/145/1 50/146/1 51/147/1 52/148/1
f 53/149/2 54/150/2 55/151/2 56/152/2
f 54/153/9 53/154/9 50/155/9 49/156/9
f 55/157/10 52/158/10 51/159/10 56/160/10
f 53/161/5 56/162/5 51/163/5 50/164/5
f 54/165/6 49/166/6 52/167/6 55/168/6
