# STW_ARENA_COVERMOD_01 - original STW production arena kit geometry
# Generated deterministically by tools/assets/generate_stw_arena_kit.py
# Axis convention: raw Z-up, +Y forward, metres, unrotated. O3DE imports OBJ
# vertices as (-x, z, y) and the runtime applies the compensating rotation
# Matrix3x3::CreateFromColumns(-X, Z, Y) at bind time.
# UVs are world-planar, scaled to 1.00 m per tile.
# No mtllib / usemtl: the runtime binds one Atom StandardPBR material through
# the mesh feature processor's default custom material slot.
o STW_ARENA_COVERMOD_01
v -3.000000 -1.070000 0.000000
v -1.500000 -1.070000 0.000000
v -1.500000 -1.070000 0.220000
v -3.000000 -1.070000 0.220000
v -1.430000 -1.000000 0.000000
v -1.430000 -1.000000 0.220000
v -1.430000 1.000000 0.000000
v -1.430000 1.000000 0.220000
v -1.500000 1.070000 0.000000
v -1.500000 1.070000 0.220000
v -3.000000 1.070000 0.000000
v -3.000000 1.070000 0.220000
v -3.070000 1.000000 0.000000
v -3.070000 1.000000 0.220000
v -3.070000 -1.000000 0.000000
v -3.070000 -1.000000 0.220000
v -2.840000 -1.000000 0.220000
v -1.660000 -1.000000 0.220000
v -1.660000 -1.000000 2.280000
v -2.840000 -1.000000 2.280000
v -1.500000 -0.840000 0.220000
v -1.500000 -0.840000 2.280000
v -1.500000 0.840000 0.220000
v -1.500000 0.840000 2.280000
v -1.660000 1.000000 0.220000
v -1.660000 1.000000 2.280000
v -2.840000 1.000000 0.220000
v -2.840000 1.000000 2.280000
v -3.000000 0.840000 0.220000
v -3.000000 0.840000 2.280000
v -3.000000 -0.840000 0.220000
v -3.000000 -0.840000 2.280000
v -1.550000 -0.980000 0.290000
v -1.550000 -1.040000 0.290000
v -2.950000 -1.040000 0.290000
v -2.950000 -0.980000 0.290000
v -1.550000 -1.040000 0.810000
v -1.550000 -0.980000 0.810000
v -2.950000 -0.980000 0.810000
v -2.950000 -1.040000 0.810000
v -1.650000 -0.980000 0.910000
v -1.650000 -1.080000 0.910000
v -2.850000 -1.080000 0.910000
v -2.850000 -0.980000 0.910000
v -1.650000 -1.080000 1.430000
v -1.650000 -0.980000 1.430000
v -2.850000 -0.980000 1.430000
v -2.850000 -1.080000 1.430000
v -1.760000 -0.980000 1.530000
v -1.760000 -1.120000 1.530000
v -2.740000 -1.120000 1.530000
v -2.740000 -0.980000 1.530000
v -1.760000 -1.120000 2.050000
v -1.760000 -0.980000 2.050000
v -2.740000 -0.980000 2.050000
v -2.740000 -1.120000 2.050000
v -2.900000 0.790000 0.750000
v -2.900000 -0.790000 0.750000
v -3.000000 -0.790000 0.750000
v -3.000000 0.790000 0.750000
v -2.900000 -0.790000 1.850000
v -2.900000 0.790000 1.850000
v -3.000000 0.790000 1.850000
v -3.000000 -0.790000 1.850000
v -1.500000 0.790000 0.750000
v -1.500000 -0.790000 0.750000
v -1.600000 -0.790000 0.750000
v -1.600000 0.790000 0.750000
v -1.500000 -0.790000 1.850000
v -1.500000 0.790000 1.850000
v -1.600000 0.790000 1.850000
v -1.600000 -0.790000 1.850000
v -1.680000 1.000000 0.700000
v -1.680000 0.820000 0.700000
v -2.820000 0.820000 0.700000
v -2.820000 1.000000 0.700000
v -1.680000 0.820000 2.000000
v -1.680000 1.000000 2.000000
v -2.820000 1.000000 2.000000
v -2.820000 0.820000 2.000000
v -2.390000 1.100000 1.400000
v -2.390000 0.940000 1.400000
v -2.750000 0.940000 1.400000
v -2.750000 1.100000 1.400000
v -2.390000 0.940000 1.840000
v -2.390000 1.100000 1.840000
v -2.750000 1.100000 1.840000
v -2.750000 0.940000 1.840000
v -1.820000 1.090000 1.050000
v -1.820000 0.950000 1.050000
v -2.080000 0.950000 1.050000
v -2.080000 1.090000 1.050000
v -1.820000 0.950000 1.350000
v -1.820000 1.090000 1.350000
v -2.080000 1.090000 1.350000
v -2.080000 0.950000 1.350000
v -1.745000 1.060000 0.300000
v -1.767500 1.098971 0.300000
v -1.767500 1.098971 1.900000
v -1.745000 1.060000 1.900000
v -1.812500 1.098971 0.300000
v -1.812500 1.098971 1.900000
v -1.835000 1.060000 0.300000
v -1.835000 1.060000 1.900000
v -1.812500 1.021029 0.300000
v -1.812500 1.021029 1.900000
v -1.767500 1.021029 0.300000
v -1.767500 1.021029 1.900000
v -2.970000 -1.050000 2.340000
v -1.530000 -1.050000 2.340000
v -1.530000 -1.050000 2.500000
v -2.970000 -1.050000 2.500000
v -1.450000 -0.970000 2.340000
v -1.450000 -0.970000 2.500000
v -1.450000 0.970000 2.340000
v -1.450000 0.970000 2.500000
v -1.530000 1.050000 2.340000
v -1.530000 1.050000 2.500000
v -2.970000 1.050000 2.340000
v -2.970000 1.050000 2.500000
v -3.050000 0.970000 2.340000
v -3.050000 0.970000 2.500000
v -3.050000 -0.970000 2.340000
v -3.050000 -0.970000 2.500000
v -2.790000 -0.860000 2.500000
v -2.815000 -0.816699 2.500000
v -2.815000 -0.816699 2.526000
v -2.790000 -0.860000 2.526000
v -2.865000 -0.816699 2.500000
v -2.865000 -0.816699 2.526000
v -2.890000 -0.860000 2.500000
v -2.890000 -0.860000 2.526000
v -2.865000 -0.903301 2.500000
v -2.865000 -0.903301 2.526000
v -2.815000 -0.903301 2.500000
v -2.815000 -0.903301 2.526000
v -1.610000 -0.860000 2.500000
v -1.635000 -0.816699 2.500000
v -1.635000 -0.816699 2.526000
v -1.610000 -0.860000 2.526000
v -1.685000 -0.816699 2.500000
v -1.685000 -0.816699 2.526000
v -1.710000 -0.860000 2.500000
v -1.710000 -0.860000 2.526000
v -1.685000 -0.903301 2.500000
v -1.685000 -0.903301 2.526000
v -1.635000 -0.903301 2.500000
v -1.635000 -0.903301 2.526000
v 1.500000 -1.070000 0.000000
v 3.000000 -1.070000 0.000000
v 3.000000 -1.070000 0.220000
v 1.500000 -1.070000 0.220000
v 3.070000 -1.000000 0.000000
v 3.070000 -1.000000 0.220000
v 3.070000 1.000000 0.000000
v 3.070000 1.000000 0.220000
v 3.000000 1.070000 0.000000
v 3.000000 1.070000 0.220000
v 1.500000 1.070000 0.000000
v 1.500000 1.070000 0.220000
v 1.430000 1.000000 0.000000
v 1.430000 1.000000 0.220000
v 1.430000 -1.000000 0.000000
v 1.430000 -1.000000 0.220000
v 1.660000 -1.000000 0.220000
v 2.840000 -1.000000 0.220000
v 2.840000 -1.000000 2.280000
v 1.660000 -1.000000 2.280000
v 3.000000 -0.840000 0.220000
v 3.000000 -0.840000 2.280000
v 3.000000 0.840000 0.220000
v 3.000000 0.840000 2.280000
v 2.840000 1.000000 0.220000
v 2.840000 1.000000 2.280000
v 1.660000 1.000000 0.220000
v 1.660000 1.000000 2.280000
v 1.500000 0.840000 0.220000
v 1.500000 0.840000 2.280000
v 1.500000 -0.840000 0.220000
v 1.500000 -0.840000 2.280000
v 2.950000 -0.980000 0.290000
v 2.950000 -1.040000 0.290000
v 1.550000 -1.040000 0.290000
v 1.550000 -0.980000 0.290000
v 2.950000 -1.040000 0.810000
v 2.950000 -0.980000 0.810000
v 1.550000 -0.980000 0.810000
v 1.550000 -1.040000 0.810000
v 2.850000 -0.980000 0.910000
v 2.850000 -1.080000 0.910000
v 1.650000 -1.080000 0.910000
v 1.650000 -0.980000 0.910000
v 2.850000 -1.080000 1.430000
v 2.850000 -0.980000 1.430000
v 1.650000 -0.980000 1.430000
v 1.650000 -1.080000 1.430000
v 2.740000 -0.980000 1.530000
v 2.740000 -1.120000 1.530000
v 1.760000 -1.120000 1.530000
v 1.760000 -0.980000 1.530000
v 2.740000 -1.120000 2.050000
v 2.740000 -0.980000 2.050000
v 1.760000 -0.980000 2.050000
v 1.760000 -1.120000 2.050000
v 1.600000 0.790000 0.750000
v 1.600000 -0.790000 0.750000
v 1.500000 -0.790000 0.750000
v 1.500000 0.790000 0.750000
v 1.600000 -0.790000 1.850000
v 1.600000 0.790000 1.850000
v 1.500000 0.790000 1.850000
v 1.500000 -0.790000 1.850000
v 3.000000 0.790000 0.750000
v 3.000000 -0.790000 0.750000
v 2.900000 -0.790000 0.750000
v 2.900000 0.790000 0.750000
v 3.000000 -0.790000 1.850000
v 3.000000 0.790000 1.850000
v 2.900000 0.790000 1.850000
v 2.900000 -0.790000 1.850000
v 2.820000 1.000000 0.700000
v 2.820000 0.820000 0.700000
v 1.680000 0.820000 0.700000
v 1.680000 1.000000 0.700000
v 2.820000 0.820000 2.000000
v 2.820000 1.000000 2.000000
v 1.680000 1.000000 2.000000
v 1.680000 0.820000 2.000000
v 2.110000 1.100000 1.400000
v 2.110000 0.940000 1.400000
v 1.750000 0.940000 1.400000
v 1.750000 1.100000 1.400000
v 2.110000 0.940000 1.840000
v 2.110000 1.100000 1.840000
v 1.750000 1.100000 1.840000
v 1.750000 0.940000 1.840000
v 2.680000 1.090000 1.050000
v 2.680000 0.950000 1.050000
v 2.420000 0.950000 1.050000
v 2.420000 1.090000 1.050000
v 2.680000 0.950000 1.350000
v 2.680000 1.090000 1.350000
v 2.420000 1.090000 1.350000
v 2.420000 0.950000 1.350000
v 2.755000 1.060000 0.300000
v 2.732500 1.098971 0.300000
v 2.732500 1.098971 1.900000
v 2.755000 1.060000 1.900000
v 2.687500 1.098971 0.300000
v 2.687500 1.098971 1.900000
v 2.665000 1.060000 0.300000
v 2.665000 1.060000 1.900000
v 2.687500 1.021029 0.300000
v 2.687500 1.021029 1.900000
v 2.732500 1.021029 0.300000
v 2.732500 1.021029 1.900000
v 1.530000 -1.050000 2.340000
v 2.970000 -1.050000 2.340000
v 2.970000 -1.050000 2.500000
v 1.530000 -1.050000 2.500000
v 3.050000 -0.970000 2.340000
v 3.050000 -0.970000 2.500000
v 3.050000 0.970000 2.340000
v 3.050000 0.970000 2.500000
v 2.970000 1.050000 2.340000
v 2.970000 1.050000 2.500000
v 1.530000 1.050000 2.340000
v 1.530000 1.050000 2.500000
v 1.450000 0.970000 2.340000
v 1.450000 0.970000 2.500000
v 1.450000 -0.970000 2.340000
v 1.450000 -0.970000 2.500000
v 1.710000 -0.860000 2.500000
v 1.685000 -0.816699 2.500000
v 1.685000 -0.816699 2.526000
v 1.710000 -0.860000 2.526000
v 1.635000 -0.816699 2.500000
v 1.635000 -0.816699 2.526000
v 1.610000 -0.860000 2.500000
v 1.610000 -0.860000 2.526000
v 1.635000 -0.903301 2.500000
v 1.635000 -0.903301 2.526000
v 1.685000 -0.903301 2.500000
v 1.685000 -0.903301 2.526000
v 2.890000 -0.860000 2.500000
v 2.865000 -0.816699 2.500000
v 2.865000 -0.816699 2.526000
v 2.890000 -0.860000 2.526000
v 2.815000 -0.816699 2.500000
v 2.815000 -0.816699 2.526000
v 2.790000 -0.860000 2.500000
v 2.790000 -0.860000 2.526000
v 2.815000 -0.903301 2.500000
v 2.815000 -0.903301 2.526000
v 2.865000 -0.903301 2.500000
v 2.865000 -0.903301 2.526000
v 4.100000 -3.000000 0.000000
v 5.900000 -3.000000 0.000000
v 5.900000 -3.000000 0.250000
v 4.100000 -3.000000 0.250000
v 6.000000 -2.900000 0.000000
v 6.000000 -2.900000 0.250000
v 6.000000 -1.100000 0.000000
v 6.000000 -1.100000 0.250000
v 5.900000 -1.000000 0.000000
v 5.900000 -1.000000 0.250000
v 4.100000 -1.000000 0.000000
v 4.100000 -1.000000 0.250000
v 4.000000 -1.100000 0.000000
v 4.000000 -1.100000 0.250000
v 4.000000 -2.900000 0.000000
v 4.000000 -2.900000 0.250000
v 5.900000 -2.920000 0.025000
v 5.900000 -3.000000 0.025000
v 4.100000 -3.000000 0.025000
v 4.100000 -2.920000 0.025000
v 5.900000 -3.000000 0.225000
v 5.900000 -2.920000 0.225000
v 4.100000 -2.920000 0.225000
v 4.100000 -3.000000 0.225000
vt -3.000000 0.000000
vt -1.500000 0.000000
vt -1.500000 0.220000
vt -3.000000 0.220000
vt -1.430000 0.000000
vt -1.430000 0.220000
vt -1.000000 0.000000
vt 1.000000 0.000000
vt 1.000000 0.220000
vt -1.000000 0.220000
vt 1.070000 0.000000
vt 1.070000 0.220000
vt -1.070000 0.000000
vt -1.070000 0.220000
vt -3.000000 -1.070000
vt -1.500000 -1.070000
vt -1.430000 -1.000000
vt -1.430000 1.000000
vt -1.500000 1.070000
vt -3.000000 1.070000
vt -3.070000 1.000000
vt -3.070000 -1.000000
vt -2.840000 0.220000
vt -1.660000 0.220000
vt -1.660000 2.280000
vt -2.840000 2.280000
vt -0.840000 0.220000
vt -0.840000 2.280000
vt -1.000000 2.280000
vt 0.840000 0.220000
vt 0.840000 2.280000
vt 1.000000 2.280000
vt -2.840000 -1.000000
vt -1.660000 -1.000000
vt -1.500000 -0.840000
vt -1.500000 0.840000
vt -1.660000 1.000000
vt -2.840000 1.000000
vt -3.000000 0.840000
vt -3.000000 -0.840000
vt -1.550000 -0.980000
vt -1.550000 -1.040000
vt -2.950000 -1.040000
vt -2.950000 -0.980000
vt -1.550000 0.290000
vt -1.550000 0.810000
vt -2.950000 0.810000
vt -2.950000 0.290000
vt -1.040000 0.290000
vt -1.040000 0.810000
vt -0.980000 0.810000
vt -0.980000 0.290000
vt -1.650000 -0.980000
vt -1.650000 -1.080000
vt -2.850000 -1.080000
vt -2.850000 -0.980000
vt -1.650000 0.910000
vt -1.650000 1.430000
vt -2.850000 1.430000
vt -2.850000 0.910000
vt -1.080000 0.910000
vt -1.080000 1.430000
vt -0.980000 1.430000
vt -0.980000 0.910000
vt -1.760000 -0.980000
vt -1.760000 -1.120000
vt -2.740000 -1.120000
vt -2.740000 -0.980000
vt -1.760000 1.530000
vt -1.760000 2.050000
vt -2.740000 2.050000
vt -2.740000 1.530000
vt -1.120000 1.530000
vt -1.120000 2.050000
vt -0.980000 2.050000
vt -0.980000 1.530000
vt -2.900000 0.790000
vt -2.900000 -0.790000
vt -3.000000 -0.790000
vt -3.000000 0.790000
vt -2.900000 0.750000
vt -2.900000 1.850000
vt -3.000000 1.850000
vt -3.000000 0.750000
vt -0.790000 0.750000
vt -0.790000 1.850000
vt 0.790000 1.850000
vt 0.790000 0.750000
vt -1.500000 0.790000
vt -1.500000 -0.790000
vt -1.600000 -0.790000
vt -1.600000 0.790000
vt -1.500000 0.750000
vt -1.500000 1.850000
vt -1.600000 1.850000
vt -1.600000 0.750000
vt -1.680000 1.000000
vt -1.680000 0.820000
vt -2.820000 0.820000
vt -2.820000 1.000000
vt -1.680000 0.700000
vt -1.680000 2.000000
vt -2.820000 2.000000
vt -2.820000 0.700000
vt 0.820000 0.700000
vt 0.820000 2.000000
vt 1.000000 2.000000
vt 1.000000 0.700000
vt -2.390000 1.100000
vt -2.390000 0.940000
vt -2.750000 0.940000
vt -2.750000 1.100000
vt -2.390000 1.400000
vt -2.390000 1.840000
vt -2.750000 1.840000
vt -2.750000 1.400000
vt 0.940000 1.400000
vt 0.940000 1.840000
vt 1.100000 1.840000
vt 1.100000 1.400000
vt -1.820000 1.090000
vt -1.820000 0.950000
vt -2.080000 0.950000
vt -2.080000 1.090000
vt -1.820000 1.050000
vt -1.820000 1.350000
vt -2.080000 1.350000
vt -2.080000 1.050000
vt 0.950000 1.050000
vt 0.950000 1.350000
vt 1.090000 1.350000
vt 1.090000 1.050000
vt 1.060000 0.300000
vt 1.098971 0.300000
vt 1.098971 1.900000
vt 1.060000 1.900000
vt -1.767500 0.300000
vt -1.812500 0.300000
vt -1.812500 1.900000
vt -1.767500 1.900000
vt 1.021029 0.300000
vt 1.021029 1.900000
vt -2.970000 2.340000
vt -1.530000 2.340000
vt -1.530000 2.500000
vt -2.970000 2.500000
vt -1.050000 2.340000
vt -0.970000 2.340000
vt -0.970000 2.500000
vt -1.050000 2.500000
vt 0.970000 2.340000
vt 0.970000 2.500000
vt 1.050000 2.340000
vt 1.050000 2.500000
vt -2.970000 -1.050000
vt -1.530000 -1.050000
vt -1.450000 -0.970000
vt -1.450000 0.970000
vt -1.530000 1.050000
vt -2.970000 1.050000
vt -3.050000 0.970000
vt -3.050000 -0.970000
vt -0.860000 2.500000
vt -0.816699 2.500000
vt -0.816699 2.526000
vt -0.860000 2.526000
vt -2.815000 2.500000
vt -2.865000 2.500000
vt -2.865000 2.526000
vt -2.815000 2.526000
vt -0.903301 2.500000
vt -0.903301 2.526000
vt -2.790000 -0.860000
vt -2.815000 -0.816699
vt -2.865000 -0.816699
vt -2.890000 -0.860000
vt -2.865000 -0.903301
vt -2.815000 -0.903301
vt -1.635000 2.500000
vt -1.685000 2.500000
vt -1.685000 2.526000
vt -1.635000 2.526000
vt -1.610000 -0.860000
vt -1.635000 -0.816699
vt -1.685000 -0.816699
vt -1.710000 -0.860000
vt -1.685000 -0.903301
vt -1.635000 -0.903301
vt 1.500000 0.000000
vt 3.000000 0.000000
vt 3.000000 0.220000
vt 1.500000 0.220000
vt 1.430000 0.000000
vt 1.430000 0.220000
vt 1.500000 -1.070000
vt 3.000000 -1.070000
vt 3.070000 -1.000000
vt 3.070000 1.000000
vt 3.000000 1.070000
vt 1.500000 1.070000
vt 1.430000 1.000000
vt 1.430000 -1.000000
vt 1.660000 0.220000
vt 2.840000 0.220000
vt 2.840000 2.280000
vt 1.660000 2.280000
vt 1.660000 -1.000000
vt 2.840000 -1.000000
vt 3.000000 -0.840000
vt 3.000000 0.840000
vt 2.840000 1.000000
vt 1.660000 1.000000
vt 1.500000 0.840000
vt 1.500000 -0.840000
vt 2.950000 -0.980000
vt 2.950000 -1.040000
vt 1.550000 -1.040000
vt 1.550000 -0.980000
vt 2.950000 0.290000
vt 2.950000 0.810000
vt 1.550000 0.810000
vt 1.550000 0.290000
vt 2.850000 -0.980000
vt 2.850000 -1.080000
vt 1.650000 -1.080000
vt 1.650000 -0.980000
vt 2.850000 0.910000
vt 2.850000 1.430000
vt 1.650000 1.430000
vt 1.650000 0.910000
vt 2.740000 -0.980000
vt 2.740000 -1.120000
vt 1.760000 -1.120000
vt 1.760000 -0.980000
vt 2.740000 1.530000
vt 2.740000 2.050000
vt 1.760000 2.050000
vt 1.760000 1.530000
vt 1.600000 0.790000
vt 1.600000 -0.790000
vt 1.500000 -0.790000
vt 1.500000 0.790000
vt 1.600000 0.750000
vt 1.600000 1.850000
vt 1.500000 1.850000
vt 1.500000 0.750000
vt 3.000000 0.790000
vt 3.000000 -0.790000
vt 2.900000 -0.790000
vt 2.900000 0.790000
vt 3.000000 0.750000
vt 3.000000 1.850000
vt 2.900000 1.850000
vt 2.900000 0.750000
vt 2.820000 1.000000
vt 2.820000 0.820000
vt 1.680000 0.820000
vt 1.680000 1.000000
vt 2.820000 0.700000
vt 2.820000 2.000000
vt 1.680000 2.000000
vt 1.680000 0.700000
vt 2.110000 1.100000
vt 2.110000 0.940000
vt 1.750000 0.940000
vt 1.750000 1.100000
vt 2.110000 1.400000
vt 2.110000 1.840000
vt 1.750000 1.840000
vt 1.750000 1.400000
vt 2.680000 1.090000
vt 2.680000 0.950000
vt 2.420000 0.950000
vt 2.420000 1.090000
vt 2.680000 1.050000
vt 2.680000 1.350000
vt 2.420000 1.350000
vt 2.420000 1.050000
vt 2.732500 0.300000
vt 2.687500 0.300000
vt 2.687500 1.900000
vt 2.732500 1.900000
vt 1.530000 2.340000
vt 2.970000 2.340000
vt 2.970000 2.500000
vt 1.530000 2.500000
vt 1.530000 -1.050000
vt 2.970000 -1.050000
vt 3.050000 -0.970000
vt 3.050000 0.970000
vt 2.970000 1.050000
vt 1.530000 1.050000
vt 1.450000 0.970000
vt 1.450000 -0.970000
vt 1.685000 2.500000
vt 1.635000 2.500000
vt 1.635000 2.526000
vt 1.685000 2.526000
vt 1.710000 -0.860000
vt 1.685000 -0.816699
vt 1.635000 -0.816699
vt 1.610000 -0.860000
vt 1.635000 -0.903301
vt 1.685000 -0.903301
vt 2.865000 2.500000
vt 2.815000 2.500000
vt 2.815000 2.526000
vt 2.865000 2.526000
vt 2.890000 -0.860000
vt 2.865000 -0.816699
vt 2.815000 -0.816699
vt 2.790000 -0.860000
vt 2.815000 -0.903301
vt 2.865000 -0.903301
vt 4.100000 0.000000
vt 5.900000 0.000000
vt 5.900000 0.250000
vt 4.100000 0.250000
vt -2.900000 0.000000
vt -2.900000 0.250000
vt -3.000000 0.250000
vt -1.100000 0.000000
vt -1.100000 0.250000
vt -1.000000 0.250000
vt 4.100000 -3.000000
vt 5.900000 -3.000000
vt 6.000000 -2.900000
vt 6.000000 -1.100000
vt 5.900000 -1.000000
vt 4.100000 -1.000000
vt 4.000000 -1.100000
vt 4.000000 -2.900000
vt 5.900000 -2.920000
vt 4.100000 -2.920000
vt 5.900000 0.025000
vt 5.900000 0.225000
vt 4.100000 0.225000
vt 4.100000 0.025000
vt -3.000000 0.025000
vt -3.000000 0.225000
vt -2.920000 0.225000
vt -2.920000 0.025000
vn 0.000000 -1.000000 0.000000
vn 0.707107 -0.707107 0.000000
vn 1.000000 0.000000 0.000000
vn 0.707107 0.707107 0.000000
vn 0.000000 1.000000 0.000000
vn -0.707107 0.707107 0.000000
vn -1.000000 0.000000 0.000000
vn -0.707107 -0.707107 0.000000
vn -0.000000 0.000000 1.000000
vn 0.000000 0.000000 -1.000000
vn 0.866025 0.500000 0.000000
vn -0.866025 0.500000 0.000000
vn -0.866025 -0.500000 0.000000
vn 0.866025 -0.500000 0.000000
g cover_module_0
f 1/1/1 2/2/1 3/3/1 4/4/1
f 2/2/2 5/5/2 6/6/2 3/3/2
f 5/7/3 7/8/3 8/9/3 6/10/3
f 7/5/4 9/2/4 10/3/4 8/6/4
f 9/2/5 11/1/5 12/4/5 10/3/5
f 11/11/6 13/8/6 14/9/6 12/12/6
f 13/8/7 15/7/7 16/10/7 14/9/7
f 15/7/8 1/13/8 4/14/8 16/10/8
f 4/15/9 3/16/9 6/17/9 8/18/9 10/19/9 12/20/9 14/21/9 16/22/9
f 15/22/10 13/21/10 11/20/10 9/19/10 7/18/10 5/17/10 2/16/10 1/15/10
f 17/23/1 18/24/1 19/25/1 20/26/1
f 18/10/2 21/27/2 22/28/2 19/29/2
f 21/27/3 23/30/3 24/31/3 22/28/3
f 23/30/4 25/9/4 26/32/4 24/31/4
f 25/24/5 27/23/5 28/26/5 26/25/5
f 27/9/6 29/30/6 30/31/6 28/32/6
f 29/30/7 31/27/7 32/28/7 30/31/7
f 31/27/8 17/10/8 20/29/8 32/28/8
f 20/33/9 19/34/9 22/35/9 24/36/9 26/37/9 28/38/9 30/39/9 32/40/9
f 31/40/10 29/39/10 27/38/10 25/37/10 23/36/10 21/35/10 18/34/10 17/33/10
f 33/41/10 34/42/10 35/43/10 36/44/10
f 37/42/9 38/41/9 39/44/9 40/43/9
f 34/45/1 37/46/1 40/47/1 35/48/1
f 36/48/5 39/47/5 38/46/5 33/45/5
f 35/49/7 40/50/7 39/51/7 36/52/7
f 33/52/3 38/51/3 37/50/3 34/49/3
f 41/53/10 42/54/10 43/55/10 44/56/10
f 45/54/9 46/53/9 47/56/9 48/55/9
f 42/57/1 45/58/1 48/59/1 43/60/1
f 44/60/5 47/59/5 46/58/5 41/57/5
f 43/61/7 48/62/7 47/63/7 44/64/7
f 41/64/3 46/63/3 45/62/3 42/61/3
f 49/65/10 50/66/10 51/67/10 52/68/10
f 53/66/9 54/65/9 55/68/9 56/67/9
f 50/69/1 53/70/1 56/71/1 51/72/1
f 52/72/5 55/71/5 54/70/5 49/69/5
f 51/73/7 56/74/7 55/75/7 52/76/7
f 49/76/3 54/75/3 53/74/3 50/73/3
f 57/77/10 58/78/10 59/79/10 60/80/10
f 61/78/9 62/77/9 63/80/9 64/79/9
f 58/81/1 61/82/1 64/83/1 59/84/1
f 60/84/5 63/83/5 62/82/5 57/81/5
f 59/85/7 64/86/7 63/87/7 60/88/7
f 57/88/3 62/87/3 61/86/3 58/85/3
f 65/89/10 66/90/10 67/91/10 68/92/10
f 69/90/9 70/89/9 71/92/9 72/91/9
f 66/93/1 69/94/1 72/95/1 67/96/1
f 68/96/5 71/95/5 70/94/5 65/93/5
f 67/85/7 72/86/7 71/87/7 68/88/7
f 65/88/3 70/87/3 69/86/3 66/85/3
f 73/97/10 74/98/10 75/99/10 76/100/10
f 77/98/9 78/97/9 79/100/9 80/99/9
f 74/101/1 77/102/1 80/103/1 75/104/1
f 76/104/5 79/103/5 78/102/5 73/101/5
f 75/105/7 80/106/7 79/107/7 76/108/7
f 73/108/3 78/107/3 77/106/3 74/105/3
f 81/109/10 82/110/10 83/111/10 84/112/10
f 85/110/9 86/109/9 87/112/9 88/111/9
f 82/113/1 85/114/1 88/115/1 83/116/1
f 84/116/5 87/115/5 86/114/5 81/113/5
f 83/117/7 88/118/7 87/119/7 84/120/7
f 81/120/3 86/119/3 85/118/3 82/117/3
f 89/121/10 90/122/10 91/123/10 92/124/10
f 93/122/9 94/121/9 95/124/9 96/123/9
f 90/125/1 93/126/1 96/127/1 91/128/1
f 92/128/5 95/127/5 94/126/5 89/125/5
f 91/129/7 96/130/7 95/131/7 92/132/7
f 89/132/3 94/131/3 93/130/3 90/129/3
f 97/133/11 98/134/11 99/135/11 100/136/11
f 98/137/5 101/138/5 102/139/5 99/140/5
f 101/134/12 103/133/12 104/136/12 102/135/12
f 103/133/13 105/141/13 106/142/13 104/136/13
f 105/138/1 107/137/1 108/140/1 106/139/1
f 107/141/14 97/133/14 100/136/14 108/142/14
f 109/143/1 110/144/1 111/145/1 112/146/1
f 110/147/2 113/148/2 114/149/2 111/150/2
f 113/148/3 115/151/3 116/152/3 114/149/3
f 115/151/4 117/153/4 118/154/4 116/152/4
f 117/144/5 119/143/5 120/146/5 118/145/5
f 119/153/6 121/151/6 122/152/6 120/154/6
f 121/151/7 123/148/7 124/149/7 122/152/7
f 123/148/8 109/147/8 112/150/8 124/149/8
f 112/155/9 111/156/9 114/157/9 116/158/9 118/159/9 120/160/9 122/161/9 124/162/9
f 123/162/10 121/161/10 119/160/10 117/159/10 115/158/10 113/157/10 110/156/10 109/155/10
f 125/163/11 126/164/11 127/165/11 128/166/11
f 126/167/5 129/168/5 130/169/5 127/170/5
f 129/164/12 131/163/12 132/166/12 130/165/12
f 131/163/13 133/171/13 134/172/13 132/166/13
f 133/168/1 135/167/1 136/170/1 134/169/1
f 135/171/14 125/163/14 128/166/14 136/172/14
f 128/173/9 127/174/9 130/175/9 132/176/9 134/177/9 136/178/9
f 137/163/11 138/164/11 139/165/11 140/166/11
f 138/179/5 141/180/5 142/181/5 139/182/5
f 141/164/12 143/163/12 144/166/12 142/165/12
f 143/163/13 145/171/13 146/172/13 144/166/13
f 145/180/1 147/179/1 148/182/1 146/181/1
f 147/171/14 137/163/14 140/166/14 148/172/14
f 140/183/9 139/184/9 142/185/9 144/186/9 146/187/9 148/188/9
g cover_module_1
f 149/189/1 150/190/1 151/191/1 152/192/1
f 150/13/2 153/7/2 154/10/2 151/14/2
f 153/7/3 155/8/3 156/9/3 154/10/3
f 155/8/4 157/11/4 158/12/4 156/9/4
f 157/190/5 159/189/5 160/192/5 158/191/5
f 159/189/6 161/193/6 162/194/6 160/192/6
f 161/8/7 163/7/7 164/10/7 162/9/7
f 163/193/8 149/189/8 152/192/8 164/194/8
f 152/195/9 151/196/9 154/197/9 156/198/9 158/199/9 160/200/9 162/201/9 164/202/9
f 163/202/10 161/201/10 159/200/10 157/199/10 155/198/10 153/197/10 150/196/10 149/195/10
f 165/203/1 166/204/1 167/205/1 168/206/1
f 166/10/2 169/27/2 170/28/2 167/29/2
f 169/27/3 171/30/3 172/31/3 170/28/3
f 171/30/4 173/9/4 174/32/4 172/31/4
f 173/204/5 175/203/5 176/206/5 174/205/5
f 175/9/6 177/30/6 178/31/6 176/32/6
f 177/30/7 179/27/7 180/28/7 178/31/7
f 179/27/8 165/10/8 168/29/8 180/28/8
f 168/207/9 167/208/9 170/209/9 172/210/9 174/211/9 176/212/9 178/213/9 180/214/9
f 179/214/10 177/213/10 175/212/10 173/211/10 171/210/10 169/209/10 166/208/10 165/207/10
f 181/215/10 182/216/10 183/217/10 184/218/10
f 185/216/9 186/215/9 187/218/9 188/217/9
f 182/219/1 185/220/1 188/221/1 183/222/1
f 184/222/5 187/221/5 186/220/5 181/219/5
f 183/49/7 188/50/7 187/51/7 184/52/7
f 181/52/3 186/51/3 185/50/3 182/49/3
f 189/223/10 190/224/10 191/225/10 192/226/10
f 193/224/9 194/223/9 195/226/9 196/225/9
f 190/227/1 193/228/1 196/229/1 191/230/1
f 192/230/5 195/229/5 194/228/5 189/227/5
f 191/61/7 196/62/7 195/63/7 192/64/7
f 189/64/3 194/63/3 193/62/3 190/61/3
f 197/231/10 198/232/10 199/233/10 200/234/10
f 201/232/9 202/231/9 203/234/9 204/233/9
f 198/235/1 201/236/1 204/237/1 199/238/1
f 200/238/5 203/237/5 202/236/5 197/235/5
f 199/73/7 204/74/7 203/75/7 200/76/7
f 197/76/3 202/75/3 201/74/3 198/73/3
f 205/239/10 206/240/10 207/241/10 208/242/10
f 209/240/9 210/239/9 211/242/9 212/241/9
f 206/243/1 209/244/1 212/245/1 207/246/1
f 208/246/5 211/245/5 210/244/5 205/243/5
f 207/85/7 212/86/7 211/87/7 208/88/7
f 205/88/3 210/87/3 209/86/3 206/85/3
f 213/247/10 214/248/10 215/249/10 216/250/10
f 217/248/9 218/247/9 219/250/9 220/249/9
f 214/251/1 217/252/1 220/253/1 215/254/1
f 216/254/5 219/253/5 218/252/5 213/251/5
f 215/85/7 220/86/7 219/87/7 216/88/7
f 213/88/3 218/87/3 217/86/3 214/85/3
f 221/255/10 222/256/10 223/257/10 224/258/10
f 225/256/9 226/255/9 227/258/9 228/257/9
f 222/259/1 225/260/1 228/261/1 223/262/1
f 224/262/5 227/261/5 226/260/5 221/259/5
f 223/105/7 228/106/7 227/107/7 224/108/7
f 221/108/3 226/107/3 225/106/3 222/105/3
f 229/263/10 230/264/10 231/265/10 232/266/10
f 233/264/9 234/263/9 235/266/9 236/265/9
f 230/267/1 233/268/1 236/269/1 231/270/1
f 232/270/5 235/269/5 234/268/5 229/267/5
f 231/117/7 236/118/7 235/119/7 232/120/7
f 229/120/3 234/119/3 233/118/3 230/117/3
f 237/271/10 238/272/10 239/273/10 240/274/10
f 241/272/9 242/271/9 243/274/9 244/273/9
f 238/275/1 241/276/1 244/277/1 239/278/1
f 240/278/5 243/277/5 242/276/5 237/275/5
f 239/129/7 244/130/7 243/131/7 240/132/7
f 237/132/3 242/131/3 241/130/3 238/129/3
f 245/133/11 246/134/11 247/135/11 248/136/11
f 246/279/5 249/280/5 250/281/5 247/282/5
f 249/134/12 251/133/12 252/136/12 250/135/12
f 251/133/13 253/141/13 254/142/13 252/136/13
f 253/280/1 255/279/1 256/282/1 254/281/1
f 255/141/14 245/133/14 248/136/14 256/142/14
f 257/283/1 258/284/1 259/285/1 260/286/1
f 258/147/2 261/148/2 262/149/2 259/150/2
f 261/148/3 263/151/3 264/152/3 262/149/3
f 263/151/4 265/153/4 266/154/4 264/152/4
f 265/284/5 267/283/5 268/286/5 266/285/5
f 267/153/6 269/151/6 270/152/6 268/154/6
f 269/151/7 271/148/7 272/149/7 270/152/7
f 271/148/8 257/147/8 260/150/8 272/149/8
f 260/287/9 259/288/9 262/289/9 264/290/9 266/291/9 268/292/9 270/293/9 272/294/9
f 271/294/10 269/293/10 267/292/10 265/291/10 263/290/10 261/289/10 258/288/10 257/287/10
f 273/163/11 274/164/11 275/165/11 276/166/11
f 274/295/5 277/296/5 278/297/5 275/298/5
f 277/164/12 279/163/12 280/166/12 278/165/12
f 279/163/13 281/171/13 282/172/13 280/166/13
f 281/296/1 283/295/1 284/298/1 282/297/1
f 283/171/14 273/163/14 276/166/14 284/172/14
f 276/299/9 275/300/9 278/301/9 280/302/9 282/303/9 284/304/9
f 285/163/11 286/164/11 287/165/11 288/166/11
f 286/305/5 289/306/5 290/307/5 287/308/5
f 289/164/12 291/163/12 292/166/12 290/165/12
f 291/163/13 293/171/13 294/172/13 292/166/13
f 293/306/1 295/305/1 296/308/1 294/307/1
f 295/171/14 285/163/14 288/166/14 296/172/14
f 288/309/9 287/310/9 290/311/9 292/312/9 294/313/9 296/314/9
g step_platform
f 297/315/1 298/316/1 299/317/1 300/318/1
f 298/1/2 301/319/2 302/320/2 299/321/2
f 301/319/3 303/322/3 304/323/3 302/320/3
f 303/322/4 305/7/4 306/324/4 304/323/4
f 305/316/5 307/315/5 308/318/5 306/317/5
f 307/7/6 309/322/6 310/323/6 308/324/6
f 309/322/7 311/319/7 312/320/7 310/323/7
f 311/319/8 297/1/8 300/321/8 312/320/8
f 300/325/9 299/326/9 302/327/9 304/328/9 306/329/9 308/330/9 310/331/9 312/332/9
f 311/332/10 309/331/10 307/330/10 305/329/10 303/328/10 301/327/10 298/326/10 297/325/10
f 313/333/10 314/326/10 315/325/10 316/334/10
f 317/326/9 318/333/9 319/334/9 320/325/9
f 314/335/1 317/336/1 320/337/1 315/338/1
f 316/338/5 319/337/5 318/336/5 313/335/5
f 315/339/7 320/340/7 319/341/7 316/342/7
f 313/342/3 318/341/3 317/340/3 314/339/3
