# STW_ARENA_TRIMKIT_01 - original STW production arena kit geometry
# Generated deterministically by tools/assets/generate_stw_arena_kit.py
# Axis convention: raw Z-up, +Y forward, metres, unrotated. O3DE imports OBJ
# vertices as (-x, z, y) and the runtime applies the compensating rotation
# Matrix3x3::CreateFromColumns(-X, Z, Y) at bind time.
# UVs are world-planar, scaled to 1.00 m per tile.
# No mtllib / usemtl: the runtime binds one Atom StandardPBR material through
# the mesh feature processor's default custom material slot.
o STW_ARENA_TRIMKIT_01
v 11.750000 -11.750000 0.000000
v 11.750000 -11.890000 0.000000
v -11.750000 -11.890000 0.000000
v -11.750000 -11.750000 0.000000
v 11.750000 -11.890000 0.320000
v 11.750000 -11.750000 0.320000
v -11.750000 -11.750000 0.320000
v -11.750000 -11.890000 0.320000
v -11.750000 11.450000 0.000000
v -11.750000 -11.450000 0.000000
v -11.890000 -11.450000 0.000000
v -11.890000 11.450000 0.000000
v -11.750000 -11.450000 0.320000
v -11.750000 11.450000 0.320000
v -11.890000 11.450000 0.320000
v -11.890000 -11.450000 0.320000
v 11.750000 11.890000 0.000000
v 11.750000 11.750000 0.000000
v -11.750000 11.750000 0.000000
v -11.750000 11.890000 0.000000
v 11.750000 11.750000 0.320000
v 11.750000 11.890000 0.320000
v -11.750000 11.890000 0.320000
v -11.750000 11.750000 0.320000
v 11.890000 11.450000 0.000000
v 11.890000 -11.450000 0.000000
v 11.750000 -11.450000 0.000000
v 11.750000 11.450000 0.000000
v 11.890000 -11.450000 0.320000
v 11.890000 11.450000 0.320000
v 11.750000 11.450000 0.320000
v 11.750000 -11.450000 0.320000
v 11.750000 -11.750000 5.500000
v 11.750000 -11.870000 5.500000
v -11.750000 -11.870000 5.500000
v -11.750000 -11.750000 5.500000
v 11.750000 -11.870000 5.660000
v 11.750000 -11.750000 5.660000
v -11.750000 -11.750000 5.660000
v -11.750000 -11.870000 5.660000
v -11.750000 11.450000 5.500000
v -11.750000 -11.450000 5.500000
v -11.870000 -11.450000 5.500000
v -11.870000 11.450000 5.500000
v -11.750000 -11.450000 5.660000
v -11.750000 11.450000 5.660000
v -11.870000 11.450000 5.660000
v -11.870000 -11.450000 5.660000
v 11.750000 11.870000 5.500000
v 11.750000 11.750000 5.500000
v -11.750000 11.750000 5.500000
v -11.750000 11.870000 5.500000
v 11.750000 11.750000 5.660000
v 11.750000 11.870000 5.660000
v -11.750000 11.870000 5.660000
v -11.750000 11.750000 5.660000
v 11.870000 11.450000 5.500000
v 11.870000 -11.450000 5.500000
v 11.750000 -11.450000 5.500000
v 11.750000 11.450000 5.500000
v 11.870000 -11.450000 5.660000
v 11.870000 11.450000 5.660000
v 11.750000 11.450000 5.660000
v 11.750000 -11.450000 5.660000
v -1.420000 1.080000 2.500000
v -1.420000 -1.080000 2.500000
v -3.080000 -1.080000 2.500000
v -3.080000 1.080000 2.500000
v -1.420000 -1.080000 2.560000
v -1.420000 1.080000 2.560000
v -3.080000 1.080000 2.560000
v -3.080000 -1.080000 2.560000
v -1.600000 -1.120000 0.240000
v -1.600000 -1.200000 0.240000
v -2.900000 -1.200000 0.240000
v -2.900000 -1.120000 0.240000
v -1.600000 -1.200000 0.360000
v -1.600000 -1.120000 0.360000
v -2.900000 -1.120000 0.360000
v -2.900000 -1.200000 0.360000
v 3.080000 1.080000 2.500000
v 3.080000 -1.080000 2.500000
v 1.420000 -1.080000 2.500000
v 1.420000 1.080000 2.500000
v 3.080000 -1.080000 2.560000
v 3.080000 1.080000 2.560000
v 1.420000 1.080000 2.560000
v 1.420000 -1.080000 2.560000
v 2.900000 -1.120000 0.240000
v 2.900000 -1.200000 0.240000
v 1.600000 -1.200000 0.240000
v 1.600000 -1.120000 0.240000
v 2.900000 -1.200000 0.360000
v 2.900000 -1.120000 0.360000
v 1.600000 -1.120000 0.360000
v 1.600000 -1.200000 0.360000
v 6.050000 -0.950000 0.250000
v 6.050000 -3.050000 0.250000
v 3.950000 -3.050000 0.250000
v 3.950000 -0.950000 0.250000
v 6.050000 -3.050000 0.290000
v 6.050000 -0.950000 0.290000
v 3.950000 -0.950000 0.290000
v 3.950000 -3.050000 0.290000
v -4.070000 9.330000 0.000000
v -4.070000 7.670000 0.000000
v -5.930000 7.670000 0.000000
v -5.930000 9.330000 0.000000
v -4.070000 7.670000 0.080000
v -4.070000 9.330000 0.080000
v -5.930000 9.330000 0.080000
v -5.930000 7.670000 0.080000
v -4.290000 9.130000 0.070000
v -4.290000 7.870000 0.070000
v -5.710000 7.870000 0.070000
v -5.710000 9.130000 0.070000
v -4.290000 7.870000 0.100000
v -4.290000 9.130000 0.100000
v -5.710000 9.130000 0.100000
v -5.710000 7.870000 0.100000
v 5.930000 9.330000 0.000000
v 5.930000 7.670000 0.000000
v 4.070000 7.670000 0.000000
v 4.070000 9.330000 0.000000
v 5.930000 7.670000 0.080000
v 5.930000 9.330000 0.080000
v 4.070000 9.330000 0.080000
v 4.070000 7.670000 0.080000
v 5.710000 9.130000 0.070000
v 5.710000 7.870000 0.070000
v 4.290000 7.870000 0.070000
v 4.290000 9.130000 0.070000
v 5.710000 7.870000 0.100000
v 5.710000 9.130000 0.100000
v 4.290000 9.130000 0.100000
v 4.290000 7.870000 0.100000
v 5.200000 7.960000 0.000000
v 5.200000 7.720000 0.000000
v -5.200000 7.720000 0.000000
v -5.200000 7.960000 0.000000
v 5.200000 7.720000 0.060000
v 5.200000 7.960000 0.060000
v -5.200000 7.960000 0.060000
v -5.200000 7.720000 0.060000
v 11.000000 -7.300000 -0.045000
v 11.000000 -7.380000 -0.045000
v -11.000000 -7.380000 -0.045000
v -11.000000 -7.300000 -0.045000
v 11.000000 -7.380000 0.005000
v 11.000000 -7.300000 0.005000
v -11.000000 -7.300000 0.005000
v -11.000000 -7.380000 0.005000
v 11.000000 -6.620000 -0.045000
v 11.000000 -6.700000 -0.045000
v -11.000000 -6.700000 -0.045000
v -11.000000 -6.620000 -0.045000
v 11.000000 -6.700000 0.005000
v 11.000000 -6.620000 0.005000
v -11.000000 -6.620000 0.005000
v -11.000000 -6.700000 0.005000
v 11.000000 6.700000 -0.045000
v 11.000000 6.620000 -0.045000
v -11.000000 6.620000 -0.045000
v -11.000000 6.700000 -0.045000
v 11.000000 6.620000 0.005000
v 11.000000 6.700000 0.005000
v -11.000000 6.700000 0.005000
v -11.000000 6.620000 0.005000
v 11.000000 7.380000 -0.045000
v 11.000000 7.300000 -0.045000
v -11.000000 7.300000 -0.045000
v -11.000000 7.380000 -0.045000
v 11.000000 7.300000 0.005000
v 11.000000 7.380000 0.005000
v -11.000000 7.380000 0.005000
v -11.000000 7.300000 0.005000
v -9.300000 11.000000 -0.045000
v -9.300000 -11.000000 -0.045000
v -9.380000 -11.000000 -0.045000
v -9.380000 11.000000 -0.045000
v -9.300000 -11.000000 0.005000
v -9.300000 11.000000 0.005000
v -9.380000 11.000000 0.005000
v -9.380000 -11.000000 0.005000
v -8.620000 11.000000 -0.045000
v -8.620000 -11.000000 -0.045000
v -8.700000 -11.000000 -0.045000
v -8.700000 11.000000 -0.045000
v -8.620000 -11.000000 0.005000
v -8.620000 11.000000 0.005000
v -8.700000 11.000000 0.005000
v -8.700000 -11.000000 0.005000
v 8.700000 11.000000 -0.045000
v 8.700000 -11.000000 -0.045000
v 8.620000 -11.000000 -0.045000
v 8.620000 11.000000 -0.045000
v 8.700000 -11.000000 0.005000
v 8.700000 11.000000 0.005000
v 8.620000 11.000000 0.005000
v 8.620000 -11.000000 0.005000
v 9.380000 11.000000 -0.045000
v 9.380000 -11.000000 -0.045000
v 9.300000 -11.000000 -0.045000
v 9.300000 11.000000 -0.045000
v 9.380000 -11.000000 0.005000
v 9.380000 11.000000 0.005000
v 9.300000 11.000000 0.005000
v 9.300000 -11.000000 0.005000
vt 11.750000 -11.750000
vt 11.750000 -11.890000
vt -11.750000 -11.890000
vt -11.750000 -11.750000
vt 11.750000 0.000000
vt 11.750000 0.320000
vt -11.750000 0.320000
vt -11.750000 0.000000
vt -11.890000 0.000000
vt -11.890000 0.320000
vt -11.750000 11.450000
vt -11.750000 -11.450000
vt -11.890000 -11.450000
vt -11.890000 11.450000
vt -11.450000 0.000000
vt -11.450000 0.320000
vt 11.450000 0.320000
vt 11.450000 0.000000
vt 11.750000 11.890000
vt 11.750000 11.750000
vt -11.750000 11.750000
vt -11.750000 11.890000
vt 11.890000 0.320000
vt 11.890000 0.000000
vt 11.890000 11.450000
vt 11.890000 -11.450000
vt 11.750000 -11.450000
vt 11.750000 11.450000
vt 11.750000 -11.870000
vt -11.750000 -11.870000
vt 11.750000 5.500000
vt 11.750000 5.660000
vt -11.750000 5.660000
vt -11.750000 5.500000
vt -11.870000 5.500000
vt -11.870000 5.660000
vt -11.870000 -11.450000
vt -11.870000 11.450000
vt -11.450000 5.500000
vt -11.450000 5.660000
vt 11.450000 5.660000
vt 11.450000 5.500000
vt 11.750000 11.870000
vt -11.750000 11.870000
vt 11.870000 5.660000
vt 11.870000 5.500000
vt 11.870000 11.450000
vt 11.870000 -11.450000
vt -1.420000 1.080000
vt -1.420000 -1.080000
vt -3.080000 -1.080000
vt -3.080000 1.080000
vt -1.420000 2.500000
vt -1.420000 2.560000
vt -3.080000 2.560000
vt -3.080000 2.500000
vt -1.080000 2.500000
vt -1.080000 2.560000
vt 1.080000 2.560000
vt 1.080000 2.500000
vt -1.600000 -1.120000
vt -1.600000 -1.200000
vt -2.900000 -1.200000
vt -2.900000 -1.120000
vt -1.600000 0.240000
vt -1.600000 0.360000
vt -2.900000 0.360000
vt -2.900000 0.240000
vt -1.200000 0.240000
vt -1.200000 0.360000
vt -1.120000 0.360000
vt -1.120000 0.240000
vt 3.080000 1.080000
vt 3.080000 -1.080000
vt 1.420000 -1.080000
vt 1.420000 1.080000
vt 3.080000 2.500000
vt 3.080000 2.560000
vt 1.420000 2.560000
vt 1.420000 2.500000
vt 2.900000 -1.120000
vt 2.900000 -1.200000
vt 1.600000 -1.200000
vt 1.600000 -1.120000
vt 2.900000 0.240000
vt 2.900000 0.360000
vt 1.600000 0.360000
vt 1.600000 0.240000
vt 6.050000 -0.950000
vt 6.050000 -3.050000
vt 3.950000 -3.050000
vt 3.950000 -0.950000
vt 6.050000 0.250000
vt 6.050000 0.290000
vt 3.950000 0.290000
vt 3.950000 0.250000
vt -3.050000 0.250000
vt -3.050000 0.290000
vt -0.950000 0.290000
vt -0.950000 0.250000
vt -4.070000 9.330000
vt -4.070000 7.670000
vt -5.930000 7.670000
vt -5.930000 9.330000
vt -4.070000 0.000000
vt -4.070000 0.080000
vt -5.930000 0.080000
vt -5.930000 0.000000
vt 7.670000 0.000000
vt 7.670000 0.080000
vt 9.330000 0.080000
vt 9.330000 0.000000
vt -4.290000 9.130000
vt -4.290000 7.870000
vt -5.710000 7.870000
vt -5.710000 9.130000
vt -4.290000 0.070000
vt -4.290000 0.100000
vt -5.710000 0.100000
vt -5.710000 0.070000
vt 7.870000 0.070000
vt 7.870000 0.100000
vt 9.130000 0.100000
vt 9.130000 0.070000
vt 5.930000 9.330000
vt 5.930000 7.670000
vt 4.070000 7.670000
vt 4.070000 9.330000
vt 5.930000 0.000000
vt 5.930000 0.080000
vt 4.070000 0.080000
vt 4.070000 0.000000
vt 5.710000 9.130000
vt 5.710000 7.870000
vt 4.290000 7.870000
vt 4.290000 9.130000
vt 5.710000 0.070000
vt 5.710000 0.100000
vt 4.290000 0.100000
vt 4.290000 0.070000
vt 5.200000 7.960000
vt 5.200000 7.720000
vt -5.200000 7.720000
vt -5.200000 7.960000
vt 5.200000 0.000000
vt 5.200000 0.060000
vt -5.200000 0.060000
vt -5.200000 0.000000
vt 7.720000 0.000000
vt 7.720000 0.060000
vt 7.960000 0.060000
vt 7.960000 0.000000
vt 11.000000 -7.300000
vt 11.000000 -7.380000
vt -11.000000 -7.380000
vt -11.000000 -7.300000
vt 11.000000 -0.045000
vt 11.000000 0.005000
vt -11.000000 0.005000
vt -11.000000 -0.045000
vt -7.380000 -0.045000
vt -7.380000 0.005000
vt -7.300000 0.005000
vt -7.300000 -0.045000
vt 11.000000 -6.620000
vt 11.000000 -6.700000
vt -11.000000 -6.700000
vt -11.000000 -6.620000
vt -6.700000 -0.045000
vt -6.700000 0.005000
vt -6.620000 0.005000
vt -6.620000 -0.045000
vt 11.000000 6.700000
vt 11.000000 6.620000
vt -11.000000 6.620000
vt -11.000000 6.700000
vt 6.620000 -0.045000
vt 6.620000 0.005000
vt 6.700000 0.005000
vt 6.700000 -0.045000
vt 11.000000 7.380000
vt 11.000000 7.300000
vt -11.000000 7.300000
vt -11.000000 7.380000
vt 7.300000 -0.045000
vt 7.300000 0.005000
vt 7.380000 0.005000
vt 7.380000 -0.045000
vt -9.300000 11.000000
vt -9.300000 -11.000000
vt -9.380000 -11.000000
vt -9.380000 11.000000
vt -9.300000 -0.045000
vt -9.300000 0.005000
vt -9.380000 0.005000
vt -9.380000 -0.045000
vt -8.620000 11.000000
vt -8.620000 -11.000000
vt -8.700000 -11.000000
vt -8.700000 11.000000
vt -8.620000 -0.045000
vt -8.620000 0.005000
vt -8.700000 0.005000
vt -8.700000 -0.045000
vt 8.700000 11.000000
vt 8.700000 -11.000000
vt 8.620000 -11.000000
vt 8.620000 11.000000
vt 8.700000 -0.045000
vt 8.700000 0.005000
vt 8.620000 0.005000
vt 8.620000 -0.045000
vt 9.380000 11.000000
vt 9.380000 -11.000000
vt 9.300000 -11.000000
vt 9.300000 11.000000
vt 9.380000 -0.045000
vt 9.380000 0.005000
vt 9.300000 0.005000
vt 9.300000 -0.045000
vn 0.000000 0.000000 -1.000000
vn 0.000000 0.000000 1.000000
vn 0.000000 -1.000000 0.000000
vn 0.000000 1.000000 0.000000
vn -1.000000 0.000000 0.000000
vn 1.000000 0.000000 0.000000
g wall_kick_plates
f 1/1/1 2/2/1 3/3/1 4/4/1
f 5/2/2 6/1/2 7/4/2 8/3/2
f 2/5/3 5/6/3 8/7/3 3/8/3
f 4/8/4 7/7/4 6/6/4 1/5/4
f 3/9/5 8/10/5 7/7/5 4/8/5
f 1/8/6 6/7/6 5/10/6 2/9/6
f 9/11/1 10/12/1 11/13/1 12/14/1
f 13/12/2 14/11/2 15/14/2 16/13/2
f 10/8/3 13/7/3 16/10/3 11/9/3
f 12/9/4 15/10/4 14/7/4 9/8/4
f 11/15/5 16/16/5 15/17/5 12/18/5
f 9/18/6 14/17/6 13/16/6 10/15/6
f 17/19/1 18/20/1 19/21/1 20/22/1
f 21/20/2 22/19/2 23/22/2 24/21/2
f 18/5/3 21/6/3 24/7/3 19/8/3
f 20/8/4 23/7/4 22/6/4 17/5/4
f 19/5/5 24/6/5 23/23/5 20/24/5
f 17/24/6 22/23/6 21/6/6 18/5/6
f 25/25/1 26/26/1 27/27/1 28/28/1
f 29/26/2 30/25/2 31/28/2 32/27/2
f 26/24/3 29/23/3 32/6/3 27/5/3
f 28/5/4 31/6/4 30/23/4 25/24/4
f 27/15/5 32/16/5 31/17/5 28/18/5
f 25/18/6 30/17/6 29/16/6 26/15/6
g wall_cap_band
f 33/1/1 34/29/1 35/30/1 36/4/1
f 37/29/2 38/1/2 39/4/2 40/30/2
f 34/31/3 37/32/3 40/33/3 35/34/3
f 36/34/4 39/33/4 38/32/4 33/31/4
f 35/35/5 40/36/5 39/33/5 36/34/5
f 33/34/6 38/33/6 37/36/6 34/35/6
f 41/11/1 42/12/1 43/37/1 44/38/1
f 45/12/2 46/11/2 47/38/2 48/37/2
f 42/34/3 45/33/3 48/36/3 43/35/3
f 44/35/4 47/36/4 46/33/4 41/34/4
f 43/39/5 48/40/5 47/41/5 44/42/5
f 41/42/6 46/41/6 45/40/6 42/39/6
f 49/43/1 50/20/1 51/21/1 52/44/1
f 53/20/2 54/43/2 55/44/2 56/21/2
f 50/31/3 53/32/3 56/33/3 51/34/3
f 52/34/4 55/33/4 54/32/4 49/31/4
f 51/31/5 56/32/5 55/45/5 52/46/5
f 49/46/6 54/45/6 53/32/6 50/31/6
f 57/47/1 58/48/1 59/27/1 60/28/1
f 61/48/2 62/47/2 63/28/2 64/27/2
f 58/46/3 61/45/3 64/32/3 59/31/3
f 60/31/4 63/32/4 62/45/4 57/46/4
f 59/39/5 64/40/5 63/41/5 60/42/5
f 57/42/6 62/41/6 61/40/6 58/39/6
g cover_hazard_caps
f 65/49/1 66/50/1 67/51/1 68/52/1
f 69/50/2 70/49/2 71/52/2 72/51/2
f 66/53/3 69/54/3 72/55/3 67/56/3
f 68/56/4 71/55/4 70/54/4 65/53/4
f 67/57/5 72/58/5 71/59/5 68/60/5
f 65/60/6 70/59/6 69/58/6 66/57/6
f 73/61/1 74/62/1 75/63/1 76/64/1
f 77/62/2 78/61/2 79/64/2 80/63/2
f 74/65/3 77/66/3 80/67/3 75/68/3
f 76/68/4 79/67/4 78/66/4 73/65/4
f 75/69/5 80/70/5 79/71/5 76/72/5
f 73/72/6 78/71/6 77/70/6 74/69/6
f 81/73/1 82/74/1 83/75/1 84/76/1
f 85/74/2 86/73/2 87/76/2 88/75/2
f 82/77/3 85/78/3 88/79/3 83/80/3
f 84/80/4 87/79/4 86/78/4 81/77/4
f 83/57/5 88/58/5 87/59/5 84/60/5
f 81/60/6 86/59/6 85/58/6 82/57/6
f 89/81/1 90/82/1 91/83/1 92/84/1
f 93/82/2 94/81/2 95/84/2 96/83/2
f 90/85/3 93/86/3 96/87/3 91/88/3
f 92/88/4 95/87/4 94/86/4 89/85/4
f 91/69/5 96/70/5 95/71/5 92/72/5
f 89/72/6 94/71/6 93/70/6 90/69/6
g step_edge_rails
f 97/89/1 98/90/1 99/91/1 100/92/1
f 101/90/2 102/89/2 103/92/2 104/91/2
f 98/93/3 101/94/3 104/95/3 99/96/3
f 100/96/4 103/95/4 102/94/4 97/93/4
f 99/97/5 104/98/5 103/99/5 100/100/5
f 97/100/6 102/99/6 101/98/6 98/97/6
g arch_threshold_trim
f 105/101/1 106/102/1 107/103/1 108/104/1
f 109/102/2 110/101/2 111/104/2 112/103/2
f 106/105/3 109/106/3 112/107/3 107/108/3
f 108/108/4 111/107/4 110/106/4 105/105/4
f 107/109/5 112/110/5 111/111/5 108/112/5
f 105/112/6 110/111/6 109/110/6 106/109/6
f 113/113/1 114/114/1 115/115/1 116/116/1
f 117/114/2 118/113/2 119/116/2 120/115/2
f 114/117/3 117/118/3 120/119/3 115/120/3
f 116/120/4 119/119/4 118/118/4 113/117/4
f 115/121/5 120/122/5 119/123/5 116/124/5
f 113/124/6 118/123/6 117/122/6 114/121/6
f 121/125/1 122/126/1 123/127/1 124/128/1
f 125/126/2 126/125/2 127/128/2 128/127/2
f 122/129/3 125/130/3 128/131/3 123/132/3
f 124/132/4 127/131/4 126/130/4 121/129/4
f 123/109/5 128/110/5 127/111/5 124/112/5
f 121/112/6 126/111/6 125/110/6 122/109/6
f 129/133/1 130/134/1 131/135/1 132/136/1
f 133/134/2 134/133/2 135/136/2 136/135/2
f 130/137/3 133/138/3 136/139/3 131/140/3
f 132/140/4 135/139/4 134/138/4 129/137/4
f 131/121/5 136/122/5 135/123/5 132/124/5
f 129/124/6 134/123/6 133/122/6 130/121/6
f 137/141/1 138/142/1 139/143/1 140/144/1
f 141/142/2 142/141/2 143/144/2 144/143/2
f 138/145/3 141/146/3 144/147/3 139/148/3
f 140/148/4 143/147/4 142/146/4 137/145/4
f 139/149/5 144/150/5 143/151/5 140/152/5
f 137/152/6 142/151/6 141/150/6 138/149/6
g channel_edge_trim
f 145/153/1 146/154/1 147/155/1 148/156/1
f 149/154/2 150/153/2 151/156/2 152/155/2
f 146/157/3 149/158/3 152/159/3 147/160/3
f 148/160/4 151/159/4 150/158/4 145/157/4
f 147/161/5 152/162/5 151/163/5 148/164/5
f 145/164/6 150/163/6 149/162/6 146/161/6
f 153/165/1 154/166/1 155/167/1 156/168/1
f 157/166/2 158/165/2 159/168/2 160/167/2
f 154/157/3 157/158/3 160/159/3 155/160/3
f 156/160/4 159/159/4 158/158/4 153/157/4
f 155/169/5 160/170/5 159/171/5 156/172/5
f 153/172/6 158/171/6 157/170/6 154/169/6
f 161/173/1 162/174/1 163/175/1 164/176/1
f 165/174/2 166/173/2 167/176/2 168/175/2
f 162/157/3 165/158/3 168/159/3 163/160/3
f 164/160/4 167/159/4 166/158/4 161/157/4
f 163/177/5 168/178/5 167/179/5 164/180/5
f 161/180/6 166/179/6 165/178/6 162/177/6
f 169/181/1 170/182/1 171/183/1 172/184/1
f 173/182/2 174/181/2 175/184/2 176/183/2
f 170/157/3 173/158/3 176/159/3 171/160/3
f 172/160/4 175/159/4 174/158/4 169/157/4
f 171/185/5 176/186/5 175/187/5 172/188/5
f 169/188/6 174/187/6 173/186/6 170/185/6
f 177/189/1 178/190/1 179/191/1 180/192/1
f 181/190/2 182/189/2 183/192/2 184/191/2
f 178/193/3 181/194/3 184/195/3 179/196/3
f 180/196/4 183/195/4 182/194/4 177/193/4
f 179/160/5 184/159/5 183/158/5 180/157/5
f 177/157/6 182/158/6 181/159/6 178/160/6
f 185/197/1 186/198/1 187/199/1 188/200/1
f 189/198/2 190/197/2 191/200/2 192/199/2
f 186/201/3 189/202/3 192/203/3 187/204/3
f 188/204/4 191/203/4 190/202/4 185/201/4
f 187/160/5 192/159/5 191/158/5 188/157/5
f 185/157/6 190/158/6 189/159/6 186/160/6
f 193/205/1 194/206/1 195/207/1 196/208/1
f 197/206/2 198/205/2 199/208/2 200/207/2
f 194/209/3 197/210/3 200/211/3 195/212/3
f 196/212/4 199/211/4 198/210/4 193/209/4
f 195/160/5 200/159/5 199/158/5 196/157/5
f 193/157/6 198/158/6 197/159/6 194/160/6
f 201/213/1 202/214/1 203/215/1 204/216/1
f 205/214/2 206/213/2 207/216/2 208/215/2
f 202/217/3 205/218/3 208/219/3 203/220/3
f 204/220/4 207/219/4 206/218/4 201/217/4
f 203/160/5 208/159/5 207/158/5 204/157/5
f 201/157/6 206/158/6 205/159/6 202/160/6
