# STW_ARENA_ARCH_01 - original STW production arena kit geometry
# Generated deterministically by tools/assets/generate_stw_arena_kit.py
# Axis convention: raw Z-up, +Y forward, metres, unrotated. O3DE imports OBJ
# vertices as (-x, z, y) and the runtime applies the compensating rotation
# Matrix3x3::CreateFromColumns(-X, Z, Y) at bind time.
# UVs are world-planar, scaled to 1.00 m per tile.
# No mtllib / usemtl: the runtime binds one Atom StandardPBR material through
# the mesh feature processor's default custom material slot.
o STW_ARENA_ARCH_01
v -5.490000 7.920000 4.650000
v -4.510000 7.920000 4.650000
v -4.510000 7.920000 4.830000
v -5.490000 7.920000 4.830000
v -4.350000 8.080000 4.650000
v -4.350000 8.080000 4.830000
v -4.350000 8.920000 4.650000
v -4.350000 8.920000 4.830000
v -4.510000 9.080000 4.650000
v -4.510000 9.080000 4.830000
v -5.490000 9.080000 4.650000
v -5.490000 9.080000 4.830000
v -5.650000 8.920000 4.650000
v -5.650000 8.920000 4.830000
v -5.650000 8.080000 4.650000
v -5.650000 8.080000 4.830000
v -5.580000 7.980000 4.830000
v -4.420000 7.980000 4.830000
v -4.500000 8.030000 5.350000
v -5.500000 8.030000 5.350000
v -4.420000 9.020000 4.830000
v -4.500000 8.970000 5.350000
v -5.580000 9.020000 4.830000
v -5.500000 8.970000 5.350000
v -5.290000 8.040000 5.240000
v -4.710000 8.040000 5.240000
v -4.710000 8.040000 6.160000
v -5.290000 8.040000 6.160000
v -4.510000 8.240000 5.240000
v -4.510000 8.240000 6.160000
v -4.510000 8.760000 5.240000
v -4.510000 8.760000 6.160000
v -4.710000 8.960000 5.240000
v -4.710000 8.960000 6.160000
v -5.290000 8.960000 5.240000
v -5.290000 8.960000 6.160000
v -5.490000 8.760000 5.240000
v -5.490000 8.760000 6.160000
v -5.490000 8.240000 5.240000
v -5.490000 8.240000 6.160000
v -5.250000 7.970000 5.300000
v -4.750000 7.970000 5.300000
v -4.750000 7.970000 6.100000
v -5.250000 7.970000 6.100000
v -4.650000 8.070000 5.300000
v -4.650000 8.070000 6.100000
v -4.650000 8.930000 5.300000
v -4.650000 8.930000 6.100000
v -4.750000 9.030000 5.300000
v -4.750000 9.030000 6.100000
v -5.250000 9.030000 5.300000
v -5.250000 9.030000 6.100000
v -5.350000 8.930000 5.300000
v -5.350000 8.930000 6.100000
v -5.350000 8.070000 5.300000
v -5.350000 8.070000 6.100000
v -5.470000 8.060000 6.050000
v -4.530000 8.060000 6.050000
v -4.420000 8.000000 6.610000
v -5.580000 8.000000 6.610000
v -4.530000 8.940000 6.050000
v -4.420000 9.000000 6.610000
v -5.470000 8.940000 6.050000
v -5.580000 9.000000 6.610000
v -4.420000 9.000000 4.900000
v -4.420000 8.000000 4.900000
v -4.540000 8.000000 4.900000
v -4.540000 9.000000 4.900000
v -4.420000 8.000000 5.240000
v -4.420000 9.000000 5.240000
v -4.540000 9.000000 5.240000
v -4.540000 8.000000 5.240000
v -4.420000 8.970000 5.340000
v -4.420000 8.030000 5.340000
v -4.540000 8.030000 5.340000
v -4.540000 8.970000 5.340000
v -4.420000 8.030000 5.680000
v -4.420000 8.970000 5.680000
v -4.540000 8.970000 5.680000
v -4.540000 8.030000 5.680000
v -4.420000 8.940000 5.780000
v -4.420000 8.060000 5.780000
v -4.540000 8.060000 5.780000
v -4.540000 8.940000 5.780000
v -4.420000 8.060000 6.120000
v -4.420000 8.940000 6.120000
v -4.540000 8.940000 6.120000
v -4.540000 8.060000 6.120000
v -4.420000 8.910000 6.200000
v -4.420000 8.090000 6.200000
v -4.540000 8.090000 6.200000
v -4.540000 8.910000 6.200000
v -4.420000 8.090000 6.540000
v -4.420000 8.910000 6.540000
v -4.540000 8.910000 6.540000
v -4.540000 8.090000 6.540000
v -4.640000 8.020000 6.130000
v -4.640000 7.820000 6.130000
v -5.360000 7.820000 6.130000
v -5.360000 8.020000 6.130000
v -4.640000 7.820000 6.410000
v -4.640000 8.020000 6.410000
v -5.360000 8.020000 6.410000
v -5.360000 7.820000 6.410000
v -4.640000 9.180000 6.130000
v -4.640000 8.980000 6.130000
v -5.360000 8.980000 6.130000
v -5.360000 9.180000 6.130000
v -4.640000 8.980000 6.410000
v -4.640000 9.180000 6.410000
v -5.360000 9.180000 6.410000
v -5.360000 8.980000 6.410000
v 4.510000 7.920000 4.650000
v 5.490000 7.920000 4.650000
v 5.490000 7.920000 4.830000
v 4.510000 7.920000 4.830000
v 5.650000 8.080000 4.650000
v 5.650000 8.080000 4.830000
v 5.650000 8.920000 4.650000
v 5.650000 8.920000 4.830000
v 5.490000 9.080000 4.650000
v 5.490000 9.080000 4.830000
v 4.510000 9.080000 4.650000
v 4.510000 9.080000 4.830000
v 4.350000 8.920000 4.650000
v 4.350000 8.920000 4.830000
v 4.350000 8.080000 4.650000
v 4.350000 8.080000 4.830000
v 4.420000 7.980000 4.830000
v 5.580000 7.980000 4.830000
v 5.500000 8.030000 5.350000
v 4.500000 8.030000 5.350000
v 5.580000 9.020000 4.830000
v 5.500000 8.970000 5.350000
v 4.420000 9.020000 4.830000
v 4.500000 8.970000 5.350000
v 4.710000 8.040000 5.240000
v 5.290000 8.040000 5.240000
v 5.290000 8.040000 6.160000
v 4.710000 8.040000 6.160000
v 5.490000 8.240000 5.240000
v 5.490000 8.240000 6.160000
v 5.490000 8.760000 5.240000
v 5.490000 8.760000 6.160000
v 5.290000 8.960000 5.240000
v 5.290000 8.960000 6.160000
v 4.710000 8.960000 5.240000
v 4.710000 8.960000 6.160000
v 4.510000 8.760000 5.240000
v 4.510000 8.760000 6.160000
v 4.510000 8.240000 5.240000
v 4.510000 8.240000 6.160000
v 4.750000 7.970000 5.300000
v 5.250000 7.970000 5.300000
v 5.250000 7.970000 6.100000
v 4.750000 7.970000 6.100000
v 5.350000 8.070000 5.300000
v 5.350000 8.070000 6.100000
v 5.350000 8.930000 5.300000
v 5.350000 8.930000 6.100000
v 5.250000 9.030000 5.300000
v 5.250000 9.030000 6.100000
v 4.750000 9.030000 5.300000
v 4.750000 9.030000 6.100000
v 4.650000 8.930000 5.300000
v 4.650000 8.930000 6.100000
v 4.650000 8.070000 5.300000
v 4.650000 8.070000 6.100000
v 4.530000 8.060000 6.050000
v 5.470000 8.060000 6.050000
v 5.580000 8.000000 6.610000
v 4.420000 8.000000 6.610000
v 5.470000 8.940000 6.050000
v 5.580000 9.000000 6.610000
v 4.530000 8.940000 6.050000
v 4.420000 9.000000 6.610000
v 4.540000 9.000000 4.900000
v 4.540000 8.000000 4.900000
v 4.420000 8.000000 4.900000
v 4.420000 9.000000 4.900000
v 4.540000 8.000000 5.240000
v 4.540000 9.000000 5.240000
v 4.420000 9.000000 5.240000
v 4.420000 8.000000 5.240000
v 4.540000 8.970000 5.340000
v 4.540000 8.030000 5.340000
v 4.420000 8.030000 5.340000
v 4.420000 8.970000 5.340000
v 4.540000 8.030000 5.680000
v 4.540000 8.970000 5.680000
v 4.420000 8.970000 5.680000
v 4.420000 8.030000 5.680000
v 4.540000 8.940000 5.780000
v 4.540000 8.060000 5.780000
v 4.420000 8.060000 5.780000
v 4.420000 8.940000 5.780000
v 4.540000 8.060000 6.120000
v 4.540000 8.940000 6.120000
v 4.420000 8.940000 6.120000
v 4.420000 8.060000 6.120000
v 4.540000 8.910000 6.200000
v 4.540000 8.090000 6.200000
v 4.420000 8.090000 6.200000
v 4.420000 8.910000 6.200000
v 4.540000 8.090000 6.540000
v 4.540000 8.910000 6.540000
v 4.420000 8.910000 6.540000
v 4.420000 8.090000 6.540000
v 5.360000 8.020000 6.130000
v 5.360000 7.820000 6.130000
v 4.640000 7.820000 6.130000
v 4.640000 8.020000 6.130000
v 5.360000 7.820000 6.410000
v 5.360000 8.020000 6.410000
v 4.640000 8.020000 6.410000
v 4.640000 7.820000 6.410000
v 5.360000 9.180000 6.130000
v 5.360000 8.980000 6.130000
v 4.640000 8.980000 6.130000
v 4.640000 9.180000 6.130000
v 5.360000 8.980000 6.410000
v 5.360000 9.180000 6.410000
v 4.640000 9.180000 6.410000
v 4.640000 8.980000 6.410000
v 5.650000 8.970000 6.160000
v 5.650000 8.030000 6.160000
v -5.650000 8.030000 6.160000
v -5.650000 8.970000 6.160000
v 5.650000 8.030000 6.780000
v 5.650000 8.970000 6.780000
v -5.650000 8.970000 6.780000
v -5.650000 8.030000 6.780000
v 5.300000 8.800000 6.010000
v 5.300000 8.080000 6.010000
v -5.300000 8.080000 6.010000
v -5.300000 8.800000 6.010000
v 5.300000 8.080000 6.210000
v 5.300000 8.800000 6.210000
v -5.300000 8.800000 6.210000
v -5.300000 8.080000 6.210000
v -5.670000 7.970000 6.750000
v 5.670000 7.970000 6.750000
v 5.670000 7.970000 6.990000
v -5.670000 7.970000 6.990000
v 5.800000 8.100000 6.750000
v 5.800000 8.100000 6.990000
v 5.800000 8.900000 6.750000
v 5.800000 8.900000 6.990000
v 5.670000 9.030000 6.750000
v 5.670000 9.030000 6.990000
v -5.670000 9.030000 6.750000
v -5.670000 9.030000 6.990000
v -5.800000 8.900000 6.750000
v -5.800000 8.900000 6.990000
v -5.800000 8.100000 6.750000
v -5.800000 8.100000 6.990000
v 4.800000 8.920000 5.870000
v 4.800000 8.680000 5.870000
v -4.800000 8.680000 5.870000
v -4.800000 8.920000 5.870000
v 4.800000 8.680000 6.110000
v 4.800000 8.920000 6.110000
v -4.800000 8.920000 6.110000
v -4.800000 8.680000 6.110000
v -4.260000 8.920000 4.770000
v -4.260000 8.680000 4.770000
v -4.500000 8.680000 4.770000
v -4.500000 8.920000 4.770000
v -4.260000 8.680000 6.830000
v -4.260000 8.920000 6.830000
v -4.500000 8.920000 6.830000
v -4.500000 8.680000 6.830000
v 4.500000 8.920000 4.770000
v 4.500000 8.680000 4.770000
v 4.260000 8.680000 4.770000
v 4.260000 8.920000 4.770000
v 4.500000 8.680000 6.830000
v 4.500000 8.920000 6.830000
v 4.260000 8.920000 6.830000
v 4.260000 8.680000 6.830000
v 4.450000 8.270000 5.180000
v 4.450000 8.050000 5.180000
v -4.450000 8.050000 5.180000
v -4.450000 8.270000 5.180000
v 4.450000 8.050000 5.360000
v 4.450000 8.270000 5.360000
v -4.450000 8.270000 5.360000
v -4.450000 8.050000 5.360000
v 4.450000 8.270000 5.800000
v 4.450000 8.050000 5.800000
v -4.450000 8.050000 5.800000
v -4.450000 8.270000 5.800000
v 4.450000 8.050000 5.980000
v 4.450000 8.270000 5.980000
v -4.450000 8.270000 5.980000
v -4.450000 8.050000 5.980000
v -3.720000 8.800000 5.900000
v -3.720000 8.200000 5.900000
v -3.880000 8.200000 5.900000
v -3.880000 8.800000 5.900000
v -3.720000 8.200000 6.200000
v -3.720000 8.800000 6.200000
v -3.880000 8.800000 6.200000
v -3.880000 8.200000 6.200000
v -2.200000 8.800000 5.900000
v -2.200000 8.200000 5.900000
v -2.360000 8.200000 5.900000
v -2.360000 8.800000 5.900000
v -2.200000 8.200000 6.200000
v -2.200000 8.800000 6.200000
v -2.360000 8.800000 6.200000
v -2.360000 8.200000 6.200000
v -0.680000 8.800000 5.900000
v -0.680000 8.200000 5.900000
v -0.840000 8.200000 5.900000
v -0.840000 8.800000 5.900000
v -0.680000 8.200000 6.200000
v -0.680000 8.800000 6.200000
v -0.840000 8.800000 6.200000
v -0.840000 8.200000 6.200000
v 0.840000 8.800000 5.900000
v 0.840000 8.200000 5.900000
v 0.680000 8.200000 5.900000
v 0.680000 8.800000 5.900000
v 0.840000 8.200000 6.200000
v 0.840000 8.800000 6.200000
v 0.680000 8.800000 6.200000
v 0.680000 8.200000 6.200000
v 2.360000 8.800000 5.900000
v 2.360000 8.200000 5.900000
v 2.200000 8.200000 5.900000
v 2.200000 8.800000 5.900000
v 2.360000 8.200000 6.200000
v 2.360000 8.800000 6.200000
v 2.200000 8.800000 6.200000
v 2.200000 8.200000 6.200000
v 3.880000 8.800000 5.900000
v 3.880000 8.200000 5.900000
v 3.720000 8.200000 5.900000
v 3.720000 8.800000 5.900000
v 3.880000 8.200000 6.200000
v 3.880000 8.800000 6.200000
v 3.720000 8.800000 6.200000
v 3.720000 8.200000 6.200000
v -3.585000 8.500000 6.970000
v -3.617500 8.556292 6.970000
v -3.617500 8.556292 7.500000
v -3.585000 8.500000 7.500000
v -3.682500 8.556292 6.970000
v -3.682500 8.556292 7.500000
v -3.715000 8.500000 6.970000
v -3.715000 8.500000 7.500000
v -3.682500 8.443708 6.970000
v -3.682500 8.443708 7.500000
v -3.617500 8.443708 6.970000
v -3.617500 8.443708 7.500000
v -3.500000 8.650000 7.490000
v -3.500000 8.350000 7.490000
v -3.800000 8.350000 7.490000
v -3.800000 8.650000 7.490000
v -3.500000 8.350000 7.630000
v -3.500000 8.650000 7.630000
v -3.800000 8.650000 7.630000
v -3.800000 8.350000 7.630000
v -1.151667 8.500000 6.970000
v -1.184167 8.556292 6.970000
v -1.184167 8.556292 7.500000
v -1.151667 8.500000 7.500000
v -1.249167 8.556292 6.970000
v -1.249167 8.556292 7.500000
v -1.281667 8.500000 6.970000
v -1.281667 8.500000 7.500000
v -1.249167 8.443708 6.970000
v -1.249167 8.443708 7.500000
v -1.184167 8.443708 6.970000
v -1.184167 8.443708 7.500000
v -1.066667 8.650000 7.490000
v -1.066667 8.350000 7.490000
v -1.366667 8.350000 7.490000
v -1.366667 8.650000 7.490000
v -1.066667 8.350000 7.630000
v -1.066667 8.650000 7.630000
v -1.366667 8.650000 7.630000
v -1.366667 8.350000 7.630000
v 1.281667 8.500000 6.970000
v 1.249167 8.556292 6.970000
v 1.249167 8.556292 7.500000
v 1.281667 8.500000 7.500000
v 1.184167 8.556292 6.970000
v 1.184167 8.556292 7.500000
v 1.151667 8.500000 6.970000
v 1.151667 8.500000 7.500000
v 1.184167 8.443708 6.970000
v 1.184167 8.443708 7.500000
v 1.249167 8.443708 6.970000
v 1.249167 8.443708 7.500000
v 1.366667 8.650000 7.490000
v 1.366667 8.350000 7.490000
v 1.066667 8.350000 7.490000
v 1.066667 8.650000 7.490000
v 1.366667 8.350000 7.630000
v 1.366667 8.650000 7.630000
v 1.066667 8.650000 7.630000
v 1.066667 8.350000 7.630000
v 3.715000 8.500000 6.970000
v 3.682500 8.556292 6.970000
v 3.682500 8.556292 7.500000
v 3.715000 8.500000 7.500000
v 3.617500 8.556292 6.970000
v 3.617500 8.556292 7.500000
v 3.585000 8.500000 6.970000
v 3.585000 8.500000 7.500000
v 3.617500 8.443708 6.970000
v 3.617500 8.443708 7.500000
v 3.682500 8.443708 6.970000
v 3.682500 8.443708 7.500000
v 3.800000 8.650000 7.490000
v 3.800000 8.350000 7.490000
v 3.500000 8.350000 7.490000
v 3.500000 8.650000 7.490000
v 3.800000 8.350000 7.630000
v 3.800000 8.650000 7.630000
v 3.500000 8.650000 7.630000
v 3.500000 8.350000 7.630000
v -5.380000 8.810000 6.990000
v -5.380000 8.190000 6.990000
v -5.720000 8.190000 6.990000
v -5.720000 8.810000 6.990000
v -5.380000 8.190000 7.350000
v -5.380000 8.810000 7.350000
v -5.720000 8.810000 7.350000
v -5.720000 8.190000 7.350000
v 5.720000 8.810000 6.990000
v 5.720000 8.190000 6.990000
v 5.380000 8.190000 6.990000
v 5.380000 8.810000 6.990000
v 5.720000 8.190000 7.350000
v 5.720000 8.810000 7.350000
v 5.380000 8.810000 7.350000
v 5.380000 8.190000 7.350000
v -5.600000 8.055000 6.530000
v -5.600000 8.017500 6.594952
v 5.600000 8.017500 6.594952
v 5.600000 8.055000 6.530000
v -5.600000 7.942500 6.594952
v 5.600000 7.942500 6.594952
v -5.600000 7.905000 6.530000
v 5.600000 7.905000 6.530000
v -5.600000 7.942500 6.465048
v 5.600000 7.942500 6.465048
v -5.600000 8.017500 6.465048
v 5.600000 8.017500 6.465048
v -5.600000 8.035000 6.562000
v -5.600000 8.007500 6.609631
v 5.600000 8.007500 6.609631
v 5.600000 8.035000 6.562000
v -5.600000 7.952500 6.609631
v 5.600000 7.952500 6.609631
v -5.600000 7.925000 6.562000
v 5.600000 7.925000 6.562000
v -5.600000 7.952500 6.514369
v 5.600000 7.952500 6.514369
v -5.600000 8.007500 6.514369
v 5.600000 8.007500 6.514369
v -4.380000 7.980000 4.890000
v -4.415000 8.040622 4.890000
v -4.415000 8.040622 6.410000
v -4.380000 7.980000 6.410000
v -4.485000 8.040622 4.890000
v -4.485000 8.040622 6.410000
v -4.520000 7.980000 4.890000
v -4.520000 7.980000 6.410000
v -4.485000 7.919378 4.890000
v -4.485000 7.919378 6.410000
v -4.415000 7.919378 4.890000
v -4.415000 7.919378 6.410000
v -4.350000 8.070000 4.930000
v -4.350000 7.890000 4.930000
v -4.550000 7.890000 4.930000
v -4.550000 8.070000 4.930000
v -4.350000 7.890000 5.050000
v -4.350000 8.070000 5.050000
v -4.550000 8.070000 5.050000
v -4.550000 7.890000 5.050000
v -4.350000 8.070000 5.510000
v -4.350000 7.890000 5.510000
v -4.550000 7.890000 5.510000
v -4.550000 8.070000 5.510000
v -4.350000 7.890000 5.630000
v -4.350000 8.070000 5.630000
v -4.550000 8.070000 5.630000
v -4.550000 7.890000 5.630000
v -4.350000 8.070000 6.090000
v -4.350000 7.890000 6.090000
v -4.550000 7.890000 6.090000
v -4.550000 8.070000 6.090000
v -4.350000 7.890000 6.210000
v -4.350000 8.070000 6.210000
v -4.550000 8.070000 6.210000
v -4.550000 7.890000 6.210000
v -0.550000 7.870000 6.020000
v 0.550000 7.870000 6.020000
v 0.550000 7.870000 6.800000
v -0.550000 7.870000 6.800000
v 0.750000 8.070000 6.020000
v 0.750000 8.070000 6.800000
v 0.750000 8.530000 6.020000
v 0.750000 8.530000 6.800000
v 0.550000 8.730000 6.020000
v 0.550000 8.730000 6.800000
v -0.550000 8.730000 6.020000
v -0.550000 8.730000 6.800000
v -0.750000 8.530000 6.020000
v -0.750000 8.530000 6.800000
v -0.750000 8.070000 6.020000
v -0.750000 8.070000 6.800000
v 0.480000 7.910000 6.180000
v 0.480000 7.770000 6.180000
v -0.480000 7.770000 6.180000
v -0.480000 7.910000 6.180000
v 0.480000 7.770000 6.640000
v 0.480000 7.910000 6.640000
v -0.480000 7.910000 6.640000
v -0.480000 7.770000 6.640000
v -0.790000 8.420000 6.140000
v -0.790000 7.980000 6.140000
v -1.050000 7.980000 6.140000
v -1.050000 8.420000 6.140000
v -0.790000 7.980000 6.680000
v -0.790000 8.420000 6.680000
v -1.050000 8.420000 6.680000
v -1.050000 7.980000 6.680000
v 1.050000 8.420000 6.140000
v 1.050000 7.980000 6.140000
v 0.790000 7.980000 6.140000
v 0.790000 8.420000 6.140000
v 1.050000 7.980000 6.680000
v 1.050000 8.420000 6.680000
v 0.790000 8.420000 6.680000
v 0.790000 7.980000 6.680000
vt -5.490000 4.650000
vt -4.510000 4.650000
vt -4.510000 4.830000
vt -5.490000 4.830000
vt 7.920000 4.650000
vt 8.080000 4.650000
vt 8.080000 4.830000
vt 7.920000 4.830000
vt 8.920000 4.650000
vt 8.920000 4.830000
vt 9.080000 4.650000
vt 9.080000 4.830000
vt -5.490000 7.920000
vt -4.510000 7.920000
vt -4.350000 8.080000
vt -4.350000 8.920000
vt -4.510000 9.080000
vt -5.490000 9.080000
vt -5.650000 8.920000
vt -5.650000 8.080000
vt -5.580000 4.830000
vt -4.420000 4.830000
vt -4.500000 5.350000
vt -5.500000 5.350000
vt 7.980000 4.830000
vt 9.020000 4.830000
vt 8.970000 5.350000
vt 8.030000 5.350000
vt -5.500000 8.030000
vt -4.500000 8.030000
vt -4.500000 8.970000
vt -5.500000 8.970000
vt -5.580000 9.020000
vt -4.420000 9.020000
vt -4.420000 7.980000
vt -5.580000 7.980000
vt -5.290000 5.240000
vt -4.710000 5.240000
vt -4.710000 6.160000
vt -5.290000 6.160000
vt -4.510000 5.240000
vt -4.510000 6.160000
vt 8.240000 5.240000
vt 8.760000 5.240000
vt 8.760000 6.160000
vt 8.240000 6.160000
vt -5.490000 5.240000
vt -5.490000 6.160000
vt -5.290000 8.040000
vt -4.710000 8.040000
vt -4.510000 8.240000
vt -4.510000 8.760000
vt -4.710000 8.960000
vt -5.290000 8.960000
vt -5.490000 8.760000
vt -5.490000 8.240000
vt -5.250000 5.300000
vt -4.750000 5.300000
vt -4.750000 6.100000
vt -5.250000 6.100000
vt 7.970000 5.300000
vt 8.070000 5.300000
vt 8.070000 6.100000
vt 7.970000 6.100000
vt 8.930000 5.300000
vt 8.930000 6.100000
vt 9.030000 5.300000
vt 9.030000 6.100000
vt -5.350000 5.300000
vt -5.350000 6.100000
vt -5.250000 7.970000
vt -4.750000 7.970000
vt -4.650000 8.070000
vt -4.650000 8.930000
vt -4.750000 9.030000
vt -5.250000 9.030000
vt -5.350000 8.930000
vt -5.350000 8.070000
vt -5.470000 6.050000
vt -4.530000 6.050000
vt -4.420000 6.610000
vt -5.580000 6.610000
vt 8.060000 6.050000
vt 8.940000 6.050000
vt 9.000000 6.610000
vt 8.000000 6.610000
vt -5.580000 8.000000
vt -4.420000 8.000000
vt -4.420000 9.000000
vt -5.580000 9.000000
vt -5.470000 8.940000
vt -4.530000 8.940000
vt -4.530000 8.060000
vt -5.470000 8.060000
vt -4.540000 8.000000
vt -4.540000 9.000000
vt -4.420000 4.900000
vt -4.420000 5.240000
vt -4.540000 5.240000
vt -4.540000 4.900000
vt 8.000000 4.900000
vt 8.000000 5.240000
vt 9.000000 5.240000
vt 9.000000 4.900000
vt -4.420000 8.970000
vt -4.420000 8.030000
vt -4.540000 8.030000
vt -4.540000 8.970000
vt -4.420000 5.340000
vt -4.420000 5.680000
vt -4.540000 5.680000
vt -4.540000 5.340000
vt 8.030000 5.340000
vt 8.030000 5.680000
vt 8.970000 5.680000
vt 8.970000 5.340000
vt -4.420000 8.940000
vt -4.420000 8.060000
vt -4.540000 8.060000
vt -4.540000 8.940000
vt -4.420000 5.780000
vt -4.420000 6.120000
vt -4.540000 6.120000
vt -4.540000 5.780000
vt 8.060000 5.780000
vt 8.060000 6.120000
vt 8.940000 6.120000
vt 8.940000 5.780000
vt -4.420000 8.910000
vt -4.420000 8.090000
vt -4.540000 8.090000
vt -4.540000 8.910000
vt -4.420000 6.200000
vt -4.420000 6.540000
vt -4.540000 6.540000
vt -4.540000 6.200000
vt 8.090000 6.200000
vt 8.090000 6.540000
vt 8.910000 6.540000
vt 8.910000 6.200000
vt -4.640000 8.020000
vt -4.640000 7.820000
vt -5.360000 7.820000
vt -5.360000 8.020000
vt -4.640000 6.130000
vt -4.640000 6.410000
vt -5.360000 6.410000
vt -5.360000 6.130000
vt 7.820000 6.130000
vt 7.820000 6.410000
vt 8.020000 6.410000
vt 8.020000 6.130000
vt -4.640000 9.180000
vt -4.640000 8.980000
vt -5.360000 8.980000
vt -5.360000 9.180000
vt 8.980000 6.130000
vt 8.980000 6.410000
vt 9.180000 6.410000
vt 9.180000 6.130000
vt 4.510000 4.650000
vt 5.490000 4.650000
vt 5.490000 4.830000
vt 4.510000 4.830000
vt 4.510000 7.920000
vt 5.490000 7.920000
vt 5.650000 8.080000
vt 5.650000 8.920000
vt 5.490000 9.080000
vt 4.510000 9.080000
vt 4.350000 8.920000
vt 4.350000 8.080000
vt 4.420000 4.830000
vt 5.580000 4.830000
vt 5.500000 5.350000
vt 4.500000 5.350000
vt 4.500000 8.030000
vt 5.500000 8.030000
vt 5.500000 8.970000
vt 4.500000 8.970000
vt 4.420000 9.020000
vt 5.580000 9.020000
vt 5.580000 7.980000
vt 4.420000 7.980000
vt 4.710000 5.240000
vt 5.290000 5.240000
vt 5.290000 6.160000
vt 4.710000 6.160000
vt 5.490000 5.240000
vt 5.490000 6.160000
vt 4.510000 5.240000
vt 4.510000 6.160000
vt 4.710000 8.040000
vt 5.290000 8.040000
vt 5.490000 8.240000
vt 5.490000 8.760000
vt 5.290000 8.960000
vt 4.710000 8.960000
vt 4.510000 8.760000
vt 4.510000 8.240000
vt 4.750000 5.300000
vt 5.250000 5.300000
vt 5.250000 6.100000
vt 4.750000 6.100000
vt 5.350000 5.300000
vt 5.350000 6.100000
vt 4.750000 7.970000
vt 5.250000 7.970000
vt 5.350000 8.070000
vt 5.350000 8.930000
vt 5.250000 9.030000
vt 4.750000 9.030000
vt 4.650000 8.930000
vt 4.650000 8.070000
vt 4.530000 6.050000
vt 5.470000 6.050000
vt 5.580000 6.610000
vt 4.420000 6.610000
vt 4.420000 8.000000
vt 5.580000 8.000000
vt 5.580000 9.000000
vt 4.420000 9.000000
vt 4.530000 8.940000
vt 5.470000 8.940000
vt 5.470000 8.060000
vt 4.530000 8.060000
vt 4.540000 9.000000
vt 4.540000 8.000000
vt 4.540000 4.900000
vt 4.540000 5.240000
vt 4.420000 5.240000
vt 4.420000 4.900000
vt 4.540000 8.970000
vt 4.540000 8.030000
vt 4.420000 8.030000
vt 4.420000 8.970000
vt 4.540000 5.340000
vt 4.540000 5.680000
vt 4.420000 5.680000
vt 4.420000 5.340000
vt 4.540000 8.940000
vt 4.540000 8.060000
vt 4.420000 8.060000
vt 4.420000 8.940000
vt 4.540000 5.780000
vt 4.540000 6.120000
vt 4.420000 6.120000
vt 4.420000 5.780000
vt 4.540000 8.910000
vt 4.540000 8.090000
vt 4.420000 8.090000
vt 4.420000 8.910000
vt 4.540000 6.200000
vt 4.540000 6.540000
vt 4.420000 6.540000
vt 4.420000 6.200000
vt 5.360000 8.020000
vt 5.360000 7.820000
vt 4.640000 7.820000
vt 4.640000 8.020000
vt 5.360000 6.130000
vt 5.360000 6.410000
vt 4.640000 6.410000
vt 4.640000 6.130000
vt 5.360000 9.180000
vt 5.360000 8.980000
vt 4.640000 8.980000
vt 4.640000 9.180000
vt 5.650000 8.970000
vt 5.650000 8.030000
vt -5.650000 8.030000
vt -5.650000 8.970000
vt 5.650000 6.160000
vt 5.650000 6.780000
vt -5.650000 6.780000
vt -5.650000 6.160000
vt 8.030000 6.160000
vt 8.030000 6.780000
vt 8.970000 6.780000
vt 8.970000 6.160000
vt 5.300000 8.800000
vt 5.300000 8.080000
vt -5.300000 8.080000
vt -5.300000 8.800000
vt 5.300000 6.010000
vt 5.300000 6.210000
vt -5.300000 6.210000
vt -5.300000 6.010000
vt 8.080000 6.010000
vt 8.080000 6.210000
vt 8.800000 6.210000
vt 8.800000 6.010000
vt -5.670000 6.750000
vt 5.670000 6.750000
vt 5.670000 6.990000
vt -5.670000 6.990000
vt 5.800000 6.750000
vt 5.800000 6.990000
vt 8.100000 6.750000
vt 8.900000 6.750000
vt 8.900000 6.990000
vt 8.100000 6.990000
vt 9.030000 6.750000
vt 9.030000 6.990000
vt -5.800000 6.750000
vt -5.800000 6.990000
vt -5.670000 7.970000
vt 5.670000 7.970000
vt 5.800000 8.100000
vt 5.800000 8.900000
vt 5.670000 9.030000
vt -5.670000 9.030000
vt -5.800000 8.900000
vt -5.800000 8.100000
vt 4.800000 8.920000
vt 4.800000 8.680000
vt -4.800000 8.680000
vt -4.800000 8.920000
vt 4.800000 5.870000
vt 4.800000 6.110000
vt -4.800000 6.110000
vt -4.800000 5.870000
vt 8.680000 5.870000
vt 8.680000 6.110000
vt 8.920000 6.110000
vt 8.920000 5.870000
vt -4.260000 8.920000
vt -4.260000 8.680000
vt -4.500000 8.680000
vt -4.500000 8.920000
vt -4.260000 4.770000
vt -4.260000 6.830000
vt -4.500000 6.830000
vt -4.500000 4.770000
vt 8.680000 4.770000
vt 8.680000 6.830000
vt 8.920000 6.830000
vt 8.920000 4.770000
vt 4.500000 8.920000
vt 4.500000 8.680000
vt 4.260000 8.680000
vt 4.260000 8.920000
vt 4.500000 4.770000
vt 4.500000 6.830000
vt 4.260000 6.830000
vt 4.260000 4.770000
vt 4.450000 8.270000
vt 4.450000 8.050000
vt -4.450000 8.050000
vt -4.450000 8.270000
vt 4.450000 5.180000
vt 4.450000 5.360000
vt -4.450000 5.360000
vt -4.450000 5.180000
vt 8.050000 5.180000
vt 8.050000 5.360000
vt 8.270000 5.360000
vt 8.270000 5.180000
vt 4.450000 5.800000
vt 4.450000 5.980000
vt -4.450000 5.980000
vt -4.450000 5.800000
vt 8.050000 5.800000
vt 8.050000 5.980000
vt 8.270000 5.980000
vt 8.270000 5.800000
vt -3.720000 8.800000
vt -3.720000 8.200000
vt -3.880000 8.200000
vt -3.880000 8.800000
vt -3.720000 5.900000
vt -3.720000 6.200000
vt -3.880000 6.200000
vt -3.880000 5.900000
vt 8.200000 5.900000
vt 8.200000 6.200000
vt 8.800000 6.200000
vt 8.800000 5.900000
vt -2.200000 8.800000
vt -2.200000 8.200000
vt -2.360000 8.200000
vt -2.360000 8.800000
vt -2.200000 5.900000
vt -2.200000 6.200000
vt -2.360000 6.200000
vt -2.360000 5.900000
vt -0.680000 8.800000
vt -0.680000 8.200000
vt -0.840000 8.200000
vt -0.840000 8.800000
vt -0.680000 5.900000
vt -0.680000 6.200000
vt -0.840000 6.200000
vt -0.840000 5.900000
vt 0.840000 8.800000
vt 0.840000 8.200000
vt 0.680000 8.200000
vt 0.680000 8.800000
vt 0.840000 5.900000
vt 0.840000 6.200000
vt 0.680000 6.200000
vt 0.680000 5.900000
vt 2.360000 8.800000
vt 2.360000 8.200000
vt 2.200000 8.200000
vt 2.200000 8.800000
vt 2.360000 5.900000
vt 2.360000 6.200000
vt 2.200000 6.200000
vt 2.200000 5.900000
vt 3.880000 8.800000
vt 3.880000 8.200000
vt 3.720000 8.200000
vt 3.720000 8.800000
vt 3.880000 5.900000
vt 3.880000 6.200000
vt 3.720000 6.200000
vt 3.720000 5.900000
vt 8.500000 6.970000
vt 8.556292 6.970000
vt 8.556292 7.500000
vt 8.500000 7.500000
vt -3.617500 6.970000
vt -3.682500 6.970000
vt -3.682500 7.500000
vt -3.617500 7.500000
vt 8.443708 6.970000
vt 8.443708 7.500000
vt -3.500000 8.650000
vt -3.500000 8.350000
vt -3.800000 8.350000
vt -3.800000 8.650000
vt -3.500000 7.490000
vt -3.500000 7.630000
vt -3.800000 7.630000
vt -3.800000 7.490000
vt 8.350000 7.490000
vt 8.350000 7.630000
vt 8.650000 7.630000
vt 8.650000 7.490000
vt -1.184167 6.970000
vt -1.249167 6.970000
vt -1.249167 7.500000
vt -1.184167 7.500000
vt -1.066667 8.650000
vt -1.066667 8.350000
vt -1.366667 8.350000
vt -1.366667 8.650000
vt -1.066667 7.490000
vt -1.066667 7.630000
vt -1.366667 7.630000
vt -1.366667 7.490000
vt 1.249167 6.970000
vt 1.184167 6.970000
vt 1.184167 7.500000
vt 1.249167 7.500000
vt 1.366667 8.650000
vt 1.366667 8.350000
vt 1.066667 8.350000
vt 1.066667 8.650000
vt 1.366667 7.490000
vt 1.366667 7.630000
vt 1.066667 7.630000
vt 1.066667 7.490000
vt 3.682500 6.970000
vt 3.617500 6.970000
vt 3.617500 7.500000
vt 3.682500 7.500000
vt 3.800000 8.650000
vt 3.800000 8.350000
vt 3.500000 8.350000
vt 3.500000 8.650000
vt 3.800000 7.490000
vt 3.800000 7.630000
vt 3.500000 7.630000
vt 3.500000 7.490000
vt -5.380000 8.810000
vt -5.380000 8.190000
vt -5.720000 8.190000
vt -5.720000 8.810000
vt -5.380000 6.990000
vt -5.380000 7.350000
vt -5.720000 7.350000
vt -5.720000 6.990000
vt 8.190000 6.990000
vt 8.190000 7.350000
vt 8.810000 7.350000
vt 8.810000 6.990000
vt 5.720000 8.810000
vt 5.720000 8.190000
vt 5.380000 8.190000
vt 5.380000 8.810000
vt 5.720000 6.990000
vt 5.720000 7.350000
vt 5.380000 7.350000
vt 5.380000 6.990000
vt -5.600000 6.530000
vt -5.600000 6.594952
vt 5.600000 6.594952
vt 5.600000 6.530000
vt -5.600000 8.017500
vt -5.600000 7.942500
vt 5.600000 7.942500
vt 5.600000 8.017500
vt -5.600000 6.465048
vt 5.600000 6.465048
vt -5.600000 6.562000
vt -5.600000 6.609631
vt 5.600000 6.609631
vt 5.600000 6.562000
vt -5.600000 8.007500
vt -5.600000 7.952500
vt 5.600000 7.952500
vt 5.600000 8.007500
vt -5.600000 6.514369
vt 5.600000 6.514369
vt 7.980000 4.890000
vt 8.040622 4.890000
vt 8.040622 6.410000
vt 7.980000 6.410000
vt -4.415000 4.890000
vt -4.485000 4.890000
vt -4.485000 6.410000
vt -4.415000 6.410000
vt 7.919378 4.890000
vt 7.919378 6.410000
vt -4.350000 8.070000
vt -4.350000 7.890000
vt -4.550000 7.890000
vt -4.550000 8.070000
vt -4.350000 4.930000
vt -4.350000 5.050000
vt -4.550000 5.050000
vt -4.550000 4.930000
vt 7.890000 4.930000
vt 7.890000 5.050000
vt 8.070000 5.050000
vt 8.070000 4.930000
vt -4.350000 5.510000
vt -4.350000 5.630000
vt -4.550000 5.630000
vt -4.550000 5.510000
vt 7.890000 5.510000
vt 7.890000 5.630000
vt 8.070000 5.630000
vt 8.070000 5.510000
vt -4.350000 6.090000
vt -4.350000 6.210000
vt -4.550000 6.210000
vt -4.550000 6.090000
vt 7.890000 6.090000
vt 7.890000 6.210000
vt 8.070000 6.210000
vt 8.070000 6.090000
vt -0.550000 6.020000
vt 0.550000 6.020000
vt 0.550000 6.800000
vt -0.550000 6.800000
vt 0.750000 6.020000
vt 0.750000 6.800000
vt 8.070000 6.020000
vt 8.530000 6.020000
vt 8.530000 6.800000
vt 8.070000 6.800000
vt -0.750000 6.020000
vt -0.750000 6.800000
vt -0.550000 7.870000
vt 0.550000 7.870000
vt 0.750000 8.070000
vt 0.750000 8.530000
vt 0.550000 8.730000
vt -0.550000 8.730000
vt -0.750000 8.530000
vt -0.750000 8.070000
vt 0.480000 7.910000
vt 0.480000 7.770000
vt -0.480000 7.770000
vt -0.480000 7.910000
vt 0.480000 6.180000
vt 0.480000 6.640000
vt -0.480000 6.640000
vt -0.480000 6.180000
vt 7.770000 6.180000
vt 7.770000 6.640000
vt 7.910000 6.640000
vt 7.910000 6.180000
vt -0.790000 8.420000
vt -0.790000 7.980000
vt -1.050000 7.980000
vt -1.050000 8.420000
vt -0.790000 6.140000
vt -0.790000 6.680000
vt -1.050000 6.680000
vt -1.050000 6.140000
vt 7.980000 6.140000
vt 7.980000 6.680000
vt 8.420000 6.680000
vt 8.420000 6.140000
vt 1.050000 8.420000
vt 1.050000 7.980000
vt 0.790000 7.980000
vt 0.790000 8.420000
vt 1.050000 6.140000
vt 1.050000 6.680000
vt 0.790000 6.680000
vt 0.790000 6.140000
vn 0.000000 -1.000000 0.000000
vn 0.707107 -0.707107 0.000000
vn 1.000000 0.000000 0.000000
vn 0.707107 0.707107 0.000000
vn 0.000000 1.000000 0.000000
vn -0.707107 0.707107 0.000000
vn -1.000000 0.000000 0.000000
vn -0.707107 -0.707107 0.000000
vn -0.000000 0.000000 1.000000
vn 0.000000 0.000000 -1.000000
vn 0.000000 -0.995409 0.095712
vn 0.988372 0.000000 0.152057
vn 0.000000 0.995409 0.095712
vn -0.988372 0.000000 0.152057
vn 0.000000 -0.994309 -0.106533
vn 0.981249 0.000000 -0.192745
vn 0.000000 0.994309 -0.106533
vn -0.981249 0.000000 -0.192745
vn 0.866025 0.500000 0.000000
vn -0.866025 0.500000 0.000000
vn -0.866025 -0.500000 0.000000
vn 0.866025 -0.500000 0.000000
vn 0.000000 0.866025 0.500000
vn 0.000000 -0.866025 0.500000
vn 0.000000 -0.866025 -0.500000
vn 0.000000 0.866025 -0.500000
g arch_support_west
f 1/1/1 2/2/1 3/3/1 4/4/1
f 2/5/2 5/6/2 6/7/2 3/8/2
f 5/6/3 7/9/3 8/10/3 6/7/3
f 7/9/4 9/11/4 10/12/4 8/10/4
f 9/2/5 11/1/5 12/4/5 10/3/5
f 11/11/6 13/9/6 14/10/6 12/12/6
f 13/9/7 15/6/7 16/7/7 14/10/7
f 15/6/8 1/5/8 4/8/8 16/7/8
f 4/13/9 3/14/9 6/15/9 8/16/9 10/17/9 12/18/9 14/19/9 16/20/9
f 15/20/10 13/19/10 11/18/10 9/17/10 7/16/10 5/15/10 2/14/10 1/13/10
f 17/21/11 18/22/11 19/23/11 20/24/11
f 18/25/12 21/26/12 22/27/12 19/28/12
f 21/22/13 23/21/13 24/24/13 22/23/13
f 23/26/14 17/25/14 20/28/14 24/27/14
f 20/29/9 19/30/9 22/31/9 24/32/9
f 23/33/10 21/34/10 18/35/10 17/36/10
f 25/37/1 26/38/1 27/39/1 28/40/1
f 26/38/2 29/41/2 30/42/2 27/39/2
f 29/43/3 31/44/3 32/45/3 30/46/3
f 31/41/4 33/38/4 34/39/4 32/42/4
f 33/38/5 35/37/5 36/40/5 34/39/5
f 35/37/6 37/47/6 38/48/6 36/40/6
f 37/44/7 39/43/7 40/46/7 38/45/7
f 39/47/8 25/37/8 28/40/8 40/48/8
f 28/49/9 27/50/9 30/51/9 32/52/9 34/53/9 36/54/9 38/55/9 40/56/9
f 39/56/10 37/55/10 35/54/10 33/53/10 31/52/10 29/51/10 26/50/10 25/49/10
f 41/57/1 42/58/1 43/59/1 44/60/1
f 42/61/2 45/62/2 46/63/2 43/64/2
f 45/62/3 47/65/3 48/66/3 46/63/3
f 47/65/4 49/67/4 50/68/4 48/66/4
f 49/58/5 51/57/5 52/60/5 50/59/5
f 51/57/6 53/69/6 54/70/6 52/60/6
f 53/65/7 55/62/7 56/63/7 54/66/7
f 55/62/8 41/61/8 44/64/8 56/63/8
f 44/71/9 43/72/9 46/73/9 48/74/9 50/75/9 52/76/9 54/77/9 56/78/9
f 55/78/10 53/77/10 51/76/10 49/75/10 47/74/10 45/73/10 42/72/10 41/71/10
f 57/79/15 58/80/15 59/81/15 60/82/15
f 58/83/16 61/84/16 62/85/16 59/86/16
f 61/80/17 63/79/17 64/82/17 62/81/17
f 63/84/18 57/83/18 60/86/18 64/85/18
f 60/87/9 59/88/9 62/89/9 64/90/9
f 63/91/10 61/92/10 58/93/10 57/94/10
f 65/89/10 66/88/10 67/95/10 68/96/10
f 69/88/9 70/89/9 71/96/9 72/95/9
f 66/97/1 69/98/1 72/99/1 67/100/1
f 68/100/5 71/99/5 70/98/5 65/97/5
f 67/101/7 72/102/7 71/103/7 68/104/7
f 65/104/3 70/103/3 69/102/3 66/101/3
f 73/105/10 74/106/10 75/107/10 76/108/10
f 77/106/9 78/105/9 79/108/9 80/107/9
f 74/109/1 77/110/1 80/111/1 75/112/1
f 76/112/5 79/111/5 78/110/5 73/109/5
f 75/113/7 80/114/7 79/115/7 76/116/7
f 73/116/3 78/115/3 77/114/3 74/113/3
f 81/117/10 82/118/10 83/119/10 84/120/10
f 85/118/9 86/117/9 87/120/9 88/119/9
f 82/121/1 85/122/1 88/123/1 83/124/1
f 84/124/5 87/123/5 86/122/5 81/121/5
f 83/125/7 88/126/7 87/127/7 84/128/7
f 81/128/3 86/127/3 85/126/3 82/125/3
f 89/129/10 90/130/10 91/131/10 92/132/10
f 93/130/9 94/129/9 95/132/9 96/131/9
f 90/133/1 93/134/1 96/135/1 91/136/1
f 92/136/5 95/135/5 94/134/5 89/133/5
f 91/137/7 96/138/7 95/139/7 92/140/7
f 89/140/3 94/139/3 93/138/3 90/137/3
f 97/141/10 98/142/10 99/143/10 100/144/10
f 101/142/9 102/141/9 103/144/9 104/143/9
f 98/145/1 101/146/1 104/147/1 99/148/1
f 100/148/5 103/147/5 102/146/5 97/145/5
f 99/149/7 104/150/7 103/151/7 100/152/7
f 97/152/3 102/151/3 101/150/3 98/149/3
f 105/153/10 106/154/10 107/155/10 108/156/10
f 109/154/9 110/153/9 111/156/9 112/155/9
f 106/145/1 109/146/1 112/147/1 107/148/1
f 108/148/5 111/147/5 110/146/5 105/145/5
f 107/157/7 112/158/7 111/159/7 108/160/7
f 105/160/3 110/159/3 109/158/3 106/157/3
g arch_support_east
f 113/161/1 114/162/1 115/163/1 116/164/1
f 114/5/2 117/6/2 118/7/2 115/8/2
f 117/6/3 119/9/3 120/10/3 118/7/3
f 119/9/4 121/11/4 122/12/4 120/10/4
f 121/162/5 123/161/5 124/164/5 122/163/5
f 123/11/6 125/9/6 126/10/6 124/12/6
f 125/9/7 127/6/7 128/7/7 126/10/7
f 127/6/8 113/5/8 116/8/8 128/7/8
f 116/165/9 115/166/9 118/167/9 120/168/9 122/169/9 124/170/9 126/171/9 128/172/9
f 127/172/10 125/171/10 123/170/10 121/169/10 119/168/10 117/167/10 114/166/10 113/165/10
f 129/173/11 130/174/11 131/175/11 132/176/11
f 130/25/12 133/26/12 134/27/12 131/28/12
f 133/174/13 135/173/13 136/176/13 134/175/13
f 135/26/14 129/25/14 132/28/14 136/27/14
f 132/177/9 131/178/9 134/179/9 136/180/9
f 135/181/10 133/182/10 130/183/10 129/184/10
f 137/185/1 138/186/1 139/187/1 140/188/1
f 138/186/2 141/189/2 142/190/2 139/187/2
f 141/43/3 143/44/3 144/45/3 142/46/3
f 143/189/4 145/186/4 146/187/4 144/190/4
f 145/186/5 147/185/5 148/188/5 146/187/5
f 147/185/6 149/191/6 150/192/6 148/188/6
f 149/44/7 151/43/7 152/46/7 150/45/7
f 151/191/8 137/185/8 140/188/8 152/192/8
f 140/193/9 139/194/9 142/195/9 144/196/9 146/197/9 148/198/9 150/199/9 152/200/9
f 151/200/10 149/199/10 147/198/10 145/197/10 143/196/10 141/195/10 138/194/10 137/193/10
f 153/201/1 154/202/1 155/203/1 156/204/1
f 154/61/2 157/62/2 158/63/2 155/64/2
f 157/62/3 159/65/3 160/66/3 158/63/3
f 159/205/4 161/202/4 162/203/4 160/206/4
f 161/202/5 163/201/5 164/204/5 162/203/5
f 163/67/6 165/65/6 166/66/6 164/68/6
f 165/65/7 167/62/7 168/63/7 166/66/7
f 167/62/8 153/61/8 156/64/8 168/63/8
f 156/207/9 155/208/9 158/209/9 160/210/9 162/211/9 164/212/9 166/213/9 168/214/9
f 167/214/10 165/213/10 163/212/10 161/211/10 159/210/10 157/209/10 154/208/10 153/207/10
f 169/215/15 170/216/15 171/217/15 172/218/15
f 170/83/16 173/84/16 174/85/16 171/86/16
f 173/216/17 175/215/17 176/218/17 174/217/17
f 175/84/18 169/83/18 172/86/18 176/85/18
f 172/219/9 171/220/9 174/221/9 176/222/9
f 175/223/10 173/224/10 170/225/10 169/226/10
f 177/227/10 178/228/10 179/219/10 180/222/10
f 181/228/9 182/227/9 183/222/9 184/219/9
f 178/229/1 181/230/1 184/231/1 179/232/1
f 180/232/5 183/231/5 182/230/5 177/229/5
f 179/101/7 184/102/7 183/103/7 180/104/7
f 177/104/3 182/103/3 181/102/3 178/101/3
f 185/233/10 186/234/10 187/235/10 188/236/10
f 189/234/9 190/233/9 191/236/9 192/235/9
f 186/237/1 189/238/1 192/239/1 187/240/1
f 188/240/5 191/239/5 190/238/5 185/237/5
f 187/113/7 192/114/7 191/115/7 188/116/7
f 185/116/3 190/115/3 189/114/3 186/113/3
f 193/241/10 194/242/10 195/243/10 196/244/10
f 197/242/9 198/241/9 199/244/9 200/243/9
f 194/245/1 197/246/1 200/247/1 195/248/1
f 196/248/5 199/247/5 198/246/5 193/245/5
f 195/125/7 200/126/7 199/127/7 196/128/7
f 193/128/3 198/127/3 197/126/3 194/125/3
f 201/249/10 202/250/10 203/251/10 204/252/10
f 205/250/9 206/249/9 207/252/9 208/251/9
f 202/253/1 205/254/1 208/255/1 203/256/1
f 204/256/5 207/255/5 206/254/5 201/253/5
f 203/137/7 208/138/7 207/139/7 204/140/7
f 201/140/3 206/139/3 205/138/3 202/137/3
f 209/257/10 210/258/10 211/259/10 212/260/10
f 213/258/9 214/257/9 215/260/9 216/259/9
f 210/261/1 213/262/1 216/263/1 211/264/1
f 212/264/5 215/263/5 214/262/5 209/261/5
f 211/149/7 216/150/7 215/151/7 212/152/7
f 209/152/3 214/151/3 213/150/3 210/149/3
f 217/265/10 218/266/10 219/267/10 220/268/10
f 221/266/9 222/265/9 223/268/9 224/267/9
f 218/261/1 221/262/1 224/263/1 219/264/1
f 220/264/5 223/263/5 222/262/5 217/261/5
f 219/157/7 224/158/7 223/159/7 220/160/7
f 217/160/3 222/159/3 221/158/3 218/157/3
g arch_header
f 225/269/10 226/270/10 227/271/10 228/272/10
f 229/270/9 230/269/9 231/272/9 232/271/9
f 226/273/1 229/274/1 232/275/1 227/276/1
f 228/276/5 231/275/5 230/274/5 225/273/5
f 227/277/7 232/278/7 231/279/7 228/280/7
f 225/280/3 230/279/3 229/278/3 226/277/3
f 233/281/10 234/282/10 235/283/10 236/284/10
f 237/282/9 238/281/9 239/284/9 240/283/9
f 234/285/1 237/286/1 240/287/1 235/288/1
f 236/288/5 239/287/5 238/286/5 233/285/5
f 235/289/7 240/290/7 239/291/7 236/292/7
f 233/292/3 238/291/3 237/290/3 234/289/3
f 241/293/1 242/294/1 243/295/1 244/296/1
f 242/294/2 245/297/2 246/298/2 243/295/2
f 245/299/3 247/300/3 248/301/3 246/302/3
f 247/300/4 249/303/4 250/304/4 248/301/4
f 249/294/5 251/293/5 252/296/5 250/295/5
f 251/303/6 253/300/6 254/301/6 252/304/6
f 253/300/7 255/299/7 256/302/7 254/301/7
f 255/305/8 241/293/8 244/296/8 256/306/8
f 244/307/9 243/308/9 246/309/9 248/310/9 250/311/9 252/312/9 254/313/9 256/314/9
f 255/314/10 253/313/10 251/312/10 249/311/10 247/310/10 245/309/10 242/308/10 241/307/10
f 257/315/10 258/316/10 259/317/10 260/318/10
f 261/316/9 262/315/9 263/318/9 264/317/9
f 258/319/1 261/320/1 264/321/1 259/322/1
f 260/322/5 263/321/5 262/320/5 257/319/5
f 259/323/7 264/324/7 263/325/7 260/326/7
f 257/326/3 262/325/3 261/324/3 258/323/3
f 265/327/10 266/328/10 267/329/10 268/330/10
f 269/328/9 270/327/9 271/330/9 272/329/9
f 266/331/1 269/332/1 272/333/1 267/334/1
f 268/334/5 271/333/5 270/332/5 265/331/5
f 267/335/7 272/336/7 271/337/7 268/338/7
f 265/338/3 270/337/3 269/336/3 266/335/3
f 273/339/10 274/340/10 275/341/10 276/342/10
f 277/340/9 278/339/9 279/342/9 280/341/9
f 274/343/1 277/344/1 280/345/1 275/346/1
f 276/346/5 279/345/5 278/344/5 273/343/5
f 275/335/7 280/336/7 279/337/7 276/338/7
f 273/338/3 278/337/3 277/336/3 274/335/3
g arch_cross_members
f 281/347/10 282/348/10 283/349/10 284/350/10
f 285/348/9 286/347/9 287/350/9 288/349/9
f 282/351/1 285/352/1 288/353/1 283/354/1
f 284/354/5 287/353/5 286/352/5 281/351/5
f 283/355/7 288/356/7 287/357/7 284/358/7
f 281/358/3 286/357/3 285/356/3 282/355/3
f 289/347/10 290/348/10 291/349/10 292/350/10
f 293/348/9 294/347/9 295/350/9 296/349/9
f 290/359/1 293/360/1 296/361/1 291/362/1
f 292/362/5 295/361/5 294/360/5 289/359/5
f 291/363/7 296/364/7 295/365/7 292/366/7
f 289/366/3 294/365/3 293/364/3 290/363/3
f 297/367/10 298/368/10 299/369/10 300/370/10
f 301/368/9 302/367/9 303/370/9 304/369/9
f 298/371/1 301/372/1 304/373/1 299/374/1
f 300/374/5 303/373/5 302/372/5 297/371/5
f 299/375/7 304/376/7 303/377/7 300/378/7
f 297/378/3 302/377/3 301/376/3 298/375/3
f 305/379/10 306/380/10 307/381/10 308/382/10
f 309/380/9 310/379/9 311/382/9 312/381/9
f 306/383/1 309/384/1 312/385/1 307/386/1
f 308/386/5 311/385/5 310/384/5 305/383/5
f 307/375/7 312/376/7 311/377/7 308/378/7
f 305/378/3 310/377/3 309/376/3 306/375/3
f 313/387/10 314/388/10 315/389/10 316/390/10
f 317/388/9 318/387/9 319/390/9 320/389/9
f 314/391/1 317/392/1 320/393/1 315/394/1
f 316/394/5 319/393/5 318/392/5 313/391/5
f 315/375/7 320/376/7 319/377/7 316/378/7
f 313/378/3 318/377/3 317/376/3 314/375/3
f 321/395/10 322/396/10 323/397/10 324/398/10
f 325/396/9 326/395/9 327/398/9 328/397/9
f 322/399/1 325/400/1 328/401/1 323/402/1
f 324/402/5 327/401/5 326/400/5 321/399/5
f 323/375/7 328/376/7 327/377/7 324/378/7
f 321/378/3 326/377/3 325/376/3 322/375/3
f 329/403/10 330/404/10 331/405/10 332/406/10
f 333/404/9 334/403/9 335/406/9 336/405/9
f 330/407/1 333/408/1 336/409/1 331/410/1
f 332/410/5 335/409/5 334/408/5 329/407/5
f 331/375/7 336/376/7 335/377/7 332/378/7
f 329/378/3 334/377/3 333/376/3 330/375/3
f 337/411/10 338/412/10 339/413/10 340/414/10
f 341/412/9 342/411/9 343/414/9 344/413/9
f 338/415/1 341/416/1 344/417/1 339/418/1
f 340/418/5 343/417/5 342/416/5 337/415/5
f 339/375/7 344/376/7 343/377/7 340/378/7
f 337/378/3 342/377/3 341/376/3 338/375/3
g arch_hangers
f 345/419/19 346/420/19 347/421/19 348/422/19
f 346/423/5 349/424/5 350/425/5 347/426/5
f 349/420/20 351/419/20 352/422/20 350/421/20
f 351/419/21 353/427/21 354/428/21 352/422/21
f 353/424/1 355/423/1 356/426/1 354/425/1
f 355/427/22 345/419/22 348/422/22 356/428/22
f 357/429/10 358/430/10 359/431/10 360/432/10
f 361/430/9 362/429/9 363/432/9 364/431/9
f 358/433/1 361/434/1 364/435/1 359/436/1
f 360/436/5 363/435/5 362/434/5 357/433/5
f 359/437/7 364/438/7 363/439/7 360/440/7
f 357/440/3 362/439/3 361/438/3 358/437/3
f 365/419/19 366/420/19 367/421/19 368/422/19
f 366/441/5 369/442/5 370/443/5 367/444/5
f 369/420/20 371/419/20 372/422/20 370/421/20
f 371/419/21 373/427/21 374/428/21 372/422/21
f 373/442/1 375/441/1 376/444/1 374/443/1
f 375/427/22 365/419/22 368/422/22 376/428/22
f 377/445/10 378/446/10 379/447/10 380/448/10
f 381/446/9 382/445/9 383/448/9 384/447/9
f 378/449/1 381/450/1 384/451/1 379/452/1
f 380/452/5 383/451/5 382/450/5 377/449/5
f 379/437/7 384/438/7 383/439/7 380/440/7
f 377/440/3 382/439/3 381/438/3 378/437/3
f 385/419/19 386/420/19 387/421/19 388/422/19
f 386/453/5 389/454/5 390/455/5 387/456/5
f 389/420/20 391/419/20 392/422/20 390/421/20
f 391/419/21 393/427/21 394/428/21 392/422/21
f 393/454/1 395/453/1 396/456/1 394/455/1
f 395/427/22 385/419/22 388/422/22 396/428/22
f 397/457/10 398/458/10 399/459/10 400/460/10
f 401/458/9 402/457/9 403/460/9 404/459/9
f 398/461/1 401/462/1 404/463/1 399/464/1
f 400/464/5 403/463/5 402/462/5 397/461/5
f 399/437/7 404/438/7 403/439/7 400/440/7
f 397/440/3 402/439/3 401/438/3 398/437/3
f 405/419/19 406/420/19 407/421/19 408/422/19
f 406/465/5 409/466/5 410/467/5 407/468/5
f 409/420/20 411/419/20 412/422/20 410/421/20
f 411/419/21 413/427/21 414/428/21 412/422/21
f 413/466/1 415/465/1 416/468/1 414/467/1
f 415/427/22 405/419/22 408/422/22 416/428/22
f 417/469/10 418/470/10 419/471/10 420/472/10
f 421/470/9 422/469/9 423/472/9 424/471/9
f 418/473/1 421/474/1 424/475/1 419/476/1
f 420/476/5 423/475/5 422/474/5 417/473/5
f 419/437/7 424/438/7 423/439/7 420/440/7
f 417/440/3 422/439/3 421/438/3 418/437/3
f 425/477/10 426/478/10 427/479/10 428/480/10
f 429/478/9 430/477/9 431/480/9 432/479/9
f 426/481/1 429/482/1 432/483/1 427/484/1
f 428/484/5 431/483/5 430/482/5 425/481/5
f 427/485/7 432/486/7 431/487/7 428/488/7
f 425/488/3 430/487/3 429/486/3 426/485/3
f 433/489/10 434/490/10 435/491/10 436/492/10
f 437/490/9 438/489/9 439/492/9 440/491/9
f 434/493/1 437/494/1 440/495/1 435/496/1
f 436/496/5 439/495/5 438/494/5 433/493/5
f 435/485/7 440/486/7 439/487/7 436/488/7
f 433/488/3 438/487/3 437/486/3 434/485/3
g arch_service_routing
f 441/497/23 442/498/23 443/499/23 444/500/23
f 442/501/9 445/502/9 446/503/9 443/504/9
f 445/498/24 447/497/24 448/500/24 446/499/24
f 447/497/25 449/505/25 450/506/25 448/500/25
f 449/502/10 451/501/10 452/504/10 450/503/10
f 451/505/26 441/497/26 444/500/26 452/506/26
f 453/507/23 454/508/23 455/509/23 456/510/23
f 454/511/9 457/512/9 458/513/9 455/514/9
f 457/508/24 459/507/24 460/510/24 458/509/24
f 459/507/25 461/515/25 462/516/25 460/510/25
f 461/512/10 463/511/10 464/514/10 462/513/10
f 463/515/26 453/507/26 456/510/26 464/516/26
f 465/517/19 466/518/19 467/519/19 468/520/19
f 466/521/5 469/522/5 470/523/5 467/524/5
f 469/518/20 471/517/20 472/520/20 470/519/20
f 471/517/21 473/525/21 474/526/21 472/520/21
f 473/522/1 475/521/1 476/524/1 474/523/1
f 475/525/22 465/517/22 468/520/22 476/526/22
f 477/527/10 478/528/10 479/529/10 480/530/10
f 481/528/9 482/527/9 483/530/9 484/529/9
f 478/531/1 481/532/1 484/533/1 479/534/1
f 480/534/5 483/533/5 482/532/5 477/531/5
f 479/535/7 484/536/7 483/537/7 480/538/7
f 477/538/3 482/537/3 481/536/3 478/535/3
f 485/527/10 486/528/10 487/529/10 488/530/10
f 489/528/9 490/527/9 491/530/9 492/529/9
f 486/539/1 489/540/1 492/541/1 487/542/1
f 488/542/5 491/541/5 490/540/5 485/539/5
f 487/543/7 492/544/7 491/545/7 488/546/7
f 485/546/3 490/545/3 489/544/3 486/543/3
f 493/527/10 494/528/10 495/529/10 496/530/10
f 497/528/9 498/527/9 499/530/9 500/529/9
f 494/547/1 497/548/1 500/549/1 495/550/1
f 496/550/5 499/549/5 498/548/5 493/547/5
f 495/551/7 500/552/7 499/553/7 496/554/7
f 493/554/3 498/553/3 497/552/3 494/551/3
g arch_central_element
f 501/555/1 502/556/1 503/557/1 504/558/1
f 502/556/2 505/559/2 506/560/2 503/557/2
f 505/561/3 507/562/3 508/563/3 506/564/3
f 507/559/4 509/556/4 510/557/4 508/560/4
f 509/556/5 511/555/5 512/558/5 510/557/5
f 511/555/6 513/565/6 514/566/6 512/558/6
f 513/562/7 515/561/7 516/564/7 514/563/7
f 515/565/8 501/555/8 504/558/8 516/566/8
f 504/567/9 503/568/9 506/569/9 508/570/9 510/571/9 512/572/9 514/573/9 516/574/9
f 515/574/10 513/573/10 511/572/10 509/571/10 507/570/10 505/569/10 502/568/10 501/567/10
f 517/575/10 518/576/10 519/577/10 520/578/10
f 521/576/9 522/575/9 523/578/9 524/577/9
f 518/579/1 521/580/1 524/581/1 519/582/1
f 520/582/5 523/581/5 522/580/5 517/579/5
f 519/583/7 524/584/7 523/585/7 520/586/7
f 517/586/3 522/585/3 521/584/3 518/583/3
f 525/587/10 526/588/10 527/589/10 528/590/10
f 529/588/9 530/587/9 531/590/9 532/589/9
f 526/591/1 529/592/1 532/593/1 527/594/1
f 528/594/5 531/593/5 530/592/5 525/591/5
f 527/595/7 532/596/7 531/597/7 528/598/7
f 525/598/3 530/597/3 529/596/3 526/595/3
f 533/599/10 534/600/10 535/601/10 536/602/10
f 537/600/9 538/599/9 539/602/9 540/601/9
f 534/603/1 537/604/1 540/605/1 535/606/1
f 536/606/5 539/605/5 538/604/5 533/603/5
f 535/595/7 540/596/7 539/597/7 536/598/7
f 533/598/3 538/597/3 537/596/3 534/595/3
