# STW_ARENA_01 original deterministic source
mtllib STW_ARENA_01.mtl
o STW_ARENA_01
usemtl STW_ARENA_01
# floor
v 12.0000 -0.8500 -12.0000
v -12.0000 -0.8500 -12.0000
v -12.0000 -0.8500 12.0000
v 12.0000 -0.8500 12.0000
v 12.0000 -0.0500 -12.0000
v -12.0000 -0.0500 -12.0000
v -12.0000 -0.0500 12.0000
v 12.0000 -0.0500 12.0000
f 1 2 3 4
f 5 8 7 6
f 1 5 6 2
f 2 6 7 3
f 3 7 8 4
f 5 1 4 8
# north_wall
v 12.0000 0.0000 11.5000
v -12.0000 0.0000 11.5000
v -12.0000 0.0000 12.0000
v 12.0000 0.0000 12.0000
v 12.0000 3.0000 11.5000
v -12.0000 3.0000 11.5000
v -12.0000 3.0000 12.0000
v 12.0000 3.0000 12.0000
f 9 10 11 12
f 13 16 15 14
f 9 13 14 10
f 10 14 15 11
f 11 15 16 12
f 13 9 12 16
# south_wall
v 12.0000 0.0000 -12.0000
v -12.0000 0.0000 -12.0000
v -12.0000 0.0000 -11.5000
v 12.0000 0.0000 -11.5000
v 12.0000 3.0000 -12.0000
v -12.0000 3.0000 -12.0000
v -12.0000 3.0000 -11.5000
v 12.0000 3.0000 -11.5000
f 17 18 19 20
f 21 24 23 22
f 17 21 22 18
f 18 22 23 19
f 19 23 24 20
f 21 17 20 24
# east_wall
v -11.5000 0.0000 -12.0000
v -12.0000 0.0000 -12.0000
v -12.0000 0.0000 12.0000
v -11.5000 0.0000 12.0000
v -11.5000 3.0000 -12.0000
v -12.0000 3.0000 -12.0000
v -12.0000 3.0000 12.0000
v -11.5000 3.0000 12.0000
f 25 26 27 28
f 29 32 31 30
f 25 29 30 26
f 26 30 31 27
f 27 31 32 28
f 29 25 28 32
# west_wall
v 12.0000 0.0000 -12.0000
v 11.5000 0.0000 -12.0000
v 11.5000 0.0000 12.0000
v 12.0000 0.0000 12.0000
v 12.0000 3.0000 -12.0000
v 11.5000 3.0000 -12.0000
v 11.5000 3.0000 12.0000
v 12.0000 3.0000 12.0000
f 33 34 35 36
f 37 40 39 38
f 33 37 38 34
f 34 38 39 35
f 35 39 40 36
f 37 33 36 40
# left_cover
v 3.7500 0.0000 0.5000
v 2.2500 0.0000 0.5000
v 2.2500 0.0000 2.5000
v 3.7500 0.0000 2.5000
v 3.7500 2.5000 0.5000
v 2.2500 2.5000 0.5000
v 2.2500 2.5000 2.5000
v 3.7500 2.5000 2.5000
f 41 42 43 44
f 45 48 47 46
f 41 45 46 42
f 42 46 47 43
f 43 47 48 44
f 45 41 44 48
# right_cover
v -2.2500 0.0000 0.5000
v -3.7500 0.0000 0.5000
v -3.7500 0.0000 2.5000
v -2.2500 0.0000 2.5000
v -2.2500 2.5000 0.5000
v -3.7500 2.5000 0.5000
v -3.7500 2.5000 2.5000
v -2.2500 2.5000 2.5000
f 49 50 51 52
f 53 56 55 54
f 49 53 54 50
f 50 54 55 51
f 51 55 56 52
f 53 49 52 56
# east_platform
v -4.5000 0.0000 1.5000
v -9.5000 0.0000 1.5000
v -9.5000 0.0000 5.5000
v -4.5000 0.0000 5.5000
v -4.5000 1.1000 1.5000
v -9.5000 1.1000 1.5000
v -9.5000 1.1000 5.5000
v -4.5000 1.1000 5.5000
f 57 58 59 60
f 61 64 63 62
f 57 61 62 58
f 58 62 63 59
f 59 63 64 60
f 61 57 60 64
# west_ramp_mass
v 9.0000 0.0000 -5.0000
v 5.0000 0.0000 -5.0000
v 5.0000 0.0000 0.0000
v 9.0000 0.0000 0.0000
v 9.0000 1.6000 -5.0000
v 5.0000 1.6000 -5.0000
v 5.0000 1.6000 0.0000
v 9.0000 1.6000 0.0000
f 65 66 67 68
f 69 72 71 70
f 65 69 70 66
f 66 70 71 67
f 67 71 72 68
f 69 65 68 72
# lane_pylon_left
v 5.5000 0.0000 4.5000
v 4.5000 0.0000 4.5000
v 4.5000 0.0000 5.5000
v 5.5000 0.0000 5.5000
v 5.5000 3.2000 4.5000
v 4.5000 3.2000 4.5000
v 4.5000 3.2000 5.5000
v 5.5000 3.2000 5.5000
f 73 74 75 76
f 77 80 79 78
f 73 77 78 74
f 74 78 79 75
f 75 79 80 76
f 77 73 76 80
# lane_pylon_right
v -4.5000 0.0000 4.5000
v -5.5000 0.0000 4.5000
v -5.5000 0.0000 5.5000
v -4.5000 0.0000 5.5000
v -4.5000 3.2000 4.5000
v -5.5000 3.2000 4.5000
v -5.5000 3.2000 5.5000
v -4.5000 3.2000 5.5000
f 81 82 83 84
f 85 88 87 86
f 81 85 86 82
f 82 86 87 83
f 83 87 88 84
f 85 81 84 88
# combat_arch_left
v 5.4000 0.0000 8.1000
v 4.6000 0.0000 8.1000
v 4.6000 0.0000 8.9000
v 5.4000 0.0000 8.9000
v 5.4000 4.4000 8.1000
v 4.6000 4.4000 8.1000
v 4.6000 4.4000 8.9000
v 5.4000 4.4000 8.9000
f 89 90 91 92
f 93 96 95 94
f 89 93 94 90
f 90 94 95 91
f 91 95 96 92
f 93 89 92 96
# combat_arch_right
v -4.6000 0.0000 8.1000
v -5.4000 0.0000 8.1000
v -5.4000 0.0000 8.9000
v -4.6000 0.0000 8.9000
v -4.6000 4.4000 8.1000
v -5.4000 4.4000 8.1000
v -5.4000 4.4000 8.9000
v -4.6000 4.4000 8.9000
f 97 98 99 100
f 101 104 103 102
f 97 101 102 98
f 98 102 103 99
f 99 103 104 100
f 101 97 100 104
# combat_arch_header
v 5.4000 3.8500 8.1000
v -5.4000 3.8500 8.1000
v -5.4000 3.8500 8.9000
v 5.4000 3.8500 8.9000
v 5.4000 4.5500 8.1000
v -5.4000 4.5500 8.1000
v -5.4000 4.5500 8.9000
v 5.4000 4.5500 8.9000
f 105 106 107 108
f 109 112 111 110
f 105 109 110 106
f 106 110 111 107
f 107 111 112 108
f 109 105 108 112
