# STW_ARENA_BEACON_01 - original STW production arena kit geometry
# Generated deterministically by tools/assets/generate_stw_arena_kit.py
# Axis convention: raw Z-up, +Y forward, metres, unrotated. O3DE imports OBJ
# vertices as (-x, z, y) and the runtime applies the compensating rotation
# Matrix3x3::CreateFromColumns(-X, Z, Y) at bind time.
# UVs are world-planar, scaled to 1.00 m per tile.
# No mtllib / usemtl: the runtime binds one Atom StandardPBR material through
# the mesh feature processor's default custom material slot.
o STW_ARENA_BEACON_01
v -2.500000 10.500000 4.650000
v 2.500000 10.500000 4.650000
v 2.500000 10.500000 5.250000
v -2.500000 10.500000 5.250000
v 2.800000 10.800000 4.650000
v 2.800000 10.800000 5.250000
v 2.800000 11.600000 4.650000
v 2.800000 11.600000 5.250000
v 2.500000 11.900000 4.650000
v 2.500000 11.900000 5.250000
v -2.500000 11.900000 4.650000
v -2.500000 11.900000 5.250000
v -2.800000 11.600000 4.650000
v -2.800000 11.600000 5.250000
v -2.800000 10.800000 4.650000
v -2.800000 10.800000 5.250000
v -1.860000 10.600000 5.250000
v 1.860000 10.600000 5.250000
v 1.860000 10.600000 7.150000
v -1.860000 10.600000 7.150000
v 2.200000 10.940000 5.250000
v 2.200000 10.940000 7.150000
v 2.200000 11.460000 5.250000
v 2.200000 11.460000 7.150000
v 1.860000 11.800000 5.250000
v 1.860000 11.800000 7.150000
v -1.860000 11.800000 5.250000
v -1.860000 11.800000 7.150000
v -2.200000 11.460000 5.250000
v -2.200000 11.460000 7.150000
v -2.200000 10.940000 5.250000
v -2.200000 10.940000 7.150000
v -1.270000 10.700000 7.100000
v 1.270000 10.700000 7.100000
v 1.270000 10.700000 8.800000
v -1.270000 10.700000 8.800000
v 1.550000 10.980000 7.100000
v 1.550000 10.980000 8.800000
v 1.550000 11.420000 7.100000
v 1.550000 11.420000 8.800000
v 1.270000 11.700000 7.100000
v 1.270000 11.700000 8.800000
v -1.270000 11.700000 7.100000
v -1.270000 11.700000 8.800000
v -1.550000 11.420000 7.100000
v -1.550000 11.420000 8.800000
v -1.550000 10.980000 7.100000
v -1.550000 10.980000 8.800000
v -0.730000 10.770000 8.750000
v 0.730000 10.770000 8.750000
v 0.730000 10.770000 9.950000
v -0.730000 10.770000 9.950000
v 0.950000 10.990000 8.750000
v 0.950000 10.990000 9.950000
v 0.950000 11.410000 8.750000
v 0.950000 11.410000 9.950000
v 0.730000 11.630000 8.750000
v 0.730000 11.630000 9.950000
v -0.730000 11.630000 8.750000
v -0.730000 11.630000 9.950000
v -0.950000 11.410000 8.750000
v -0.950000 11.410000 9.950000
v -0.950000 10.990000 8.750000
v -0.950000 10.990000 9.950000
v -0.800000 10.800000 9.950000
v 0.800000 10.800000 9.950000
v 0.400000 10.950000 10.750000
v -0.400000 10.950000 10.750000
v 0.800000 11.600000 9.950000
v 0.400000 11.450000 10.750000
v -0.800000 11.600000 9.950000
v -0.400000 11.450000 10.750000
v -2.620000 10.790000 5.450000
v -2.620000 10.370000 5.450000
v -2.780000 10.370000 5.450000
v -2.780000 10.790000 5.450000
v -2.620000 10.370000 7.650000
v -2.620000 10.790000 7.650000
v -2.780000 10.790000 7.650000
v -2.780000 10.370000 7.650000
v -1.720000 10.790000 5.450000
v -1.720000 10.370000 5.450000
v -1.880000 10.370000 5.450000
v -1.880000 10.790000 5.450000
v -1.720000 10.370000 7.650000
v -1.720000 10.790000 7.650000
v -1.880000 10.790000 7.650000
v -1.880000 10.370000 7.650000
v -0.820000 10.790000 5.450000
v -0.820000 10.370000 5.450000
v -0.980000 10.370000 5.450000
v -0.980000 10.790000 5.450000
v -0.820000 10.370000 7.650000
v -0.820000 10.790000 7.650000
v -0.980000 10.790000 7.650000
v -0.980000 10.370000 7.650000
v 0.080000 10.790000 5.450000
v 0.080000 10.370000 5.450000
v -0.080000 10.370000 5.450000
v -0.080000 10.790000 5.450000
v 0.080000 10.370000 7.650000
v 0.080000 10.790000 7.650000
v -0.080000 10.790000 7.650000
v -0.080000 10.370000 7.650000
v 0.980000 10.790000 5.450000
v 0.980000 10.370000 5.450000
v 0.820000 10.370000 5.450000
v 0.820000 10.790000 5.450000
v 0.980000 10.370000 7.650000
v 0.980000 10.790000 7.650000
v 0.820000 10.790000 7.650000
v 0.820000 10.370000 7.650000
v 1.880000 10.790000 5.450000
v 1.880000 10.370000 5.450000
v 1.720000 10.370000 5.450000
v 1.720000 10.790000 5.450000
v 1.880000 10.370000 7.650000
v 1.880000 10.790000 7.650000
v 1.720000 10.790000 7.650000
v 1.720000 10.370000 7.650000
v 2.780000 10.790000 5.450000
v 2.780000 10.370000 5.450000
v 2.620000 10.370000 5.450000
v 2.620000 10.790000 5.450000
v 2.780000 10.370000 7.650000
v 2.780000 10.790000 7.650000
v 2.620000 10.790000 7.650000
v 2.620000 10.370000 7.650000
v -2.000000 10.970000 7.600000
v -2.000000 10.630000 7.600000
v -2.200000 10.630000 7.600000
v -2.200000 10.970000 7.600000
v -2.000000 10.630000 9.100000
v -2.000000 10.970000 9.100000
v -2.200000 10.970000 9.100000
v -2.200000 10.630000 9.100000
v 2.200000 10.970000 7.600000
v 2.200000 10.630000 7.600000
v 2.000000 10.630000 7.600000
v 2.000000 10.970000 7.600000
v 2.200000 10.630000 9.100000
v 2.200000 10.970000 9.100000
v 2.000000 10.970000 9.100000
v 2.000000 10.630000 9.100000
v -1.880000 10.180000 5.170000
v -1.220000 10.180000 5.170000
v -1.220000 10.180000 5.970000
v -1.880000 10.180000 5.970000
v -1.100000 10.300000 5.170000
v -1.100000 10.300000 5.970000
v -1.100000 10.660000 5.170000
v -1.100000 10.660000 5.970000
v -1.220000 10.780000 5.170000
v -1.220000 10.780000 5.970000
v -1.880000 10.780000 5.170000
v -1.880000 10.780000 5.970000
v -2.000000 10.660000 5.170000
v -2.000000 10.660000 5.970000
v -2.000000 10.300000 5.170000
v -2.000000 10.300000 5.970000
v 1.370000 10.250000 5.120000
v 1.870000 10.250000 5.120000
v 1.870000 10.250000 5.740000
v 1.370000 10.250000 5.740000
v 1.970000 10.350000 5.120000
v 1.970000 10.350000 5.740000
v 1.970000 10.690000 5.120000
v 1.970000 10.690000 5.740000
v 1.870000 10.790000 5.120000
v 1.870000 10.790000 5.740000
v 1.370000 10.790000 5.120000
v 1.370000 10.790000 5.740000
v 1.270000 10.690000 5.120000
v 1.270000 10.690000 5.740000
v 1.270000 10.350000 5.120000
v 1.270000 10.350000 5.740000
v 0.650000 10.680000 4.810000
v 0.650000 10.240000 4.810000
v -0.650000 10.240000 4.810000
v -0.650000 10.680000 4.810000
v 0.650000 10.240000 5.250000
v 0.650000 10.680000 5.250000
v -0.650000 10.680000 5.250000
v -0.650000 10.240000 5.250000
v -0.495000 11.200000 10.550000
v -0.522500 11.247631 10.550000
v -0.522500 11.247631 11.700000
v -0.495000 11.200000 11.700000
v -0.577500 11.247631 10.550000
v -0.577500 11.247631 11.700000
v -0.605000 11.200000 10.550000
v -0.605000 11.200000 11.700000
v -0.577500 11.152369 10.550000
v -0.577500 11.152369 11.700000
v -0.522500 11.152369 10.550000
v -0.522500 11.152369 11.700000
v -0.430000 11.320000 11.630000
v -0.430000 11.080000 11.630000
v -0.670000 11.080000 11.630000
v -0.670000 11.320000 11.630000
v -0.430000 11.080000 11.770000
v -0.430000 11.320000 11.770000
v -0.670000 11.320000 11.770000
v -0.670000 11.080000 11.770000
v 0.675000 11.200000 10.550000
v 0.647500 11.247631 10.550000
v 0.647500 11.247631 11.400000
v 0.675000 11.200000 11.400000
v 0.592500 11.247631 10.550000
v 0.592500 11.247631 11.400000
v 0.565000 11.200000 10.550000
v 0.565000 11.200000 11.400000
v 0.592500 11.152369 10.550000
v 0.592500 11.152369 11.400000
v 0.647500 11.152369 10.550000
v 0.647500 11.152369 11.400000
v 0.740000 11.320000 11.330000
v 0.740000 11.080000 11.330000
v 0.500000 11.080000 11.330000
v 0.500000 11.320000 11.330000
v 0.740000 11.080000 11.470000
v 0.740000 11.320000 11.470000
v 0.500000 11.320000 11.470000
v 0.500000 11.080000 11.470000
v 1.055000 10.750000 9.270000
v 1.645000 10.750000 9.270000
v 1.645000 10.750000 10.130000
v 1.055000 10.750000 10.130000
v 1.780000 10.885000 9.270000
v 1.780000 10.885000 10.130000
v 1.780000 10.915000 9.270000
v 1.780000 10.915000 10.130000
v 1.645000 11.050000 9.270000
v 1.645000 11.050000 10.130000
v 1.055000 11.050000 9.270000
v 1.055000 11.050000 10.130000
v 0.920000 10.915000 9.270000
v 0.920000 10.915000 10.130000
v 0.920000 10.885000 9.270000
v 0.920000 10.885000 10.130000
v 2.560000 10.660000 5.060000
v 2.560000 10.580000 5.060000
v 2.140000 10.580000 5.060000
v 2.140000 10.660000 5.060000
v 2.560000 10.580000 5.120000
v 2.560000 10.660000 5.120000
v 2.140000 10.660000 5.120000
v 2.140000 10.580000 5.120000
v 2.560000 10.660000 5.480000
v 2.560000 10.580000 5.480000
v 2.140000 10.580000 5.480000
v 2.140000 10.660000 5.480000
v 2.560000 10.580000 5.540000
v 2.560000 10.660000 5.540000
v 2.140000 10.660000 5.540000
v 2.140000 10.580000 5.540000
v 2.560000 10.660000 5.900000
v 2.560000 10.580000 5.900000
v 2.140000 10.580000 5.900000
v 2.140000 10.660000 5.900000
v 2.560000 10.580000 5.960000
v 2.560000 10.660000 5.960000
v 2.140000 10.660000 5.960000
v 2.140000 10.580000 5.960000
v 2.560000 10.660000 6.320000
v 2.560000 10.580000 6.320000
v 2.140000 10.580000 6.320000
v 2.140000 10.660000 6.320000
v 2.560000 10.580000 6.380000
v 2.560000 10.660000 6.380000
v 2.140000 10.660000 6.380000
v 2.140000 10.580000 6.380000
v 2.560000 10.660000 6.740000
v 2.560000 10.580000 6.740000
v 2.140000 10.580000 6.740000
v 2.140000 10.660000 6.740000
v 2.560000 10.580000 6.800000
v 2.560000 10.660000 6.800000
v 2.140000 10.660000 6.800000
v 2.140000 10.580000 6.800000
v 2.560000 10.660000 7.160000
v 2.560000 10.580000 7.160000
v 2.140000 10.580000 7.160000
v 2.140000 10.660000 7.160000
v 2.560000 10.580000 7.220000
v 2.560000 10.660000 7.220000
v 2.140000 10.660000 7.220000
v 2.140000 10.580000 7.220000
v 2.560000 10.660000 7.580000
v 2.560000 10.580000 7.580000
v 2.140000 10.580000 7.580000
v 2.140000 10.660000 7.580000
v 2.560000 10.580000 7.640000
v 2.560000 10.660000 7.640000
v 2.140000 10.660000 7.640000
v 2.140000 10.580000 7.640000
v 2.560000 10.660000 8.000000
v 2.560000 10.580000 8.000000
v 2.140000 10.580000 8.000000
v 2.140000 10.660000 8.000000
v 2.560000 10.580000 8.060000
v 2.560000 10.660000 8.060000
v 2.140000 10.660000 8.060000
v 2.140000 10.580000 8.060000
v 2.560000 10.660000 8.420000
v 2.560000 10.580000 8.420000
v 2.140000 10.580000 8.420000
v 2.140000 10.660000 8.420000
v 2.560000 10.580000 8.480000
v 2.560000 10.660000 8.480000
v 2.140000 10.660000 8.480000
v 2.140000 10.580000 8.480000
v 2.660000 10.730000 7.100000
v 2.660000 10.630000 7.100000
v 2.040000 10.630000 7.100000
v 2.040000 10.730000 7.100000
v 2.660000 10.630000 7.800000
v 2.660000 10.730000 7.800000
v 2.040000 10.730000 7.800000
v 2.040000 10.630000 7.800000
v 1.800000 10.590000 5.365000
v 1.800000 10.490000 5.365000
v -1.800000 10.490000 5.365000
v -1.800000 10.590000 5.365000
v 1.800000 10.490000 5.495000
v 1.800000 10.590000 5.495000
v -1.800000 10.590000 5.495000
v -1.800000 10.490000 5.495000
v 1.800000 10.590000 7.005000
v 1.800000 10.490000 7.005000
v -1.800000 10.490000 7.005000
v -1.800000 10.590000 7.005000
v 1.800000 10.490000 7.135000
v 1.800000 10.590000 7.135000
v -1.800000 10.590000 7.135000
v -1.800000 10.490000 7.135000
v 1.800000 10.590000 8.605000
v 1.800000 10.490000 8.605000
v -1.800000 10.490000 8.605000
v -1.800000 10.590000 8.605000
v 1.800000 10.490000 8.735000
v 1.800000 10.590000 8.735000
v -1.800000 10.590000 8.735000
v -1.800000 10.490000 8.735000
v 0.600000 10.590000 9.895000
v 0.600000 10.490000 9.895000
v -0.600000 10.490000 9.895000
v -0.600000 10.590000 9.895000
v 0.600000 10.490000 10.005000
v 0.600000 10.590000 10.005000
v -0.600000 10.590000 10.005000
v -0.600000 10.490000 10.005000
v -4.325000 8.085000 4.770000
v -4.325000 7.995000 4.770000
v -4.435000 7.995000 4.770000
v -4.435000 8.085000 4.770000
v -4.325000 7.995000 6.830000
v -4.325000 8.085000 6.830000
v -4.435000 8.085000 6.830000
v -4.435000 7.995000 6.830000
v 4.435000 8.085000 4.770000
v 4.435000 7.995000 4.770000
v 4.325000 7.995000 4.770000
v 4.325000 8.085000 4.770000
v 4.435000 7.995000 6.830000
v 4.435000 8.085000 6.830000
v 4.325000 8.085000 6.830000
v 4.325000 7.995000 6.830000
v 4.300000 7.945000 6.155000
v 4.300000 7.855000 6.155000
v -4.300000 7.855000 6.155000
v -4.300000 7.945000 6.155000
v 4.300000 7.855000 6.265000
v 4.300000 7.945000 6.265000
v -4.300000 7.945000 6.265000
v -4.300000 7.855000 6.265000
v 0.400000 7.765000 6.740000
v 0.400000 7.675000 6.740000
v -0.400000 7.675000 6.740000
v -0.400000 7.765000 6.740000
v 0.400000 7.675000 6.880000
v 0.400000 7.765000 6.880000
v -0.400000 7.765000 6.880000
v -0.400000 7.675000 6.880000
v 10.650000 -11.765000 1.170000
v 10.650000 -11.855000 1.170000
v -10.650000 -11.855000 1.170000
v -10.650000 -11.765000 1.170000
v 10.650000 -11.855000 1.270000
v 10.650000 -11.765000 1.270000
v -10.650000 -11.765000 1.270000
v -10.650000 -11.855000 1.270000
v -11.765000 10.650000 1.170000
v -11.765000 -10.650000 1.170000
v -11.855000 -10.650000 1.170000
v -11.855000 10.650000 1.170000
v -11.765000 -10.650000 1.270000
v -11.765000 10.650000 1.270000
v -11.855000 10.650000 1.270000
v -11.855000 -10.650000 1.270000
v 10.650000 11.855000 1.170000
v 10.650000 11.765000 1.170000
v -10.650000 11.765000 1.170000
v -10.650000 11.855000 1.170000
v 10.650000 11.765000 1.270000
v 10.650000 11.855000 1.270000
v -10.650000 11.855000 1.270000
v -10.650000 11.765000 1.270000
v 11.855000 10.650000 1.170000
v 11.855000 -10.650000 1.170000
v 11.765000 -10.650000 1.170000
v 11.765000 10.650000 1.170000
v 11.855000 -10.650000 1.270000
v 11.855000 10.650000 1.270000
v 11.765000 10.650000 1.270000
v 11.765000 -10.650000 1.270000
v 9.987500 -5.935000 6.180000
v 9.987500 -6.065000 6.180000
v -9.987500 -6.065000 6.180000
v -9.987500 -5.935000 6.180000
v 9.987500 -6.065000 6.260000
v 9.987500 -5.935000 6.260000
v -9.987500 -5.935000 6.260000
v -9.987500 -6.065000 6.260000
v 9.987500 -1.935000 6.180000
v 9.987500 -2.065000 6.180000
v -9.987500 -2.065000 6.180000
v -9.987500 -1.935000 6.180000
v 9.987500 -2.065000 6.260000
v 9.987500 -1.935000 6.260000
v -9.987500 -1.935000 6.260000
v -9.987500 -2.065000 6.260000
v 9.987500 2.065000 6.180000
v 9.987500 1.935000 6.180000
v -9.987500 1.935000 6.180000
v -9.987500 2.065000 6.180000
v 9.987500 1.935000 6.260000
v 9.987500 2.065000 6.260000
v -9.987500 2.065000 6.260000
v -9.987500 1.935000 6.260000
v 9.987500 6.065000 6.180000
v 9.987500 5.935000 6.180000
v -9.987500 5.935000 6.180000
v -9.987500 6.065000 6.180000
v 9.987500 5.935000 6.260000
v 9.987500 6.065000 6.260000
v -9.987500 6.065000 6.260000
v -9.987500 5.935000 6.260000
v 9.987500 10.065000 6.180000
v 9.987500 9.935000 6.180000
v -9.987500 9.935000 6.180000
v -9.987500 10.065000 6.180000
v 9.987500 9.935000 6.260000
v 9.987500 10.065000 6.260000
v -9.987500 10.065000 6.260000
v -9.987500 9.935000 6.260000
vt -2.500000 4.650000
vt 2.500000 4.650000
vt 2.500000 5.250000
vt -2.500000 5.250000
vt 10.500000 4.650000
vt 10.800000 4.650000
vt 10.800000 5.250000
vt 10.500000 5.250000
vt 11.600000 4.650000
vt 11.600000 5.250000
vt 11.900000 4.650000
vt 11.900000 5.250000
vt -2.500000 10.500000
vt 2.500000 10.500000
vt 2.800000 10.800000
vt 2.800000 11.600000
vt 2.500000 11.900000
vt -2.500000 11.900000
vt -2.800000 11.600000
vt -2.800000 10.800000
vt -1.860000 5.250000
vt 1.860000 5.250000
vt 1.860000 7.150000
vt -1.860000 7.150000
vt 2.200000 5.250000
vt 2.200000 7.150000
vt 10.940000 5.250000
vt 11.460000 5.250000
vt 11.460000 7.150000
vt 10.940000 7.150000
vt -2.200000 5.250000
vt -2.200000 7.150000
vt -1.860000 10.600000
vt 1.860000 10.600000
vt 2.200000 10.940000
vt 2.200000 11.460000
vt 1.860000 11.800000
vt -1.860000 11.800000
vt -2.200000 11.460000
vt -2.200000 10.940000
vt -1.270000 7.100000
vt 1.270000 7.100000
vt 1.270000 8.800000
vt -1.270000 8.800000
vt 1.550000 7.100000
vt 1.550000 8.800000
vt 10.980000 7.100000
vt 11.420000 7.100000
vt 11.420000 8.800000
vt 10.980000 8.800000
vt -1.550000 7.100000
vt -1.550000 8.800000
vt -1.270000 10.700000
vt 1.270000 10.700000
vt 1.550000 10.980000
vt 1.550000 11.420000
vt 1.270000 11.700000
vt -1.270000 11.700000
vt -1.550000 11.420000
vt -1.550000 10.980000
vt -0.730000 8.750000
vt 0.730000 8.750000
vt 0.730000 9.950000
vt -0.730000 9.950000
vt 10.770000 8.750000
vt 10.990000 8.750000
vt 10.990000 9.950000
vt 10.770000 9.950000
vt 11.410000 8.750000
vt 11.410000 9.950000
vt 11.630000 8.750000
vt 11.630000 9.950000
vt -0.730000 10.770000
vt 0.730000 10.770000
vt 0.950000 10.990000
vt 0.950000 11.410000
vt 0.730000 11.630000
vt -0.730000 11.630000
vt -0.950000 11.410000
vt -0.950000 10.990000
vt -0.800000 9.950000
vt 0.800000 9.950000
vt 0.400000 10.750000
vt -0.400000 10.750000
vt 10.800000 9.950000
vt 11.600000 9.950000
vt 11.450000 10.750000
vt 10.950000 10.750000
vt -0.400000 10.950000
vt 0.400000 10.950000
vt 0.400000 11.450000
vt -0.400000 11.450000
vt -0.800000 11.600000
vt 0.800000 11.600000
vt 0.800000 10.800000
vt -0.800000 10.800000
vt -2.620000 10.790000
vt -2.620000 10.370000
vt -2.780000 10.370000
vt -2.780000 10.790000
vt -2.620000 5.450000
vt -2.620000 7.650000
vt -2.780000 7.650000
vt -2.780000 5.450000
vt 10.370000 5.450000
vt 10.370000 7.650000
vt 10.790000 7.650000
vt 10.790000 5.450000
vt -1.720000 10.790000
vt -1.720000 10.370000
vt -1.880000 10.370000
vt -1.880000 10.790000
vt -1.720000 5.450000
vt -1.720000 7.650000
vt -1.880000 7.650000
vt -1.880000 5.450000
vt -0.820000 10.790000
vt -0.820000 10.370000
vt -0.980000 10.370000
vt -0.980000 10.790000
vt -0.820000 5.450000
vt -0.820000 7.650000
vt -0.980000 7.650000
vt -0.980000 5.450000
vt 0.080000 10.790000
vt 0.080000 10.370000
vt -0.080000 10.370000
vt -0.080000 10.790000
vt 0.080000 5.450000
vt 0.080000 7.650000
vt -0.080000 7.650000
vt -0.080000 5.450000
vt 0.980000 10.790000
vt 0.980000 10.370000
vt 0.820000 10.370000
vt 0.820000 10.790000
vt 0.980000 5.450000
vt 0.980000 7.650000
vt 0.820000 7.650000
vt 0.820000 5.450000
vt 1.880000 10.790000
vt 1.880000 10.370000
vt 1.720000 10.370000
vt 1.720000 10.790000
vt 1.880000 5.450000
vt 1.880000 7.650000
vt 1.720000 7.650000
vt 1.720000 5.450000
vt 2.780000 10.790000
vt 2.780000 10.370000
vt 2.620000 10.370000
vt 2.620000 10.790000
vt 2.780000 5.450000
vt 2.780000 7.650000
vt 2.620000 7.650000
vt 2.620000 5.450000
vt -2.000000 10.970000
vt -2.000000 10.630000
vt -2.200000 10.630000
vt -2.200000 10.970000
vt -2.000000 7.600000
vt -2.000000 9.100000
vt -2.200000 9.100000
vt -2.200000 7.600000
vt 10.630000 7.600000
vt 10.630000 9.100000
vt 10.970000 9.100000
vt 10.970000 7.600000
vt 2.200000 10.970000
vt 2.200000 10.630000
vt 2.000000 10.630000
vt 2.000000 10.970000
vt 2.200000 7.600000
vt 2.200000 9.100000
vt 2.000000 9.100000
vt 2.000000 7.600000
vt -1.880000 5.170000
vt -1.220000 5.170000
vt -1.220000 5.970000
vt -1.880000 5.970000
vt -1.100000 5.170000
vt -1.100000 5.970000
vt 10.300000 5.170000
vt 10.660000 5.170000
vt 10.660000 5.970000
vt 10.300000 5.970000
vt -2.000000 5.170000
vt -2.000000 5.970000
vt -1.880000 10.180000
vt -1.220000 10.180000
vt -1.100000 10.300000
vt -1.100000 10.660000
vt -1.220000 10.780000
vt -1.880000 10.780000
vt -2.000000 10.660000
vt -2.000000 10.300000
vt 1.370000 5.120000
vt 1.870000 5.120000
vt 1.870000 5.740000
vt 1.370000 5.740000
vt 1.970000 5.120000
vt 1.970000 5.740000
vt 10.350000 5.120000
vt 10.690000 5.120000
vt 10.690000 5.740000
vt 10.350000 5.740000
vt 1.270000 5.120000
vt 1.270000 5.740000
vt 1.370000 10.250000
vt 1.870000 10.250000
vt 1.970000 10.350000
vt 1.970000 10.690000
vt 1.870000 10.790000
vt 1.370000 10.790000
vt 1.270000 10.690000
vt 1.270000 10.350000
vt 0.650000 10.680000
vt 0.650000 10.240000
vt -0.650000 10.240000
vt -0.650000 10.680000
vt 0.650000 4.810000
vt 0.650000 5.250000
vt -0.650000 5.250000
vt -0.650000 4.810000
vt 10.240000 4.810000
vt 10.240000 5.250000
vt 10.680000 5.250000
vt 10.680000 4.810000
vt 11.200000 10.550000
vt 11.247631 10.550000
vt 11.247631 11.700000
vt 11.200000 11.700000
vt -0.522500 10.550000
vt -0.577500 10.550000
vt -0.577500 11.700000
vt -0.522500 11.700000
vt 11.152369 10.550000
vt 11.152369 11.700000
vt -0.430000 11.320000
vt -0.430000 11.080000
vt -0.670000 11.080000
vt -0.670000 11.320000
vt -0.430000 11.630000
vt -0.430000 11.770000
vt -0.670000 11.770000
vt -0.670000 11.630000
vt 11.080000 11.630000
vt 11.080000 11.770000
vt 11.320000 11.770000
vt 11.320000 11.630000
vt 11.247631 11.400000
vt 11.200000 11.400000
vt 0.647500 10.550000
vt 0.592500 10.550000
vt 0.592500 11.400000
vt 0.647500 11.400000
vt 11.152369 11.400000
vt 0.740000 11.320000
vt 0.740000 11.080000
vt 0.500000 11.080000
vt 0.500000 11.320000
vt 0.740000 11.330000
vt 0.740000 11.470000
vt 0.500000 11.470000
vt 0.500000 11.330000
vt 11.080000 11.330000
vt 11.080000 11.470000
vt 11.320000 11.470000
vt 11.320000 11.330000
vt 1.055000 9.270000
vt 1.645000 9.270000
vt 1.645000 10.130000
vt 1.055000 10.130000
vt 1.780000 9.270000
vt 1.780000 10.130000
vt 10.885000 9.270000
vt 10.915000 9.270000
vt 10.915000 10.130000
vt 10.885000 10.130000
vt 0.920000 9.270000
vt 0.920000 10.130000
vt 1.055000 10.750000
vt 1.645000 10.750000
vt 1.780000 10.885000
vt 1.780000 10.915000
vt 1.645000 11.050000
vt 1.055000 11.050000
vt 0.920000 10.915000
vt 0.920000 10.885000
vt 2.560000 10.660000
vt 2.560000 10.580000
vt 2.140000 10.580000
vt 2.140000 10.660000
vt 2.560000 5.060000
vt 2.560000 5.120000
vt 2.140000 5.120000
vt 2.140000 5.060000
vt 10.580000 5.060000
vt 10.580000 5.120000
vt 10.660000 5.120000
vt 10.660000 5.060000
vt 2.560000 5.480000
vt 2.560000 5.540000
vt 2.140000 5.540000
vt 2.140000 5.480000
vt 10.580000 5.480000
vt 10.580000 5.540000
vt 10.660000 5.540000
vt 10.660000 5.480000
vt 2.560000 5.900000
vt 2.560000 5.960000
vt 2.140000 5.960000
vt 2.140000 5.900000
vt 10.580000 5.900000
vt 10.580000 5.960000
vt 10.660000 5.960000
vt 10.660000 5.900000
vt 2.560000 6.320000
vt 2.560000 6.380000
vt 2.140000 6.380000
vt 2.140000 6.320000
vt 10.580000 6.320000
vt 10.580000 6.380000
vt 10.660000 6.380000
vt 10.660000 6.320000
vt 2.560000 6.740000
vt 2.560000 6.800000
vt 2.140000 6.800000
vt 2.140000 6.740000
vt 10.580000 6.740000
vt 10.580000 6.800000
vt 10.660000 6.800000
vt 10.660000 6.740000
vt 2.560000 7.160000
vt 2.560000 7.220000
vt 2.140000 7.220000
vt 2.140000 7.160000
vt 10.580000 7.160000
vt 10.580000 7.220000
vt 10.660000 7.220000
vt 10.660000 7.160000
vt 2.560000 7.580000
vt 2.560000 7.640000
vt 2.140000 7.640000
vt 2.140000 7.580000
vt 10.580000 7.580000
vt 10.580000 7.640000
vt 10.660000 7.640000
vt 10.660000 7.580000
vt 2.560000 8.000000
vt 2.560000 8.060000
vt 2.140000 8.060000
vt 2.140000 8.000000
vt 10.580000 8.000000
vt 10.580000 8.060000
vt 10.660000 8.060000
vt 10.660000 8.000000
vt 2.560000 8.420000
vt 2.560000 8.480000
vt 2.140000 8.480000
vt 2.140000 8.420000
vt 10.580000 8.420000
vt 10.580000 8.480000
vt 10.660000 8.480000
vt 10.660000 8.420000
vt 2.660000 10.730000
vt 2.660000 10.630000
vt 2.040000 10.630000
vt 2.040000 10.730000
vt 2.660000 7.100000
vt 2.660000 7.800000
vt 2.040000 7.800000
vt 2.040000 7.100000
vt 10.630000 7.100000
vt 10.630000 7.800000
vt 10.730000 7.800000
vt 10.730000 7.100000
vt 1.800000 10.590000
vt 1.800000 10.490000
vt -1.800000 10.490000
vt -1.800000 10.590000
vt 1.800000 5.365000
vt 1.800000 5.495000
vt -1.800000 5.495000
vt -1.800000 5.365000
vt 10.490000 5.365000
vt 10.490000 5.495000
vt 10.590000 5.495000
vt 10.590000 5.365000
vt 1.800000 7.005000
vt 1.800000 7.135000
vt -1.800000 7.135000
vt -1.800000 7.005000
vt 10.490000 7.005000
vt 10.490000 7.135000
vt 10.590000 7.135000
vt 10.590000 7.005000
vt 1.800000 8.605000
vt 1.800000 8.735000
vt -1.800000 8.735000
vt -1.800000 8.605000
vt 10.490000 8.605000
vt 10.490000 8.735000
vt 10.590000 8.735000
vt 10.590000 8.605000
vt 0.600000 10.590000
vt 0.600000 10.490000
vt -0.600000 10.490000
vt -0.600000 10.590000
vt 0.600000 9.895000
vt 0.600000 10.005000
vt -0.600000 10.005000
vt -0.600000 9.895000
vt 10.490000 9.895000
vt 10.490000 10.005000
vt 10.590000 10.005000
vt 10.590000 9.895000
vt -4.325000 8.085000
vt -4.325000 7.995000
vt -4.435000 7.995000
vt -4.435000 8.085000
vt -4.325000 4.770000
vt -4.325000 6.830000
vt -4.435000 6.830000
vt -4.435000 4.770000
vt 7.995000 4.770000
vt 7.995000 6.830000
vt 8.085000 6.830000
vt 8.085000 4.770000
vt 4.435000 8.085000
vt 4.435000 7.995000
vt 4.325000 7.995000
vt 4.325000 8.085000
vt 4.435000 4.770000
vt 4.435000 6.830000
vt 4.325000 6.830000
vt 4.325000 4.770000
vt 4.300000 7.945000
vt 4.300000 7.855000
vt -4.300000 7.855000
vt -4.300000 7.945000
vt 4.300000 6.155000
vt 4.300000 6.265000
vt -4.300000 6.265000
vt -4.300000 6.155000
vt 7.855000 6.155000
vt 7.855000 6.265000
vt 7.945000 6.265000
vt 7.945000 6.155000
vt 0.400000 7.765000
vt 0.400000 7.675000
vt -0.400000 7.675000
vt -0.400000 7.765000
vt 0.400000 6.740000
vt 0.400000 6.880000
vt -0.400000 6.880000
vt -0.400000 6.740000
vt 7.675000 6.740000
vt 7.675000 6.880000
vt 7.765000 6.880000
vt 7.765000 6.740000
vt 10.650000 -11.765000
vt 10.650000 -11.855000
vt -10.650000 -11.855000
vt -10.650000 -11.765000
vt 10.650000 1.170000
vt 10.650000 1.270000
vt -10.650000 1.270000
vt -10.650000 1.170000
vt -11.855000 1.170000
vt -11.855000 1.270000
vt -11.765000 1.270000
vt -11.765000 1.170000
vt -11.765000 10.650000
vt -11.765000 -10.650000
vt -11.855000 -10.650000
vt -11.855000 10.650000
vt 10.650000 11.855000
vt 10.650000 11.765000
vt -10.650000 11.765000
vt -10.650000 11.855000
vt 11.765000 1.170000
vt 11.765000 1.270000
vt 11.855000 1.270000
vt 11.855000 1.170000
vt 11.855000 10.650000
vt 11.855000 -10.650000
vt 11.765000 -10.650000
vt 11.765000 10.650000
vt 9.987500 -5.935000
vt 9.987500 -6.065000
vt -9.987500 -6.065000
vt -9.987500 -5.935000
vt 9.987500 6.180000
vt 9.987500 6.260000
vt -9.987500 6.260000
vt -9.987500 6.180000
vt -6.065000 6.180000
vt -6.065000 6.260000
vt -5.935000 6.260000
vt -5.935000 6.180000
vt 9.987500 -1.935000
vt 9.987500 -2.065000
vt -9.987500 -2.065000
vt -9.987500 -1.935000
vt -2.065000 6.180000
vt -2.065000 6.260000
vt -1.935000 6.260000
vt -1.935000 6.180000
vt 9.987500 2.065000
vt 9.987500 1.935000
vt -9.987500 1.935000
vt -9.987500 2.065000
vt 1.935000 6.180000
vt 1.935000 6.260000
vt 2.065000 6.260000
vt 2.065000 6.180000
vt 9.987500 6.065000
vt 9.987500 5.935000
vt -9.987500 5.935000
vt -9.987500 6.065000
vt 5.935000 6.180000
vt 5.935000 6.260000
vt 6.065000 6.260000
vt 6.065000 6.180000
vt 9.987500 10.065000
vt 9.987500 9.935000
vt -9.987500 9.935000
vt -9.987500 10.065000
vt 9.935000 6.180000
vt 9.935000 6.260000
vt 10.065000 6.260000
vt 10.065000 6.180000
vn 0.000000 -1.000000 0.000000
vn 0.707107 -0.707107 0.000000
vn 1.000000 0.000000 0.000000
vn 0.707107 0.707107 0.000000
vn 0.000000 1.000000 0.000000
vn -0.707107 0.707107 0.000000
vn -1.000000 0.000000 0.000000
vn -0.707107 -0.707107 0.000000
vn 0.000000 0.000000 1.000000
vn -0.000000 0.000000 -1.000000
vn 0.000000 -0.982872 0.184289
vn 0.894427 0.000000 0.447214
vn 0.000000 0.982872 0.184289
vn -0.894427 0.000000 0.447214
vn 0.866025 0.500000 0.000000
vn -0.866025 0.500000 0.000000
vn -0.866025 -0.500000 0.000000
vn 0.866025 -0.500000 0.000000
g landmark_tower
f 1/1/1 2/2/1 3/3/1 4/4/1
f 2/5/2 5/6/2 6/7/2 3/8/2
f 5/6/3 7/9/3 8/10/3 6/7/3
f 7/9/4 9/11/4 10/12/4 8/10/4
f 9/2/5 11/1/5 12/4/5 10/3/5
f 11/11/6 13/9/6 14/10/6 12/12/6
f 13/9/7 15/6/7 16/7/7 14/10/7
f 15/6/8 1/5/8 4/8/8 16/7/8
f 4/13/9 3/14/9 6/15/9 8/16/9 10/17/9 12/18/9 14/19/9 16/20/9
f 15/20/10 13/19/10 11/18/10 9/17/10 7/16/10 5/15/10 2/14/10 1/13/10
f 17/21/1 18/22/1 19/23/1 20/24/1
f 18/22/2 21/25/2 22/26/2 19/23/2
f 21/27/3 23/28/3 24/29/3 22/30/3
f 23/25/4 25/22/4 26/23/4 24/26/4
f 25/22/5 27/21/5 28/24/5 26/23/5
f 27/21/6 29/31/6 30/32/6 28/24/6
f 29/28/7 31/27/7 32/30/7 30/29/7
f 31/31/8 17/21/8 20/24/8 32/32/8
f 20/33/9 19/34/9 22/35/9 24/36/9 26/37/9 28/38/9 30/39/9 32/40/9
f 31/40/10 29/39/10 27/38/10 25/37/10 23/36/10 21/35/10 18/34/10 17/33/10
f 33/41/1 34/42/1 35/43/1 36/44/1
f 34/42/2 37/45/2 38/46/2 35/43/2
f 37/47/3 39/48/3 40/49/3 38/50/3
f 39/45/4 41/42/4 42/43/4 40/46/4
f 41/42/5 43/41/5 44/44/5 42/43/5
f 43/41/6 45/51/6 46/52/6 44/44/6
f 45/48/7 47/47/7 48/50/7 46/49/7
f 47/51/8 33/41/8 36/44/8 48/52/8
f 36/53/9 35/54/9 38/55/9 40/56/9 42/57/9 44/58/9 46/59/9 48/60/9
f 47/60/10 45/59/10 43/58/10 41/57/10 39/56/10 37/55/10 34/54/10 33/53/10
f 49/61/1 50/62/1 51/63/1 52/64/1
f 50/65/2 53/66/2 54/67/2 51/68/2
f 53/66/3 55/69/3 56/70/3 54/67/3
f 55/69/4 57/71/4 58/72/4 56/70/4
f 57/62/5 59/61/5 60/64/5 58/63/5
f 59/71/6 61/69/6 62/70/6 60/72/6
f 61/69/7 63/66/7 64/67/7 62/70/7
f 63/66/8 49/65/8 52/68/8 64/67/8
f 52/73/9 51/74/9 54/75/9 56/76/9 58/77/9 60/78/9 62/79/9 64/80/9
f 63/80/10 61/79/10 59/78/10 57/77/10 55/76/10 53/75/10 50/74/10 49/73/10
f 65/81/11 66/82/11 67/83/11 68/84/11
f 66/85/12 69/86/12 70/87/12 67/88/12
f 69/82/13 71/81/13 72/84/13 70/83/13
f 71/86/14 65/85/14 68/88/14 72/87/14
f 68/89/9 67/90/9 70/91/9 72/92/9
f 71/93/10 69/94/10 66/95/10 65/96/10
g landmark_fins
f 73/97/10 74/98/10 75/99/10 76/100/10
f 77/98/9 78/97/9 79/100/9 80/99/9
f 74/101/1 77/102/1 80/103/1 75/104/1
f 76/104/5 79/103/5 78/102/5 73/101/5
f 75/105/7 80/106/7 79/107/7 76/108/7
f 73/108/3 78/107/3 77/106/3 74/105/3
f 81/109/10 82/110/10 83/111/10 84/112/10
f 85/110/9 86/109/9 87/112/9 88/111/9
f 82/113/1 85/114/1 88/115/1 83/116/1
f 84/116/5 87/115/5 86/114/5 81/113/5
f 83/105/7 88/106/7 87/107/7 84/108/7
f 81/108/3 86/107/3 85/106/3 82/105/3
f 89/117/10 90/118/10 91/119/10 92/120/10
f 93/118/9 94/117/9 95/120/9 96/119/9
f 90/121/1 93/122/1 96/123/1 91/124/1
f 92/124/5 95/123/5 94/122/5 89/121/5
f 91/105/7 96/106/7 95/107/7 92/108/7
f 89/108/3 94/107/3 93/106/3 90/105/3
f 97/125/10 98/126/10 99/127/10 100/128/10
f 101/126/9 102/125/9 103/128/9 104/127/9
f 98/129/1 101/130/1 104/131/1 99/132/1
f 100/132/5 103/131/5 102/130/5 97/129/5
f 99/105/7 104/106/7 103/107/7 100/108/7
f 97/108/3 102/107/3 101/106/3 98/105/3
f 105/133/10 106/134/10 107/135/10 108/136/10
f 109/134/9 110/133/9 111/136/9 112/135/9
f 106/137/1 109/138/1 112/139/1 107/140/1
f 108/140/5 111/139/5 110/138/5 105/137/5
f 107/105/7 112/106/7 111/107/7 108/108/7
f 105/108/3 110/107/3 109/106/3 106/105/3
f 113/141/10 114/142/10 115/143/10 116/144/10
f 117/142/9 118/141/9 119/144/9 120/143/9
f 114/145/1 117/146/1 120/147/1 115/148/1
f 116/148/5 119/147/5 118/146/5 113/145/5
f 115/105/7 120/106/7 119/107/7 116/108/7
f 113/108/3 118/107/3 117/106/3 114/105/3
f 121/149/10 122/150/10 123/151/10 124/152/10
f 125/150/9 126/149/9 127/152/9 128/151/9
f 122/153/1 125/154/1 128/155/1 123/156/1
f 124/156/5 127/155/5 126/154/5 121/153/5
f 123/105/7 128/106/7 127/107/7 124/108/7
f 121/108/3 126/107/3 125/106/3 122/105/3
f 129/157/10 130/158/10 131/159/10 132/160/10
f 133/158/9 134/157/9 135/160/9 136/159/9
f 130/161/1 133/162/1 136/163/1 131/164/1
f 132/164/5 135/163/5 134/162/5 129/161/5
f 131/165/7 136/166/7 135/167/7 132/168/7
f 129/168/3 134/167/3 133/166/3 130/165/3
f 137/169/10 138/170/10 139/171/10 140/172/10
f 141/170/9 142/169/9 143/172/9 144/171/9
f 138/173/1 141/174/1 144/175/1 139/176/1
f 140/176/5 143/175/5 142/174/5 137/173/5
f 139/165/7 144/166/7 143/167/7 140/168/7
f 137/168/3 142/167/3 141/166/3 138/165/3
g landmark_service_housings
f 145/177/1 146/178/1 147/179/1 148/180/1
f 146/178/2 149/181/2 150/182/2 147/179/2
f 149/183/3 151/184/3 152/185/3 150/186/3
f 151/181/4 153/178/4 154/179/4 152/182/4
f 153/178/5 155/177/5 156/180/5 154/179/5
f 155/177/6 157/187/6 158/188/6 156/180/6
f 157/184/7 159/183/7 160/186/7 158/185/7
f 159/187/8 145/177/8 148/180/8 160/188/8
f 148/189/9 147/190/9 150/191/9 152/192/9 154/193/9 156/194/9 158/195/9 160/196/9
f 159/196/10 157/195/10 155/194/10 153/193/10 151/192/10 149/191/10 146/190/10 145/189/10
f 161/197/1 162/198/1 163/199/1 164/200/1
f 162/198/2 165/201/2 166/202/2 163/199/2
f 165/203/3 167/204/3 168/205/3 166/206/3
f 167/201/4 169/198/4 170/199/4 168/202/4
f 169/198/5 171/197/5 172/200/5 170/199/5
f 171/197/6 173/207/6 174/208/6 172/200/6
f 173/204/7 175/203/7 176/206/7 174/205/7
f 175/207/8 161/197/8 164/200/8 176/208/8
f 164/209/9 163/210/9 166/211/9 168/212/9 170/213/9 172/214/9 174/215/9 176/216/9
f 175/216/10 173/215/10 171/214/10 169/213/10 167/212/10 165/211/10 162/210/10 161/209/10
f 177/217/10 178/218/10 179/219/10 180/220/10
f 181/218/9 182/217/9 183/220/9 184/219/9
f 178/221/1 181/222/1 184/223/1 179/224/1
f 180/224/5 183/223/5 182/222/5 177/221/5
f 179/225/7 184/226/7 183/227/7 180/228/7
f 177/228/3 182/227/3 181/226/3 178/225/3
g landmark_sensors
f 185/229/15 186/230/15 187/231/15 188/232/15
f 186/233/5 189/234/5 190/235/5 187/236/5
f 189/230/16 191/229/16 192/232/16 190/231/16
f 191/229/17 193/237/17 194/238/17 192/232/17
f 193/234/1 195/233/1 196/236/1 194/235/1
f 195/237/18 185/229/18 188/232/18 196/238/18
f 197/239/10 198/240/10 199/241/10 200/242/10
f 201/240/9 202/239/9 203/242/9 204/241/9
f 198/243/1 201/244/1 204/245/1 199/246/1
f 200/246/5 203/245/5 202/244/5 197/243/5
f 199/247/7 204/248/7 203/249/7 200/250/7
f 197/250/3 202/249/3 201/248/3 198/247/3
f 205/229/15 206/230/15 207/251/15 208/252/15
f 206/253/5 209/254/5 210/255/5 207/256/5
f 209/230/16 211/229/16 212/252/16 210/251/16
f 211/229/17 213/237/17 214/257/17 212/252/17
f 213/254/1 215/253/1 216/256/1 214/255/1
f 215/237/18 205/229/18 208/252/18 216/257/18
f 217/258/10 218/259/10 219/260/10 220/261/10
f 221/259/9 222/258/9 223/261/9 224/260/9
f 218/262/1 221/263/1 224/264/1 219/265/1
f 220/265/5 223/264/5 222/263/5 217/262/5
f 219/266/7 224/267/7 223/268/7 220/269/7
f 217/269/3 222/268/3 221/267/3 218/266/3
f 225/270/1 226/271/1 227/272/1 228/273/1
f 226/271/2 229/274/2 230/275/2 227/272/2
f 229/276/3 231/277/3 232/278/3 230/279/3
f 231/274/4 233/271/4 234/272/4 232/275/4
f 233/271/5 235/270/5 236/273/5 234/272/5
f 235/270/6 237/280/6 238/281/6 236/273/6
f 237/277/7 239/276/7 240/279/7 238/278/7
f 239/280/8 225/270/8 228/273/8 240/281/8
f 228/282/9 227/283/9 230/284/9 232/285/9 234/286/9 236/287/9 238/288/9 240/289/9
f 239/289/10 237/288/10 235/287/10 233/286/10 231/285/10 229/284/10 226/283/10 225/282/10
g landmark_maintenance_access
f 241/290/10 242/291/10 243/292/10 244/293/10
f 245/291/9 246/290/9 247/293/9 248/292/9
f 242/294/1 245/295/1 248/296/1 243/297/1
f 244/297/5 247/296/5 246/295/5 241/294/5
f 243/298/7 248/299/7 247/300/7 244/301/7
f 241/301/3 246/300/3 245/299/3 242/298/3
f 249/290/10 250/291/10 251/292/10 252/293/10
f 253/291/9 254/290/9 255/293/9 256/292/9
f 250/302/1 253/303/1 256/304/1 251/305/1
f 252/305/5 255/304/5 254/303/5 249/302/5
f 251/306/7 256/307/7 255/308/7 252/309/7
f 249/309/3 254/308/3 253/307/3 250/306/3
f 257/290/10 258/291/10 259/292/10 260/293/10
f 261/291/9 262/290/9 263/293/9 264/292/9
f 258/310/1 261/311/1 264/312/1 259/313/1
f 260/313/5 263/312/5 262/311/5 257/310/5
f 259/314/7 264/315/7 263/316/7 260/317/7
f 257/317/3 262/316/3 261/315/3 258/314/3
f 265/290/10 266/291/10 267/292/10 268/293/10
f 269/291/9 270/290/9 271/293/9 272/292/9
f 266/318/1 269/319/1 272/320/1 267/321/1
f 268/321/5 271/320/5 270/319/5 265/318/5
f 267/322/7 272/323/7 271/324/7 268/325/7
f 265/325/3 270/324/3 269/323/3 266/322/3
f 273/290/10 274/291/10 275/292/10 276/293/10
f 277/291/9 278/290/9 279/293/9 280/292/9
f 274/326/1 277/327/1 280/328/1 275/329/1
f 276/329/5 279/328/5 278/327/5 273/326/5
f 275/330/7 280/331/7 279/332/7 276/333/7
f 273/333/3 278/332/3 277/331/3 274/330/3
f 281/290/10 282/291/10 283/292/10 284/293/10
f 285/291/9 286/290/9 287/293/9 288/292/9
f 282/334/1 285/335/1 288/336/1 283/337/1
f 284/337/5 287/336/5 286/335/5 281/334/5
f 283/338/7 288/339/7 287/340/7 284/341/7
f 281/341/3 286/340/3 285/339/3 282/338/3
f 289/290/10 290/291/10 291/292/10 292/293/10
f 293/291/9 294/290/9 295/293/9 296/292/9
f 290/342/1 293/343/1 296/344/1 291/345/1
f 292/345/5 295/344/5 294/343/5 289/342/5
f 291/346/7 296/347/7 295/348/7 292/349/7
f 289/349/3 294/348/3 293/347/3 290/346/3
f 297/290/10 298/291/10 299/292/10 300/293/10
f 301/291/9 302/290/9 303/293/9 304/292/9
f 298/350/1 301/351/1 304/352/1 299/353/1
f 300/353/5 303/352/5 302/351/5 297/350/5
f 299/354/7 304/355/7 303/356/7 300/357/7
f 297/357/3 302/356/3 301/355/3 298/354/3
f 305/290/10 306/291/10 307/292/10 308/293/10
f 309/291/9 310/290/9 311/293/9 312/292/9
f 306/358/1 309/359/1 312/360/1 307/361/1
f 308/361/5 311/360/5 310/359/5 305/358/5
f 307/362/7 312/363/7 311/364/7 308/365/7
f 305/365/3 310/364/3 309/363/3 306/362/3
f 313/366/10 314/367/10 315/368/10 316/369/10
f 317/367/9 318/366/9 319/369/9 320/368/9
f 314/370/1 317/371/1 320/372/1 315/373/1
f 316/373/5 319/372/5 318/371/5 313/370/5
f 315/374/7 320/375/7 319/376/7 316/377/7
f 313/377/3 318/376/3 317/375/3 314/374/3
g emissive_landmark_strips
f 321/378/10 322/379/10 323/380/10 324/381/10
f 325/379/9 326/378/9 327/381/9 328/380/9
f 322/382/1 325/383/1 328/384/1 323/385/1
f 324/385/5 327/384/5 326/383/5 321/382/5
f 323/386/7 328/387/7 327/388/7 324/389/7
f 321/389/3 326/388/3 325/387/3 322/386/3
f 329/378/10 330/379/10 331/380/10 332/381/10
f 333/379/9 334/378/9 335/381/9 336/380/9
f 330/390/1 333/391/1 336/392/1 331/393/1
f 332/393/5 335/392/5 334/391/5 329/390/5
f 331/394/7 336/395/7 335/396/7 332/397/7
f 329/397/3 334/396/3 333/395/3 330/394/3
f 337/378/10 338/379/10 339/380/10 340/381/10
f 341/379/9 342/378/9 343/381/9 344/380/9
f 338/398/1 341/399/1 344/400/1 339/401/1
f 340/401/5 343/400/5 342/399/5 337/398/5
f 339/402/7 344/403/7 343/404/7 340/405/7
f 337/405/3 342/404/3 341/403/3 338/402/3
f 345/406/10 346/407/10 347/408/10 348/409/10
f 349/407/9 350/406/9 351/409/9 352/408/9
f 346/410/1 349/411/1 352/412/1 347/413/1
f 348/413/5 351/412/5 350/411/5 345/410/5
f 347/414/7 352/415/7 351/416/7 348/417/7
f 345/417/3 350/416/3 349/415/3 346/414/3
g emissive_arch_channels
f 353/418/10 354/419/10 355/420/10 356/421/10
f 357/419/9 358/418/9 359/421/9 360/420/9
f 354/422/1 357/423/1 360/424/1 355/425/1
f 356/425/5 359/424/5 358/423/5 353/422/5
f 355/426/7 360/427/7 359/428/7 356/429/7
f 353/429/3 358/428/3 357/427/3 354/426/3
f 361/430/10 362/431/10 363/432/10 364/433/10
f 365/431/9 366/430/9 367/433/9 368/432/9
f 362/434/1 365/435/1 368/436/1 363/437/1
f 364/437/5 367/436/5 366/435/5 361/434/5
f 363/426/7 368/427/7 367/428/7 364/429/7
f 361/429/3 366/428/3 365/427/3 362/426/3
f 369/438/10 370/439/10 371/440/10 372/441/10
f 373/439/9 374/438/9 375/441/9 376/440/9
f 370/442/1 373/443/1 376/444/1 371/445/1
f 372/445/5 375/444/5 374/443/5 369/442/5
f 371/446/7 376/447/7 375/448/7 372/449/7
f 369/449/3 374/448/3 373/447/3 370/446/3
f 377/450/10 378/451/10 379/452/10 380/453/10
f 381/451/9 382/450/9 383/453/9 384/452/9
f 378/454/1 381/455/1 384/456/1 379/457/1
f 380/457/5 383/456/5 382/455/5 377/454/5
f 379/458/7 384/459/7 383/460/7 380/461/7
f 377/461/3 382/460/3 381/459/3 378/458/3
g emissive_wall_datum
f 385/462/10 386/463/10 387/464/10 388/465/10
f 389/463/9 390/462/9 391/465/9 392/464/9
f 386/466/1 389/467/1 392/468/1 387/469/1
f 388/469/5 391/468/5 390/467/5 385/466/5
f 387/470/7 392/471/7 391/472/7 388/473/7
f 385/473/3 390/472/3 389/471/3 386/470/3
f 393/474/10 394/475/10 395/476/10 396/477/10
f 397/475/9 398/474/9 399/477/9 400/476/9
f 394/473/1 397/472/1 400/471/1 395/470/1
f 396/470/5 399/471/5 398/472/5 393/473/5
f 395/469/7 400/468/7 399/467/7 396/466/7
f 393/466/3 398/467/3 397/468/3 394/469/3
f 401/478/10 402/479/10 403/480/10 404/481/10
f 405/479/9 406/478/9 407/481/9 408/480/9
f 402/466/1 405/467/1 408/468/1 403/469/1
f 404/469/5 407/468/5 406/467/5 401/466/5
f 403/482/7 408/483/7 407/484/7 404/485/7
f 401/485/3 406/484/3 405/483/3 402/482/3
f 409/486/10 410/487/10 411/488/10 412/489/10
f 413/487/9 414/486/9 415/489/9 416/488/9
f 410/485/1 413/484/1 416/483/1 411/482/1
f 412/482/5 415/483/5 414/484/5 409/485/5
f 411/469/7 416/468/7 415/467/7 412/466/7
f 409/466/3 414/467/3 413/468/3 410/469/3
g emissive_truss_underside
f 417/490/10 418/491/10 419/492/10 420/493/10
f 421/491/9 422/490/9 423/493/9 424/492/9
f 418/494/1 421/495/1 424/496/1 419/497/1
f 420/497/5 423/496/5 422/495/5 417/494/5
f 419/498/7 424/499/7 423/500/7 420/501/7
f 417/501/3 422/500/3 421/499/3 418/498/3
f 425/502/10 426/503/10 427/504/10 428/505/10
f 429/503/9 430/502/9 431/505/9 432/504/9
f 426/494/1 429/495/1 432/496/1 427/497/1
f 428/497/5 431/496/5 430/495/5 425/494/5
f 427/506/7 432/507/7 431/508/7 428/509/7
f 425/509/3 430/508/3 429/507/3 426/506/3
f 433/510/10 434/511/10 435/512/10 436/513/10
f 437/511/9 438/510/9 439/513/9 440/512/9
f 434/494/1 437/495/1 440/496/1 435/497/1
f 436/497/5 439/496/5 438/495/5 433/494/5
f 435/514/7 440/515/7 439/516/7 436/517/7
f 433/517/3 438/516/3 437/515/3 434/514/3
f 441/518/10 442/519/10 443/520/10 444/521/10
f 445/519/9 446/518/9 447/521/9 448/520/9
f 442/494/1 445/495/1 448/496/1 443/497/1
f 444/497/5 447/496/5 446/495/5 441/494/5
f 443/522/7 448/523/7 447/524/7 444/525/7
f 441/525/3 446/524/3 445/523/3 442/522/3
f 449/526/10 450/527/10 451/528/10 452/529/10
f 453/527/9 454/526/9 455/529/9 456/528/9
f 450/494/1 453/495/1 456/496/1 451/497/1
f 452/497/5 455/496/5 454/495/5 449/494/5
f 451/530/7 456/531/7 455/532/7 452/533/7
f 449/533/3 454/532/3 453/531/3 450/530/3
