# STW_ARENA_MARK_01 - original STW production arena kit geometry
# Generated deterministically by tools/assets/generate_stw_arena_kit.py
# Axis convention: raw Z-up, +Y forward, metres, unrotated. O3DE imports OBJ
# vertices as (-x, z, y) and the runtime applies the compensating rotation
# Matrix3x3::CreateFromColumns(-X, Z, Y) at bind time.
# UVs are world-planar, scaled to 1.00 m per tile.
# No mtllib / usemtl: the runtime binds one Atom StandardPBR material through
# the mesh feature processor's default custom material slot.
o STW_ARENA_MARK_01
v -5.160000 7.040000 0.025000
v -4.440000 7.040000 0.025000
v -4.440000 7.660000 0.025000
v -5.160000 7.660000 0.025000
v -3.960000 7.040000 0.025000
v -3.240000 7.040000 0.025000
v -3.240000 7.660000 0.025000
v -3.960000 7.660000 0.025000
v -2.760000 7.040000 0.025000
v -2.040000 7.040000 0.025000
v -2.040000 7.660000 0.025000
v -2.760000 7.660000 0.025000
v -1.560000 7.040000 0.025000
v -0.840000 7.040000 0.025000
v -0.840000 7.660000 0.025000
v -1.560000 7.660000 0.025000
v -0.360000 7.040000 0.025000
v 0.360000 7.040000 0.025000
v 0.360000 7.660000 0.025000
v -0.360000 7.660000 0.025000
v 0.840000 7.040000 0.025000
v 1.560000 7.040000 0.025000
v 1.560000 7.660000 0.025000
v 0.840000 7.660000 0.025000
v 2.040000 7.040000 0.025000
v 2.760000 7.040000 0.025000
v 2.760000 7.660000 0.025000
v 2.040000 7.660000 0.025000
v 3.240000 7.040000 0.025000
v 3.960000 7.040000 0.025000
v 3.960000 7.660000 0.025000
v 3.240000 7.660000 0.025000
v 4.440000 7.040000 0.025000
v 5.160000 7.040000 0.025000
v 5.160000 7.660000 0.025000
v 4.440000 7.660000 0.025000
v -2.920000 -1.910000 0.025000
v -2.580000 -1.910000 0.025000
v -2.580000 -1.190000 0.025000
v -2.920000 -1.190000 0.025000
v -2.420000 -1.910000 0.025000
v -2.080000 -1.910000 0.025000
v -2.080000 -1.190000 0.025000
v -2.420000 -1.190000 0.025000
v -1.920000 -1.910000 0.025000
v -1.580000 -1.910000 0.025000
v -1.580000 -1.190000 0.025000
v -1.920000 -1.190000 0.025000
v 1.580000 -1.910000 0.025000
v 1.920000 -1.910000 0.025000
v 1.920000 -1.190000 0.025000
v 1.580000 -1.190000 0.025000
v 2.080000 -1.910000 0.025000
v 2.420000 -1.910000 0.025000
v 2.420000 -1.190000 0.025000
v 2.080000 -1.190000 0.025000
v 2.580000 -1.910000 0.025000
v 2.920000 -1.910000 0.025000
v 2.920000 -1.190000 0.025000
v 2.580000 -1.190000 0.025000
v 4.090000 -3.540000 0.025000
v 4.410000 -3.540000 0.025000
v 4.410000 -3.100000 0.025000
v 4.090000 -3.100000 0.025000
v 4.590000 -3.540000 0.025000
v 4.910000 -3.540000 0.025000
v 4.910000 -3.100000 0.025000
v 4.590000 -3.100000 0.025000
v 5.090000 -3.540000 0.025000
v 5.410000 -3.540000 0.025000
v 5.410000 -3.100000 0.025000
v 5.090000 -3.100000 0.025000
v 5.590000 -3.540000 0.025000
v 5.910000 -3.540000 0.025000
v 5.910000 -3.100000 0.025000
v 5.590000 -3.100000 0.025000
v -0.675000 -8.500000 0.025000
v 0.675000 -8.500000 0.025000
v 0.675000 -7.900000 0.025000
v -0.675000 -7.900000 0.025000
v -0.675000 -5.900000 0.025000
v 0.675000 -5.900000 0.025000
v 0.675000 -5.300000 0.025000
v -0.675000 -5.300000 0.025000
v -0.675000 -3.300000 0.025000
v 0.675000 -3.300000 0.025000
v 0.675000 -2.700000 0.025000
v -0.675000 -2.700000 0.025000
v -0.675000 -0.700000 0.025000
v 0.675000 -0.700000 0.025000
v 0.675000 -0.100000 0.025000
v -0.675000 -0.100000 0.025000
v -0.675000 1.900000 0.025000
v 0.675000 1.900000 0.025000
v 0.675000 2.500000 0.025000
v -0.675000 2.500000 0.025000
v -0.675000 4.500000 0.025000
v 0.675000 4.500000 0.025000
v 0.675000 5.100000 0.025000
v -0.675000 5.100000 0.025000
v -9.050000 -4.240000 0.025000
v -8.150000 -4.240000 0.025000
v -8.150000 -3.760000 0.025000
v -9.050000 -3.760000 0.025000
v -9.050000 -0.840000 0.025000
v -8.150000 -0.840000 0.025000
v -8.150000 -0.360000 0.025000
v -9.050000 -0.360000 0.025000
v -9.050000 2.560000 0.025000
v -8.150000 2.560000 0.025000
v -8.150000 3.040000 0.025000
v -9.050000 3.040000 0.025000
v 8.150000 -4.240000 0.025000
v 9.050000 -4.240000 0.025000
v 9.050000 -3.760000 0.025000
v 8.150000 -3.760000 0.025000
v 8.150000 -0.840000 0.025000
v 9.050000 -0.840000 0.025000
v 9.050000 -0.360000 0.025000
v 8.150000 -0.360000 0.025000
v 8.150000 2.560000 0.025000
v 9.050000 2.560000 0.025000
v 9.050000 3.040000 0.025000
v 8.150000 3.040000 0.025000
v -5.450000 -5.870000 0.065000
v -4.550000 -5.870000 0.065000
v -4.550000 -5.570000 0.065000
v -5.450000 -5.570000 0.065000
v 6.550000 2.130000 0.065000
v 7.450000 2.130000 0.065000
v 7.450000 2.430000 0.065000
v 6.550000 2.430000 0.065000
v -7.450000 6.130000 0.065000
v -6.550000 6.130000 0.065000
v -6.550000 6.430000 0.065000
v -7.450000 6.430000 0.065000
v 2.550000 -9.870000 0.065000
v 3.450000 -9.870000 0.065000
v 3.450000 -9.570000 0.065000
v 2.550000 -9.570000 0.065000
v -3.300000 -3.730000 0.025000
v -2.700000 -3.730000 0.025000
v -2.700000 -3.510000 0.025000
v -3.300000 -3.510000 0.025000
v 3.700000 0.270000 0.025000
v 4.300000 0.270000 0.025000
v 4.300000 0.490000 0.025000
v 3.700000 0.490000 0.025000
v -9.300000 -5.730000 0.025000
v -8.700000 -5.730000 0.025000
v -8.700000 -5.510000 0.025000
v -9.300000 -5.510000 0.025000
v 7.700000 5.270000 0.025000
v 8.300000 5.270000 0.025000
v 8.300000 5.490000 0.025000
v 7.700000 5.490000 0.025000
v -10.050000 11.925000 2.340000
v -8.750000 11.925000 2.340000
v -8.750000 11.925000 2.960000
v -10.050000 11.925000 2.960000
v -4.725000 11.925000 2.650000
v -3.675000 11.925000 2.650000
v -3.675000 11.925000 3.150000
v -4.725000 11.925000 3.150000
v 1.175000 11.925000 2.260000
v 2.625000 11.925000 2.260000
v 2.625000 11.925000 2.940000
v 1.175000 11.925000 2.940000
v 6.350000 11.925000 2.590000
v 7.450000 11.925000 2.590000
v 7.450000 11.925000 3.110000
v 6.350000 11.925000 3.110000
v 9.875000 11.925000 2.340000
v 10.725000 11.925000 2.340000
v 10.725000 11.925000 2.760000
v 9.875000 11.925000 2.760000
v 11.925000 -6.800000 2.410000
v 11.925000 -5.600000 2.410000
v 11.925000 -5.600000 2.990000
v 11.925000 -6.800000 2.990000
v -11.925000 -5.600000 2.410000
v -11.925000 -6.800000 2.410000
v -11.925000 -6.800000 2.990000
v -11.925000 -5.600000 2.990000
v 11.925000 0.225000 2.640000
v 11.925000 1.575000 2.640000
v 11.925000 1.575000 3.260000
v 11.925000 0.225000 3.260000
v -11.925000 1.575000 2.640000
v -11.925000 0.225000 2.640000
v -11.925000 0.225000 3.260000
v -11.925000 1.575000 3.260000
v 11.925000 6.925000 2.370000
v 11.925000 7.875000 2.370000
v 11.925000 7.875000 2.830000
v 11.925000 6.925000 2.830000
v -11.925000 7.875000 2.370000
v -11.925000 6.925000 2.370000
v -11.925000 6.925000 2.830000
v -11.925000 7.875000 2.830000
v -11.800000 11.925000 0.490000
v -10.200000 11.925000 0.490000
v -10.200000 11.925000 0.750000
v -11.800000 11.925000 0.750000
v -7.400000 11.925000 0.490000
v -5.800000 11.925000 0.490000
v -5.800000 11.925000 0.750000
v -7.400000 11.925000 0.750000
v -3.000000 11.925000 0.490000
v -1.400000 11.925000 0.490000
v -1.400000 11.925000 0.750000
v -3.000000 11.925000 0.750000
v 1.400000 11.925000 0.490000
v 3.000000 11.925000 0.490000
v 3.000000 11.925000 0.750000
v 1.400000 11.925000 0.750000
v 5.800000 11.925000 0.490000
v 7.400000 11.925000 0.490000
v 7.400000 11.925000 0.750000
v 5.800000 11.925000 0.750000
v 10.200000 11.925000 0.490000
v 11.800000 11.925000 0.490000
v 11.800000 11.925000 0.750000
v 10.200000 11.925000 0.750000
v -2.600000 -1.165000 1.270000
v -1.900000 -1.165000 1.270000
v -1.900000 -1.165000 1.970000
v -2.600000 -1.165000 1.970000
v -2.510000 -1.165000 0.730000
v -1.990000 -1.165000 0.730000
v -1.990000 -1.165000 0.990000
v -2.510000 -1.165000 0.990000
v 1.900000 -1.165000 1.270000
v 2.600000 -1.165000 1.270000
v 2.600000 -1.165000 1.970000
v 1.900000 -1.165000 1.970000
v 1.990000 -1.165000 0.730000
v 2.510000 -1.165000 0.730000
v 2.510000 -1.165000 0.990000
v 1.990000 -1.165000 0.990000
v -5.310000 8.015000 5.480000
v -4.690000 8.015000 5.480000
v -4.690000 8.015000 5.920000
v -5.310000 8.015000 5.920000
v 4.690000 8.015000 5.480000
v 5.310000 8.015000 5.480000
v 5.310000 8.015000 5.920000
v 4.690000 8.015000 5.920000
vt -5.160000 7.040000
vt -4.440000 7.040000
vt -4.440000 7.660000
vt -5.160000 7.660000
vt -3.960000 7.040000
vt -3.240000 7.040000
vt -3.240000 7.660000
vt -3.960000 7.660000
vt -2.760000 7.040000
vt -2.040000 7.040000
vt -2.040000 7.660000
vt -2.760000 7.660000
vt -1.560000 7.040000
vt -0.840000 7.040000
vt -0.840000 7.660000
vt -1.560000 7.660000
vt -0.360000 7.040000
vt 0.360000 7.040000
vt 0.360000 7.660000
vt -0.360000 7.660000
vt 0.840000 7.040000
vt 1.560000 7.040000
vt 1.560000 7.660000
vt 0.840000 7.660000
vt 2.040000 7.040000
vt 2.760000 7.040000
vt 2.760000 7.660000
vt 2.040000 7.660000
vt 3.240000 7.040000
vt 3.960000 7.040000
vt 3.960000 7.660000
vt 3.240000 7.660000
vt 4.440000 7.040000
vt 5.160000 7.040000
vt 5.160000 7.660000
vt 4.440000 7.660000
vt -2.920000 -1.910000
vt -2.580000 -1.910000
vt -2.580000 -1.190000
vt -2.920000 -1.190000
vt -2.420000 -1.910000
vt -2.080000 -1.910000
vt -2.080000 -1.190000
vt -2.420000 -1.190000
vt -1.920000 -1.910000
vt -1.580000 -1.910000
vt -1.580000 -1.190000
vt -1.920000 -1.190000
vt 1.580000 -1.910000
vt 1.920000 -1.910000
vt 1.920000 -1.190000
vt 1.580000 -1.190000
vt 2.080000 -1.910000
vt 2.420000 -1.910000
vt 2.420000 -1.190000
vt 2.080000 -1.190000
vt 2.580000 -1.910000
vt 2.920000 -1.910000
vt 2.920000 -1.190000
vt 2.580000 -1.190000
vt 4.090000 -3.540000
vt 4.410000 -3.540000
vt 4.410000 -3.100000
vt 4.090000 -3.100000
vt 4.590000 -3.540000
vt 4.910000 -3.540000
vt 4.910000 -3.100000
vt 4.590000 -3.100000
vt 5.090000 -3.540000
vt 5.410000 -3.540000
vt 5.410000 -3.100000
vt 5.090000 -3.100000
vt 5.590000 -3.540000
vt 5.910000 -3.540000
vt 5.910000 -3.100000
vt 5.590000 -3.100000
vt -0.675000 -8.500000
vt 0.675000 -8.500000
vt 0.675000 -7.900000
vt -0.675000 -7.900000
vt -0.675000 -5.900000
vt 0.675000 -5.900000
vt 0.675000 -5.300000
vt -0.675000 -5.300000
vt -0.675000 -3.300000
vt 0.675000 -3.300000
vt 0.675000 -2.700000
vt -0.675000 -2.700000
vt -0.675000 -0.700000
vt 0.675000 -0.700000
vt 0.675000 -0.100000
vt -0.675000 -0.100000
vt -0.675000 1.900000
vt 0.675000 1.900000
vt 0.675000 2.500000
vt -0.675000 2.500000
vt -0.675000 4.500000
vt 0.675000 4.500000
vt 0.675000 5.100000
vt -0.675000 5.100000
vt -9.050000 -4.240000
vt -8.150000 -4.240000
vt -8.150000 -3.760000
vt -9.050000 -3.760000
vt -9.050000 -0.840000
vt -8.150000 -0.840000
vt -8.150000 -0.360000
vt -9.050000 -0.360000
vt -9.050000 2.560000
vt -8.150000 2.560000
vt -8.150000 3.040000
vt -9.050000 3.040000
vt 8.150000 -4.240000
vt 9.050000 -4.240000
vt 9.050000 -3.760000
vt 8.150000 -3.760000
vt 8.150000 -0.840000
vt 9.050000 -0.840000
vt 9.050000 -0.360000
vt 8.150000 -0.360000
vt 8.150000 2.560000
vt 9.050000 2.560000
vt 9.050000 3.040000
vt 8.150000 3.040000
vt -5.450000 -5.870000
vt -4.550000 -5.870000
vt -4.550000 -5.570000
vt -5.450000 -5.570000
vt 6.550000 2.130000
vt 7.450000 2.130000
vt 7.450000 2.430000
vt 6.550000 2.430000
vt -7.450000 6.130000
vt -6.550000 6.130000
vt -6.550000 6.430000
vt -7.450000 6.430000
vt 2.550000 -9.870000
vt 3.450000 -9.870000
vt 3.450000 -9.570000
vt 2.550000 -9.570000
vt -3.300000 -3.730000
vt -2.700000 -3.730000
vt -2.700000 -3.510000
vt -3.300000 -3.510000
vt 3.700000 0.270000
vt 4.300000 0.270000
vt 4.300000 0.490000
vt 3.700000 0.490000
vt -9.300000 -5.730000
vt -8.700000 -5.730000
vt -8.700000 -5.510000
vt -9.300000 -5.510000
vt 7.700000 5.270000
vt 8.300000 5.270000
vt 8.300000 5.490000
vt 7.700000 5.490000
vt -10.050000 2.340000
vt -8.750000 2.340000
vt -8.750000 2.960000
vt -10.050000 2.960000
vt -4.725000 2.650000
vt -3.675000 2.650000
vt -3.675000 3.150000
vt -4.725000 3.150000
vt 1.175000 2.260000
vt 2.625000 2.260000
vt 2.625000 2.940000
vt 1.175000 2.940000
vt 6.350000 2.590000
vt 7.450000 2.590000
vt 7.450000 3.110000
vt 6.350000 3.110000
vt 9.875000 2.340000
vt 10.725000 2.340000
vt 10.725000 2.760000
vt 9.875000 2.760000
vt -6.800000 2.410000
vt -5.600000 2.410000
vt -5.600000 2.990000
vt -6.800000 2.990000
vt 0.225000 2.640000
vt 1.575000 2.640000
vt 1.575000 3.260000
vt 0.225000 3.260000
vt 6.925000 2.370000
vt 7.875000 2.370000
vt 7.875000 2.830000
vt 6.925000 2.830000
vt -11.800000 0.490000
vt -10.200000 0.490000
vt -10.200000 0.750000
vt -11.800000 0.750000
vt -7.400000 0.490000
vt -5.800000 0.490000
vt -5.800000 0.750000
vt -7.400000 0.750000
vt -3.000000 0.490000
vt -1.400000 0.490000
vt -1.400000 0.750000
vt -3.000000 0.750000
vt 1.400000 0.490000
vt 3.000000 0.490000
vt 3.000000 0.750000
vt 1.400000 0.750000
vt 5.800000 0.490000
vt 7.400000 0.490000
vt 7.400000 0.750000
vt 5.800000 0.750000
vt 10.200000 0.490000
vt 11.800000 0.490000
vt 11.800000 0.750000
vt 10.200000 0.750000
vt -2.600000 1.270000
vt -1.900000 1.270000
vt -1.900000 1.970000
vt -2.600000 1.970000
vt -2.510000 0.730000
vt -1.990000 0.730000
vt -1.990000 0.990000
vt -2.510000 0.990000
vt 1.900000 1.270000
vt 2.600000 1.270000
vt 2.600000 1.970000
vt 1.900000 1.970000
vt 1.990000 0.730000
vt 2.510000 0.730000
vt 2.510000 0.990000
vt 1.990000 0.990000
vt -5.310000 5.480000
vt -4.690000 5.480000
vt -4.690000 5.920000
vt -5.310000 5.920000
vt 4.690000 5.480000
vt 5.310000 5.480000
vt 5.310000 5.920000
vt 4.690000 5.920000
vn 0.000000 0.000000 1.000000
vn 0.000000 -1.000000 0.000000
vn 1.000000 0.000000 0.000000
vn -1.000000 0.000000 0.000000
g deck_hazard_striping
f 1/1/1 2/2/1 3/3/1 4/4/1
f 5/5/1 6/6/1 7/7/1 8/8/1
f 9/9/1 10/10/1 11/11/1 12/12/1
f 13/13/1 14/14/1 15/15/1 16/16/1
f 17/17/1 18/18/1 19/19/1 20/20/1
f 21/21/1 22/22/1 23/23/1 24/24/1
f 25/25/1 26/26/1 27/27/1 28/28/1
f 29/29/1 30/30/1 31/31/1 32/32/1
f 33/33/1 34/34/1 35/35/1 36/36/1
f 37/37/1 38/38/1 39/39/1 40/40/1
f 41/41/1 42/42/1 43/43/1 44/44/1
f 45/45/1 46/46/1 47/47/1 48/48/1
f 49/49/1 50/50/1 51/51/1 52/52/1
f 53/53/1 54/54/1 55/55/1 56/56/1
f 57/57/1 58/58/1 59/59/1 60/60/1
f 61/61/1 62/62/1 63/63/1 64/64/1
f 65/65/1 66/66/1 67/67/1 68/68/1
f 69/69/1 70/70/1 71/71/1 72/72/1
f 73/73/1 74/74/1 75/75/1 76/76/1
g deck_directional_chevrons
f 77/77/1 78/78/1 79/79/1 80/80/1
f 81/81/1 82/82/1 83/83/1 84/84/1
f 85/85/1 86/86/1 87/87/1 88/88/1
f 89/89/1 90/90/1 91/91/1 92/92/1
f 93/93/1 94/94/1 95/95/1 96/96/1
f 97/97/1 98/98/1 99/99/1 100/100/1
f 101/101/1 102/102/1 103/103/1 104/104/1
f 105/105/1 106/106/1 107/107/1 108/108/1
f 109/109/1 110/110/1 111/111/1 112/112/1
f 113/113/1 114/114/1 115/115/1 116/116/1
f 117/117/1 118/118/1 119/119/1 120/120/1
f 121/121/1 122/122/1 123/123/1 124/124/1
g deck_service_numbering
f 125/125/1 126/126/1 127/127/1 128/128/1
f 129/129/1 130/130/1 131/131/1 132/132/1
f 133/133/1 134/134/1 135/135/1 136/136/1
f 137/137/1 138/138/1 139/139/1 140/140/1
f 141/141/1 142/142/1 143/143/1 144/144/1
f 145/145/1 146/146/1 147/147/1 148/148/1
f 149/149/1 150/150/1 151/151/1 152/152/1
f 153/153/1 154/154/1 155/155/1 156/156/1
g wall_signage
f 157/157/2 158/158/2 159/159/2 160/160/2
f 161/161/2 162/162/2 163/163/2 164/164/2
f 165/165/2 166/166/2 167/167/2 168/168/2
f 169/169/2 170/170/2 171/171/2 172/172/2
f 173/173/2 174/174/2 175/175/2 176/176/2
f 177/177/3 178/178/3 179/179/3 180/180/3
f 181/178/4 182/177/4 183/180/4 184/179/4
f 185/181/3 186/182/3 187/183/3 188/184/3
f 189/182/4 190/181/4 191/184/4 192/183/4
f 193/185/3 194/186/3 195/187/3 196/188/3
f 197/186/4 198/185/4 199/188/4 200/187/4
g wall_caution_bands
f 201/189/2 202/190/2 203/191/2 204/192/2
f 205/193/2 206/194/2 207/195/2 208/196/2
f 209/197/2 210/198/2 211/199/2 212/200/2
f 213/201/2 214/202/2 215/203/2 216/204/2
f 217/205/2 218/206/2 219/207/2 220/208/2
f 221/209/2 222/210/2 223/211/2 224/212/2
g cover_industrial_symbols
f 225/213/2 226/214/2 227/215/2 228/216/2
f 229/217/2 230/218/2 231/219/2 232/220/2
f 233/221/2 234/222/2 235/223/2 236/224/2
f 237/225/2 238/226/2 239/227/2 240/228/2
g arch_maintenance_numbering
f 241/229/2 242/230/2 243/231/2 244/232/2
f 245/233/2 246/234/2 247/235/2 248/236/2
