# STW_SMG_01 - original fictional STW first-person weapon presentation asset
# Generated deterministically by tools/assets/create_stw_weapons.py
# Axis convention: +X right, +Y aim/forward, +Z up
# LOD node: LOD1
# parts: cell_housing, forward_shroud, grip, magazine_well, muzzle_device, optic_housing, rear_brace, receiver_body, trigger_guard, upper_rail
# No mtllib / usemtl is emitted: the runtime binds one Atom StandardPBR material.
o STW_SMG_01
v -0.034000 0.090000 -0.050000
v 0.034000 0.090000 -0.050000
v 0.034000 0.090000 0.050000
v -0.034000 0.090000 0.050000
v 0.036000 -0.170000 -0.052000
v -0.036000 -0.170000 -0.052000
v -0.036000 -0.170000 0.052000
v 0.036000 -0.170000 0.052000
v -0.020000 0.120000 0.047000
v 0.020000 0.120000 0.047000
v 0.020000 0.120000 0.065000
v -0.020000 0.120000 0.065000
v 0.022000 -0.150000 0.048000
v -0.022000 -0.150000 0.048000
v -0.022000 -0.150000 0.068000
v 0.022000 -0.150000 0.068000
v -0.022000 0.010000 0.065000
v 0.022000 0.010000 0.065000
v 0.022000 0.010000 0.107000
v -0.022000 0.010000 0.107000
v 0.026000 -0.090000 0.064000
v -0.026000 -0.090000 0.064000
v -0.026000 -0.090000 0.116000
v 0.026000 -0.090000 0.116000
v -0.021000 0.268000 -0.018000
v 0.021000 0.268000 -0.018000
v 0.021000 0.268000 0.030000
v -0.021000 0.268000 0.030000
v 0.031000 0.090000 -0.032000
v -0.031000 0.090000 -0.032000
v -0.031000 0.090000 0.040000
v 0.031000 0.090000 0.040000
v -0.019000 0.318000 -0.015000
v 0.019000 0.318000 -0.015000
v 0.019000 0.318000 0.027000
v -0.019000 0.318000 0.027000
v 0.023000 0.268000 -0.020000
v -0.023000 0.268000 -0.020000
v -0.023000 0.268000 0.032000
v 0.023000 0.268000 0.032000
v -0.024000 0.150000 -0.074000
v 0.024000 0.150000 -0.074000
v 0.024000 0.150000 -0.042000
v -0.024000 0.150000 -0.042000
v 0.028000 0.030000 -0.088000
v -0.028000 0.030000 -0.088000
v -0.028000 0.030000 -0.044000
v 0.028000 0.030000 -0.044000
v -0.024000 0.020000 -0.158000
v 0.024000 0.020000 -0.158000
v 0.024000 0.020000 -0.042000
v -0.024000 0.020000 -0.042000
v 0.026000 -0.070000 -0.172000
v -0.026000 -0.070000 -0.172000
v -0.026000 -0.070000 -0.048000
v 0.026000 -0.070000 -0.048000
v -0.022000 -0.086000 -0.148000
v 0.022000 -0.086000 -0.148000
v 0.022000 -0.086000 -0.036000
v -0.022000 -0.086000 -0.036000
v 0.024000 -0.168000 -0.168000
v -0.024000 -0.168000 -0.168000
v -0.024000 -0.168000 -0.048000
v 0.024000 -0.168000 -0.048000
v -0.020000 -0.074000 -0.104000
v 0.020000 -0.074000 -0.104000
v 0.020000 -0.074000 -0.052000
v -0.020000 -0.074000 -0.052000
v 0.020000 -0.086000 -0.104000
v -0.020000 -0.086000 -0.104000
v -0.020000 -0.086000 -0.052000
v 0.020000 -0.086000 -0.052000
v -0.020000 -0.022000 -0.106000
v 0.020000 -0.022000 -0.106000
v 0.020000 -0.022000 -0.094000
v -0.020000 -0.022000 -0.094000
v 0.020000 -0.074000 -0.106000
v -0.020000 -0.074000 -0.106000
v -0.020000 -0.074000 -0.094000
v 0.020000 -0.074000 -0.094000
v -0.020000 -0.018000 -0.096000
v 0.020000 -0.018000 -0.096000
v 0.020000 -0.018000 -0.052000
v -0.020000 -0.018000 -0.052000
v 0.020000 -0.030000 -0.096000
v -0.020000 -0.030000 -0.096000
v -0.020000 -0.030000 -0.052000
v 0.020000 -0.030000 -0.052000
v -0.030000 -0.170000 -0.040000
v 0.030000 -0.170000 -0.040000
v 0.030000 -0.170000 0.052000
v -0.030000 -0.170000 0.052000
v 0.020000 -0.246000 -0.024000
v -0.020000 -0.246000 -0.024000
v -0.020000 -0.246000 0.044000
v 0.020000 -0.246000 0.044000
vt -0.034000 -0.050000
vt 0.034000 -0.050000
vt 0.034000 0.050000
vt -0.034000 0.050000
vt 0.036000 -0.052000
vt -0.036000 -0.052000
vt -0.036000 0.052000
vt 0.036000 0.052000
vt -0.036000 -0.170000
vt 0.036000 -0.170000
vt 0.034000 0.090000
vt -0.034000 0.090000
vt -0.036000 -0.170000
vt -0.034000 0.090000
vt 0.034000 0.090000
vt 0.036000 -0.170000
vt -0.170000 -0.052000
vt -0.170000 0.052000
vt 0.090000 0.050000
vt 0.090000 -0.050000
vt -0.170000 -0.052000
vt 0.090000 -0.050000
vt 0.090000 0.050000
vt -0.170000 0.052000
vt -0.020000 0.047000
vt 0.020000 0.047000
vt 0.020000 0.065000
vt -0.020000 0.065000
vt 0.022000 0.048000
vt -0.022000 0.048000
vt -0.022000 0.068000
vt 0.022000 0.068000
vt -0.022000 -0.150000
vt 0.022000 -0.150000
vt 0.020000 0.120000
vt -0.020000 0.120000
vt -0.022000 -0.150000
vt -0.020000 0.120000
vt 0.020000 0.120000
vt 0.022000 -0.150000
vt -0.150000 0.048000
vt -0.150000 0.068000
vt 0.120000 0.065000
vt 0.120000 0.047000
vt -0.150000 0.048000
vt 0.120000 0.047000
vt 0.120000 0.065000
vt -0.150000 0.068000
vt -0.022000 0.065000
vt 0.022000 0.065000
vt 0.022000 0.107000
vt -0.022000 0.107000
vt 0.026000 0.064000
vt -0.026000 0.064000
vt -0.026000 0.116000
vt 0.026000 0.116000
vt -0.026000 -0.090000
vt 0.026000 -0.090000
vt 0.022000 0.010000
vt -0.022000 0.010000
vt -0.026000 -0.090000
vt -0.022000 0.010000
vt 0.022000 0.010000
vt 0.026000 -0.090000
vt -0.090000 0.064000
vt -0.090000 0.116000
vt 0.010000 0.107000
vt 0.010000 0.065000
vt -0.090000 0.064000
vt 0.010000 0.065000
vt 0.010000 0.107000
vt -0.090000 0.116000
vt -0.021000 -0.018000
vt 0.021000 -0.018000
vt 0.021000 0.030000
vt -0.021000 0.030000
vt 0.031000 -0.032000
vt -0.031000 -0.032000
vt -0.031000 0.040000
vt 0.031000 0.040000
vt -0.031000 0.090000
vt 0.031000 0.090000
vt 0.021000 0.268000
vt -0.021000 0.268000
vt -0.031000 0.090000
vt -0.021000 0.268000
vt 0.021000 0.268000
vt 0.031000 0.090000
vt 0.090000 -0.032000
vt 0.090000 0.040000
vt 0.268000 0.030000
vt 0.268000 -0.018000
vt 0.090000 -0.032000
vt 0.268000 -0.018000
vt 0.268000 0.030000
vt 0.090000 0.040000
vt -0.019000 -0.015000
vt 0.019000 -0.015000
vt 0.019000 0.027000
vt -0.019000 0.027000
vt 0.023000 -0.020000
vt -0.023000 -0.020000
vt -0.023000 0.032000
vt 0.023000 0.032000
vt -0.023000 0.268000
vt 0.023000 0.268000
vt 0.019000 0.318000
vt -0.019000 0.318000
vt -0.023000 0.268000
vt -0.019000 0.318000
vt 0.019000 0.318000
vt 0.023000 0.268000
vt 0.268000 -0.020000
vt 0.268000 0.032000
vt 0.318000 0.027000
vt 0.318000 -0.015000
vt 0.268000 -0.020000
vt 0.318000 -0.015000
vt 0.318000 0.027000
vt 0.268000 0.032000
vt -0.024000 -0.074000
vt 0.024000 -0.074000
vt 0.024000 -0.042000
vt -0.024000 -0.042000
vt 0.028000 -0.088000
vt -0.028000 -0.088000
vt -0.028000 -0.044000
vt 0.028000 -0.044000
vt -0.028000 0.030000
vt 0.028000 0.030000
vt 0.024000 0.150000
vt -0.024000 0.150000
vt -0.028000 0.030000
vt -0.024000 0.150000
vt 0.024000 0.150000
vt 0.028000 0.030000
vt 0.030000 -0.088000
vt 0.030000 -0.044000
vt 0.150000 -0.042000
vt 0.150000 -0.074000
vt 0.030000 -0.088000
vt 0.150000 -0.074000
vt 0.150000 -0.042000
vt 0.030000 -0.044000
vt -0.024000 -0.158000
vt 0.024000 -0.158000
vt 0.024000 -0.042000
vt -0.024000 -0.042000
vt 0.026000 -0.172000
vt -0.026000 -0.172000
vt -0.026000 -0.048000
vt 0.026000 -0.048000
vt -0.026000 -0.070000
vt 0.026000 -0.070000
vt 0.024000 0.020000
vt -0.024000 0.020000
vt -0.026000 -0.070000
vt -0.024000 0.020000
vt 0.024000 0.020000
vt 0.026000 -0.070000
vt -0.070000 -0.172000
vt -0.070000 -0.048000
vt 0.020000 -0.042000
vt 0.020000 -0.158000
vt -0.070000 -0.172000
vt 0.020000 -0.158000
vt 0.020000 -0.042000
vt -0.070000 -0.048000
vt -0.022000 -0.148000
vt 0.022000 -0.148000
vt 0.022000 -0.036000
vt -0.022000 -0.036000
vt 0.024000 -0.168000
vt -0.024000 -0.168000
vt -0.024000 -0.048000
vt 0.024000 -0.048000
vt -0.024000 -0.168000
vt 0.024000 -0.168000
vt 0.022000 -0.086000
vt -0.022000 -0.086000
vt -0.024000 -0.168000
vt -0.022000 -0.086000
vt 0.022000 -0.086000
vt 0.024000 -0.168000
vt -0.168000 -0.168000
vt -0.168000 -0.048000
vt -0.086000 -0.036000
vt -0.086000 -0.148000
vt -0.168000 -0.168000
vt -0.086000 -0.148000
vt -0.086000 -0.036000
vt -0.168000 -0.048000
vt -0.020000 -0.104000
vt 0.020000 -0.104000
vt 0.020000 -0.052000
vt -0.020000 -0.052000
vt 0.020000 -0.104000
vt -0.020000 -0.104000
vt -0.020000 -0.052000
vt 0.020000 -0.052000
vt -0.020000 -0.086000
vt 0.020000 -0.086000
vt 0.020000 -0.074000
vt -0.020000 -0.074000
vt -0.020000 -0.086000
vt -0.020000 -0.074000
vt 0.020000 -0.074000
vt 0.020000 -0.086000
vt -0.086000 -0.104000
vt -0.086000 -0.052000
vt -0.074000 -0.052000
vt -0.074000 -0.104000
vt -0.086000 -0.104000
vt -0.074000 -0.104000
vt -0.074000 -0.052000
vt -0.086000 -0.052000
vt -0.020000 -0.106000
vt 0.020000 -0.106000
vt 0.020000 -0.094000
vt -0.020000 -0.094000
vt 0.020000 -0.106000
vt -0.020000 -0.106000
vt -0.020000 -0.094000
vt 0.020000 -0.094000
vt -0.020000 -0.074000
vt 0.020000 -0.074000
vt 0.020000 -0.022000
vt -0.020000 -0.022000
vt -0.020000 -0.074000
vt -0.020000 -0.022000
vt 0.020000 -0.022000
vt 0.020000 -0.074000
vt -0.074000 -0.106000
vt -0.074000 -0.094000
vt -0.022000 -0.094000
vt -0.022000 -0.106000
vt -0.074000 -0.106000
vt -0.022000 -0.106000
vt -0.022000 -0.094000
vt -0.074000 -0.094000
vt -0.020000 -0.096000
vt 0.020000 -0.096000
vt 0.020000 -0.052000
vt -0.020000 -0.052000
vt 0.020000 -0.096000
vt -0.020000 -0.096000
vt -0.020000 -0.052000
vt 0.020000 -0.052000
vt -0.020000 -0.030000
vt 0.020000 -0.030000
vt 0.020000 -0.018000
vt -0.020000 -0.018000
vt -0.020000 -0.030000
vt -0.020000 -0.018000
vt 0.020000 -0.018000
vt 0.020000 -0.030000
vt -0.030000 -0.096000
vt -0.030000 -0.052000
vt -0.018000 -0.052000
vt -0.018000 -0.096000
vt -0.030000 -0.096000
vt -0.018000 -0.096000
vt -0.018000 -0.052000
vt -0.030000 -0.052000
vt -0.030000 -0.040000
vt 0.030000 -0.040000
vt 0.030000 0.052000
vt -0.030000 0.052000
vt 0.020000 -0.024000
vt -0.020000 -0.024000
vt -0.020000 0.044000
vt 0.020000 0.044000
vt -0.020000 -0.246000
vt 0.020000 -0.246000
vt 0.030000 -0.170000
vt -0.030000 -0.170000
vt -0.020000 -0.246000
vt -0.030000 -0.170000
vt 0.030000 -0.170000
vt 0.020000 -0.246000
vt -0.246000 -0.024000
vt -0.246000 0.044000
vt -0.170000 0.052000
vt -0.170000 -0.040000
vt -0.246000 -0.024000
vt -0.170000 -0.040000
vt -0.170000 0.052000
vt -0.246000 0.044000
vn 0.000000 -1.000000 0.000000
vn 0.000000 1.000000 0.000000
vn 0.000000 -0.007692 0.999970
vn 0.000000 -0.007692 -0.999970
vn -0.999970 -0.007692 0.000000
vn 0.999970 -0.007692 0.000000
vn -0.000000 0.003704 0.999993
vn 0.000000 -0.011110 -0.999938
vn -0.999973 -0.007407 0.000000
vn 0.999973 -0.007407 0.000000
vn 0.000000 -0.010000 0.999950
vn 0.000000 -0.089638 -0.995974
vn -0.999201 -0.039968 0.000000
vn 0.999201 -0.039968 0.000000
vn 0.000000 -0.078410 0.996921
vn 0.000000 -0.056091 -0.998426
vn -0.998426 -0.056091 0.000000
vn 0.998426 -0.056091 0.000000
vn 0.000000 -0.099504 0.995037
vn 0.000000 -0.099504 -0.995037
vn -0.996815 -0.079745 0.000000
vn 0.996815 -0.079745 0.000000
vn 0.000000 -0.115881 0.993263
vn 0.000000 0.016664 -0.999861
vn -0.999445 -0.033315 0.000000
vn 0.999445 -0.033315 0.000000
vn 0.000000 -0.153707 0.988116
vn 0.000000 0.066519 -0.997785
vn -0.999753 -0.022217 0.000000
vn 0.999753 -0.022217 0.000000
vn 0.000000 -0.236956 0.971520
vn 0.000000 0.144799 -0.989461
vn -0.999703 -0.024383 0.000000
vn 0.999703 -0.024383 0.000000
vn 0.000000 0.000000 1.000000
vn 0.000000 0.000000 -1.000000
vn -1.000000 0.000000 0.000000
vn 1.000000 0.000000 0.000000
vn -0.000000 0.206010 0.978550
vn 0.000000 0.104685 -0.994505
vn -0.991454 0.130455 0.000000
vn 0.991454 0.130455 0.000000
g LOD1
f 1/1/1 2/2/1 3/3/1 4/4/1
f 5/5/2 6/6/2 7/7/2 8/8/2
f 6/9/3 5/10/3 2/11/3 1/12/3
f 7/13/4 4/14/4 3/15/4 8/16/4
f 5/17/5 8/18/5 3/19/5 2/20/5
f 6/21/6 1/22/6 4/23/6 7/24/6
f 9/25/1 10/26/1 11/27/1 12/28/1
f 13/29/2 14/30/2 15/31/2 16/32/2
f 14/33/7 13/34/7 10/35/7 9/36/7
f 15/37/8 12/38/8 11/39/8 16/40/8
f 13/41/9 16/42/9 11/43/9 10/44/9
f 14/45/10 9/46/10 12/47/10 15/48/10
f 17/49/1 18/50/1 19/51/1 20/52/1
f 21/53/2 22/54/2 23/55/2 24/56/2
f 22/57/11 21/58/11 18/59/11 17/60/11
f 23/61/12 20/62/12 19/63/12 24/64/12
f 21/65/13 24/66/13 19/67/13 18/68/13
f 22/69/14 17/70/14 20/71/14 23/72/14
f 25/73/1 26/74/1 27/75/1 28/76/1
f 29/77/2 30/78/2 31/79/2 32/80/2
f 30/81/15 29/82/15 26/83/15 25/84/15
f 31/85/16 28/86/16 27/87/16 32/88/16
f 29/89/17 32/90/17 27/91/17 26/92/17
f 30/93/18 25/94/18 28/95/18 31/96/18
f 33/97/1 34/98/1 35/99/1 36/100/1
f 37/101/2 38/102/2 39/103/2 40/104/2
f 38/105/19 37/106/19 34/107/19 33/108/19
f 39/109/20 36/110/20 35/111/20 40/112/20
f 37/113/21 40/114/21 35/115/21 34/116/21
f 38/117/22 33/118/22 36/119/22 39/120/22
f 41/121/1 42/122/1 43/123/1 44/124/1
f 45/125/2 46/126/2 47/127/2 48/128/2
f 46/129/23 45/130/23 42/131/23 41/132/23
f 47/133/24 44/134/24 43/135/24 48/136/24
f 45/137/25 48/138/25 43/139/25 42/140/25
f 46/141/26 41/142/26 44/143/26 47/144/26
f 49/145/1 50/146/1 51/147/1 52/148/1
f 53/149/2 54/150/2 55/151/2 56/152/2
f 54/153/27 53/154/27 50/155/27 49/156/27
f 55/157/28 52/158/28 51/159/28 56/160/28
f 53/161/29 56/162/29 51/163/29 50/164/29
f 54/165/30 49/166/30 52/167/30 55/168/30
f 57/169/1 58/170/1 59/171/1 60/172/1
f 61/173/2 62/174/2 63/175/2 64/176/2
f 62/177/31 61/178/31 58/179/31 57/180/31
f 63/181/32 60/182/32 59/183/32 64/184/32
f 61/185/33 64/186/33 59/187/33 58/188/33
f 62/189/34 57/190/34 60/191/34 63/192/34
f 65/193/1 66/194/1 67/195/1 68/196/1
f 69/197/2 70/198/2 71/199/2 72/200/2
f 70/201/35 69/202/35 66/203/35 65/204/35
f 71/205/36 68/206/36 67/207/36 72/208/36
f 69/209/37 72/210/37 67/211/37 66/212/37
f 70/213/38 65/214/38 68/215/38 71/216/38
f 73/217/1 74/218/1 75/219/1 76/220/1
f 77/221/2 78/222/2 79/223/2 80/224/2
f 78/225/35 77/226/35 74/227/35 73/228/35
f 79/229/36 76/230/36 75/231/36 80/232/36
f 77/233/37 80/234/37 75/235/37 74/236/37
f 78/237/38 73/238/38 76/239/38 79/240/38
f 81/241/1 82/242/1 83/243/1 84/244/1
f 85/245/2 86/246/2 87/247/2 88/248/2
f 86/249/35 85/250/35 82/251/35 81/252/35
f 87/253/36 84/254/36 83/255/36 88/256/36
f 85/257/37 88/258/37 83/259/37 82/260/37
f 86/261/38 81/262/38 84/263/38 87/264/38
f 89/265/1 90/266/1 91/267/1 92/268/1
f 93/269/2 94/270/2 95/271/2 96/272/2
f 94/273/39 93/274/39 90/275/39 89/276/39
f 95/277/40 92/278/40 91/279/40 96/280/40
f 93/281/41 96/282/41 91/283/41 90/284/41
f 94/285/42 89/286/42 92/287/42 95/288/42
