# STW_SMG_01 - original fictional STW first-person weapon presentation asset
# Generated deterministically by tools/assets/create_stw_smg_01.py
# Axis convention: +X right, +Y aim/forward, +Z up (engine-local visual proportions)
# No mtllib / usemtl is emitted: the runtime binds one Atom StandardPBR material
# through the mesh feature processor's default custom material slot.
o STW_SMG_01
v -0.034000 0.090000 -0.050000
v 0.034000 0.090000 -0.050000
v 0.034000 0.090000 0.050000
v -0.034000 0.090000 0.050000
v 0.036000 -0.170000 -0.052000
v -0.036000 -0.170000 -0.052000
v -0.036000 -0.170000 0.052000
v 0.036000 -0.170000 0.052000
v -0.020000 0.120000 0.047000
v 0.020000 0.120000 0.047000
v 0.020000 0.120000 0.065000
v -0.020000 0.120000 0.065000
v 0.022000 -0.150000 0.048000
v -0.022000 -0.150000 0.048000
v -0.022000 -0.150000 0.068000
v 0.022000 -0.150000 0.068000
v -0.022000 0.010000 0.065000
v 0.022000 0.010000 0.065000
v 0.022000 0.010000 0.107000
v -0.022000 0.010000 0.107000
v 0.026000 -0.090000 0.064000
v -0.026000 -0.090000 0.064000
v -0.026000 -0.090000 0.116000
v 0.026000 -0.090000 0.116000
v -0.018000 0.046000 0.063000
v 0.018000 0.046000 0.063000
v 0.018000 0.046000 0.095000
v -0.018000 0.046000 0.095000
v 0.021000 0.010000 0.066000
v -0.021000 0.010000 0.066000
v -0.021000 0.010000 0.106000
v 0.021000 0.010000 0.106000
v -0.021000 0.268000 -0.018000
v 0.021000 0.268000 -0.018000
v 0.021000 0.268000 0.030000
v -0.021000 0.268000 0.030000
v 0.031000 0.090000 -0.032000
v -0.031000 0.090000 -0.032000
v -0.031000 0.090000 0.040000
v 0.031000 0.090000 0.040000
v -0.029000 0.140000 0.027000
v 0.029000 0.140000 0.027000
v 0.029000 0.140000 0.041000
v -0.029000 0.140000 0.041000
v 0.030000 0.120000 0.029000
v -0.030000 0.120000 0.029000
v -0.030000 0.120000 0.043000
v 0.030000 0.120000 0.043000
v -0.027000 0.186000 0.027000
v 0.027000 0.186000 0.027000
v 0.027000 0.186000 0.041000
v -0.027000 0.186000 0.041000
v 0.028000 0.166000 0.029000
v -0.028000 0.166000 0.029000
v -0.028000 0.166000 0.043000
v 0.028000 0.166000 0.043000
v -0.025000 0.232000 0.027000
v 0.025000 0.232000 0.027000
v 0.025000 0.232000 0.041000
v -0.025000 0.232000 0.041000
v 0.026000 0.212000 0.029000
v -0.026000 0.212000 0.029000
v -0.026000 0.212000 0.043000
v 0.026000 0.212000 0.043000
v -0.019000 0.318000 -0.015000
v 0.019000 0.318000 -0.015000
v 0.019000 0.318000 0.027000
v -0.019000 0.318000 0.027000
v 0.023000 0.268000 -0.020000
v -0.023000 0.268000 -0.020000
v -0.023000 0.268000 0.032000
v 0.023000 0.268000 0.032000
v -0.024000 0.150000 -0.074000
v 0.024000 0.150000 -0.074000
v 0.024000 0.150000 -0.042000
v -0.024000 0.150000 -0.042000
v 0.028000 0.030000 -0.088000
v -0.028000 0.030000 -0.088000
v -0.028000 0.030000 -0.044000
v 0.028000 0.030000 -0.044000
v -0.024000 0.020000 -0.158000
v 0.024000 0.020000 -0.158000
v 0.024000 0.020000 -0.042000
v -0.024000 0.020000 -0.042000
v 0.026000 -0.070000 -0.172000
v -0.026000 -0.070000 -0.172000
v -0.026000 -0.070000 -0.048000
v 0.026000 -0.070000 -0.048000
v -0.022000 -0.086000 -0.148000
v 0.022000 -0.086000 -0.148000
v 0.022000 -0.086000 -0.036000
v -0.022000 -0.086000 -0.036000
v 0.024000 -0.168000 -0.168000
v -0.024000 -0.168000 -0.168000
v -0.024000 -0.168000 -0.048000
v 0.024000 -0.168000 -0.048000
v -0.020000 -0.074000 -0.104000
v 0.020000 -0.074000 -0.104000
v 0.020000 -0.074000 -0.052000
v -0.020000 -0.074000 -0.052000
v 0.020000 -0.086000 -0.104000
v -0.020000 -0.086000 -0.104000
v -0.020000 -0.086000 -0.052000
v 0.020000 -0.086000 -0.052000
v -0.020000 -0.022000 -0.106000
v 0.020000 -0.022000 -0.106000
v 0.020000 -0.022000 -0.094000
v -0.020000 -0.022000 -0.094000
v 0.020000 -0.074000 -0.106000
v -0.020000 -0.074000 -0.106000
v -0.020000 -0.074000 -0.094000
v 0.020000 -0.074000 -0.094000
v -0.020000 -0.018000 -0.096000
v 0.020000 -0.018000 -0.096000
v 0.020000 -0.018000 -0.052000
v -0.020000 -0.018000 -0.052000
v 0.020000 -0.030000 -0.096000
v -0.020000 -0.030000 -0.096000
v -0.020000 -0.030000 -0.052000
v 0.020000 -0.030000 -0.052000
v -0.030000 -0.170000 -0.040000
v 0.030000 -0.170000 -0.040000
v 0.030000 -0.170000 0.052000
v -0.030000 -0.170000 0.052000
v 0.020000 -0.246000 -0.024000
v -0.020000 -0.246000 -0.024000
v -0.020000 -0.246000 0.044000
v 0.020000 -0.246000 0.044000
v 0.032000 -0.010000 -0.022000
v 0.044000 -0.010000 -0.022000
v 0.044000 -0.010000 0.030000
v 0.032000 -0.010000 0.030000
v 0.044000 -0.140000 -0.024000
v 0.032000 -0.140000 -0.024000
v 0.032000 -0.140000 0.036000
v 0.044000 -0.140000 0.036000
v -0.043000 0.006000 0.006000
v -0.033000 0.006000 0.006000
v -0.033000 0.006000 0.034000
v -0.043000 0.006000 0.034000
v -0.033000 -0.056000 0.006000
v -0.043000 -0.056000 0.006000
v -0.043000 -0.056000 0.038000
v -0.033000 -0.056000 0.038000
vt -0.034000 -0.050000
vt 0.034000 -0.050000
vt 0.034000 0.050000
vt -0.034000 0.050000
vt 0.036000 -0.052000
vt -0.036000 -0.052000
vt -0.036000 0.052000
vt 0.036000 0.052000
vt -0.036000 -0.170000
vt 0.036000 -0.170000
vt 0.034000 0.090000
vt -0.034000 0.090000
vt -0.036000 -0.170000
vt -0.034000 0.090000
vt 0.034000 0.090000
vt 0.036000 -0.170000
vt -0.170000 -0.052000
vt -0.170000 0.052000
vt 0.090000 0.050000
vt 0.090000 -0.050000
vt -0.170000 -0.052000
vt 0.090000 -0.050000
vt 0.090000 0.050000
vt -0.170000 0.052000
vt -0.020000 0.047000
vt 0.020000 0.047000
vt 0.020000 0.065000
vt -0.020000 0.065000
vt 0.022000 0.048000
vt -0.022000 0.048000
vt -0.022000 0.068000
vt 0.022000 0.068000
vt -0.022000 -0.150000
vt 0.022000 -0.150000
vt 0.020000 0.120000
vt -0.020000 0.120000
vt -0.022000 -0.150000
vt -0.020000 0.120000
vt 0.020000 0.120000
vt 0.022000 -0.150000
vt -0.150000 0.048000
vt -0.150000 0.068000
vt 0.120000 0.065000
vt 0.120000 0.047000
vt -0.150000 0.048000
vt 0.120000 0.047000
vt 0.120000 0.065000
vt -0.150000 0.068000
vt -0.022000 0.065000
vt 0.022000 0.065000
vt 0.022000 0.107000
vt -0.022000 0.107000
vt 0.026000 0.064000
vt -0.026000 0.064000
vt -0.026000 0.116000
vt 0.026000 0.116000
vt -0.026000 -0.090000
vt 0.026000 -0.090000
vt 0.022000 0.010000
vt -0.022000 0.010000
vt -0.026000 -0.090000
vt -0.022000 0.010000
vt 0.022000 0.010000
vt 0.026000 -0.090000
vt -0.090000 0.064000
vt -0.090000 0.116000
vt 0.010000 0.107000
vt 0.010000 0.065000
vt -0.090000 0.064000
vt 0.010000 0.065000
vt 0.010000 0.107000
vt -0.090000 0.116000
vt -0.018000 0.063000
vt 0.018000 0.063000
vt 0.018000 0.095000
vt -0.018000 0.095000
vt 0.021000 0.066000
vt -0.021000 0.066000
vt -0.021000 0.106000
vt 0.021000 0.106000
vt -0.021000 0.010000
vt 0.021000 0.010000
vt 0.018000 0.046000
vt -0.018000 0.046000
vt -0.021000 0.010000
vt -0.018000 0.046000
vt 0.018000 0.046000
vt 0.021000 0.010000
vt 0.010000 0.066000
vt 0.010000 0.106000
vt 0.046000 0.095000
vt 0.046000 0.063000
vt 0.010000 0.066000
vt 0.046000 0.063000
vt 0.046000 0.095000
vt 0.010000 0.106000
vt -0.021000 -0.018000
vt 0.021000 -0.018000
vt 0.021000 0.030000
vt -0.021000 0.030000
vt 0.031000 -0.032000
vt -0.031000 -0.032000
vt -0.031000 0.040000
vt 0.031000 0.040000
vt -0.031000 0.090000
vt 0.031000 0.090000
vt 0.021000 0.268000
vt -0.021000 0.268000
vt -0.031000 0.090000
vt -0.021000 0.268000
vt 0.021000 0.268000
vt 0.031000 0.090000
vt 0.090000 -0.032000
vt 0.090000 0.040000
vt 0.268000 0.030000
vt 0.268000 -0.018000
vt 0.090000 -0.032000
vt 0.268000 -0.018000
vt 0.268000 0.030000
vt 0.090000 0.040000
vt -0.029000 0.027000
vt 0.029000 0.027000
vt 0.029000 0.041000
vt -0.029000 0.041000
vt 0.030000 0.029000
vt -0.030000 0.029000
vt -0.030000 0.043000
vt 0.030000 0.043000
vt -0.030000 0.120000
vt 0.030000 0.120000
vt 0.029000 0.140000
vt -0.029000 0.140000
vt -0.030000 0.120000
vt -0.029000 0.140000
vt 0.029000 0.140000
vt 0.030000 0.120000
vt 0.120000 0.029000
vt 0.120000 0.043000
vt 0.140000 0.041000
vt 0.140000 0.027000
vt 0.120000 0.029000
vt 0.140000 0.027000
vt 0.140000 0.041000
vt 0.120000 0.043000
vt -0.027000 0.027000
vt 0.027000 0.027000
vt 0.027000 0.041000
vt -0.027000 0.041000
vt 0.028000 0.029000
vt -0.028000 0.029000
vt -0.028000 0.043000
vt 0.028000 0.043000
vt -0.028000 0.166000
vt 0.028000 0.166000
vt 0.027000 0.186000
vt -0.027000 0.186000
vt -0.028000 0.166000
vt -0.027000 0.186000
vt 0.027000 0.186000
vt 0.028000 0.166000
vt 0.166000 0.029000
vt 0.166000 0.043000
vt 0.186000 0.041000
vt 0.186000 0.027000
vt 0.166000 0.029000
vt 0.186000 0.027000
vt 0.186000 0.041000
vt 0.166000 0.043000
vt -0.025000 0.027000
vt 0.025000 0.027000
vt 0.025000 0.041000
vt -0.025000 0.041000
vt 0.026000 0.029000
vt -0.026000 0.029000
vt -0.026000 0.043000
vt 0.026000 0.043000
vt -0.026000 0.212000
vt 0.026000 0.212000
vt 0.025000 0.232000
vt -0.025000 0.232000
vt -0.026000 0.212000
vt -0.025000 0.232000
vt 0.025000 0.232000
vt 0.026000 0.212000
vt 0.212000 0.029000
vt 0.212000 0.043000
vt 0.232000 0.041000
vt 0.232000 0.027000
vt 0.212000 0.029000
vt 0.232000 0.027000
vt 0.232000 0.041000
vt 0.212000 0.043000
vt -0.019000 -0.015000
vt 0.019000 -0.015000
vt 0.019000 0.027000
vt -0.019000 0.027000
vt 0.023000 -0.020000
vt -0.023000 -0.020000
vt -0.023000 0.032000
vt 0.023000 0.032000
vt -0.023000 0.268000
vt 0.023000 0.268000
vt 0.019000 0.318000
vt -0.019000 0.318000
vt -0.023000 0.268000
vt -0.019000 0.318000
vt 0.019000 0.318000
vt 0.023000 0.268000
vt 0.268000 -0.020000
vt 0.268000 0.032000
vt 0.318000 0.027000
vt 0.318000 -0.015000
vt 0.268000 -0.020000
vt 0.318000 -0.015000
vt 0.318000 0.027000
vt 0.268000 0.032000
vt -0.024000 -0.074000
vt 0.024000 -0.074000
vt 0.024000 -0.042000
vt -0.024000 -0.042000
vt 0.028000 -0.088000
vt -0.028000 -0.088000
vt -0.028000 -0.044000
vt 0.028000 -0.044000
vt -0.028000 0.030000
vt 0.028000 0.030000
vt 0.024000 0.150000
vt -0.024000 0.150000
vt -0.028000 0.030000
vt -0.024000 0.150000
vt 0.024000 0.150000
vt 0.028000 0.030000
vt 0.030000 -0.088000
vt 0.030000 -0.044000
vt 0.150000 -0.042000
vt 0.150000 -0.074000
vt 0.030000 -0.088000
vt 0.150000 -0.074000
vt 0.150000 -0.042000
vt 0.030000 -0.044000
vt -0.024000 -0.158000
vt 0.024000 -0.158000
vt 0.024000 -0.042000
vt -0.024000 -0.042000
vt 0.026000 -0.172000
vt -0.026000 -0.172000
vt -0.026000 -0.048000
vt 0.026000 -0.048000
vt -0.026000 -0.070000
vt 0.026000 -0.070000
vt 0.024000 0.020000
vt -0.024000 0.020000
vt -0.026000 -0.070000
vt -0.024000 0.020000
vt 0.024000 0.020000
vt 0.026000 -0.070000
vt -0.070000 -0.172000
vt -0.070000 -0.048000
vt 0.020000 -0.042000
vt 0.020000 -0.158000
vt -0.070000 -0.172000
vt 0.020000 -0.158000
vt 0.020000 -0.042000
vt -0.070000 -0.048000
vt -0.022000 -0.148000
vt 0.022000 -0.148000
vt 0.022000 -0.036000
vt -0.022000 -0.036000
vt 0.024000 -0.168000
vt -0.024000 -0.168000
vt -0.024000 -0.048000
vt 0.024000 -0.048000
vt -0.024000 -0.168000
vt 0.024000 -0.168000
vt 0.022000 -0.086000
vt -0.022000 -0.086000
vt -0.024000 -0.168000
vt -0.022000 -0.086000
vt 0.022000 -0.086000
vt 0.024000 -0.168000
vt -0.168000 -0.168000
vt -0.168000 -0.048000
vt -0.086000 -0.036000
vt -0.086000 -0.148000
vt -0.168000 -0.168000
vt -0.086000 -0.148000
vt -0.086000 -0.036000
vt -0.168000 -0.048000
vt -0.020000 -0.104000
vt 0.020000 -0.104000
vt 0.020000 -0.052000
vt -0.020000 -0.052000
vt 0.020000 -0.104000
vt -0.020000 -0.104000
vt -0.020000 -0.052000
vt 0.020000 -0.052000
vt -0.020000 -0.086000
vt 0.020000 -0.086000
vt 0.020000 -0.074000
vt -0.020000 -0.074000
vt -0.020000 -0.086000
vt -0.020000 -0.074000
vt 0.020000 -0.074000
vt 0.020000 -0.086000
vt -0.086000 -0.104000
vt -0.086000 -0.052000
vt -0.074000 -0.052000
vt -0.074000 -0.104000
vt -0.086000 -0.104000
vt -0.074000 -0.104000
vt -0.074000 -0.052000
vt -0.086000 -0.052000
vt -0.020000 -0.106000
vt 0.020000 -0.106000
vt 0.020000 -0.094000
vt -0.020000 -0.094000
vt 0.020000 -0.106000
vt -0.020000 -0.106000
vt -0.020000 -0.094000
vt 0.020000 -0.094000
vt -0.020000 -0.074000
vt 0.020000 -0.074000
vt 0.020000 -0.022000
vt -0.020000 -0.022000
vt -0.020000 -0.074000
vt -0.020000 -0.022000
vt 0.020000 -0.022000
vt 0.020000 -0.074000
vt -0.074000 -0.106000
vt -0.074000 -0.094000
vt -0.022000 -0.094000
vt -0.022000 -0.106000
vt -0.074000 -0.106000
vt -0.022000 -0.106000
vt -0.022000 -0.094000
vt -0.074000 -0.094000
vt -0.020000 -0.096000
vt 0.020000 -0.096000
vt 0.020000 -0.052000
vt -0.020000 -0.052000
vt 0.020000 -0.096000
vt -0.020000 -0.096000
vt -0.020000 -0.052000
vt 0.020000 -0.052000
vt -0.020000 -0.030000
vt 0.020000 -0.030000
vt 0.020000 -0.018000
vt -0.020000 -0.018000
vt -0.020000 -0.030000
vt -0.020000 -0.018000
vt 0.020000 -0.018000
vt 0.020000 -0.030000
vt -0.030000 -0.096000
vt -0.030000 -0.052000
vt -0.018000 -0.052000
vt -0.018000 -0.096000
vt -0.030000 -0.096000
vt -0.018000 -0.096000
vt -0.018000 -0.052000
vt -0.030000 -0.052000
vt -0.030000 -0.040000
vt 0.030000 -0.040000
vt 0.030000 0.052000
vt -0.030000 0.052000
vt 0.020000 -0.024000
vt -0.020000 -0.024000
vt -0.020000 0.044000
vt 0.020000 0.044000
vt -0.020000 -0.246000
vt 0.020000 -0.246000
vt 0.030000 -0.170000
vt -0.030000 -0.170000
vt -0.020000 -0.246000
vt -0.030000 -0.170000
vt 0.030000 -0.170000
vt 0.020000 -0.246000
vt -0.246000 -0.024000
vt -0.246000 0.044000
vt -0.170000 0.052000
vt -0.170000 -0.040000
vt -0.246000 -0.024000
vt -0.170000 -0.040000
vt -0.170000 0.052000
vt -0.246000 0.044000
vt 0.032000 -0.022000
vt 0.044000 -0.022000
vt 0.044000 0.030000
vt 0.032000 0.030000
vt 0.044000 -0.024000
vt 0.032000 -0.024000
vt 0.032000 0.036000
vt 0.044000 0.036000
vt 0.032000 -0.140000
vt 0.044000 -0.140000
vt 0.044000 -0.010000
vt 0.032000 -0.010000
vt 0.032000 -0.140000
vt 0.032000 -0.010000
vt 0.044000 -0.010000
vt 0.044000 -0.140000
vt -0.140000 -0.024000
vt -0.140000 0.036000
vt -0.010000 0.030000
vt -0.010000 -0.022000
vt -0.140000 -0.024000
vt -0.010000 -0.022000
vt -0.010000 0.030000
vt -0.140000 0.036000
vt -0.043000 0.006000
vt -0.033000 0.006000
vt -0.033000 0.034000
vt -0.043000 0.034000
vt -0.033000 0.006000
vt -0.043000 0.006000
vt -0.043000 0.038000
vt -0.033000 0.038000
vt -0.043000 -0.056000
vt -0.033000 -0.056000
vt -0.033000 0.006000
vt -0.043000 0.006000
vt -0.043000 -0.056000
vt -0.043000 0.006000
vt -0.033000 0.006000
vt -0.033000 -0.056000
vt -0.056000 0.006000
vt -0.056000 0.038000
vt 0.006000 0.034000
vt 0.006000 0.006000
vt -0.056000 0.006000
vt 0.006000 0.006000
vt 0.006000 0.034000
vt -0.056000 0.038000
vn 0.000000 -1.000000 0.000000
vn 0.000000 1.000000 0.000000
vn 0.000000 -0.007692 0.999970
vn 0.000000 -0.007692 -0.999970
vn -0.999970 -0.007692 0.000000
vn 0.999970 -0.007692 0.000000
vn -0.000000 0.003704 0.999993
vn 0.000000 -0.011110 -0.999938
vn -0.999973 -0.007407 0.000000
vn 0.999973 -0.007407 0.000000
vn 0.000000 -0.010000 0.999950
vn 0.000000 -0.089638 -0.995974
vn -0.999201 -0.039968 0.000000
vn 0.999201 -0.039968 0.000000
vn -0.000000 0.083045 0.996546
vn 0.000000 -0.292219 -0.956352
vn -0.996546 -0.083045 0.000000
vn 0.996546 -0.083045 0.000000
vn 0.000000 -0.078410 0.996921
vn 0.000000 -0.056091 -0.998426
vn -0.998426 -0.056091 0.000000
vn 0.998426 -0.056091 0.000000
vn -0.000000 0.099504 0.995037
vn 0.000000 -0.099504 -0.995037
vn -0.998752 -0.049938 0.000000
vn 0.998752 -0.049938 0.000000
vn 0.000000 -0.099504 0.995037
vn -0.996815 -0.079745 0.000000
vn 0.996815 -0.079745 0.000000
vn 0.000000 -0.115881 0.993263
vn 0.000000 0.016664 -0.999861
vn -0.999445 -0.033315 0.000000
vn 0.999445 -0.033315 0.000000
vn 0.000000 -0.153707 0.988116
vn 0.000000 0.066519 -0.997785
vn -0.999753 -0.022217 0.000000
vn 0.999753 -0.022217 0.000000
vn 0.000000 -0.236956 0.971520
vn 0.000000 0.144799 -0.989461
vn -0.999703 -0.024383 0.000000
vn 0.999703 -0.024383 0.000000
vn 0.000000 0.000000 1.000000
vn 0.000000 0.000000 -1.000000
vn -1.000000 0.000000 0.000000
vn 1.000000 0.000000 0.000000
vn -0.000000 0.206010 0.978550
vn 0.000000 0.104685 -0.994505
vn -0.991454 0.130455 0.000000
vn 0.991454 0.130455 0.000000
vn 0.000000 -0.015383 0.999882
vn 0.000000 -0.046105 -0.998937
vn 0.000000 -0.064382 -0.997925
g receiver_body
f 1/1/1 2/2/1 3/3/1 4/4/1
f 5/5/2 6/6/2 7/7/2 8/8/2
f 6/9/3 5/10/3 2/11/3 1/12/3
f 7/13/4 4/14/4 3/15/4 8/16/4
f 5/17/5 8/18/5 3/19/5 2/20/5
f 6/21/6 1/22/6 4/23/6 7/24/6
g upper_rail
f 9/25/1 10/26/1 11/27/1 12/28/1
f 13/29/2 14/30/2 15/31/2 16/32/2
f 14/33/7 13/34/7 10/35/7 9/36/7
f 15/37/8 12/38/8 11/39/8 16/40/8
f 13/41/9 16/42/9 11/43/9 10/44/9
f 14/45/10 9/46/10 12/47/10 15/48/10
g optic_housing
f 17/49/1 18/50/1 19/51/1 20/52/1
f 21/53/2 22/54/2 23/55/2 24/56/2
f 22/57/11 21/58/11 18/59/11 17/60/11
f 23/61/12 20/62/12 19/63/12 24/64/12
f 21/65/13 24/66/13 19/67/13 18/68/13
f 22/69/14 17/70/14 20/71/14 23/72/14
g optic_lens_hood
f 25/73/1 26/74/1 27/75/1 28/76/1
f 29/77/2 30/78/2 31/79/2 32/80/2
f 30/81/15 29/82/15 26/83/15 25/84/15
f 31/85/16 28/86/16 27/87/16 32/88/16
f 29/89/17 32/90/17 27/91/17 26/92/17
f 30/93/18 25/94/18 28/95/18 31/96/18
g forward_shroud
f 33/97/1 34/98/1 35/99/1 36/100/1
f 37/101/2 38/102/2 39/103/2 40/104/2
f 38/105/19 37/106/19 34/107/19 33/108/19
f 39/109/20 36/110/20 35/111/20 40/112/20
f 37/113/21 40/114/21 35/115/21 34/116/21
f 38/117/22 33/118/22 36/119/22 39/120/22
g shroud_vents
f 41/121/1 42/122/1 43/123/1 44/124/1
f 45/125/2 46/126/2 47/127/2 48/128/2
f 46/129/23 45/130/23 42/131/23 41/132/23
f 47/133/24 44/134/24 43/135/24 48/136/24
f 45/137/25 48/138/25 43/139/25 42/140/25
f 46/141/26 41/142/26 44/143/26 47/144/26
f 49/145/1 50/146/1 51/147/1 52/148/1
f 53/149/2 54/150/2 55/151/2 56/152/2
f 54/153/23 53/154/23 50/155/23 49/156/23
f 55/157/24 52/158/24 51/159/24 56/160/24
f 53/161/25 56/162/25 51/163/25 50/164/25
f 54/165/26 49/166/26 52/167/26 55/168/26
f 57/169/1 58/170/1 59/171/1 60/172/1
f 61/173/2 62/174/2 63/175/2 64/176/2
f 62/177/23 61/178/23 58/179/23 57/180/23
f 63/181/24 60/182/24 59/183/24 64/184/24
f 61/185/25 64/186/25 59/187/25 58/188/25
f 62/189/26 57/190/26 60/191/26 63/192/26
g muzzle_device
f 65/193/1 66/194/1 67/195/1 68/196/1
f 69/197/2 70/198/2 71/199/2 72/200/2
f 70/201/27 69/202/27 66/203/27 65/204/27
f 71/205/24 68/206/24 67/207/24 72/208/24
f 69/209/28 72/210/28 67/211/28 66/212/28
f 70/213/29 65/214/29 68/215/29 71/216/29
g cell_housing
f 73/217/1 74/218/1 75/219/1 76/220/1
f 77/221/2 78/222/2 79/223/2 80/224/2
f 78/225/30 77/226/30 74/227/30 73/228/30
f 79/229/31 76/230/31 75/231/31 80/232/31
f 77/233/32 80/234/32 75/235/32 74/236/32
f 78/237/33 73/238/33 76/239/33 79/240/33
g magazine_well
f 81/241/1 82/242/1 83/243/1 84/244/1
f 85/245/2 86/246/2 87/247/2 88/248/2
f 86/249/34 85/250/34 82/251/34 81/252/34
f 87/253/35 84/254/35 83/255/35 88/256/35
f 85/257/36 88/258/36 83/259/36 82/260/36
f 86/261/37 81/262/37 84/263/37 87/264/37
g grip
f 89/265/1 90/266/1 91/267/1 92/268/1
f 93/269/2 94/270/2 95/271/2 96/272/2
f 94/273/38 93/274/38 90/275/38 89/276/38
f 95/277/39 92/278/39 91/279/39 96/280/39
f 93/281/40 96/282/40 91/283/40 90/284/40
f 94/285/41 89/286/41 92/287/41 95/288/41
g trigger_guard
f 97/289/1 98/290/1 99/291/1 100/292/1
f 101/293/2 102/294/2 103/295/2 104/296/2
f 102/297/42 101/298/42 98/299/42 97/300/42
f 103/301/43 100/302/43 99/303/43 104/304/43
f 101/305/44 104/306/44 99/307/44 98/308/44
f 102/309/45 97/310/45 100/311/45 103/312/45
f 105/313/1 106/314/1 107/315/1 108/316/1
f 109/317/2 110/318/2 111/319/2 112/320/2
f 110/321/42 109/322/42 106/323/42 105/324/42
f 111/325/43 108/326/43 107/327/43 112/328/43
f 109/329/44 112/330/44 107/331/44 106/332/44
f 110/333/45 105/334/45 108/335/45 111/336/45
f 113/337/1 114/338/1 115/339/1 116/340/1
f 117/341/2 118/342/2 119/343/2 120/344/2
f 118/345/42 117/346/42 114/347/42 113/348/42
f 119/349/43 116/350/43 115/351/43 120/352/43
f 117/353/44 120/354/44 115/355/44 114/356/44
f 118/357/45 113/358/45 116/359/45 119/360/45
g rear_brace
f 121/361/1 122/362/1 123/363/1 124/364/1
f 125/365/2 126/366/2 127/367/2 128/368/2
f 126/369/46 125/370/46 122/371/46 121/372/46
f 127/373/47 124/374/47 123/375/47 128/376/47
f 125/377/48 128/378/48 123/379/48 122/380/48
f 126/381/49 121/382/49 124/383/49 127/384/49
g side_plate
f 129/385/1 130/386/1 131/387/1 132/388/1
f 133/389/2 134/390/2 135/391/2 136/392/2
f 134/393/50 133/394/50 130/395/50 129/396/50
f 135/397/51 132/398/51 131/399/51 136/400/51
f 133/401/44 136/402/44 131/403/44 130/404/44
f 134/405/45 129/406/45 132/407/45 135/408/45
g ejection_block
f 137/409/1 138/410/1 139/411/1 140/412/1
f 141/413/2 142/414/2 143/415/2 144/416/2
f 142/417/42 141/418/42 138/419/42 137/420/42
f 143/421/52 140/422/52 139/423/52 144/424/52
f 141/425/44 144/426/44 139/427/44 138/428/44
f 142/429/45 137/430/45 140/431/45 143/432/45
