# STW_SMG_01 - original fictional STW first-person weapon presentation asset
# Generated deterministically by tools/assets/create_stw_weapons.py
# Axis convention: +X right, +Y aim/forward, +Z up
# LOD node: LOD2
# parts: forward_shroud, grip, magazine_well, receiver_body
# No mtllib / usemtl is emitted: the runtime binds one Atom StandardPBR material.
o STW_SMG_01
v -0.034000 0.090000 -0.050000
v 0.034000 0.090000 -0.050000
v 0.034000 0.090000 0.050000
v -0.034000 0.090000 0.050000
v 0.036000 -0.170000 -0.052000
v -0.036000 -0.170000 -0.052000
v -0.036000 -0.170000 0.052000
v 0.036000 -0.170000 0.052000
v -0.021000 0.268000 -0.018000
v 0.021000 0.268000 -0.018000
v 0.021000 0.268000 0.030000
v -0.021000 0.268000 0.030000
v 0.031000 0.090000 -0.032000
v -0.031000 0.090000 -0.032000
v -0.031000 0.090000 0.040000
v 0.031000 0.090000 0.040000
v -0.024000 0.020000 -0.158000
v 0.024000 0.020000 -0.158000
v 0.024000 0.020000 -0.042000
v -0.024000 0.020000 -0.042000
v 0.026000 -0.070000 -0.172000
v -0.026000 -0.070000 -0.172000
v -0.026000 -0.070000 -0.048000
v 0.026000 -0.070000 -0.048000
v -0.022000 -0.086000 -0.148000
v 0.022000 -0.086000 -0.148000
v 0.022000 -0.086000 -0.036000
v -0.022000 -0.086000 -0.036000
v 0.024000 -0.168000 -0.168000
v -0.024000 -0.168000 -0.168000
v -0.024000 -0.168000 -0.048000
v 0.024000 -0.168000 -0.048000
vt -0.034000 -0.050000
vt 0.034000 -0.050000
vt 0.034000 0.050000
vt -0.034000 0.050000
vt 0.036000 -0.052000
vt -0.036000 -0.052000
vt -0.036000 0.052000
vt 0.036000 0.052000
vt -0.036000 -0.170000
vt 0.036000 -0.170000
vt 0.034000 0.090000
vt -0.034000 0.090000
vt -0.036000 -0.170000
vt -0.034000 0.090000
vt 0.034000 0.090000
vt 0.036000 -0.170000
vt -0.170000 -0.052000
vt -0.170000 0.052000
vt 0.090000 0.050000
vt 0.090000 -0.050000
vt -0.170000 -0.052000
vt 0.090000 -0.050000
vt 0.090000 0.050000
vt -0.170000 0.052000
vt -0.021000 -0.018000
vt 0.021000 -0.018000
vt 0.021000 0.030000
vt -0.021000 0.030000
vt 0.031000 -0.032000
vt -0.031000 -0.032000
vt -0.031000 0.040000
vt 0.031000 0.040000
vt -0.031000 0.090000
vt 0.031000 0.090000
vt 0.021000 0.268000
vt -0.021000 0.268000
vt -0.031000 0.090000
vt -0.021000 0.268000
vt 0.021000 0.268000
vt 0.031000 0.090000
vt 0.090000 -0.032000
vt 0.090000 0.040000
vt 0.268000 0.030000
vt 0.268000 -0.018000
vt 0.090000 -0.032000
vt 0.268000 -0.018000
vt 0.268000 0.030000
vt 0.090000 0.040000
vt -0.024000 -0.158000
vt 0.024000 -0.158000
vt 0.024000 -0.042000
vt -0.024000 -0.042000
vt 0.026000 -0.172000
vt -0.026000 -0.172000
vt -0.026000 -0.048000
vt 0.026000 -0.048000
vt -0.026000 -0.070000
vt 0.026000 -0.070000
vt 0.024000 0.020000
vt -0.024000 0.020000
vt -0.026000 -0.070000
vt -0.024000 0.020000
vt 0.024000 0.020000
vt 0.026000 -0.070000
vt -0.070000 -0.172000
vt -0.070000 -0.048000
vt 0.020000 -0.042000
vt 0.020000 -0.158000
vt -0.070000 -0.172000
vt 0.020000 -0.158000
vt 0.020000 -0.042000
vt -0.070000 -0.048000
vt -0.022000 -0.148000
vt 0.022000 -0.148000
vt 0.022000 -0.036000
vt -0.022000 -0.036000
vt 0.024000 -0.168000
vt -0.024000 -0.168000
vt -0.024000 -0.048000
vt 0.024000 -0.048000
vt -0.024000 -0.168000
vt 0.024000 -0.168000
vt 0.022000 -0.086000
vt -0.022000 -0.086000
vt -0.024000 -0.168000
vt -0.022000 -0.086000
vt 0.022000 -0.086000
vt 0.024000 -0.168000
vt -0.168000 -0.168000
vt -0.168000 -0.048000
vt -0.086000 -0.036000
vt -0.086000 -0.148000
vt -0.168000 -0.168000
vt -0.086000 -0.148000
vt -0.086000 -0.036000
vt -0.168000 -0.048000
vn 0.000000 -1.000000 0.000000
vn 0.000000 1.000000 0.000000
vn 0.000000 -0.007692 0.999970
vn 0.000000 -0.007692 -0.999970
vn -0.999970 -0.007692 0.000000
vn 0.999970 -0.007692 0.000000
vn 0.000000 -0.078410 0.996921
vn 0.000000 -0.056091 -0.998426
vn -0.998426 -0.056091 0.000000
vn 0.998426 -0.056091 0.000000
vn 0.000000 -0.153707 0.988116
vn 0.000000 0.066519 -0.997785
vn -0.999753 -0.022217 0.000000
vn 0.999753 -0.022217 0.000000
vn 0.000000 -0.236956 0.971520
vn 0.000000 0.144799 -0.989461
vn -0.999703 -0.024383 0.000000
vn 0.999703 -0.024383 0.000000
g LOD2
f 1/1/1 2/2/1 3/3/1 4/4/1
f 5/5/2 6/6/2 7/7/2 8/8/2
f 6/9/3 5/10/3 2/11/3 1/12/3
f 7/13/4 4/14/4 3/15/4 8/16/4
f 5/17/5 8/18/5 3/19/5 2/20/5
f 6/21/6 1/22/6 4/23/6 7/24/6
f 9/25/1 10/26/1 11/27/1 12/28/1
f 13/29/2 14/30/2 15/31/2 16/32/2
f 14/33/7 13/34/7 10/35/7 9/36/7
f 15/37/8 12/38/8 11/39/8 16/40/8
f 13/41/9 16/42/9 11/43/9 10/44/9
f 14/45/10 9/46/10 12/47/10 15/48/10
f 17/49/1 18/50/1 19/51/1 20/52/1
f 21/53/2 22/54/2 23/55/2 24/56/2
f 22/57/11 21/58/11 18/59/11 17/60/11
f 23/61/12 20/62/12 19/63/12 24/64/12
f 21/65/13 24/66/13 19/67/13 18/68/13
f 22/69/14 17/70/14 20/71/14 23/72/14
f 25/73/1 26/74/1 27/75/1 28/76/1
f 29/77/2 30/78/2 31/79/2 32/80/2
f 30/81/15 29/82/15 26/83/15 25/84/15
f 31/85/16 28/86/16 27/87/16 32/88/16
f 29/89/17 32/90/17 27/91/17 26/92/17
f 30/93/18 25/94/18 28/95/18 31/96/18
