# STW_ENEMY_01 - original fictional robotic alien combat unit
# Generated deterministically by tools/assets/create_stw_enemy_01.py
# Axis convention: +X right, +Y aim/forward, +Z up (engine-local visual proportions)
# No mtllib / usemtl is emitted: the runtime binds one Atom StandardPBR material
# through the mesh feature processor's default custom material slot.
o STW_ENEMY_01
v -0.420000 0.300000 0.780000
v 0.420000 0.300000 0.780000
v 0.420000 0.300000 1.720000
v -0.420000 0.300000 1.720000
v 0.480000 -0.300000 0.730000
v -0.480000 -0.300000 0.730000
v -0.480000 -0.300000 1.770000
v 0.480000 -0.300000 1.770000
v -0.240000 0.180000 1.720000
v 0.240000 0.180000 1.720000
v 0.240000 0.180000 2.120000
v -0.240000 0.180000 2.120000
v 0.280000 -0.180000 1.700000
v -0.280000 -0.180000 1.700000
v -0.280000 -0.180000 2.140000
v 0.280000 -0.180000 2.140000
v -0.050000 0.080000 2.070000
v 0.050000 0.080000 2.070000
v 0.050000 0.080000 2.470000
v -0.050000 0.080000 2.470000
v 0.080000 -0.080000 2.040000
v -0.080000 -0.080000 2.040000
v -0.080000 -0.080000 2.500000
v 0.080000 -0.080000 2.500000
v -0.760000 0.220000 1.340000
v -0.360000 0.220000 1.340000
v -0.360000 0.220000 1.700000
v -0.760000 0.220000 1.700000
v -0.320000 -0.200000 1.300000
v -0.800000 -0.200000 1.300000
v -0.800000 -0.200000 1.740000
v -0.320000 -0.200000 1.740000
v 0.360000 0.220000 1.340000
v 0.760000 0.220000 1.340000
v 0.760000 0.220000 1.700000
v 0.360000 0.220000 1.700000
v 0.800000 -0.200000 1.300000
v 0.320000 -0.200000 1.300000
v 0.320000 -0.200000 1.740000
v 0.800000 -0.200000 1.740000
v -0.760000 0.150000 0.710000
v -0.520000 0.150000 0.710000
v -0.520000 0.150000 1.390000
v -0.760000 0.150000 1.390000
v -0.500000 -0.130000 0.650000
v -0.780000 -0.130000 0.650000
v -0.780000 -0.130000 1.450000
v -0.500000 -0.130000 1.450000
v 0.520000 0.150000 0.710000
v 0.760000 0.150000 0.710000
v 0.760000 0.150000 1.390000
v 0.520000 0.150000 1.390000
v 0.780000 -0.130000 0.650000
v 0.500000 -0.130000 0.650000
v 0.500000 -0.130000 1.450000
v 0.780000 -0.130000 1.450000
v -0.430000 0.200000 0.030000
v -0.110000 0.200000 0.030000
v -0.110000 0.200000 0.890000
v -0.430000 0.200000 0.890000
v -0.070000 -0.180000 -0.040000
v -0.470000 -0.180000 -0.040000
v -0.470000 -0.180000 0.960000
v -0.070000 -0.180000 0.960000
v 0.110000 0.200000 0.030000
v 0.430000 0.200000 0.030000
v 0.430000 0.200000 0.890000
v 0.110000 0.200000 0.890000
v 0.470000 -0.180000 -0.040000
v 0.070000 -0.180000 -0.040000
v 0.070000 -0.180000 0.960000
v 0.470000 -0.180000 0.960000
v -0.460000 0.340000 -0.010000
v -0.080000 0.340000 -0.010000
v -0.080000 0.340000 0.210000
v -0.460000 0.340000 0.210000
v -0.050000 -0.320000 -0.030000
v -0.490000 -0.320000 -0.030000
v -0.490000 -0.320000 0.230000
v -0.050000 -0.320000 0.230000
v 0.080000 0.340000 -0.010000
v 0.460000 0.340000 -0.010000
v 0.460000 0.340000 0.210000
v 0.080000 0.340000 0.210000
v 0.490000 -0.320000 -0.030000
v 0.050000 -0.320000 -0.030000
v 0.050000 -0.320000 0.230000
v 0.490000 -0.320000 0.230000
v -0.130000 0.430000 1.180000
v 0.130000 0.430000 1.180000
v 0.130000 0.430000 1.500000
v -0.130000 0.430000 1.500000
v 0.200000 0.300000 1.120000
v -0.200000 0.300000 1.120000
v -0.200000 0.300000 1.560000
v 0.200000 0.300000 1.560000
vt -0.420000 0.780000
vt 0.420000 0.780000
vt 0.420000 1.720000
vt -0.420000 1.720000
vt 0.480000 0.730000
vt -0.480000 0.730000
vt -0.480000 1.770000
vt 0.480000 1.770000
vt -0.480000 -0.300000
vt 0.480000 -0.300000
vt 0.420000 0.300000
vt -0.420000 0.300000
vt -0.480000 -0.300000
vt -0.420000 0.300000
vt 0.420000 0.300000
vt 0.480000 -0.300000
vt -0.300000 0.730000
vt -0.300000 1.770000
vt 0.300000 1.720000
vt 0.300000 0.780000
vt -0.300000 0.730000
vt 0.300000 0.780000
vt 0.300000 1.720000
vt -0.300000 1.770000
vt -0.240000 1.720000
vt 0.240000 1.720000
vt 0.240000 2.120000
vt -0.240000 2.120000
vt 0.280000 1.700000
vt -0.280000 1.700000
vt -0.280000 2.140000
vt 0.280000 2.140000
vt -0.280000 -0.180000
vt 0.280000 -0.180000
vt 0.240000 0.180000
vt -0.240000 0.180000
vt -0.280000 -0.180000
vt -0.240000 0.180000
vt 0.240000 0.180000
vt 0.280000 -0.180000
vt -0.180000 1.700000
vt -0.180000 2.140000
vt 0.180000 2.120000
vt 0.180000 1.720000
vt -0.180000 1.700000
vt 0.180000 1.720000
vt 0.180000 2.120000
vt -0.180000 2.140000
vt -0.050000 2.070000
vt 0.050000 2.070000
vt 0.050000 2.470000
vt -0.050000 2.470000
vt 0.080000 2.040000
vt -0.080000 2.040000
vt -0.080000 2.500000
vt 0.080000 2.500000
vt -0.080000 -0.080000
vt 0.080000 -0.080000
vt 0.050000 0.080000
vt -0.050000 0.080000
vt -0.080000 -0.080000
vt -0.050000 0.080000
vt 0.050000 0.080000
vt 0.080000 -0.080000
vt -0.080000 2.040000
vt -0.080000 2.500000
vt 0.080000 2.470000
vt 0.080000 2.070000
vt -0.080000 2.040000
vt 0.080000 2.070000
vt 0.080000 2.470000
vt -0.080000 2.500000
vt -0.760000 1.340000
vt -0.360000 1.340000
vt -0.360000 1.700000
vt -0.760000 1.700000
vt -0.320000 1.300000
vt -0.800000 1.300000
vt -0.800000 1.740000
vt -0.320000 1.740000
vt -0.800000 -0.200000
vt -0.320000 -0.200000
vt -0.360000 0.220000
vt -0.760000 0.220000
vt -0.800000 -0.200000
vt -0.760000 0.220000
vt -0.360000 0.220000
vt -0.320000 -0.200000
vt -0.200000 1.300000
vt -0.200000 1.740000
vt 0.220000 1.700000
vt 0.220000 1.340000
vt -0.200000 1.300000
vt 0.220000 1.340000
vt 0.220000 1.700000
vt -0.200000 1.740000
vt 0.360000 1.340000
vt 0.760000 1.340000
vt 0.760000 1.700000
vt 0.360000 1.700000
vt 0.800000 1.300000
vt 0.320000 1.300000
vt 0.320000 1.740000
vt 0.800000 1.740000
vt 0.320000 -0.200000
vt 0.800000 -0.200000
vt 0.760000 0.220000
vt 0.360000 0.220000
vt 0.320000 -0.200000
vt 0.360000 0.220000
vt 0.760000 0.220000
vt 0.800000 -0.200000
vt -0.200000 1.300000
vt -0.200000 1.740000
vt 0.220000 1.700000
vt 0.220000 1.340000
vt -0.200000 1.300000
vt 0.220000 1.340000
vt 0.220000 1.700000
vt -0.200000 1.740000
vt -0.760000 0.710000
vt -0.520000 0.710000
vt -0.520000 1.390000
vt -0.760000 1.390000
vt -0.500000 0.650000
vt -0.780000 0.650000
vt -0.780000 1.450000
vt -0.500000 1.450000
vt -0.780000 -0.130000
vt -0.500000 -0.130000
vt -0.520000 0.150000
vt -0.760000 0.150000
vt -0.780000 -0.130000
vt -0.760000 0.150000
vt -0.520000 0.150000
vt -0.500000 -0.130000
vt -0.130000 0.650000
vt -0.130000 1.450000
vt 0.150000 1.390000
vt 0.150000 0.710000
vt -0.130000 0.650000
vt 0.150000 0.710000
vt 0.150000 1.390000
vt -0.130000 1.450000
vt 0.520000 0.710000
vt 0.760000 0.710000
vt 0.760000 1.390000
vt 0.520000 1.390000
vt 0.780000 0.650000
vt 0.500000 0.650000
vt 0.500000 1.450000
vt 0.780000 1.450000
vt 0.500000 -0.130000
vt 0.780000 -0.130000
vt 0.760000 0.150000
vt 0.520000 0.150000
vt 0.500000 -0.130000
vt 0.520000 0.150000
vt 0.760000 0.150000
vt 0.780000 -0.130000
vt -0.130000 0.650000
vt -0.130000 1.450000
vt 0.150000 1.390000
vt 0.150000 0.710000
vt -0.130000 0.650000
vt 0.150000 0.710000
vt 0.150000 1.390000
vt -0.130000 1.450000
vt -0.430000 0.030000
vt -0.110000 0.030000
vt -0.110000 0.890000
vt -0.430000 0.890000
vt -0.070000 -0.040000
vt -0.470000 -0.040000
vt -0.470000 0.960000
vt -0.070000 0.960000
vt -0.470000 -0.180000
vt -0.070000 -0.180000
vt -0.110000 0.200000
vt -0.430000 0.200000
vt -0.470000 -0.180000
vt -0.430000 0.200000
vt -0.110000 0.200000
vt -0.070000 -0.180000
vt -0.180000 -0.040000
vt -0.180000 0.960000
vt 0.200000 0.890000
vt 0.200000 0.030000
vt -0.180000 -0.040000
vt 0.200000 0.030000
vt 0.200000 0.890000
vt -0.180000 0.960000
vt 0.110000 0.030000
vt 0.430000 0.030000
vt 0.430000 0.890000
vt 0.110000 0.890000
vt 0.470000 -0.040000
vt 0.070000 -0.040000
vt 0.070000 0.960000
vt 0.470000 0.960000
vt 0.070000 -0.180000
vt 0.470000 -0.180000
vt 0.430000 0.200000
vt 0.110000 0.200000
vt 0.070000 -0.180000
vt 0.110000 0.200000
vt 0.430000 0.200000
vt 0.470000 -0.180000
vt -0.180000 -0.040000
vt -0.180000 0.960000
vt 0.200000 0.890000
vt 0.200000 0.030000
vt -0.180000 -0.040000
vt 0.200000 0.030000
vt 0.200000 0.890000
vt -0.180000 0.960000
vt -0.460000 -0.010000
vt -0.080000 -0.010000
vt -0.080000 0.210000
vt -0.460000 0.210000
vt -0.050000 -0.030000
vt -0.490000 -0.030000
vt -0.490000 0.230000
vt -0.050000 0.230000
vt -0.490000 -0.320000
vt -0.050000 -0.320000
vt -0.080000 0.340000
vt -0.460000 0.340000
vt -0.490000 -0.320000
vt -0.460000 0.340000
vt -0.080000 0.340000
vt -0.050000 -0.320000
vt -0.320000 -0.030000
vt -0.320000 0.230000
vt 0.340000 0.210000
vt 0.340000 -0.010000
vt -0.320000 -0.030000
vt 0.340000 -0.010000
vt 0.340000 0.210000
vt -0.320000 0.230000
vt 0.080000 -0.010000
vt 0.460000 -0.010000
vt 0.460000 0.210000
vt 0.080000 0.210000
vt 0.490000 -0.030000
vt 0.050000 -0.030000
vt 0.050000 0.230000
vt 0.490000 0.230000
vt 0.050000 -0.320000
vt 0.490000 -0.320000
vt 0.460000 0.340000
vt 0.080000 0.340000
vt 0.050000 -0.320000
vt 0.080000 0.340000
vt 0.460000 0.340000
vt 0.490000 -0.320000
vt -0.320000 -0.030000
vt -0.320000 0.230000
vt 0.340000 0.210000
vt 0.340000 -0.010000
vt -0.320000 -0.030000
vt 0.340000 -0.010000
vt 0.340000 0.210000
vt -0.320000 0.230000
vt -0.130000 1.180000
vt 0.130000 1.180000
vt 0.130000 1.500000
vt -0.130000 1.500000
vt 0.200000 1.120000
vt -0.200000 1.120000
vt -0.200000 1.560000
vt 0.200000 1.560000
vt -0.200000 0.300000
vt 0.200000 0.300000
vt 0.130000 0.430000
vt -0.130000 0.430000
vt -0.200000 0.300000
vt -0.130000 0.430000
vt 0.130000 0.430000
vt 0.200000 0.300000
vt 0.300000 1.120000
vt 0.300000 1.560000
vt 0.430000 1.500000
vt 0.430000 1.180000
vt 0.300000 1.120000
vt 0.430000 1.180000
vt 0.430000 1.500000
vt 0.300000 1.560000
vn 0.000000 -1.000000 0.000000
vn 0.000000 1.000000 0.000000
vn 0.000000 -0.083045 0.996546
vn 0.000000 -0.083045 -0.996546
vn -0.995037 -0.099504 0.000000
vn 0.995037 -0.099504 0.000000
vn 0.000000 -0.055470 0.998460
vn 0.000000 -0.055470 -0.998460
vn -0.993884 -0.110432 0.000000
vn 0.993884 -0.110432 0.000000
vn 0.000000 -0.184289 0.982872
vn 0.000000 -0.184289 -0.982872
vn -0.982872 -0.184289 0.000000
vn 0.982872 -0.184289 0.000000
vn 0.000000 -0.094809 0.995495
vn 0.000000 -0.094809 -0.995495
vn -0.995495 -0.094809 0.000000
vn 0.995495 -0.094809 0.000000
vn 0.000000 -0.209529 0.977802
vn 0.000000 -0.209529 -0.977802
vn -0.997459 -0.071247 0.000000
vn 0.997459 -0.071247 0.000000
vn 0.000000 -0.181162 0.983453
vn 0.000000 -0.181162 -0.983453
vn -0.994505 -0.104685 0.000000
vn 0.994505 -0.104685 0.000000
vn 0.000000 -0.030289 0.999541
vn 0.000000 -0.030289 -0.999541
vn -0.998969 -0.045408 0.000000
vn 0.998969 -0.045408 0.000000
vn 0.000000 -0.419058 0.907959
vn 0.000000 -0.419058 -0.907959
vn -0.880471 -0.474100 0.000000
vn 0.880471 -0.474100 0.000000
g armored_core
f 1/1/1 2/2/1 3/3/1 4/4/1
f 5/5/2 6/6/2 7/7/2 8/8/2
f 6/9/3 5/10/3 2/11/3 1/12/3
f 7/13/4 4/14/4 3/15/4 8/16/4
f 5/17/5 8/18/5 3/19/5 2/20/5
f 6/21/6 1/22/6 4/23/6 7/24/6
g sensor_head
f 9/25/1 10/26/1 11/27/1 12/28/1
f 13/29/2 14/30/2 15/31/2 16/32/2
f 14/33/7 13/34/7 10/35/7 9/36/7
f 15/37/8 12/38/8 11/39/8 16/40/8
f 13/41/9 16/42/9 11/43/9 10/44/9
f 14/45/10 9/46/10 12/47/10 15/48/10
g crown_fin
f 17/49/1 18/50/1 19/51/1 20/52/1
f 21/53/2 22/54/2 23/55/2 24/56/2
f 22/57/11 21/58/11 18/59/11 17/60/11
f 23/61/12 20/62/12 19/63/12 24/64/12
f 21/65/13 24/66/13 19/67/13 18/68/13
f 22/69/14 17/70/14 20/71/14 23/72/14
g left_shoulder
f 25/73/1 26/74/1 27/75/1 28/76/1
f 29/77/2 30/78/2 31/79/2 32/80/2
f 30/81/15 29/82/15 26/83/15 25/84/15
f 31/85/16 28/86/16 27/87/16 32/88/16
f 29/89/17 32/90/17 27/91/17 26/92/17
f 30/93/18 25/94/18 28/95/18 31/96/18
g right_shoulder
f 33/97/1 34/98/1 35/99/1 36/100/1
f 37/101/2 38/102/2 39/103/2 40/104/2
f 38/105/15 37/106/15 34/107/15 33/108/15
f 39/109/16 36/110/16 35/111/16 40/112/16
f 37/113/17 40/114/17 35/115/17 34/116/17
f 38/117/18 33/118/18 36/119/18 39/120/18
g left_arm
f 41/121/1 42/122/1 43/123/1 44/124/1
f 45/125/2 46/126/2 47/127/2 48/128/2
f 46/129/19 45/130/19 42/131/19 41/132/19
f 47/133/20 44/134/20 43/135/20 48/136/20
f 45/137/21 48/138/21 43/139/21 42/140/21
f 46/141/22 41/142/22 44/143/22 47/144/22
g right_arm
f 49/145/1 50/146/1 51/147/1 52/148/1
f 53/149/2 54/150/2 55/151/2 56/152/2
f 54/153/19 53/154/19 50/155/19 49/156/19
f 55/157/20 52/158/20 51/159/20 56/160/20
f 53/161/21 56/162/21 51/163/21 50/164/21
f 54/165/22 49/166/22 52/167/22 55/168/22
g left_leg
f 57/169/1 58/170/1 59/171/1 60/172/1
f 61/173/2 62/174/2 63/175/2 64/176/2
f 62/177/23 61/178/23 58/179/23 57/180/23
f 63/181/24 60/182/24 59/183/24 64/184/24
f 61/185/25 64/186/25 59/187/25 58/188/25
f 62/189/26 57/190/26 60/191/26 63/192/26
g right_leg
f 65/193/1 66/194/1 67/195/1 68/196/1
f 69/197/2 70/198/2 71/199/2 72/200/2
f 70/201/23 69/202/23 66/203/23 65/204/23
f 71/205/24 68/206/24 67/207/24 72/208/24
f 69/209/25 72/210/25 67/211/25 66/212/25
f 70/213/26 65/214/26 68/215/26 71/216/26
g left_foot
f 73/217/1 74/218/1 75/219/1 76/220/1
f 77/221/2 78/222/2 79/223/2 80/224/2
f 78/225/27 77/226/27 74/227/27 73/228/27
f 79/229/28 76/230/28 75/231/28 80/232/28
f 77/233/29 80/234/29 75/235/29 74/236/29
f 78/237/30 73/238/30 76/239/30 79/240/30
g right_foot
f 81/241/1 82/242/1 83/243/1 84/244/1
f 85/245/2 86/246/2 87/247/2 88/248/2
f 86/249/27 85/250/27 82/251/27 81/252/27
f 87/253/28 84/254/28 83/255/28 88/256/28
f 85/257/29 88/258/29 83/259/29 82/260/29
f 86/261/30 81/262/30 84/263/30 87/264/30
g chest_reactor
f 89/265/1 90/266/1 91/267/1 92/268/1
f 93/269/2 94/270/2 95/271/2 96/272/2
f 94/273/31 93/274/31 90/275/31 89/276/31
f 95/277/32 92/278/32 91/279/32 96/280/32
f 93/281/33 96/282/33 91/283/33 90/284/33
f 94/285/34 89/286/34 92/287/34 95/288/34
