# STW_RIFLE_03 - original fictional STW first-person presentation asset
# Axis: +X right, +Y aim/forward, +Z up. Runtime binds the Atom material.
o STW_RIFLE_03
g long_receiver
v -0.060000 -0.260000 -0.050000
v 0.060000 -0.260000 -0.050000
v 0.060000 0.340000 -0.050000
v -0.060000 0.340000 -0.050000
v -0.060000 -0.260000 0.070000
v 0.060000 -0.260000 0.070000
v 0.060000 0.340000 0.070000
v -0.060000 0.340000 0.070000
vt -0.060000 -0.260000
vt 0.060000 -0.260000
vt 0.060000 0.340000
vt -0.060000 0.340000
vt -0.060000 -0.260000
vt -0.060000 0.340000
vt 0.060000 0.340000
vt 0.060000 -0.260000
vt -0.060000 -0.050000
vt -0.060000 0.070000
vt 0.060000 0.070000
vt 0.060000 -0.050000
vt -0.260000 -0.050000
vt -0.260000 0.070000
vt 0.340000 0.070000
vt 0.340000 -0.050000
vt 0.060000 -0.050000
vt 0.060000 0.070000
vt -0.060000 0.070000
vt -0.060000 -0.050000
vt 0.340000 -0.050000
vt 0.340000 0.070000
vt -0.260000 0.070000
vt -0.260000 -0.050000
vt -0.030000 0.300000
vt 0.030000 0.300000
vt 0.030000 0.520000
vt -0.030000 0.520000
vt -0.030000 0.300000
vt -0.030000 0.520000
vt 0.030000 0.520000
vt 0.030000 0.300000
vt -0.030000 0.070000
vt -0.030000 0.130000
vt 0.030000 0.130000
vt 0.030000 0.070000
vt 0.300000 0.070000
vt 0.300000 0.130000
vt 0.520000 0.130000
vt 0.520000 0.070000
vt 0.030000 0.070000
vt 0.030000 0.130000
vt -0.030000 0.130000
vt -0.030000 0.070000
vt 0.520000 0.070000
vt 0.520000 0.130000
vt 0.300000 0.130000
vt 0.300000 0.070000
vn 0.000000 0.000000 1.000000
vn 0.000000 0.000000 -1.000000
vn 0.000000 1.000000 0.000000
vn -1.000000 0.000000 0.000000
vn 0.000000 -1.000000 0.000000
vn 1.000000 0.000000 -0.000000
vn 0.000000 0.000000 1.000000
vn 0.000000 0.000000 -1.000000
vn 0.000000 1.000000 0.000000
vn -1.000000 0.000000 0.000000
vn 0.000000 -1.000000 0.000000
vn 1.000000 0.000000 -0.000000
f 1/1/1 2/2/1 3/3/1 4/4/1
f 5/5/2 8/6/2 7/7/2 6/8/2
f 1/9/3 5/10/3 6/11/3 2/12/3
f 2/13/4 6/14/4 7/15/4 3/16/4
f 3/17/5 7/18/5 8/19/5 4/20/5
f 4/21/6 8/22/6 5/23/6 1/24/6
g upper_rail
v -0.030000 0.300000 0.070000
v 0.030000 0.300000 0.070000
v 0.030000 0.520000 0.070000
v -0.030000 0.520000 0.070000
v -0.030000 0.300000 0.130000
v 0.030000 0.300000 0.130000
v 0.030000 0.520000 0.130000
v -0.030000 0.520000 0.130000
f 9/25/7 10/26/7 11/27/7 12/28/7
f 13/29/8 16/30/8 15/31/8 14/32/8
f 9/33/9 13/34/9 14/35/9 10/36/9
f 10/37/10 14/38/10 15/39/10 11/40/10
f 11/41/11 15/42/11 16/43/11 12/44/11
f 12/45/12 16/46/12 13/47/12 9/48/12
