# STW_RIFLE_03 - original fictional STW first-person weapon presentation asset
# Generated deterministically by tools/assets/create_stw_weapons.py
# Axis convention: +X right, +Y aim/forward, +Z up
# LOD node: LOD1
# parts: receiver, shroud, stock, grip, barrel, optic, rail, magazine, muzzle, cheek
# No mtllib / usemtl is emitted: the runtime binds one Atom StandardPBR material.
o STW_RIFLE_03
v -0.032000 0.260000 -0.040000
v 0.032000 0.260000 -0.040000
v 0.032000 0.260000 0.040000
v -0.032000 0.260000 0.040000
v 0.032000 -0.080000 -0.040000
v -0.032000 -0.080000 -0.040000
v -0.032000 -0.080000 0.040000
v 0.032000 -0.080000 0.040000
v -0.016000 0.620000 -0.018000
v 0.016000 0.620000 -0.018000
v 0.016000 0.620000 0.018000
v -0.016000 0.620000 0.018000
v 0.022000 0.260000 -0.024000
v -0.022000 0.260000 -0.024000
v -0.022000 0.260000 0.024000
v 0.022000 0.260000 0.024000
v -0.028000 -0.080000 -0.036000
v 0.028000 -0.080000 -0.036000
v 0.028000 -0.080000 0.040000
v -0.028000 -0.080000 0.040000
v 0.016000 -0.460000 -0.018000
v -0.016000 -0.460000 -0.018000
v -0.016000 -0.460000 0.042000
v 0.016000 -0.460000 0.042000
v -0.020000 -0.100000 -0.130000
v 0.020000 -0.100000 -0.130000
v 0.020000 -0.100000 -0.026000
v -0.020000 -0.100000 -0.026000
v 0.020000 -0.240000 -0.144000
v -0.020000 -0.240000 -0.144000
v -0.020000 -0.240000 -0.040000
v 0.020000 -0.240000 -0.040000
v -0.014000 0.780000 -0.016000
v 0.014000 0.780000 -0.016000
v 0.014000 0.780000 0.016000
v -0.014000 0.780000 0.016000
v 0.014000 0.620000 -0.016000
v -0.014000 0.620000 -0.016000
v -0.014000 0.620000 0.016000
v 0.014000 0.620000 0.016000
v -0.024000 0.200000 0.046000
v 0.024000 0.200000 0.046000
v 0.024000 0.200000 0.102000
v -0.024000 0.200000 0.102000
v 0.024000 0.020000 0.050000
v -0.024000 0.020000 0.050000
v -0.024000 0.020000 0.106000
v 0.024000 0.020000 0.106000
v -0.014000 0.400000 0.036000
v 0.014000 0.400000 0.036000
v 0.014000 0.400000 0.052000
v -0.014000 0.400000 0.052000
v 0.014000 -0.060000 0.040000
v -0.014000 -0.060000 0.040000
v -0.014000 -0.060000 0.056000
v 0.014000 -0.060000 0.056000
v -0.020000 0.080000 -0.160000
v 0.020000 0.080000 -0.160000
v 0.020000 0.080000 -0.032000
v -0.020000 0.080000 -0.032000
v 0.020000 -0.020000 -0.172000
v -0.020000 -0.020000 -0.172000
v -0.020000 -0.020000 -0.044000
v 0.020000 -0.020000 -0.044000
v -0.016000 0.860000 -0.018000
v 0.016000 0.860000 -0.018000
v 0.016000 0.860000 0.018000
v -0.016000 0.860000 0.018000
v 0.016000 0.780000 -0.018000
v -0.016000 0.780000 -0.018000
v -0.016000 0.780000 0.018000
v 0.016000 0.780000 0.018000
v -0.018000 -0.160000 0.028000
v 0.018000 -0.160000 0.028000
v 0.018000 -0.160000 0.052000
v -0.018000 -0.160000 0.052000
v 0.018000 -0.340000 0.034000
v -0.018000 -0.340000 0.034000
v -0.018000 -0.340000 0.058000
v 0.018000 -0.340000 0.058000
vt -0.032000 -0.040000
vt 0.032000 -0.040000
vt 0.032000 0.040000
vt -0.032000 0.040000
vt 0.032000 -0.040000
vt -0.032000 -0.040000
vt -0.032000 0.040000
vt 0.032000 0.040000
vt -0.032000 -0.080000
vt 0.032000 -0.080000
vt 0.032000 0.260000
vt -0.032000 0.260000
vt -0.032000 -0.080000
vt -0.032000 0.260000
vt 0.032000 0.260000
vt 0.032000 -0.080000
vt -0.080000 -0.040000
vt -0.080000 0.040000
vt 0.260000 0.040000
vt 0.260000 -0.040000
vt -0.080000 -0.040000
vt 0.260000 -0.040000
vt 0.260000 0.040000
vt -0.080000 0.040000
vt -0.016000 -0.018000
vt 0.016000 -0.018000
vt 0.016000 0.018000
vt -0.016000 0.018000
vt 0.022000 -0.024000
vt -0.022000 -0.024000
vt -0.022000 0.024000
vt 0.022000 0.024000
vt -0.022000 0.260000
vt 0.022000 0.260000
vt 0.016000 0.620000
vt -0.016000 0.620000
vt -0.022000 0.260000
vt -0.016000 0.620000
vt 0.016000 0.620000
vt 0.022000 0.260000
vt 0.260000 -0.024000
vt 0.260000 0.024000
vt 0.620000 0.018000
vt 0.620000 -0.018000
vt 0.260000 -0.024000
vt 0.620000 -0.018000
vt 0.620000 0.018000
vt 0.260000 0.024000
vt -0.028000 -0.036000
vt 0.028000 -0.036000
vt 0.028000 0.040000
vt -0.028000 0.040000
vt 0.016000 -0.018000
vt -0.016000 -0.018000
vt -0.016000 0.042000
vt 0.016000 0.042000
vt -0.016000 -0.460000
vt 0.016000 -0.460000
vt 0.028000 -0.080000
vt -0.028000 -0.080000
vt -0.016000 -0.460000
vt -0.028000 -0.080000
vt 0.028000 -0.080000
vt 0.016000 -0.460000
vt -0.460000 -0.018000
vt -0.460000 0.042000
vt -0.080000 0.040000
vt -0.080000 -0.036000
vt -0.460000 -0.018000
vt -0.080000 -0.036000
vt -0.080000 0.040000
vt -0.460000 0.042000
vt -0.020000 -0.130000
vt 0.020000 -0.130000
vt 0.020000 -0.026000
vt -0.020000 -0.026000
vt 0.020000 -0.144000
vt -0.020000 -0.144000
vt -0.020000 -0.040000
vt 0.020000 -0.040000
vt -0.020000 -0.240000
vt 0.020000 -0.240000
vt 0.020000 -0.100000
vt -0.020000 -0.100000
vt -0.020000 -0.240000
vt -0.020000 -0.100000
vt 0.020000 -0.100000
vt 0.020000 -0.240000
vt -0.240000 -0.144000
vt -0.240000 -0.040000
vt -0.100000 -0.026000
vt -0.100000 -0.130000
vt -0.240000 -0.144000
vt -0.100000 -0.130000
vt -0.100000 -0.026000
vt -0.240000 -0.040000
vt -0.014000 -0.016000
vt 0.014000 -0.016000
vt 0.014000 0.016000
vt -0.014000 0.016000
vt 0.014000 -0.016000
vt -0.014000 -0.016000
vt -0.014000 0.016000
vt 0.014000 0.016000
vt -0.014000 0.620000
vt 0.014000 0.620000
vt 0.014000 0.780000
vt -0.014000 0.780000
vt -0.014000 0.620000
vt -0.014000 0.780000
vt 0.014000 0.780000
vt 0.014000 0.620000
vt 0.620000 -0.016000
vt 0.620000 0.016000
vt 0.780000 0.016000
vt 0.780000 -0.016000
vt 0.620000 -0.016000
vt 0.780000 -0.016000
vt 0.780000 0.016000
vt 0.620000 0.016000
vt -0.024000 0.046000
vt 0.024000 0.046000
vt 0.024000 0.102000
vt -0.024000 0.102000
vt 0.024000 0.050000
vt -0.024000 0.050000
vt -0.024000 0.106000
vt 0.024000 0.106000
vt -0.024000 0.020000
vt 0.024000 0.020000
vt 0.024000 0.200000
vt -0.024000 0.200000
vt -0.024000 0.020000
vt -0.024000 0.200000
vt 0.024000 0.200000
vt 0.024000 0.020000
vt 0.020000 0.050000
vt 0.020000 0.106000
vt 0.200000 0.102000
vt 0.200000 0.046000
vt 0.020000 0.050000
vt 0.200000 0.046000
vt 0.200000 0.102000
vt 0.020000 0.106000
vt -0.014000 0.036000
vt 0.014000 0.036000
vt 0.014000 0.052000
vt -0.014000 0.052000
vt 0.014000 0.040000
vt -0.014000 0.040000
vt -0.014000 0.056000
vt 0.014000 0.056000
vt -0.014000 -0.060000
vt 0.014000 -0.060000
vt 0.014000 0.400000
vt -0.014000 0.400000
vt -0.014000 -0.060000
vt -0.014000 0.400000
vt 0.014000 0.400000
vt 0.014000 -0.060000
vt -0.060000 0.040000
vt -0.060000 0.056000
vt 0.400000 0.052000
vt 0.400000 0.036000
vt -0.060000 0.040000
vt 0.400000 0.036000
vt 0.400000 0.052000
vt -0.060000 0.056000
vt -0.020000 -0.160000
vt 0.020000 -0.160000
vt 0.020000 -0.032000
vt -0.020000 -0.032000
vt 0.020000 -0.172000
vt -0.020000 -0.172000
vt -0.020000 -0.044000
vt 0.020000 -0.044000
vt -0.020000 -0.020000
vt 0.020000 -0.020000
vt 0.020000 0.080000
vt -0.020000 0.080000
vt -0.020000 -0.020000
vt -0.020000 0.080000
vt 0.020000 0.080000
vt 0.020000 -0.020000
vt -0.020000 -0.172000
vt -0.020000 -0.044000
vt 0.080000 -0.032000
vt 0.080000 -0.160000
vt -0.020000 -0.172000
vt 0.080000 -0.160000
vt 0.080000 -0.032000
vt -0.020000 -0.044000
vt -0.016000 -0.018000
vt 0.016000 -0.018000
vt 0.016000 0.018000
vt -0.016000 0.018000
vt 0.016000 -0.018000
vt -0.016000 -0.018000
vt -0.016000 0.018000
vt 0.016000 0.018000
vt -0.016000 0.780000
vt 0.016000 0.780000
vt 0.016000 0.860000
vt -0.016000 0.860000
vt -0.016000 0.780000
vt -0.016000 0.860000
vt 0.016000 0.860000
vt 0.016000 0.780000
vt 0.780000 -0.018000
vt 0.780000 0.018000
vt 0.860000 0.018000
vt 0.860000 -0.018000
vt 0.780000 -0.018000
vt 0.860000 -0.018000
vt 0.860000 0.018000
vt 0.780000 0.018000
vt -0.018000 0.028000
vt 0.018000 0.028000
vt 0.018000 0.052000
vt -0.018000 0.052000
vt 0.018000 0.034000
vt -0.018000 0.034000
vt -0.018000 0.058000
vt 0.018000 0.058000
vt -0.018000 -0.340000
vt 0.018000 -0.340000
vt 0.018000 -0.160000
vt -0.018000 -0.160000
vt -0.018000 -0.340000
vt -0.018000 -0.160000
vt 0.018000 -0.160000
vt 0.018000 -0.340000
vt -0.340000 0.034000
vt -0.340000 0.058000
vt -0.160000 0.052000
vt -0.160000 0.028000
vt -0.340000 0.034000
vt -0.160000 0.028000
vt -0.160000 0.052000
vt -0.340000 0.058000
vn 0.000000 -1.000000 0.000000
vn 0.000000 1.000000 0.000000
vn 0.000000 0.000000 1.000000
vn 0.000000 0.000000 -1.000000
vn -1.000000 0.000000 0.000000
vn 1.000000 0.000000 0.000000
vn 0.000000 -0.016664 0.999861
vn 0.000000 -0.016664 -0.999861
vn -0.999861 -0.016664 0.000000
vn 0.999861 -0.016664 0.000000
vn -0.000000 0.047315 0.998880
vn 0.000000 -0.005263 -0.999986
vn -0.999502 0.031563 0.000000
vn 0.999502 0.031563 0.000000
vn 0.000000 -0.099504 0.995037
vn 0.000000 0.099504 -0.995037
vn -0.000000 0.022217 0.999753
vn 0.000000 -0.022217 -0.999753
vn -0.000000 0.008695 0.999962
vn 0.000000 -0.008695 -0.999962
vn 0.000000 -0.119145 0.992877
vn 0.000000 0.119145 -0.992877
vn -0.000000 0.033315 0.999445
vn 0.000000 -0.033315 -0.999445
g LOD1
f 1/1/1 2/2/1 3/3/1 4/4/1
f 5/5/2 6/6/2 7/7/2 8/8/2
f 6/9/3 5/10/3 2/11/3 1/12/3
f 7/13/4 4/14/4 3/15/4 8/16/4
f 5/17/5 8/18/5 3/19/5 2/20/5
f 6/21/6 1/22/6 4/23/6 7/24/6
f 9/25/1 10/26/1 11/27/1 12/28/1
f 13/29/2 14/30/2 15/31/2 16/32/2
f 14/33/7 13/34/7 10/35/7 9/36/7
f 15/37/8 12/38/8 11/39/8 16/40/8
f 13/41/9 16/42/9 11/43/9 10/44/9
f 14/45/10 9/46/10 12/47/10 15/48/10
f 17/49/1 18/50/1 19/51/1 20/52/1
f 21/53/2 22/54/2 23/55/2 24/56/2
f 22/57/11 21/58/11 18/59/11 17/60/11
f 23/61/12 20/62/12 19/63/12 24/64/12
f 21/65/13 24/66/13 19/67/13 18/68/13
f 22/69/14 17/70/14 20/71/14 23/72/14
f 25/73/1 26/74/1 27/75/1 28/76/1
f 29/77/2 30/78/2 31/79/2 32/80/2
f 30/81/15 29/82/15 26/83/15 25/84/15
f 31/85/16 28/86/16 27/87/16 32/88/16
f 29/89/5 32/90/5 27/91/5 26/92/5
f 30/93/6 25/94/6 28/95/6 31/96/6
f 33/97/1 34/98/1 35/99/1 36/100/1
f 37/101/2 38/102/2 39/103/2 40/104/2
f 38/105/3 37/106/3 34/107/3 33/108/3
f 39/109/4 36/110/4 35/111/4 40/112/4
f 37/113/5 40/114/5 35/115/5 34/116/5
f 38/117/6 33/118/6 36/119/6 39/120/6
f 41/121/1 42/122/1 43/123/1 44/124/1
f 45/125/2 46/126/2 47/127/2 48/128/2
f 46/129/17 45/130/17 42/131/17 41/132/17
f 47/133/18 44/134/18 43/135/18 48/136/18
f 45/137/5 48/138/5 43/139/5 42/140/5
f 46/141/6 41/142/6 44/143/6 47/144/6
f 49/145/1 50/146/1 51/147/1 52/148/1
f 53/149/2 54/150/2 55/151/2 56/152/2
f 54/153/19 53/154/19 50/155/19 49/156/19
f 55/157/20 52/158/20 51/159/20 56/160/20
f 53/161/5 56/162/5 51/163/5 50/164/5
f 54/165/6 49/166/6 52/167/6 55/168/6
f 57/169/1 58/170/1 59/171/1 60/172/1
f 61/173/2 62/174/2 63/175/2 64/176/2
f 62/177/21 61/178/21 58/179/21 57/180/21
f 63/181/22 60/182/22 59/183/22 64/184/22
f 61/185/5 64/186/5 59/187/5 58/188/5
f 62/189/6 57/190/6 60/191/6 63/192/6
f 65/193/1 66/194/1 67/195/1 68/196/1
f 69/197/2 70/198/2 71/199/2 72/200/2
f 70/201/3 69/202/3 66/203/3 65/204/3
f 71/205/4 68/206/4 67/207/4 72/208/4
f 69/209/5 72/210/5 67/211/5 66/212/5
f 70/213/6 65/214/6 68/215/6 71/216/6
f 73/217/1 74/218/1 75/219/1 76/220/1
f 77/221/2 78/222/2 79/223/2 80/224/2
f 78/225/23 77/226/23 74/227/23 73/228/23
f 79/229/24 76/230/24 75/231/24 80/232/24
f 77/233/5 80/234/5 75/235/5 74/236/5
f 78/237/6 73/238/6 76/239/6 79/240/6
