# STW_LMG_04 - original fictional STW first-person weapon presentation asset
# Generated deterministically by tools/assets/create_stw_weapons.py
# Axis convention: +X right, +Y aim/forward, +Z up
# LOD node: LOD1
# parts: body, barrel, boxmag, grip, stock, spine, optic, muzzle, heatshield, trigger, foregrip
# No mtllib / usemtl is emitted: the runtime binds one Atom StandardPBR material.
o STW_LMG_04
v -0.058000 0.280000 -0.064000
v 0.058000 0.280000 -0.064000
v 0.058000 0.280000 0.064000
v -0.058000 0.280000 0.064000
v 0.058000 -0.060000 -0.064000
v -0.058000 -0.060000 -0.064000
v -0.058000 -0.060000 0.064000
v 0.058000 -0.060000 0.064000
v -0.026000 0.520000 -0.028000
v 0.026000 0.520000 -0.028000
v 0.026000 0.520000 0.028000
v -0.026000 0.520000 0.028000
v 0.032000 0.280000 -0.034000
v -0.032000 0.280000 -0.034000
v -0.032000 0.280000 0.034000
v 0.032000 0.280000 0.034000
v -0.046000 0.160000 -0.190000
v 0.046000 0.160000 -0.190000
v 0.046000 0.160000 -0.050000
v -0.046000 0.160000 -0.050000
v 0.046000 0.020000 -0.200000
v -0.046000 0.020000 -0.200000
v -0.046000 0.020000 -0.060000
v 0.046000 0.020000 -0.060000
v -0.024000 -0.060000 -0.152000
v 0.024000 -0.060000 -0.152000
v 0.024000 -0.060000 -0.040000
v -0.024000 -0.060000 -0.040000
v 0.024000 -0.180000 -0.166000
v -0.024000 -0.180000 -0.166000
v -0.024000 -0.180000 -0.054000
v 0.024000 -0.180000 -0.054000
v -0.046000 -0.060000 -0.052000
v 0.046000 -0.060000 -0.052000
v 0.046000 -0.060000 0.052000
v -0.046000 -0.060000 0.052000
v 0.030000 -0.340000 -0.040000
v -0.030000 -0.340000 -0.040000
v -0.030000 -0.340000 0.040000
v 0.030000 -0.340000 0.040000
v -0.020000 0.360000 0.056000
v 0.020000 0.360000 0.056000
v 0.020000 0.360000 0.080000
v -0.020000 0.360000 0.080000
v 0.020000 -0.020000 0.062000
v -0.020000 -0.020000 0.062000
v -0.020000 -0.020000 0.086000
v 0.020000 -0.020000 0.086000
v -0.030000 0.160000 0.068000
v 0.030000 0.160000 0.068000
v 0.030000 0.160000 0.112000
v -0.030000 0.160000 0.112000
v 0.030000 0.040000 0.074000
v -0.030000 0.040000 0.074000
v -0.030000 0.040000 0.118000
v 0.030000 0.040000 0.118000
v -0.030000 0.600000 -0.032000
v 0.030000 0.600000 -0.032000
v 0.030000 0.600000 0.032000
v -0.030000 0.600000 0.032000
v 0.030000 0.520000 -0.032000
v -0.030000 0.520000 -0.032000
v -0.030000 0.520000 0.032000
v 0.030000 0.520000 0.032000
v -0.040000 0.460000 0.024000
v 0.040000 0.460000 0.024000
v 0.040000 0.460000 0.048000
v -0.040000 0.460000 0.048000
v 0.040000 0.220000 0.028000
v -0.040000 0.220000 0.028000
v -0.040000 0.220000 0.052000
v 0.040000 0.220000 0.052000
v -0.020000 0.000000 -0.094000
v 0.020000 0.000000 -0.094000
v 0.020000 0.000000 -0.074000
v -0.020000 0.000000 -0.074000
v 0.020000 -0.080000 -0.094000
v -0.020000 -0.080000 -0.094000
v -0.020000 -0.080000 -0.074000
v 0.020000 -0.080000 -0.074000
v -0.016000 0.240000 -0.132000
v 0.016000 0.240000 -0.132000
v 0.016000 0.240000 -0.052000
v -0.016000 0.240000 -0.052000
v 0.016000 0.160000 -0.140000
v -0.016000 0.160000 -0.140000
v -0.016000 0.160000 -0.060000
v 0.016000 0.160000 -0.060000
vt -0.058000 -0.064000
vt 0.058000 -0.064000
vt 0.058000 0.064000
vt -0.058000 0.064000
vt 0.058000 -0.064000
vt -0.058000 -0.064000
vt -0.058000 0.064000
vt 0.058000 0.064000
vt -0.058000 -0.060000
vt 0.058000 -0.060000
vt 0.058000 0.280000
vt -0.058000 0.280000
vt -0.058000 -0.060000
vt -0.058000 0.280000
vt 0.058000 0.280000
vt 0.058000 -0.060000
vt -0.060000 -0.064000
vt -0.060000 0.064000
vt 0.280000 0.064000
vt 0.280000 -0.064000
vt -0.060000 -0.064000
vt 0.280000 -0.064000
vt 0.280000 0.064000
vt -0.060000 0.064000
vt -0.026000 -0.028000
vt 0.026000 -0.028000
vt 0.026000 0.028000
vt -0.026000 0.028000
vt 0.032000 -0.034000
vt -0.032000 -0.034000
vt -0.032000 0.034000
vt 0.032000 0.034000
vt -0.032000 0.280000
vt 0.032000 0.280000
vt 0.026000 0.520000
vt -0.026000 0.520000
vt -0.032000 0.280000
vt -0.026000 0.520000
vt 0.026000 0.520000
vt 0.032000 0.280000
vt 0.280000 -0.034000
vt 0.280000 0.034000
vt 0.520000 0.028000
vt 0.520000 -0.028000
vt 0.280000 -0.034000
vt 0.520000 -0.028000
vt 0.520000 0.028000
vt 0.280000 0.034000
vt -0.046000 -0.190000
vt 0.046000 -0.190000
vt 0.046000 -0.050000
vt -0.046000 -0.050000
vt 0.046000 -0.200000
vt -0.046000 -0.200000
vt -0.046000 -0.060000
vt 0.046000 -0.060000
vt -0.046000 0.020000
vt 0.046000 0.020000
vt 0.046000 0.160000
vt -0.046000 0.160000
vt -0.046000 0.020000
vt -0.046000 0.160000
vt 0.046000 0.160000
vt 0.046000 0.020000
vt 0.020000 -0.200000
vt 0.020000 -0.060000
vt 0.160000 -0.050000
vt 0.160000 -0.190000
vt 0.020000 -0.200000
vt 0.160000 -0.190000
vt 0.160000 -0.050000
vt 0.020000 -0.060000
vt -0.024000 -0.152000
vt 0.024000 -0.152000
vt 0.024000 -0.040000
vt -0.024000 -0.040000
vt 0.024000 -0.166000
vt -0.024000 -0.166000
vt -0.024000 -0.054000
vt 0.024000 -0.054000
vt -0.024000 -0.180000
vt 0.024000 -0.180000
vt 0.024000 -0.060000
vt -0.024000 -0.060000
vt -0.024000 -0.180000
vt -0.024000 -0.060000
vt 0.024000 -0.060000
vt 0.024000 -0.180000
vt -0.180000 -0.166000
vt -0.180000 -0.054000
vt -0.060000 -0.040000
vt -0.060000 -0.152000
vt -0.180000 -0.166000
vt -0.060000 -0.152000
vt -0.060000 -0.040000
vt -0.180000 -0.054000
vt -0.046000 -0.052000
vt 0.046000 -0.052000
vt 0.046000 0.052000
vt -0.046000 0.052000
vt 0.030000 -0.040000
vt -0.030000 -0.040000
vt -0.030000 0.040000
vt 0.030000 0.040000
vt -0.030000 -0.340000
vt 0.030000 -0.340000
vt 0.046000 -0.060000
vt -0.046000 -0.060000
vt -0.030000 -0.340000
vt -0.046000 -0.060000
vt 0.046000 -0.060000
vt 0.030000 -0.340000
vt -0.340000 -0.040000
vt -0.340000 0.040000
vt -0.060000 0.052000
vt -0.060000 -0.052000
vt -0.340000 -0.040000
vt -0.060000 -0.052000
vt -0.060000 0.052000
vt -0.340000 0.040000
vt -0.020000 0.056000
vt 0.020000 0.056000
vt 0.020000 0.080000
vt -0.020000 0.080000
vt 0.020000 0.062000
vt -0.020000 0.062000
vt -0.020000 0.086000
vt 0.020000 0.086000
vt -0.020000 -0.020000
vt 0.020000 -0.020000
vt 0.020000 0.360000
vt -0.020000 0.360000
vt -0.020000 -0.020000
vt -0.020000 0.360000
vt 0.020000 0.360000
vt 0.020000 -0.020000
vt -0.020000 0.062000
vt -0.020000 0.086000
vt 0.360000 0.080000
vt 0.360000 0.056000
vt -0.020000 0.062000
vt 0.360000 0.056000
vt 0.360000 0.080000
vt -0.020000 0.086000
vt -0.030000 0.068000
vt 0.030000 0.068000
vt 0.030000 0.112000
vt -0.030000 0.112000
vt 0.030000 0.074000
vt -0.030000 0.074000
vt -0.030000 0.118000
vt 0.030000 0.118000
vt -0.030000 0.040000
vt 0.030000 0.040000
vt 0.030000 0.160000
vt -0.030000 0.160000
vt -0.030000 0.040000
vt -0.030000 0.160000
vt 0.030000 0.160000
vt 0.030000 0.040000
vt 0.040000 0.074000
vt 0.040000 0.118000
vt 0.160000 0.112000
vt 0.160000 0.068000
vt 0.040000 0.074000
vt 0.160000 0.068000
vt 0.160000 0.112000
vt 0.040000 0.118000
vt -0.030000 -0.032000
vt 0.030000 -0.032000
vt 0.030000 0.032000
vt -0.030000 0.032000
vt 0.030000 -0.032000
vt -0.030000 -0.032000
vt -0.030000 0.032000
vt 0.030000 0.032000
vt -0.030000 0.520000
vt 0.030000 0.520000
vt 0.030000 0.600000
vt -0.030000 0.600000
vt -0.030000 0.520000
vt -0.030000 0.600000
vt 0.030000 0.600000
vt 0.030000 0.520000
vt 0.520000 -0.032000
vt 0.520000 0.032000
vt 0.600000 0.032000
vt 0.600000 -0.032000
vt 0.520000 -0.032000
vt 0.600000 -0.032000
vt 0.600000 0.032000
vt 0.520000 0.032000
vt -0.040000 0.024000
vt 0.040000 0.024000
vt 0.040000 0.048000
vt -0.040000 0.048000
vt 0.040000 0.028000
vt -0.040000 0.028000
vt -0.040000 0.052000
vt 0.040000 0.052000
vt -0.040000 0.220000
vt 0.040000 0.220000
vt 0.040000 0.460000
vt -0.040000 0.460000
vt -0.040000 0.220000
vt -0.040000 0.460000
vt 0.040000 0.460000
vt 0.040000 0.220000
vt 0.220000 0.028000
vt 0.220000 0.052000
vt 0.460000 0.048000
vt 0.460000 0.024000
vt 0.220000 0.028000
vt 0.460000 0.024000
vt 0.460000 0.048000
vt 0.220000 0.052000
vt -0.020000 -0.094000
vt 0.020000 -0.094000
vt 0.020000 -0.074000
vt -0.020000 -0.074000
vt 0.020000 -0.094000
vt -0.020000 -0.094000
vt -0.020000 -0.074000
vt 0.020000 -0.074000
vt -0.020000 -0.080000
vt 0.020000 -0.080000
vt 0.020000 0.000000
vt -0.020000 0.000000
vt -0.020000 -0.080000
vt -0.020000 0.000000
vt 0.020000 0.000000
vt 0.020000 -0.080000
vt -0.080000 -0.094000
vt -0.080000 -0.074000
vt 0.000000 -0.074000
vt 0.000000 -0.094000
vt -0.080000 -0.094000
vt 0.000000 -0.094000
vt 0.000000 -0.074000
vt -0.080000 -0.074000
vt -0.016000 -0.132000
vt 0.016000 -0.132000
vt 0.016000 -0.052000
vt -0.016000 -0.052000
vt 0.016000 -0.140000
vt -0.016000 -0.140000
vt -0.016000 -0.060000
vt 0.016000 -0.060000
vt -0.016000 0.160000
vt 0.016000 0.160000
vt 0.016000 0.240000
vt -0.016000 0.240000
vt -0.016000 0.160000
vt -0.016000 0.240000
vt 0.016000 0.240000
vt 0.016000 0.160000
vt 0.160000 -0.140000
vt 0.160000 -0.060000
vt 0.240000 -0.052000
vt 0.240000 -0.132000
vt 0.160000 -0.140000
vt 0.240000 -0.132000
vt 0.240000 -0.052000
vt 0.160000 -0.060000
vn 0.000000 -1.000000 0.000000
vn 0.000000 1.000000 0.000000
vn 0.000000 0.000000 1.000000
vn 0.000000 0.000000 -1.000000
vn -1.000000 0.000000 0.000000
vn 1.000000 0.000000 0.000000
vn 0.000000 -0.024992 0.999688
vn 0.000000 -0.024992 -0.999688
vn -0.999688 -0.024992 0.000000
vn 0.999688 -0.024992 0.000000
vn 0.000000 -0.071247 0.997459
vn 0.000000 0.071247 -0.997459
vn 0.000000 -0.115881 0.993263
vn 0.000000 0.115881 -0.993263
vn -0.000000 0.042818 0.999083
vn 0.000000 0.042818 -0.999083
vn -0.998371 0.057050 0.000000
vn 0.998371 0.057050 0.000000
vn -0.000000 0.015788 0.999875
vn 0.000000 -0.015788 -0.999875
vn -0.000000 0.049938 0.998752
vn 0.000000 -0.049938 -0.998752
vn -0.000000 0.016664 0.999861
vn 0.000000 -0.016664 -0.999861
vn 0.000000 -0.099504 0.995037
vn 0.000000 0.099504 -0.995037
g LOD1
f 1/1/1 2/2/1 3/3/1 4/4/1
f 5/5/2 6/6/2 7/7/2 8/8/2
f 6/9/3 5/10/3 2/11/3 1/12/3
f 7/13/4 4/14/4 3/15/4 8/16/4
f 5/17/5 8/18/5 3/19/5 2/20/5
f 6/21/6 1/22/6 4/23/6 7/24/6
f 9/25/1 10/26/1 11/27/1 12/28/1
f 13/29/2 14/30/2 15/31/2 16/32/2
f 14/33/7 13/34/7 10/35/7 9/36/7
f 15/37/8 12/38/8 11/39/8 16/40/8
f 13/41/9 16/42/9 11/43/9 10/44/9
f 14/45/10 9/46/10 12/47/10 15/48/10
f 17/49/1 18/50/1 19/51/1 20/52/1
f 21/53/2 22/54/2 23/55/2 24/56/2
f 22/57/11 21/58/11 18/59/11 17/60/11
f 23/61/12 20/62/12 19/63/12 24/64/12
f 21/65/5 24/66/5 19/67/5 18/68/5
f 22/69/6 17/70/6 20/71/6 23/72/6
f 25/73/1 26/74/1 27/75/1 28/76/1
f 29/77/2 30/78/2 31/79/2 32/80/2
f 30/81/13 29/82/13 26/83/13 25/84/13
f 31/85/14 28/86/14 27/87/14 32/88/14
f 29/89/5 32/90/5 27/91/5 26/92/5
f 30/93/6 25/94/6 28/95/6 31/96/6
f 33/97/1 34/98/1 35/99/1 36/100/1
f 37/101/2 38/102/2 39/103/2 40/104/2
f 38/105/15 37/106/15 34/107/15 33/108/15
f 39/109/16 36/110/16 35/111/16 40/112/16
f 37/113/17 40/114/17 35/115/17 34/116/17
f 38/117/18 33/118/18 36/119/18 39/120/18
f 41/121/1 42/122/1 43/123/1 44/124/1
f 45/125/2 46/126/2 47/127/2 48/128/2
f 46/129/19 45/130/19 42/131/19 41/132/19
f 47/133/20 44/134/20 43/135/20 48/136/20
f 45/137/5 48/138/5 43/139/5 42/140/5
f 46/141/6 41/142/6 44/143/6 47/144/6
f 49/145/1 50/146/1 51/147/1 52/148/1
f 53/149/2 54/150/2 55/151/2 56/152/2
f 54/153/21 53/154/21 50/155/21 49/156/21
f 55/157/22 52/158/22 51/159/22 56/160/22
f 53/161/5 56/162/5 51/163/5 50/164/5
f 54/165/6 49/166/6 52/167/6 55/168/6
f 57/169/1 58/170/1 59/171/1 60/172/1
f 61/173/2 62/174/2 63/175/2 64/176/2
f 62/177/3 61/178/3 58/179/3 57/180/3
f 63/181/4 60/182/4 59/183/4 64/184/4
f 61/185/5 64/186/5 59/187/5 58/188/5
f 62/189/6 57/190/6 60/191/6 63/192/6
f 65/193/1 66/194/1 67/195/1 68/196/1
f 69/197/2 70/198/2 71/199/2 72/200/2
f 70/201/23 69/202/23 66/203/23 65/204/23
f 71/205/24 68/206/24 67/207/24 72/208/24
f 69/209/5 72/210/5 67/211/5 66/212/5
f 70/213/6 65/214/6 68/215/6 71/216/6
f 73/217/1 74/218/1 75/219/1 76/220/1
f 77/221/2 78/222/2 79/223/2 80/224/2
f 78/225/3 77/226/3 74/227/3 73/228/3
f 79/229/4 76/230/4 75/231/4 80/232/4
f 77/233/5 80/234/5 75/235/5 74/236/5
f 78/237/6 73/238/6 76/239/6 79/240/6
f 81/241/1 82/242/1 83/243/1 84/244/1
f 85/245/2 86/246/2 87/247/2 88/248/2
f 86/249/25 85/250/25 82/251/25 81/252/25
f 87/253/26 84/254/26 83/255/26 88/256/26
f 85/257/5 88/258/5 83/259/5 82/260/5
f 86/261/6 81/262/6 84/263/6 87/264/6
