# STW_RIFLE_02 - original fictional STW first-person weapon presentation asset
# Generated deterministically by tools/assets/create_stw_weapons.py
# Axis convention: +X right, +Y aim/forward, +Z up
# LOD node: LOD1
# parts: body, stock, grip, barrel, spine, optic, cell, muzzle, magazine, trigger
# No mtllib / usemtl is emitted: the runtime binds one Atom StandardPBR material.
o STW_RIFLE_02
v -0.040000 0.300000 -0.048000
v 0.040000 0.300000 -0.048000
v 0.040000 0.300000 0.048000
v -0.040000 0.300000 0.048000
v 0.040000 -0.020000 -0.048000
v -0.040000 -0.020000 -0.048000
v -0.040000 -0.020000 0.048000
v 0.040000 -0.020000 0.048000
v -0.034000 -0.020000 -0.040000
v 0.034000 -0.020000 -0.040000
v 0.034000 -0.020000 0.048000
v -0.034000 -0.020000 0.048000
v 0.022000 -0.360000 -0.028000
v -0.022000 -0.360000 -0.028000
v -0.022000 -0.360000 0.044000
v 0.022000 -0.360000 0.044000
v -0.022000 -0.080000 -0.144000
v 0.022000 -0.080000 -0.144000
v 0.022000 -0.080000 -0.028000
v -0.022000 -0.080000 -0.028000
v 0.022000 -0.200000 -0.158000
v -0.022000 -0.200000 -0.158000
v -0.022000 -0.200000 -0.042000
v 0.022000 -0.200000 -0.042000
v -0.018000 0.560000 -0.020000
v 0.018000 0.560000 -0.020000
v 0.018000 0.560000 0.020000
v -0.018000 0.560000 0.020000
v 0.024000 0.300000 -0.026000
v -0.024000 0.300000 -0.026000
v -0.024000 0.300000 0.026000
v 0.024000 0.300000 0.026000
v -0.016000 0.340000 0.042000
v 0.016000 0.340000 0.042000
v 0.016000 0.340000 0.062000
v -0.016000 0.340000 0.062000
v 0.016000 -0.040000 0.046000
v -0.016000 -0.040000 0.046000
v -0.016000 -0.040000 0.066000
v 0.016000 -0.040000 0.066000
v -0.022000 0.120000 0.060000
v 0.022000 0.120000 0.060000
v 0.022000 0.120000 0.100000
v -0.022000 0.120000 0.100000
v 0.026000 -0.020000 0.062000
v -0.026000 -0.020000 0.062000
v -0.026000 -0.020000 0.110000
v 0.026000 -0.020000 0.110000
v -0.026000 0.220000 -0.082000
v 0.026000 0.220000 -0.082000
v 0.026000 0.220000 -0.042000
v -0.026000 0.220000 -0.042000
v 0.026000 0.040000 -0.090000
v -0.026000 0.040000 -0.090000
v -0.026000 0.040000 -0.050000
v 0.026000 0.040000 -0.050000
v -0.018000 0.640000 -0.020000
v 0.018000 0.640000 -0.020000
v 0.018000 0.640000 0.020000
v -0.018000 0.640000 0.020000
v 0.022000 0.560000 -0.024000
v -0.022000 0.560000 -0.024000
v -0.022000 0.560000 0.024000
v 0.022000 0.560000 0.024000
v -0.024000 0.060000 -0.178000
v 0.024000 0.060000 -0.178000
v 0.024000 0.060000 -0.038000
v -0.024000 0.060000 -0.038000
v 0.024000 -0.040000 -0.190000
v -0.024000 -0.040000 -0.190000
v -0.024000 -0.040000 -0.050000
v 0.024000 -0.040000 -0.050000
v -0.018000 -0.020000 -0.088000
v 0.018000 -0.020000 -0.088000
v 0.018000 -0.020000 -0.068000
v -0.018000 -0.020000 -0.068000
v 0.018000 -0.100000 -0.088000
v -0.018000 -0.100000 -0.088000
v -0.018000 -0.100000 -0.068000
v 0.018000 -0.100000 -0.068000
vt -0.040000 -0.048000
vt 0.040000 -0.048000
vt 0.040000 0.048000
vt -0.040000 0.048000
vt 0.040000 -0.048000
vt -0.040000 -0.048000
vt -0.040000 0.048000
vt 0.040000 0.048000
vt -0.040000 -0.020000
vt 0.040000 -0.020000
vt 0.040000 0.300000
vt -0.040000 0.300000
vt -0.040000 -0.020000
vt -0.040000 0.300000
vt 0.040000 0.300000
vt 0.040000 -0.020000
vt -0.020000 -0.048000
vt -0.020000 0.048000
vt 0.300000 0.048000
vt 0.300000 -0.048000
vt -0.020000 -0.048000
vt 0.300000 -0.048000
vt 0.300000 0.048000
vt -0.020000 0.048000
vt -0.034000 -0.040000
vt 0.034000 -0.040000
vt 0.034000 0.048000
vt -0.034000 0.048000
vt 0.022000 -0.028000
vt -0.022000 -0.028000
vt -0.022000 0.044000
vt 0.022000 0.044000
vt -0.022000 -0.360000
vt 0.022000 -0.360000
vt 0.034000 -0.020000
vt -0.034000 -0.020000
vt -0.022000 -0.360000
vt -0.034000 -0.020000
vt 0.034000 -0.020000
vt 0.022000 -0.360000
vt -0.360000 -0.028000
vt -0.360000 0.044000
vt -0.020000 0.048000
vt -0.020000 -0.040000
vt -0.360000 -0.028000
vt -0.020000 -0.040000
vt -0.020000 0.048000
vt -0.360000 0.044000
vt -0.022000 -0.144000
vt 0.022000 -0.144000
vt 0.022000 -0.028000
vt -0.022000 -0.028000
vt 0.022000 -0.158000
vt -0.022000 -0.158000
vt -0.022000 -0.042000
vt 0.022000 -0.042000
vt -0.022000 -0.200000
vt 0.022000 -0.200000
vt 0.022000 -0.080000
vt -0.022000 -0.080000
vt -0.022000 -0.200000
vt -0.022000 -0.080000
vt 0.022000 -0.080000
vt 0.022000 -0.200000
vt -0.200000 -0.158000
vt -0.200000 -0.042000
vt -0.080000 -0.028000
vt -0.080000 -0.144000
vt -0.200000 -0.158000
vt -0.080000 -0.144000
vt -0.080000 -0.028000
vt -0.200000 -0.042000
vt -0.018000 -0.020000
vt 0.018000 -0.020000
vt 0.018000 0.020000
vt -0.018000 0.020000
vt 0.024000 -0.026000
vt -0.024000 -0.026000
vt -0.024000 0.026000
vt 0.024000 0.026000
vt -0.024000 0.300000
vt 0.024000 0.300000
vt 0.018000 0.560000
vt -0.018000 0.560000
vt -0.024000 0.300000
vt -0.018000 0.560000
vt 0.018000 0.560000
vt 0.024000 0.300000
vt 0.300000 -0.026000
vt 0.300000 0.026000
vt 0.560000 0.020000
vt 0.560000 -0.020000
vt 0.300000 -0.026000
vt 0.560000 -0.020000
vt 0.560000 0.020000
vt 0.300000 0.026000
vt -0.016000 0.042000
vt 0.016000 0.042000
vt 0.016000 0.062000
vt -0.016000 0.062000
vt 0.016000 0.046000
vt -0.016000 0.046000
vt -0.016000 0.066000
vt 0.016000 0.066000
vt -0.016000 -0.040000
vt 0.016000 -0.040000
vt 0.016000 0.340000
vt -0.016000 0.340000
vt -0.016000 -0.040000
vt -0.016000 0.340000
vt 0.016000 0.340000
vt 0.016000 -0.040000
vt -0.040000 0.046000
vt -0.040000 0.066000
vt 0.340000 0.062000
vt 0.340000 0.042000
vt -0.040000 0.046000
vt 0.340000 0.042000
vt 0.340000 0.062000
vt -0.040000 0.066000
vt -0.022000 0.060000
vt 0.022000 0.060000
vt 0.022000 0.100000
vt -0.022000 0.100000
vt 0.026000 0.062000
vt -0.026000 0.062000
vt -0.026000 0.110000
vt 0.026000 0.110000
vt -0.026000 -0.020000
vt 0.026000 -0.020000
vt 0.022000 0.120000
vt -0.022000 0.120000
vt -0.026000 -0.020000
vt -0.022000 0.120000
vt 0.022000 0.120000
vt 0.026000 -0.020000
vt -0.020000 0.062000
vt -0.020000 0.110000
vt 0.120000 0.100000
vt 0.120000 0.060000
vt -0.020000 0.062000
vt 0.120000 0.060000
vt 0.120000 0.100000
vt -0.020000 0.110000
vt -0.026000 -0.082000
vt 0.026000 -0.082000
vt 0.026000 -0.042000
vt -0.026000 -0.042000
vt 0.026000 -0.090000
vt -0.026000 -0.090000
vt -0.026000 -0.050000
vt 0.026000 -0.050000
vt -0.026000 0.040000
vt 0.026000 0.040000
vt 0.026000 0.220000
vt -0.026000 0.220000
vt -0.026000 0.040000
vt -0.026000 0.220000
vt 0.026000 0.220000
vt 0.026000 0.040000
vt 0.040000 -0.090000
vt 0.040000 -0.050000
vt 0.220000 -0.042000
vt 0.220000 -0.082000
vt 0.040000 -0.090000
vt 0.220000 -0.082000
vt 0.220000 -0.042000
vt 0.040000 -0.050000
vt -0.018000 -0.020000
vt 0.018000 -0.020000
vt 0.018000 0.020000
vt -0.018000 0.020000
vt 0.022000 -0.024000
vt -0.022000 -0.024000
vt -0.022000 0.024000
vt 0.022000 0.024000
vt -0.022000 0.560000
vt 0.022000 0.560000
vt 0.018000 0.640000
vt -0.018000 0.640000
vt -0.022000 0.560000
vt -0.018000 0.640000
vt 0.018000 0.640000
vt 0.022000 0.560000
vt 0.560000 -0.024000
vt 0.560000 0.024000
vt 0.640000 0.020000
vt 0.640000 -0.020000
vt 0.560000 -0.024000
vt 0.640000 -0.020000
vt 0.640000 0.020000
vt 0.560000 0.024000
vt -0.024000 -0.178000
vt 0.024000 -0.178000
vt 0.024000 -0.038000
vt -0.024000 -0.038000
vt 0.024000 -0.190000
vt -0.024000 -0.190000
vt -0.024000 -0.050000
vt 0.024000 -0.050000
vt -0.024000 -0.040000
vt 0.024000 -0.040000
vt 0.024000 0.060000
vt -0.024000 0.060000
vt -0.024000 -0.040000
vt -0.024000 0.060000
vt 0.024000 0.060000
vt 0.024000 -0.040000
vt -0.040000 -0.190000
vt -0.040000 -0.050000
vt 0.060000 -0.038000
vt 0.060000 -0.178000
vt -0.040000 -0.190000
vt 0.060000 -0.178000
vt 0.060000 -0.038000
vt -0.040000 -0.050000
vt -0.018000 -0.088000
vt 0.018000 -0.088000
vt 0.018000 -0.068000
vt -0.018000 -0.068000
vt 0.018000 -0.088000
vt -0.018000 -0.088000
vt -0.018000 -0.068000
vt 0.018000 -0.068000
vt -0.018000 -0.100000
vt 0.018000 -0.100000
vt 0.018000 -0.020000
vt -0.018000 -0.020000
vt -0.018000 -0.100000
vt -0.018000 -0.020000
vt 0.018000 -0.020000
vt 0.018000 -0.100000
vt -0.100000 -0.088000
vt -0.100000 -0.068000
vt -0.020000 -0.068000
vt -0.020000 -0.088000
vt -0.100000 -0.088000
vt -0.020000 -0.088000
vt -0.020000 -0.068000
vt -0.100000 -0.068000
vn 0.000000 -1.000000 0.000000
vn 0.000000 1.000000 0.000000
vn 0.000000 0.000000 1.000000
vn 0.000000 0.000000 -1.000000
vn -1.000000 0.000000 0.000000
vn 1.000000 0.000000 0.000000
vn -0.000000 0.035272 0.999378
vn 0.000000 0.011764 -0.999931
vn -0.999378 0.035272 0.000000
vn 0.999378 0.035272 0.000000
vn 0.000000 -0.115881 0.993263
vn 0.000000 0.115881 -0.993263
vn 0.000000 -0.023071 0.999734
vn 0.000000 -0.023071 -0.999734
vn -0.999734 -0.023071 0.000000
vn 0.999734 -0.023071 0.000000
vn -0.000000 0.010526 0.999945
vn 0.000000 -0.010526 -0.999945
vn -0.000000 0.014284 0.999898
vn 0.000000 -0.071247 -0.997459
vn -0.999592 -0.028560 0.000000
vn 0.999592 -0.028560 0.000000
vn 0.000000 -0.044401 0.999014
vn 0.000000 0.044401 -0.999014
vn 0.000000 -0.049938 0.998752
vn 0.000000 -0.049938 -0.998752
vn -0.998752 -0.049938 0.000000
vn 0.998752 -0.049938 0.000000
vn 0.000000 -0.119145 0.992877
vn 0.000000 0.119145 -0.992877
g LOD1
f 1/1/1 2/2/1 3/3/1 4/4/1
f 5/5/2 6/6/2 7/7/2 8/8/2
f 6/9/3 5/10/3 2/11/3 1/12/3
f 7/13/4 4/14/4 3/15/4 8/16/4
f 5/17/5 8/18/5 3/19/5 2/20/5
f 6/21/6 1/22/6 4/23/6 7/24/6
f 9/25/1 10/26/1 11/27/1 12/28/1
f 13/29/2 14/30/2 15/31/2 16/32/2
f 14/33/7 13/34/7 10/35/7 9/36/7
f 15/37/8 12/38/8 11/39/8 16/40/8
f 13/41/9 16/42/9 11/43/9 10/44/9
f 14/45/10 9/46/10 12/47/10 15/48/10
f 17/49/1 18/50/1 19/51/1 20/52/1
f 21/53/2 22/54/2 23/55/2 24/56/2
f 22/57/11 21/58/11 18/59/11 17/60/11
f 23/61/12 20/62/12 19/63/12 24/64/12
f 21/65/5 24/66/5 19/67/5 18/68/5
f 22/69/6 17/70/6 20/71/6 23/72/6
f 25/73/1 26/74/1 27/75/1 28/76/1
f 29/77/2 30/78/2 31/79/2 32/80/2
f 30/81/13 29/82/13 26/83/13 25/84/13
f 31/85/14 28/86/14 27/87/14 32/88/14
f 29/89/15 32/90/15 27/91/15 26/92/15
f 30/93/16 25/94/16 28/95/16 31/96/16
f 33/97/1 34/98/1 35/99/1 36/100/1
f 37/101/2 38/102/2 39/103/2 40/104/2
f 38/105/17 37/106/17 34/107/17 33/108/17
f 39/109/18 36/110/18 35/111/18 40/112/18
f 37/113/5 40/114/5 35/115/5 34/116/5
f 38/117/6 33/118/6 36/119/6 39/120/6
f 41/121/1 42/122/1 43/123/1 44/124/1
f 45/125/2 46/126/2 47/127/2 48/128/2
f 46/129/19 45/130/19 42/131/19 41/132/19
f 47/133/20 44/134/20 43/135/20 48/136/20
f 45/137/21 48/138/21 43/139/21 42/140/21
f 46/141/22 41/142/22 44/143/22 47/144/22
f 49/145/1 50/146/1 51/147/1 52/148/1
f 53/149/2 54/150/2 55/151/2 56/152/2
f 54/153/23 53/154/23 50/155/23 49/156/23
f 55/157/24 52/158/24 51/159/24 56/160/24
f 53/161/5 56/162/5 51/163/5 50/164/5
f 54/165/6 49/166/6 52/167/6 55/168/6
f 57/169/1 58/170/1 59/171/1 60/172/1
f 61/173/2 62/174/2 63/175/2 64/176/2
f 62/177/25 61/178/25 58/179/25 57/180/25
f 63/181/26 60/182/26 59/183/26 64/184/26
f 61/185/27 64/186/27 59/187/27 58/188/27
f 62/189/28 57/190/28 60/191/28 63/192/28
f 65/193/1 66/194/1 67/195/1 68/196/1
f 69/197/2 70/198/2 71/199/2 72/200/2
f 70/201/29 69/202/29 66/203/29 65/204/29
f 71/205/30 68/206/30 67/207/30 72/208/30
f 69/209/5 72/210/5 67/211/5 66/212/5
f 70/213/6 65/214/6 68/215/6 71/216/6
f 73/217/1 74/218/1 75/219/1 76/220/1
f 77/221/2 78/222/2 79/223/2 80/224/2
f 78/225/3 77/226/3 74/227/3 73/228/3
f 79/229/4 76/230/4 75/231/4 80/232/4
f 77/233/5 80/234/5 75/235/5 74/236/5
f 78/237/6 73/238/6 76/239/6 79/240/6
