# STW_RIFLE_02 - original fictional STW first-person weapon presentation asset
# Axis convention: +X right, +Y aim/forward, +Z up (engine-local visual proportions)
# No mtllib / usemtl is emitted: the runtime binds one Atom StandardPBR material.
o STW_RIFLE_02
g energy_prism_body
v -0.055000 -0.180000 -0.040000
v 0.055000 -0.180000 -0.040000
v 0.055000 0.250000 -0.040000
v -0.055000 0.250000 -0.040000
v -0.055000 -0.180000 0.060000
v 0.055000 -0.180000 0.060000
v 0.055000 0.250000 0.060000
v -0.055000 0.250000 0.060000
vt -0.055000 -0.180000
vt 0.055000 -0.180000
vt 0.055000 0.250000
vt -0.055000 0.250000
vt -0.055000 -0.180000
vt -0.055000 0.250000
vt 0.055000 0.250000
vt 0.055000 -0.180000
vt -0.055000 -0.040000
vt -0.055000 0.060000
vt 0.055000 0.060000
vt 0.055000 -0.040000
vt -0.180000 -0.040000
vt -0.180000 0.060000
vt 0.250000 0.060000
vt 0.250000 -0.040000
vt 0.055000 -0.040000
vt 0.055000 0.060000
vt -0.055000 0.060000
vt -0.055000 -0.040000
vt 0.250000 -0.040000
vt 0.250000 0.060000
vt -0.180000 0.060000
vt -0.180000 -0.040000
vt -0.075000 -0.310000
vt 0.075000 -0.310000
vt 0.075000 -0.140000
vt -0.075000 -0.140000
vt -0.075000 -0.310000
vt -0.075000 -0.140000
vt 0.075000 -0.140000
vt 0.075000 -0.310000
vt -0.075000 -0.085000
vt -0.075000 0.020000
vt 0.075000 0.020000
vt 0.075000 -0.085000
vt -0.310000 -0.085000
vt -0.310000 0.020000
vt -0.140000 0.020000
vt -0.140000 -0.085000
vt 0.075000 -0.085000
vt 0.075000 0.020000
vt -0.075000 0.020000
vt -0.075000 -0.085000
vt -0.140000 -0.085000
vt -0.140000 0.020000
vt -0.310000 0.020000
vt -0.310000 -0.085000
vt -0.032000 0.210000
vt 0.032000 0.210000
vt 0.032000 0.500000
vt -0.032000 0.500000
vt -0.032000 0.210000
vt -0.032000 0.500000
vt 0.032000 0.500000
vt 0.032000 0.210000
vt -0.032000 0.055000
vt -0.032000 0.125000
vt 0.032000 0.125000
vt 0.032000 0.055000
vt 0.210000 0.055000
vt 0.210000 0.125000
vt 0.500000 0.125000
vt 0.500000 0.055000
vt 0.032000 0.055000
vt 0.032000 0.125000
vt -0.032000 0.125000
vt -0.032000 0.055000
vt 0.500000 0.055000
vt 0.500000 0.125000
vt 0.210000 0.125000
vt 0.210000 0.055000
vt -0.125000 -0.015000
vt -0.065000 -0.015000
vt -0.065000 0.190000
vt -0.125000 0.190000
vt -0.125000 -0.015000
vt -0.125000 0.190000
vt -0.065000 0.190000
vt -0.065000 -0.015000
vt -0.125000 -0.005000
vt -0.125000 0.045000
vt -0.065000 0.045000
vt -0.065000 -0.005000
vt -0.015000 -0.005000
vt -0.015000 0.045000
vt 0.190000 0.045000
vt 0.190000 -0.005000
vt -0.065000 -0.005000
vt -0.065000 0.045000
vt -0.125000 0.045000
vt -0.125000 -0.005000
vt 0.190000 -0.005000
vt 0.190000 0.045000
vt -0.015000 0.045000
vt -0.015000 -0.005000
vt 0.065000 -0.015000
vt 0.125000 -0.015000
vt 0.125000 0.190000
vt 0.065000 0.190000
vt 0.065000 -0.015000
vt 0.065000 0.190000
vt 0.125000 0.190000
vt 0.125000 -0.015000
vt 0.065000 -0.005000
vt 0.065000 0.045000
vt 0.125000 0.045000
vt 0.125000 -0.005000
vt -0.015000 -0.005000
vt -0.015000 0.045000
vt 0.190000 0.045000
vt 0.190000 -0.005000
vt 0.125000 -0.005000
vt 0.125000 0.045000
vt 0.065000 0.045000
vt 0.065000 -0.005000
vt 0.190000 -0.005000
vt 0.190000 0.045000
vt -0.015000 0.045000
vt -0.015000 -0.005000
vt -0.045000 -0.120000
vt 0.045000 -0.120000
vt 0.045000 0.015000
vt -0.045000 0.015000
vt -0.045000 -0.120000
vt -0.045000 0.015000
vt 0.045000 0.015000
vt 0.045000 -0.120000
vt -0.045000 -0.245000
vt -0.045000 -0.040000
vt 0.045000 -0.040000
vt 0.045000 -0.245000
vt -0.120000 -0.245000
vt -0.120000 -0.040000
vt 0.015000 -0.040000
vt 0.015000 -0.245000
vt 0.045000 -0.245000
vt 0.045000 -0.040000
vt -0.045000 -0.040000
vt -0.045000 -0.245000
vt 0.015000 -0.245000
vt 0.015000 -0.040000
vt -0.120000 -0.040000
vt -0.120000 -0.245000
vn 0.000000 0.000000 1.000000
vn 0.000000 0.000000 -1.000000
vn 0.000000 1.000000 0.000000
vn -1.000000 0.000000 0.000000
vn 0.000000 -1.000000 0.000000
vn 1.000000 0.000000 -0.000000
vn 0.000000 0.000000 1.000000
vn 0.000000 0.000000 -1.000000
vn 0.000000 1.000000 0.000000
vn -1.000000 0.000000 0.000000
vn 0.000000 -1.000000 0.000000
vn 1.000000 0.000000 -0.000000
vn 0.000000 0.000000 1.000000
vn 0.000000 0.000000 -1.000000
vn 0.000000 1.000000 0.000000
vn -1.000000 0.000000 0.000000
vn 0.000000 -1.000000 0.000000
vn 1.000000 0.000000 -0.000000
vn 0.000000 0.000000 1.000000
vn 0.000000 0.000000 -1.000000
vn 0.000000 1.000000 0.000000
vn -1.000000 0.000000 0.000000
vn 0.000000 -1.000000 0.000000
vn 1.000000 0.000000 -0.000000
vn 0.000000 0.000000 1.000000
vn 0.000000 0.000000 -1.000000
vn 0.000000 1.000000 0.000000
vn -1.000000 0.000000 0.000000
vn 0.000000 -1.000000 0.000000
vn 1.000000 0.000000 -0.000000
vn 0.000000 0.000000 1.000000
vn 0.000000 0.000000 -1.000000
vn 0.000000 1.000000 0.000000
vn -1.000000 0.000000 0.000000
vn 0.000000 -1.000000 0.000000
vn 1.000000 0.000000 -0.000000
f 1/1/1 2/2/1 3/3/1 4/4/1
f 5/5/2 8/6/2 7/7/2 6/8/2
f 1/9/3 5/10/3 6/11/3 2/12/3
f 2/13/4 6/14/4 7/15/4 3/16/4
f 3/17/5 7/18/5 8/19/5 4/20/5
f 4/21/6 8/22/6 5/23/6 1/24/6
g rear_power_cell
v -0.075000 -0.310000 -0.085000
v 0.075000 -0.310000 -0.085000
v 0.075000 -0.140000 -0.085000
v -0.075000 -0.140000 -0.085000
v -0.075000 -0.310000 0.020000
v 0.075000 -0.310000 0.020000
v 0.075000 -0.140000 0.020000
v -0.075000 -0.140000 0.020000
f 9/25/7 10/26/7 11/27/7 12/28/7
f 13/29/8 16/30/8 15/31/8 14/32/8
f 9/33/9 13/34/9 14/35/9 10/36/9
f 10/37/10 14/38/10 15/39/10 11/40/10
f 11/41/11 15/42/11 16/43/11 12/44/11
f 12/45/12 16/46/12 13/47/12 9/48/12
g emitter_spine
v -0.032000 0.210000 0.055000
v 0.032000 0.210000 0.055000
v 0.032000 0.500000 0.055000
v -0.032000 0.500000 0.055000
v -0.032000 0.210000 0.125000
v 0.032000 0.210000 0.125000
v 0.032000 0.500000 0.125000
v -0.032000 0.500000 0.125000
f 17/49/13 18/50/13 19/51/13 20/52/13
f 21/53/14 24/54/14 23/55/14 22/56/14
f 17/57/15 21/58/15 22/59/15 18/60/15
f 18/61/16 22/62/16 23/63/16 19/64/16
f 19/65/17 23/66/17 24/67/17 20/68/17
f 20/69/18 24/70/18 21/71/18 17/72/18
g left_energy_fin
v -0.125000 -0.015000 -0.005000
v -0.065000 -0.015000 -0.005000
v -0.065000 0.190000 -0.005000
v -0.125000 0.190000 -0.005000
v -0.125000 -0.015000 0.045000
v -0.065000 -0.015000 0.045000
v -0.065000 0.190000 0.045000
v -0.125000 0.190000 0.045000
f 25/73/19 26/74/19 27/75/19 28/76/19
f 29/77/20 32/78/20 31/79/20 30/80/20
f 25/81/21 29/82/21 30/83/21 26/84/21
f 26/85/22 30/86/22 31/87/22 27/88/22
f 27/89/23 31/90/23 32/91/23 28/92/23
f 28/93/24 32/94/24 29/95/24 25/96/24
g right_energy_fin
v 0.065000 -0.015000 -0.005000
v 0.125000 -0.015000 -0.005000
v 0.125000 0.190000 -0.005000
v 0.065000 0.190000 -0.005000
v 0.065000 -0.015000 0.045000
v 0.125000 -0.015000 0.045000
v 0.125000 0.190000 0.045000
v 0.065000 0.190000 0.045000
f 33/97/25 34/98/25 35/99/25 36/100/25
f 37/101/26 40/102/26 39/103/26 38/104/26
f 33/105/27 37/106/27 38/107/27 34/108/27
f 34/109/28 38/110/28 39/111/28 35/112/28
f 35/113/29 39/114/29 40/115/29 36/116/29
f 36/117/30 40/118/30 37/119/30 33/120/30
g lower_stabilizer
v -0.045000 -0.120000 -0.245000
v 0.045000 -0.120000 -0.245000
v 0.045000 0.015000 -0.245000
v -0.045000 0.015000 -0.245000
v -0.045000 -0.120000 -0.040000
v 0.045000 -0.120000 -0.040000
v 0.045000 0.015000 -0.040000
v -0.045000 0.015000 -0.040000
f 41/121/31 42/122/31 43/123/31 44/124/31
f 45/125/32 48/126/32 47/127/32 46/128/32
f 41/129/33 45/130/33 46/131/33 42/132/33
f 42/133/34 46/134/34 47/135/34 43/136/34
f 43/137/35 47/138/35 48/139/35 44/140/35
f 44/141/36 48/142/36 45/143/36 41/144/36
