# STW_RIFLE_02 - original fictional STW first-person weapon presentation asset
# Generated deterministically by tools/assets/create_stw_weapons.py
# Axis convention: +X right, +Y aim/forward, +Z up
# LOD node: LOD2
# parts: body, stock, grip, barrel
# No mtllib / usemtl is emitted: the runtime binds one Atom StandardPBR material.
o STW_RIFLE_02
v -0.040000 0.300000 -0.048000
v 0.040000 0.300000 -0.048000
v 0.040000 0.300000 0.048000
v -0.040000 0.300000 0.048000
v 0.040000 -0.020000 -0.048000
v -0.040000 -0.020000 -0.048000
v -0.040000 -0.020000 0.048000
v 0.040000 -0.020000 0.048000
v -0.034000 -0.020000 -0.040000
v 0.034000 -0.020000 -0.040000
v 0.034000 -0.020000 0.048000
v -0.034000 -0.020000 0.048000
v 0.022000 -0.360000 -0.028000
v -0.022000 -0.360000 -0.028000
v -0.022000 -0.360000 0.044000
v 0.022000 -0.360000 0.044000
v -0.022000 -0.080000 -0.144000
v 0.022000 -0.080000 -0.144000
v 0.022000 -0.080000 -0.028000
v -0.022000 -0.080000 -0.028000
v 0.022000 -0.200000 -0.158000
v -0.022000 -0.200000 -0.158000
v -0.022000 -0.200000 -0.042000
v 0.022000 -0.200000 -0.042000
v -0.018000 0.560000 -0.020000
v 0.018000 0.560000 -0.020000
v 0.018000 0.560000 0.020000
v -0.018000 0.560000 0.020000
v 0.024000 0.300000 -0.026000
v -0.024000 0.300000 -0.026000
v -0.024000 0.300000 0.026000
v 0.024000 0.300000 0.026000
vt -0.040000 -0.048000
vt 0.040000 -0.048000
vt 0.040000 0.048000
vt -0.040000 0.048000
vt 0.040000 -0.048000
vt -0.040000 -0.048000
vt -0.040000 0.048000
vt 0.040000 0.048000
vt -0.040000 -0.020000
vt 0.040000 -0.020000
vt 0.040000 0.300000
vt -0.040000 0.300000
vt -0.040000 -0.020000
vt -0.040000 0.300000
vt 0.040000 0.300000
vt 0.040000 -0.020000
vt -0.020000 -0.048000
vt -0.020000 0.048000
vt 0.300000 0.048000
vt 0.300000 -0.048000
vt -0.020000 -0.048000
vt 0.300000 -0.048000
vt 0.300000 0.048000
vt -0.020000 0.048000
vt -0.034000 -0.040000
vt 0.034000 -0.040000
vt 0.034000 0.048000
vt -0.034000 0.048000
vt 0.022000 -0.028000
vt -0.022000 -0.028000
vt -0.022000 0.044000
vt 0.022000 0.044000
vt -0.022000 -0.360000
vt 0.022000 -0.360000
vt 0.034000 -0.020000
vt -0.034000 -0.020000
vt -0.022000 -0.360000
vt -0.034000 -0.020000
vt 0.034000 -0.020000
vt 0.022000 -0.360000
vt -0.360000 -0.028000
vt -0.360000 0.044000
vt -0.020000 0.048000
vt -0.020000 -0.040000
vt -0.360000 -0.028000
vt -0.020000 -0.040000
vt -0.020000 0.048000
vt -0.360000 0.044000
vt -0.022000 -0.144000
vt 0.022000 -0.144000
vt 0.022000 -0.028000
vt -0.022000 -0.028000
vt 0.022000 -0.158000
vt -0.022000 -0.158000
vt -0.022000 -0.042000
vt 0.022000 -0.042000
vt -0.022000 -0.200000
vt 0.022000 -0.200000
vt 0.022000 -0.080000
vt -0.022000 -0.080000
vt -0.022000 -0.200000
vt -0.022000 -0.080000
vt 0.022000 -0.080000
vt 0.022000 -0.200000
vt -0.200000 -0.158000
vt -0.200000 -0.042000
vt -0.080000 -0.028000
vt -0.080000 -0.144000
vt -0.200000 -0.158000
vt -0.080000 -0.144000
vt -0.080000 -0.028000
vt -0.200000 -0.042000
vt -0.018000 -0.020000
vt 0.018000 -0.020000
vt 0.018000 0.020000
vt -0.018000 0.020000
vt 0.024000 -0.026000
vt -0.024000 -0.026000
vt -0.024000 0.026000
vt 0.024000 0.026000
vt -0.024000 0.300000
vt 0.024000 0.300000
vt 0.018000 0.560000
vt -0.018000 0.560000
vt -0.024000 0.300000
vt -0.018000 0.560000
vt 0.018000 0.560000
vt 0.024000 0.300000
vt 0.300000 -0.026000
vt 0.300000 0.026000
vt 0.560000 0.020000
vt 0.560000 -0.020000
vt 0.300000 -0.026000
vt 0.560000 -0.020000
vt 0.560000 0.020000
vt 0.300000 0.026000
vn 0.000000 -1.000000 0.000000
vn 0.000000 1.000000 0.000000
vn 0.000000 0.000000 1.000000
vn 0.000000 0.000000 -1.000000
vn -1.000000 0.000000 0.000000
vn 1.000000 0.000000 0.000000
vn -0.000000 0.035272 0.999378
vn 0.000000 0.011764 -0.999931
vn -0.999378 0.035272 0.000000
vn 0.999378 0.035272 0.000000
vn 0.000000 -0.115881 0.993263
vn 0.000000 0.115881 -0.993263
vn 0.000000 -0.023071 0.999734
vn 0.000000 -0.023071 -0.999734
vn -0.999734 -0.023071 0.000000
vn 0.999734 -0.023071 0.000000
g LOD2
f 1/1/1 2/2/1 3/3/1 4/4/1
f 5/5/2 6/6/2 7/7/2 8/8/2
f 6/9/3 5/10/3 2/11/3 1/12/3
f 7/13/4 4/14/4 3/15/4 8/16/4
f 5/17/5 8/18/5 3/19/5 2/20/5
f 6/21/6 1/22/6 4/23/6 7/24/6
f 9/25/1 10/26/1 11/27/1 12/28/1
f 13/29/2 14/30/2 15/31/2 16/32/2
f 14/33/7 13/34/7 10/35/7 9/36/7
f 15/37/8 12/38/8 11/39/8 16/40/8
f 13/41/9 16/42/9 11/43/9 10/44/9
f 14/45/10 9/46/10 12/47/10 15/48/10
f 17/49/1 18/50/1 19/51/1 20/52/1
f 21/53/2 22/54/2 23/55/2 24/56/2
f 22/57/11 21/58/11 18/59/11 17/60/11
f 23/61/12 20/62/12 19/63/12 24/64/12
f 21/65/5 24/66/5 19/67/5 18/68/5
f 22/69/6 17/70/6 20/71/6 23/72/6
f 25/73/1 26/74/1 27/75/1 28/76/1
f 29/77/2 30/78/2 31/79/2 32/80/2
f 30/81/13 29/82/13 26/83/13 25/84/13
f 31/85/14 28/86/14 27/87/14 32/88/14
f 29/89/15 32/90/15 27/91/15 26/92/15
f 30/93/16 25/94/16 28/95/16 31/96/16
