{
  "asset": {
    "version": "2.0",
    "generator": "STW repository-owned gameplay mannequin generator",
    "extras": {
      "purpose": "Production gameplay presentation and T4-B state acceptance",
      "license": "Repository-owned procedural geometry and animation",
      "policy": "Idle/Move loop; Fire is a non-looping gameplay override"
    }
  },
  "scene": 0,
  "scenes": [
    {
      "name": "Training",
      "nodes": [
        0,
        2
      ]
    }
  ],
  "nodes": [
    {
      "name": "RootJoint",
      "children": [
        1
      ]
    },
    {
      "name": "UpperBodyJoint",
      "translation": [
        0.0,
        1.05,
        0.0
      ]
    },
    {
      "name": "TrainingMannequin",
      "mesh": 0,
      "skin": 0
    }
  ],
  "skins": [
    {
      "name": "TrainingMannequinSkin",
      "inverseBindMatrices": 6,
      "skeleton": 0,
      "joints": [
        0,
        1
      ]
    }
  ],
  "meshes": [
    {
      "name": "ProceduralTrainingMannequin",
      "primitives": [
        {
          "attributes": {
            "POSITION": 0,
            "NORMAL": 1,
            "TEXCOORD_0": 2,
            "JOINTS_0": 3,
            "WEIGHTS_0": 4
          },
          "indices": 5,
          "material": 0
        }
      ]
    }
  ],
  "materials": [
    {
      "name": "TrainingOrange",
      "pbrMetallicRoughness": {
        "baseColorFactor": [
          0.92,
          0.24,
          0.055,
          1.0
        ],
        "metallicFactor": 0.18,
        "roughnessFactor": 0.42
      }
    }
  ],
  "animations": [
    {
      "name": "Idle",
      "samplers": [
        {
          "input": 7,
          "output": 8,
          "interpolation": "LINEAR"
        }
      ],
      "channels": [
        {
          "sampler": 0,
          "target": {
            "node": 1,
            "path": "rotation"
          }
        }
      ]
    },
    {
      "name": "Move",
      "samplers": [
        {
          "input": 9,
          "output": 10,
          "interpolation": "LINEAR"
        }
      ],
      "channels": [
        {
          "sampler": 0,
          "target": {
            "node": 1,
            "path": "rotation"
          }
        }
      ]
    },
    {
      "name": "Fire",
      "samplers": [
        {
          "input": 11,
          "output": 12,
          "interpolation": "LINEAR"
        }
      ],
      "channels": [
        {
          "sampler": 0,
          "target": {
            "node": 1,
            "path": "rotation"
          }
        }
      ]
    }
  ],
  "buffers": [
    {
      "byteLength": 11636,
      "uri": "data:application/octet-stream;base64,"
    }
  ],
  "bufferViews": [
    {
      "buffer": 0,
      "byteOffset": 0,
      "byteLength": 2304,
      "target": 34962
    },
    {
      "buffer": 0,
      "byteOffset": 2304,
      "byteLength": 2304,
      "target": 34962
    },
    {
      "buffer": 0,
      "byteOffset": 4608,
      "byteLength": 1536,
      "target": 34962
    },
    {
      "buffer": 0,
      "byteOffset": 6144,
      "byteLength": 1536,
      "target": 34962
    },
    {
      "buffer": 0,
      "byteOffset": 7680,
      "byteLength": 3072,
      "target": 34962
    },
    {
      "buffer": 0,
      "byteOffset": 10752,
      "byteLength": 576,
      "target": 34963
    },
    {
      "buffer": 0,
      "byteOffset": 11328,
      "byteLength": 128
    },
    {
      "buffer": 0,
      "byteOffset": 11456,
      "byteLength": 12
    },
    {
      "buffer": 0,
      "byteOffset": 11468,
      "byteLength": 48
    },
    {
      "buffer": 0,
      "byteOffset": 11516,
      "byteLength": 12
    },
    {
      "buffer": 0,
      "byteOffset": 11528,
      "byteLength": 48
    },
    {
      "buffer": 0,
      "byteOffset": 11576,
      "byteLength": 12
    },
    {
      "buffer": 0,
      "byteOffset": 11588,
      "byteLength": 48
    }
  ],
  "accessors": [
    {
      "bufferView": 0,
      "componentType": 5126,
      "count": 192,
      "type": "VEC3",
      "min": [
        -0.72,
        0.0,
        -0.23
      ],
      "max": [
        0.72,
        2.2,
        0.29
      ]
    },
    {
      "bufferView": 1,
      "componentType": 5126,
      "count": 192,
      "type": "VEC3"
    },
    {
      "bufferView": 2,
      "componentType": 5126,
      "count": 192,
      "type": "VEC2"
    },
    {
      "bufferView": 3,
      "componentType": 5123,
      "count": 192,
      "type": "VEC4"
    },
    {
      "bufferView": 4,
      "componentType": 5126,
      "count": 192,
      "type": "VEC4"
    },
    {
      "bufferView": 5,
      "componentType": 5123,
      "count": 288,
      "type": "SCALAR"
    },
    {
      "bufferView": 6,
      "componentType": 5126,
      "count": 2,
      "type": "MAT4"
    },
    {
      "bufferView": 7,
      "componentType": 5126,
      "count": 3,
      "type": "SCALAR"
    },
    {
      "bufferView": 8,
      "componentType": 5126,
      "count": 3,
      "type": "VEC4"
    },
    {
      "bufferView": 9,
      "componentType": 5126,
      "count": 3,
      "type": "SCALAR"
    },
    {
      "bufferView": 10,
      "componentType": 5126,
      "count": 3,
      "type": "VEC4"
    },
    {
      "bufferView": 11,
      "componentType": 5126,
      "count": 3,
      "type": "SCALAR"
    },
    {
      "bufferView": 12,
      "componentType": 5126,
      "count": 3,
      "type": "VEC4"
    }
  ]
}
