# STW_MELEE_01 - original fictional STW first-person weapon presentation asset
# Generated deterministically by tools/assets/create_stw_weapons.py
# Axis convention: +X right, +Y aim/forward, +Z up
# LOD node: LOD1
# parts: handle, blade, guard, pommel, ridge, fuller
# No mtllib / usemtl is emitted: the runtime binds one Atom StandardPBR material.
o STW_MELEE_01
v -0.016000 -0.020000 -0.018000
v 0.016000 -0.020000 -0.018000
v 0.016000 -0.020000 0.018000
v -0.016000 -0.020000 0.018000
v 0.016000 -0.180000 -0.018000
v -0.016000 -0.180000 -0.018000
v -0.016000 -0.180000 0.018000
v 0.016000 -0.180000 0.018000
v -0.004000 0.360000 -0.008000
v 0.004000 0.360000 -0.008000
v 0.004000 0.360000 0.008000
v -0.004000 0.360000 0.008000
v 0.010000 -0.020000 -0.028000
v -0.010000 -0.020000 -0.028000
v -0.010000 -0.020000 0.028000
v 0.010000 -0.020000 0.028000
v -0.046000 -0.010000 -0.012000
v 0.046000 -0.010000 -0.012000
v 0.046000 -0.010000 0.012000
v -0.046000 -0.010000 0.012000
v 0.046000 -0.040000 -0.012000
v -0.046000 -0.040000 -0.012000
v -0.046000 -0.040000 0.012000
v 0.046000 -0.040000 0.012000
v -0.022000 -0.180000 -0.022000
v 0.022000 -0.180000 -0.022000
v 0.022000 -0.180000 0.022000
v -0.022000 -0.180000 0.022000
v 0.022000 -0.220000 -0.022000
v -0.022000 -0.220000 -0.022000
v -0.022000 -0.220000 0.022000
v 0.022000 -0.220000 0.022000
v -0.004000 0.300000 0.006000
v 0.004000 0.300000 0.006000
v 0.004000 0.300000 0.018000
v -0.004000 0.300000 0.018000
v 0.004000 0.020000 0.024000
v -0.004000 0.020000 0.024000
v -0.004000 0.020000 0.036000
v 0.004000 0.020000 0.036000
v -0.004000 0.280000 -0.010000
v 0.004000 0.280000 -0.010000
v 0.004000 0.280000 0.002000
v -0.004000 0.280000 0.002000
v 0.004000 0.040000 -0.016000
v -0.004000 0.040000 -0.016000
v -0.004000 0.040000 -0.004000
v 0.004000 0.040000 -0.004000
vt -0.016000 -0.018000
vt 0.016000 -0.018000
vt 0.016000 0.018000
vt -0.016000 0.018000
vt 0.016000 -0.018000
vt -0.016000 -0.018000
vt -0.016000 0.018000
vt 0.016000 0.018000
vt -0.016000 -0.180000
vt 0.016000 -0.180000
vt 0.016000 -0.020000
vt -0.016000 -0.020000
vt -0.016000 -0.180000
vt -0.016000 -0.020000
vt 0.016000 -0.020000
vt 0.016000 -0.180000
vt -0.180000 -0.018000
vt -0.180000 0.018000
vt -0.020000 0.018000
vt -0.020000 -0.018000
vt -0.180000 -0.018000
vt -0.020000 -0.018000
vt -0.020000 0.018000
vt -0.180000 0.018000
vt -0.004000 -0.008000
vt 0.004000 -0.008000
vt 0.004000 0.008000
vt -0.004000 0.008000
vt 0.010000 -0.028000
vt -0.010000 -0.028000
vt -0.010000 0.028000
vt 0.010000 0.028000
vt -0.010000 -0.020000
vt 0.010000 -0.020000
vt 0.004000 0.360000
vt -0.004000 0.360000
vt -0.010000 -0.020000
vt -0.004000 0.360000
vt 0.004000 0.360000
vt 0.010000 -0.020000
vt -0.020000 -0.028000
vt -0.020000 0.028000
vt 0.360000 0.008000
vt 0.360000 -0.008000
vt -0.020000 -0.028000
vt 0.360000 -0.008000
vt 0.360000 0.008000
vt -0.020000 0.028000
vt -0.046000 -0.012000
vt 0.046000 -0.012000
vt 0.046000 0.012000
vt -0.046000 0.012000
vt 0.046000 -0.012000
vt -0.046000 -0.012000
vt -0.046000 0.012000
vt 0.046000 0.012000
vt -0.046000 -0.040000
vt 0.046000 -0.040000
vt 0.046000 -0.010000
vt -0.046000 -0.010000
vt -0.046000 -0.040000
vt -0.046000 -0.010000
vt 0.046000 -0.010000
vt 0.046000 -0.040000
vt -0.040000 -0.012000
vt -0.040000 0.012000
vt -0.010000 0.012000
vt -0.010000 -0.012000
vt -0.040000 -0.012000
vt -0.010000 -0.012000
vt -0.010000 0.012000
vt -0.040000 0.012000
vt -0.022000 -0.022000
vt 0.022000 -0.022000
vt 0.022000 0.022000
vt -0.022000 0.022000
vt 0.022000 -0.022000
vt -0.022000 -0.022000
vt -0.022000 0.022000
vt 0.022000 0.022000
vt -0.022000 -0.220000
vt 0.022000 -0.220000
vt 0.022000 -0.180000
vt -0.022000 -0.180000
vt -0.022000 -0.220000
vt -0.022000 -0.180000
vt 0.022000 -0.180000
vt 0.022000 -0.220000
vt -0.220000 -0.022000
vt -0.220000 0.022000
vt -0.180000 0.022000
vt -0.180000 -0.022000
vt -0.220000 -0.022000
vt -0.180000 -0.022000
vt -0.180000 0.022000
vt -0.220000 0.022000
vt -0.004000 0.006000
vt 0.004000 0.006000
vt 0.004000 0.018000
vt -0.004000 0.018000
vt 0.004000 0.024000
vt -0.004000 0.024000
vt -0.004000 0.036000
vt 0.004000 0.036000
vt -0.004000 0.020000
vt 0.004000 0.020000
vt 0.004000 0.300000
vt -0.004000 0.300000
vt -0.004000 0.020000
vt -0.004000 0.300000
vt 0.004000 0.300000
vt 0.004000 0.020000
vt 0.020000 0.024000
vt 0.020000 0.036000
vt 0.300000 0.018000
vt 0.300000 0.006000
vt 0.020000 0.024000
vt 0.300000 0.006000
vt 0.300000 0.018000
vt 0.020000 0.036000
vt -0.004000 -0.010000
vt 0.004000 -0.010000
vt 0.004000 0.002000
vt -0.004000 0.002000
vt 0.004000 -0.016000
vt -0.004000 -0.016000
vt -0.004000 -0.004000
vt 0.004000 -0.004000
vt -0.004000 0.040000
vt 0.004000 0.040000
vt 0.004000 0.280000
vt -0.004000 0.280000
vt -0.004000 0.040000
vt -0.004000 0.280000
vt 0.004000 0.280000
vt 0.004000 0.040000
vt 0.040000 -0.016000
vt 0.040000 -0.004000
vt 0.280000 0.002000
vt 0.280000 -0.010000
vt 0.040000 -0.016000
vt 0.280000 -0.010000
vt 0.280000 0.002000
vt 0.040000 -0.004000
vn 0.000000 -1.000000 0.000000
vn 0.000000 1.000000 0.000000
vn 0.000000 0.000000 1.000000
vn 0.000000 0.000000 -1.000000
vn -1.000000 0.000000 0.000000
vn 1.000000 0.000000 0.000000
vn 0.000000 -0.052559 0.998618
vn 0.000000 -0.052559 -0.998618
vn -0.999875 -0.015788 0.000000
vn 0.999875 -0.015788 0.000000
vn -0.000000 0.064153 0.997940
vn 0.000000 -0.064153 -0.997940
vn 0.000000 -0.024992 0.999688
vn 0.000000 0.024992 -0.999688
g LOD1
f 1/1/1 2/2/1 3/3/1 4/4/1
f 5/5/2 6/6/2 7/7/2 8/8/2
f 6/9/3 5/10/3 2/11/3 1/12/3
f 7/13/4 4/14/4 3/15/4 8/16/4
f 5/17/5 8/18/5 3/19/5 2/20/5
f 6/21/6 1/22/6 4/23/6 7/24/6
f 9/25/1 10/26/1 11/27/1 12/28/1
f 13/29/2 14/30/2 15/31/2 16/32/2
f 14/33/7 13/34/7 10/35/7 9/36/7
f 15/37/8 12/38/8 11/39/8 16/40/8
f 13/41/9 16/42/9 11/43/9 10/44/9
f 14/45/10 9/46/10 12/47/10 15/48/10
f 17/49/1 18/50/1 19/51/1 20/52/1
f 21/53/2 22/54/2 23/55/2 24/56/2
f 22/57/3 21/58/3 18/59/3 17/60/3
f 23/61/4 20/62/4 19/63/4 24/64/4
f 21/65/5 24/66/5 19/67/5 18/68/5
f 22/69/6 17/70/6 20/71/6 23/72/6
f 25/73/1 26/74/1 27/75/1 28/76/1
f 29/77/2 30/78/2 31/79/2 32/80/2
f 30/81/3 29/82/3 26/83/3 25/84/3
f 31/85/4 28/86/4 27/87/4 32/88/4
f 29/89/5 32/90/5 27/91/5 26/92/5
f 30/93/6 25/94/6 28/95/6 31/96/6
f 33/97/1 34/98/1 35/99/1 36/100/1
f 37/101/2 38/102/2 39/103/2 40/104/2
f 38/105/11 37/106/11 34/107/11 33/108/11
f 39/109/12 36/110/12 35/111/12 40/112/12
f 37/113/5 40/114/5 35/115/5 34/116/5
f 38/117/6 33/118/6 36/119/6 39/120/6
f 41/121/1 42/122/1 43/123/1 44/124/1
f 45/125/2 46/126/2 47/127/2 48/128/2
f 46/129/13 45/130/13 42/131/13 41/132/13
f 47/133/14 44/134/14 43/135/14 48/136/14
f 45/137/5 48/138/5 43/139/5 42/140/5
f 46/141/6 41/142/6 44/143/6 47/144/6
