# STW_MELEE_01 - original fictional STW first-person presentation asset
# Axis: +X right, +Y aim/forward, +Z up. Runtime binds the Atom material.
o STW_MELEE_01
g melee_handle
v -0.075000 -0.250000 -0.075000
v 0.075000 -0.250000 -0.075000
v 0.075000 0.100000 -0.075000
v -0.075000 0.100000 -0.075000
v -0.075000 -0.250000 0.075000
v 0.075000 -0.250000 0.075000
v 0.075000 0.100000 0.075000
v -0.075000 0.100000 0.075000
f 1 2 3 4
f 5 8 7 6
f 1 5 6 2
f 2 6 7 3
f 3 7 8 4
f 4 8 5 1
g melee_blade
v -0.050000 0.080000 -0.045000
v 0.050000 0.080000 -0.045000
v 0.050000 0.520000 -0.045000
v -0.050000 0.520000 -0.045000
v -0.050000 0.080000 0.045000
v 0.050000 0.080000 0.045000
v 0.050000 0.520000 0.045000
v -0.050000 0.520000 0.045000
f 9 10 11 12
f 13 16 15 14
f 9 13 14 10
f 10 14 15 11
f 11 15 16 12
f 12 16 13 9
