# STW_TACTICAL_SMOKE_01 - original fictional STW presentation asset
# Axis: +X right, +Y forward, +Z up. Runtime binds the Atom material.
o STW_TACTICAL_SMOKE_01
g smoke_canister
v -0.100000 -0.150000 -0.100000
v 0.100000 -0.150000 -0.100000
v 0.100000 0.150000 -0.100000
v -0.100000 0.150000 -0.100000
v -0.100000 -0.150000 0.100000
v 0.100000 -0.150000 0.100000
v 0.100000 0.150000 0.100000
v -0.100000 0.150000 0.100000
f 1 2 3 4
f 5 8 7 6
f 1 5 6 2
f 2 6 7 3
f 3 7 8 4
f 4 8 5 1
g smoke_ring
v -0.130000 0.100000 -0.130000
v 0.130000 0.100000 -0.130000
v 0.130000 0.220000 -0.130000
v -0.130000 0.220000 -0.130000
v -0.130000 0.100000 0.130000
v 0.130000 0.100000 0.130000
v 0.130000 0.220000 0.130000
v -0.130000 0.220000 0.130000
f 9 10 11 12
f 13 16 15 14
f 9 13 14 10
f 10 14 15 11
f 11 15 16 12
f 12 16 13 9
