# STW_TACTICAL_SMOKE_01 - original fictional STW first-person weapon presentation asset
# Generated deterministically by tools/assets/create_stw_weapons.py
# Axis convention: +X right, +Y aim/forward, +Z up
# LOD node: LOD2
# parts: body, cap, base
# No mtllib / usemtl is emitted: the runtime binds one Atom StandardPBR material.
o STW_TACTICAL_SMOKE_01
v -0.034000 0.090000 -0.034000
v 0.034000 0.090000 -0.034000
v 0.034000 0.090000 0.034000
v -0.034000 0.090000 0.034000
v 0.034000 -0.040000 -0.034000
v -0.034000 -0.040000 -0.034000
v -0.034000 -0.040000 0.034000
v 0.034000 -0.040000 0.034000
v -0.024000 0.125000 -0.020000
v 0.024000 0.125000 -0.020000
v 0.024000 0.125000 0.020000
v -0.024000 0.125000 0.020000
v 0.030000 0.090000 -0.026000
v -0.030000 0.090000 -0.026000
v -0.030000 0.090000 0.026000
v 0.030000 0.090000 0.026000
v -0.032000 -0.040000 -0.020000
v 0.032000 -0.040000 -0.020000
v 0.032000 -0.040000 0.020000
v -0.032000 -0.040000 0.020000
v 0.032000 -0.070000 -0.020000
v -0.032000 -0.070000 -0.020000
v -0.032000 -0.070000 0.020000
v 0.032000 -0.070000 0.020000
vt -0.034000 -0.034000
vt 0.034000 -0.034000
vt 0.034000 0.034000
vt -0.034000 0.034000
vt 0.034000 -0.034000
vt -0.034000 -0.034000
vt -0.034000 0.034000
vt 0.034000 0.034000
vt -0.034000 -0.040000
vt 0.034000 -0.040000
vt 0.034000 0.090000
vt -0.034000 0.090000
vt -0.034000 -0.040000
vt -0.034000 0.090000
vt 0.034000 0.090000
vt 0.034000 -0.040000
vt -0.040000 -0.034000
vt -0.040000 0.034000
vt 0.090000 0.034000
vt 0.090000 -0.034000
vt -0.040000 -0.034000
vt 0.090000 -0.034000
vt 0.090000 0.034000
vt -0.040000 0.034000
vt -0.024000 -0.020000
vt 0.024000 -0.020000
vt 0.024000 0.020000
vt -0.024000 0.020000
vt 0.030000 -0.026000
vt -0.030000 -0.026000
vt -0.030000 0.026000
vt 0.030000 0.026000
vt -0.030000 0.090000
vt 0.030000 0.090000
vt 0.024000 0.125000
vt -0.024000 0.125000
vt -0.030000 0.090000
vt -0.024000 0.125000
vt 0.024000 0.125000
vt 0.030000 0.090000
vt 0.090000 -0.026000
vt 0.090000 0.026000
vt 0.125000 0.020000
vt 0.125000 -0.020000
vt 0.090000 -0.026000
vt 0.125000 -0.020000
vt 0.125000 0.020000
vt 0.090000 0.026000
vt -0.032000 -0.020000
vt 0.032000 -0.020000
vt 0.032000 0.020000
vt -0.032000 0.020000
vt 0.032000 -0.020000
vt -0.032000 -0.020000
vt -0.032000 0.020000
vt 0.032000 0.020000
vt -0.032000 -0.070000
vt 0.032000 -0.070000
vt 0.032000 -0.040000
vt -0.032000 -0.040000
vt -0.032000 -0.070000
vt -0.032000 -0.040000
vt 0.032000 -0.040000
vt 0.032000 -0.070000
vt -0.070000 -0.020000
vt -0.070000 0.020000
vt -0.040000 0.020000
vt -0.040000 -0.020000
vt -0.070000 -0.020000
vt -0.040000 -0.020000
vt -0.040000 0.020000
vt -0.070000 0.020000
vn 0.000000 -1.000000 0.000000
vn 0.000000 1.000000 0.000000
vn 0.000000 0.000000 1.000000
vn 0.000000 0.000000 -1.000000
vn -1.000000 0.000000 0.000000
vn 1.000000 0.000000 0.000000
vn 0.000000 -0.168964 0.985622
vn 0.000000 -0.168964 -0.985622
vn -0.985622 -0.168964 0.000000
vn 0.985622 -0.168964 0.000000
g LOD2
f 1/1/1 2/2/1 3/3/1 4/4/1
f 5/5/2 6/6/2 7/7/2 8/8/2
f 6/9/3 5/10/3 2/11/3 1/12/3
f 7/13/4 4/14/4 3/15/4 8/16/4
f 5/17/5 8/18/5 3/19/5 2/20/5
f 6/21/6 1/22/6 4/23/6 7/24/6
f 9/25/1 10/26/1 11/27/1 12/28/1
f 13/29/2 14/30/2 15/31/2 16/32/2
f 14/33/7 13/34/7 10/35/7 9/36/7
f 15/37/8 12/38/8 11/39/8 16/40/8
f 13/41/9 16/42/9 11/43/9 10/44/9
f 14/45/10 9/46/10 12/47/10 15/48/10
f 17/49/1 18/50/1 19/51/1 20/52/1
f 21/53/2 22/54/2 23/55/2 24/56/2
f 22/57/3 21/58/3 18/59/3 17/60/3
f 23/61/4 20/62/4 19/63/4 24/64/4
f 21/65/5 24/66/5 19/67/5 18/68/5
f 22/69/6 17/70/6 20/71/6 23/72/6
