# STW_LAUNCHER_01 - original fictional STW first-person weapon presentation asset
# Generated deterministically by tools/assets/create_stw_weapons.py
# Axis convention: +X right, +Y aim/forward, +Z up
# LOD node: LOD1
# parts: tube, breech, cap, grip, sight, shoulder, rail, fore
# No mtllib / usemtl is emitted: the runtime binds one Atom StandardPBR material.
o STW_LAUNCHER_01
v -0.070000 0.420000 -0.070000
v 0.070000 0.420000 -0.070000
v 0.070000 0.420000 0.070000
v -0.070000 0.420000 0.070000
v 0.070000 -0.080000 -0.070000
v -0.070000 -0.080000 -0.070000
v -0.070000 -0.080000 0.070000
v 0.070000 -0.080000 0.070000
v 0.078000 -0.240000 -0.078000
v -0.078000 -0.240000 -0.078000
v -0.078000 -0.240000 0.078000
v 0.078000 -0.240000 0.078000
v -0.060000 0.520000 -0.060000
v 0.060000 0.520000 -0.060000
v 0.060000 0.520000 0.060000
v -0.060000 0.520000 0.060000
v 0.074000 0.420000 -0.074000
v -0.074000 0.420000 -0.074000
v -0.074000 0.420000 0.074000
v 0.074000 0.420000 0.074000
v -0.022000 0.060000 -0.158000
v 0.022000 0.060000 -0.158000
v 0.022000 0.060000 -0.058000
v -0.022000 0.060000 -0.058000
v 0.022000 -0.040000 -0.170000
v -0.022000 -0.040000 -0.170000
v -0.022000 -0.040000 -0.070000
v 0.022000 -0.040000 -0.070000
v -0.024000 0.160000 0.076000
v 0.024000 0.160000 0.076000
v 0.024000 0.160000 0.116000
v -0.024000 0.160000 0.116000
v 0.024000 0.020000 0.080000
v -0.024000 0.020000 0.080000
v -0.024000 0.020000 0.120000
v 0.024000 0.020000 0.120000
v -0.060000 -0.180000 -0.050000
v 0.060000 -0.180000 -0.050000
v 0.060000 -0.180000 0.050000
v -0.060000 -0.180000 0.050000
v 0.060000 -0.300000 -0.060000
v -0.060000 -0.300000 -0.060000
v -0.060000 -0.300000 0.040000
v 0.060000 -0.300000 0.040000
v -0.016000 0.300000 0.068000
v 0.016000 0.300000 0.068000
v 0.016000 0.300000 0.088000
v -0.016000 0.300000 0.088000
v 0.016000 0.000000 0.072000
v -0.016000 0.000000 0.072000
v -0.016000 0.000000 0.092000
v 0.016000 0.000000 0.092000
v -0.020000 0.300000 -0.136000
v 0.020000 0.300000 -0.136000
v 0.020000 0.300000 -0.064000
v -0.020000 0.300000 -0.064000
v 0.020000 0.180000 -0.146000
v -0.020000 0.180000 -0.146000
v -0.020000 0.180000 -0.074000
v 0.020000 0.180000 -0.074000
vt -0.070000 -0.070000
vt 0.070000 -0.070000
vt 0.070000 0.070000
vt -0.070000 0.070000
vt 0.070000 -0.070000
vt -0.070000 -0.070000
vt -0.070000 0.070000
vt 0.070000 0.070000
vt -0.070000 -0.080000
vt 0.070000 -0.080000
vt 0.070000 0.420000
vt -0.070000 0.420000
vt -0.070000 -0.080000
vt -0.070000 0.420000
vt 0.070000 0.420000
vt 0.070000 -0.080000
vt -0.080000 -0.070000
vt -0.080000 0.070000
vt 0.420000 0.070000
vt 0.420000 -0.070000
vt -0.080000 -0.070000
vt 0.420000 -0.070000
vt 0.420000 0.070000
vt -0.080000 0.070000
vt -0.070000 -0.070000
vt 0.070000 -0.070000
vt 0.070000 0.070000
vt -0.070000 0.070000
vt 0.078000 -0.078000
vt -0.078000 -0.078000
vt -0.078000 0.078000
vt 0.078000 0.078000
vt -0.078000 -0.240000
vt 0.078000 -0.240000
vt 0.070000 -0.080000
vt -0.070000 -0.080000
vt -0.078000 -0.240000
vt -0.070000 -0.080000
vt 0.070000 -0.080000
vt 0.078000 -0.240000
vt -0.240000 -0.078000
vt -0.240000 0.078000
vt -0.080000 0.070000
vt -0.080000 -0.070000
vt -0.240000 -0.078000
vt -0.080000 -0.070000
vt -0.080000 0.070000
vt -0.240000 0.078000
vt -0.060000 -0.060000
vt 0.060000 -0.060000
vt 0.060000 0.060000
vt -0.060000 0.060000
vt 0.074000 -0.074000
vt -0.074000 -0.074000
vt -0.074000 0.074000
vt 0.074000 0.074000
vt -0.074000 0.420000
vt 0.074000 0.420000
vt 0.060000 0.520000
vt -0.060000 0.520000
vt -0.074000 0.420000
vt -0.060000 0.520000
vt 0.060000 0.520000
vt 0.074000 0.420000
vt 0.420000 -0.074000
vt 0.420000 0.074000
vt 0.520000 0.060000
vt 0.520000 -0.060000
vt 0.420000 -0.074000
vt 0.520000 -0.060000
vt 0.520000 0.060000
vt 0.420000 0.074000
vt -0.022000 -0.158000
vt 0.022000 -0.158000
vt 0.022000 -0.058000
vt -0.022000 -0.058000
vt 0.022000 -0.170000
vt -0.022000 -0.170000
vt -0.022000 -0.070000
vt 0.022000 -0.070000
vt -0.022000 -0.040000
vt 0.022000 -0.040000
vt 0.022000 0.060000
vt -0.022000 0.060000
vt -0.022000 -0.040000
vt -0.022000 0.060000
vt 0.022000 0.060000
vt 0.022000 -0.040000
vt -0.040000 -0.170000
vt -0.040000 -0.070000
vt 0.060000 -0.058000
vt 0.060000 -0.158000
vt -0.040000 -0.170000
vt 0.060000 -0.158000
vt 0.060000 -0.058000
vt -0.040000 -0.070000
vt -0.024000 0.076000
vt 0.024000 0.076000
vt 0.024000 0.116000
vt -0.024000 0.116000
vt 0.024000 0.080000
vt -0.024000 0.080000
vt -0.024000 0.120000
vt 0.024000 0.120000
vt -0.024000 0.020000
vt 0.024000 0.020000
vt 0.024000 0.160000
vt -0.024000 0.160000
vt -0.024000 0.020000
vt -0.024000 0.160000
vt 0.024000 0.160000
vt 0.024000 0.020000
vt 0.020000 0.080000
vt 0.020000 0.120000
vt 0.160000 0.116000
vt 0.160000 0.076000
vt 0.020000 0.080000
vt 0.160000 0.076000
vt 0.160000 0.116000
vt 0.020000 0.120000
vt -0.060000 -0.050000
vt 0.060000 -0.050000
vt 0.060000 0.050000
vt -0.060000 0.050000
vt 0.060000 -0.060000
vt -0.060000 -0.060000
vt -0.060000 0.040000
vt 0.060000 0.040000
vt -0.060000 -0.300000
vt 0.060000 -0.300000
vt 0.060000 -0.180000
vt -0.060000 -0.180000
vt -0.060000 -0.300000
vt -0.060000 -0.180000
vt 0.060000 -0.180000
vt 0.060000 -0.300000
vt -0.300000 -0.060000
vt -0.300000 0.040000
vt -0.180000 0.050000
vt -0.180000 -0.050000
vt -0.300000 -0.060000
vt -0.180000 -0.050000
vt -0.180000 0.050000
vt -0.300000 0.040000
vt -0.016000 0.068000
vt 0.016000 0.068000
vt 0.016000 0.088000
vt -0.016000 0.088000
vt 0.016000 0.072000
vt -0.016000 0.072000
vt -0.016000 0.092000
vt 0.016000 0.092000
vt -0.016000 0.000000
vt 0.016000 0.000000
vt 0.016000 0.300000
vt -0.016000 0.300000
vt -0.016000 0.000000
vt -0.016000 0.300000
vt 0.016000 0.300000
vt 0.016000 0.000000
vt 0.000000 0.072000
vt 0.000000 0.092000
vt 0.300000 0.088000
vt 0.300000 0.068000
vt 0.000000 0.072000
vt 0.300000 0.068000
vt 0.300000 0.088000
vt 0.000000 0.092000
vt -0.020000 -0.136000
vt 0.020000 -0.136000
vt 0.020000 -0.064000
vt -0.020000 -0.064000
vt 0.020000 -0.146000
vt -0.020000 -0.146000
vt -0.020000 -0.074000
vt 0.020000 -0.074000
vt -0.020000 0.180000
vt 0.020000 0.180000
vt 0.020000 0.300000
vt -0.020000 0.300000
vt -0.020000 0.180000
vt -0.020000 0.300000
vt 0.020000 0.300000
vt 0.020000 0.180000
vt 0.180000 -0.146000
vt 0.180000 -0.074000
vt 0.300000 -0.064000
vt 0.300000 -0.136000
vt 0.180000 -0.146000
vt 0.300000 -0.136000
vt 0.300000 -0.064000
vt 0.180000 -0.074000
vn 0.000000 -1.000000 0.000000
vn 0.000000 1.000000 0.000000
vn 0.000000 0.000000 1.000000
vn 0.000000 0.000000 -1.000000
vn -1.000000 0.000000 0.000000
vn 1.000000 0.000000 0.000000
vn 0.000000 -0.049938 0.998752
vn 0.000000 -0.049938 -0.998752
vn -0.998752 -0.049938 0.000000
vn 0.998752 -0.049938 0.000000
vn 0.000000 -0.138648 0.990342
vn 0.000000 -0.138648 -0.990342
vn -0.990342 -0.138648 0.000000
vn 0.990342 -0.138648 0.000000
vn 0.000000 -0.119145 0.992877
vn 0.000000 0.119145 -0.992877
vn -0.000000 0.028560 0.999592
vn 0.000000 -0.028560 -0.999592
vn 0.000000 -0.083045 0.996546
vn 0.000000 0.083045 -0.996546
vn -0.000000 0.013332 0.999911
vn 0.000000 -0.013332 -0.999911
g LOD1
f 1/1/1 2/2/1 3/3/1 4/4/1
f 5/5/2 6/6/2 7/7/2 8/8/2
f 6/9/3 5/10/3 2/11/3 1/12/3
f 7/13/4 4/14/4 3/15/4 8/16/4
f 5/17/5 8/18/5 3/19/5 2/20/5
f 6/21/6 1/22/6 4/23/6 7/24/6
f 6/25/1 5/26/1 8/27/1 7/28/1
f 9/29/2 10/30/2 11/31/2 12/32/2
f 10/33/7 9/34/7 5/35/7 6/36/7
f 11/37/8 7/38/8 8/39/8 12/40/8
f 9/41/9 12/42/9 8/43/9 5/44/9
f 10/45/10 6/46/10 7/47/10 11/48/10
f 13/49/1 14/50/1 15/51/1 16/52/1
f 17/53/2 18/54/2 19/55/2 20/56/2
f 18/57/11 17/58/11 14/59/11 13/60/11
f 19/61/12 16/62/12 15/63/12 20/64/12
f 17/65/13 20/66/13 15/67/13 14/68/13
f 18/69/14 13/70/14 16/71/14 19/72/14
f 21/73/1 22/74/1 23/75/1 24/76/1
f 25/77/2 26/78/2 27/79/2 28/80/2
f 26/81/15 25/82/15 22/83/15 21/84/15
f 27/85/16 24/86/16 23/87/16 28/88/16
f 25/89/5 28/90/5 23/91/5 22/92/5
f 26/93/6 21/94/6 24/95/6 27/96/6
f 29/97/1 30/98/1 31/99/1 32/100/1
f 33/101/2 34/102/2 35/103/2 36/104/2
f 34/105/17 33/106/17 30/107/17 29/108/17
f 35/109/18 32/110/18 31/111/18 36/112/18
f 33/113/5 36/114/5 31/115/5 30/116/5
f 34/117/6 29/118/6 32/119/6 35/120/6
f 37/121/1 38/122/1 39/123/1 40/124/1
f 41/125/2 42/126/2 43/127/2 44/128/2
f 42/129/19 41/130/19 38/131/19 37/132/19
f 43/133/20 40/134/20 39/135/20 44/136/20
f 41/137/5 44/138/5 39/139/5 38/140/5
f 42/141/6 37/142/6 40/143/6 43/144/6
f 45/145/1 46/146/1 47/147/1 48/148/1
f 49/149/2 50/150/2 51/151/2 52/152/2
f 50/153/21 49/154/21 46/155/21 45/156/21
f 51/157/22 48/158/22 47/159/22 52/160/22
f 49/161/5 52/162/5 47/163/5 46/164/5
f 50/165/6 45/166/6 48/167/6 51/168/6
f 53/169/1 54/170/1 55/171/1 56/172/1
f 57/173/2 58/174/2 59/175/2 60/176/2
f 58/177/19 57/178/19 54/179/19 53/180/19
f 59/181/20 56/182/20 55/183/20 60/184/20
f 57/185/5 60/186/5 55/187/5 54/188/5
f 58/189/6 53/190/6 56/191/6 59/192/6
