# STW_LAUNCHER_01 - original fictional STW first-person weapon presentation asset
# Generated deterministically by tools/assets/create_stw_weapons.py
# Axis convention: +X right, +Y aim/forward, +Z up
# LOD node: LOD2
# parts: tube, breech, cap, grip
# No mtllib / usemtl is emitted: the runtime binds one Atom StandardPBR material.
o STW_LAUNCHER_01
v -0.070000 0.420000 -0.070000
v 0.070000 0.420000 -0.070000
v 0.070000 0.420000 0.070000
v -0.070000 0.420000 0.070000
v 0.070000 -0.080000 -0.070000
v -0.070000 -0.080000 -0.070000
v -0.070000 -0.080000 0.070000
v 0.070000 -0.080000 0.070000
v 0.078000 -0.240000 -0.078000
v -0.078000 -0.240000 -0.078000
v -0.078000 -0.240000 0.078000
v 0.078000 -0.240000 0.078000
v -0.060000 0.520000 -0.060000
v 0.060000 0.520000 -0.060000
v 0.060000 0.520000 0.060000
v -0.060000 0.520000 0.060000
v 0.074000 0.420000 -0.074000
v -0.074000 0.420000 -0.074000
v -0.074000 0.420000 0.074000
v 0.074000 0.420000 0.074000
v -0.022000 0.060000 -0.158000
v 0.022000 0.060000 -0.158000
v 0.022000 0.060000 -0.058000
v -0.022000 0.060000 -0.058000
v 0.022000 -0.040000 -0.170000
v -0.022000 -0.040000 -0.170000
v -0.022000 -0.040000 -0.070000
v 0.022000 -0.040000 -0.070000
vt -0.070000 -0.070000
vt 0.070000 -0.070000
vt 0.070000 0.070000
vt -0.070000 0.070000
vt 0.070000 -0.070000
vt -0.070000 -0.070000
vt -0.070000 0.070000
vt 0.070000 0.070000
vt -0.070000 -0.080000
vt 0.070000 -0.080000
vt 0.070000 0.420000
vt -0.070000 0.420000
vt -0.070000 -0.080000
vt -0.070000 0.420000
vt 0.070000 0.420000
vt 0.070000 -0.080000
vt -0.080000 -0.070000
vt -0.080000 0.070000
vt 0.420000 0.070000
vt 0.420000 -0.070000
vt -0.080000 -0.070000
vt 0.420000 -0.070000
vt 0.420000 0.070000
vt -0.080000 0.070000
vt -0.070000 -0.070000
vt 0.070000 -0.070000
vt 0.070000 0.070000
vt -0.070000 0.070000
vt 0.078000 -0.078000
vt -0.078000 -0.078000
vt -0.078000 0.078000
vt 0.078000 0.078000
vt -0.078000 -0.240000
vt 0.078000 -0.240000
vt 0.070000 -0.080000
vt -0.070000 -0.080000
vt -0.078000 -0.240000
vt -0.070000 -0.080000
vt 0.070000 -0.080000
vt 0.078000 -0.240000
vt -0.240000 -0.078000
vt -0.240000 0.078000
vt -0.080000 0.070000
vt -0.080000 -0.070000
vt -0.240000 -0.078000
vt -0.080000 -0.070000
vt -0.080000 0.070000
vt -0.240000 0.078000
vt -0.060000 -0.060000
vt 0.060000 -0.060000
vt 0.060000 0.060000
vt -0.060000 0.060000
vt 0.074000 -0.074000
vt -0.074000 -0.074000
vt -0.074000 0.074000
vt 0.074000 0.074000
vt -0.074000 0.420000
vt 0.074000 0.420000
vt 0.060000 0.520000
vt -0.060000 0.520000
vt -0.074000 0.420000
vt -0.060000 0.520000
vt 0.060000 0.520000
vt 0.074000 0.420000
vt 0.420000 -0.074000
vt 0.420000 0.074000
vt 0.520000 0.060000
vt 0.520000 -0.060000
vt 0.420000 -0.074000
vt 0.520000 -0.060000
vt 0.520000 0.060000
vt 0.420000 0.074000
vt -0.022000 -0.158000
vt 0.022000 -0.158000
vt 0.022000 -0.058000
vt -0.022000 -0.058000
vt 0.022000 -0.170000
vt -0.022000 -0.170000
vt -0.022000 -0.070000
vt 0.022000 -0.070000
vt -0.022000 -0.040000
vt 0.022000 -0.040000
vt 0.022000 0.060000
vt -0.022000 0.060000
vt -0.022000 -0.040000
vt -0.022000 0.060000
vt 0.022000 0.060000
vt 0.022000 -0.040000
vt -0.040000 -0.170000
vt -0.040000 -0.070000
vt 0.060000 -0.058000
vt 0.060000 -0.158000
vt -0.040000 -0.170000
vt 0.060000 -0.158000
vt 0.060000 -0.058000
vt -0.040000 -0.070000
vn 0.000000 -1.000000 0.000000
vn 0.000000 1.000000 0.000000
vn 0.000000 0.000000 1.000000
vn 0.000000 0.000000 -1.000000
vn -1.000000 0.000000 0.000000
vn 1.000000 0.000000 0.000000
vn 0.000000 -0.049938 0.998752
vn 0.000000 -0.049938 -0.998752
vn -0.998752 -0.049938 0.000000
vn 0.998752 -0.049938 0.000000
vn 0.000000 -0.138648 0.990342
vn 0.000000 -0.138648 -0.990342
vn -0.990342 -0.138648 0.000000
vn 0.990342 -0.138648 0.000000
vn 0.000000 -0.119145 0.992877
vn 0.000000 0.119145 -0.992877
g LOD2
f 1/1/1 2/2/1 3/3/1 4/4/1
f 5/5/2 6/6/2 7/7/2 8/8/2
f 6/9/3 5/10/3 2/11/3 1/12/3
f 7/13/4 4/14/4 3/15/4 8/16/4
f 5/17/5 8/18/5 3/19/5 2/20/5
f 6/21/6 1/22/6 4/23/6 7/24/6
f 6/25/1 5/26/1 8/27/1 7/28/1
f 9/29/2 10/30/2 11/31/2 12/32/2
f 10/33/7 9/34/7 5/35/7 6/36/7
f 11/37/8 7/38/8 8/39/8 12/40/8
f 9/41/9 12/42/9 8/43/9 5/44/9
f 10/45/10 6/46/10 7/47/10 11/48/10
f 13/49/1 14/50/1 15/51/1 16/52/1
f 17/53/2 18/54/2 19/55/2 20/56/2
f 18/57/11 17/58/11 14/59/11 13/60/11
f 19/61/12 16/62/12 15/63/12 20/64/12
f 17/65/13 20/66/13 15/67/13 14/68/13
f 18/69/14 13/70/14 16/71/14 19/72/14
f 21/73/1 22/74/1 23/75/1 24/76/1
f 25/77/2 26/78/2 27/79/2 28/80/2
f 26/81/15 25/82/15 22/83/15 21/84/15
f 27/85/16 24/86/16 23/87/16 28/88/16
f 25/89/5 28/90/5 23/91/5 22/92/5
f 26/93/6 21/94/6 24/95/6 27/96/6
