# STW_LAUNCHER_01 - original fictional STW first-person presentation asset
# Axis: +X right, +Y aim/forward, +Z up. Runtime binds the Atom material.
o STW_LAUNCHER_01
g launch_cell
v -0.120000 -0.300000 -0.100000
v 0.120000 -0.300000 -0.100000
v 0.120000 0.260000 -0.100000
v -0.120000 0.260000 -0.100000
v -0.120000 -0.300000 0.100000
v 0.120000 -0.300000 0.100000
v 0.120000 0.260000 0.100000
v -0.120000 0.260000 0.100000
f 1 2 3 4
f 5 8 7 6
f 1 5 6 2
f 2 6 7 3
f 3 7 8 4
f 4 8 5 1
g forward_cap
v -0.150000 0.240000 -0.150000
v 0.150000 0.240000 -0.150000
v 0.150000 0.500000 -0.150000
v -0.150000 0.500000 -0.150000
v -0.150000 0.240000 0.150000
v 0.150000 0.240000 0.150000
v 0.150000 0.500000 0.150000
v -0.150000 0.500000 0.150000
f 9 10 11 12
f 13 16 15 14
f 9 13 14 10
f 10 14 15 11
f 11 15 16 12
f 12 16 13 9
